<?xml version="1.0" encoding="utf-8" standalone="no"?>
<!DOCTYPE svg PUBLIC "-//W3C//DTD SVG 1.1//EN"
  "http://www.w3.org/Graphics/SVG/1.1/DTD/svg11.dtd">
<svg xmlns:xlink="http://www.w3.org/1999/xlink" width="419.4pt" height="338.4pt" viewBox="0 0 419.4 338.4" xmlns="http://www.w3.org/2000/svg" version="1.1">
 <metadata>
  <rdf:RDF xmlns:dc="http://purl.org/dc/elements/1.1/" xmlns:cc="http://creativecommons.org/ns#" xmlns:rdf="http://www.w3.org/1999/02/22-rdf-syntax-ns#">
   <cc:Work>
    <dc:type rdf:resource="http://purl.org/dc/dcmitype/StillImage"/>
    <dc:date>2024-12-04T13:19:05.496682</dc:date>
    <dc:format>image/svg+xml</dc:format>
    <dc:creator>
     <cc:Agent>
      <dc:title>Matplotlib v3.6.2, https://matplotlib.org/</dc:title>
     </cc:Agent>
    </dc:creator>
   </cc:Work>
  </rdf:RDF>
 </metadata>
 <defs>
  <style type="text/css">*{stroke-linejoin: round; stroke-linecap: butt}</style>
 </defs>
 <g id="figure_1">
  <g id="patch_1">
   <path d="M 0 338.4 
L 419.4 338.4 
L 419.4 0 
L 0 0 
z
" style="fill: #ffffff"/>
  </g>
  <g id="axes_1">
   <g id="patch_2">
    <path d="M 7.2 331.2 
L 412.2 331.2 
L 412.2 7.2 
L 7.2 7.2 
z
" style="fill: #ffffff"/>
   </g>
   <g id="matplotlib.axis_1"/>
   <g id="matplotlib.axis_2"/>
   <g id="line2d_1">
    <path d="M 216.828293 -1 
L 217.744994 18.397815 
L 218.741587 35.019727 
L 219.784411 48.895236 
L 220.900158 60.879858 
L 222.128377 71.584464 
L 223.436543 80.880641 
L 224.720452 88.429952 
L 226.024584 94.882475 
L 227.341175 100.428921 
L 228.940822 106.146421 
L 230.514241 110.912855 
L 232.307191 115.535541 
L 234.000667 119.275335 
L 235.868246 122.838365 
L 237.704965 125.879016 
L 239.996847 129.156142 
L 242.469658 132.177866 
L 245.185731 135.011535 
L 247.823315 137.376884 
L 250.645996 139.570664 
L 252.991902 141.176222 
L 255.801729 142.884226 
L 259.274181 144.72753 
L 263.734838 146.747769 
L 267.71116 148.286737 
L 272.313904 149.824069 
L 277.708598 151.36104 
L 283.57743 152.778169 
L 289.520215 154.000809 
L 296.937991 155.293184 
L 305.602548 156.549631 
L 314.981173 157.676547 
L 326.642658 158.825662 
L 339.733084 159.870046 
L 355.302246 160.867693 
L 372.393202 161.743003 
L 394.093297 162.620571 
L 404.411538 162.969231 
L 404.411538 162.969231 
" clip-path="url(#p940d6577a6)" style="fill: none; stroke: #0000ff; stroke-linecap: square"/>
   </g>
   <g id="line2d_2">
    <path d="M 14.988462 169.2 
L 404.411538 169.2 
L 404.411538 169.2 
" clip-path="url(#p940d6577a6)" style="fill: none; stroke-dasharray: 2,3.3; stroke-dashoffset: 0; stroke: #ff0000; stroke-width: 2"/>
   </g>
   <g id="line2d_3">
    <path d="M 14.988462 175.430769 
L 39.033241 176.308606 
L 59.187605 177.260483 
L 76.112337 178.281697 
L 89.35921 179.281392 
L 101.859721 180.449996 
L 112.30835 181.656947 
L 121.367484 182.934497 
L 129.008606 184.235094 
L 135.715146 185.597987 
L 141.082027 186.880538 
L 145.956496 188.232569 
L 150.849621 189.815036 
L 154.594492 191.215996 
L 157.486058 192.435225 
L 161.51654 194.37882 
L 165.050672 196.371801 
L 167.655186 198.05499 
L 169.8672 199.657378 
L 172.654891 201.949334 
L 174.936597 204.098847 
L 177.320774 206.66855 
L 179.486647 209.354519 
L 181.756436 212.616174 
L 183.768378 215.984682 
L 185.631405 219.606044 
L 187.439056 223.699156 
L 188.871681 227.447747 
L 190.235189 231.527997 
L 191.750564 236.790014 
L 193.239417 242.903507 
L 194.533255 249.190971 
L 195.738715 256.097636 
L 196.849434 263.608503 
L 198.058995 273.418031 
L 199.148539 284.179593 
L 200.151137 296.25205 
L 201.172074 311.462338 
L 202.045157 327.688256 
L 202.571727 339.4 
L 202.571727 339.4 
" clip-path="url(#p940d6577a6)" style="fill: none; stroke: #0000ff; stroke-linecap: square"/>
   </g>
   <g id="patch_3">
    <path d="M 209.7 331.2 
L 209.7 7.2 
" style="fill: none; stroke: #000000; stroke-width: 0.8; stroke-linejoin: miter; stroke-linecap: square"/>
   </g>
   <g id="patch_4">
    <path d="M 7.2 169.2 
L 412.2 169.2 
" style="fill: none; stroke: #000000; stroke-width: 0.8; stroke-linejoin: miter; stroke-linecap: square"/>
   </g>
  </g>
 </g>
 <defs>
  <clipPath id="p940d6577a6">
   <rect x="7.2" y="7.2" width="405" height="324"/>
  </clipPath>
 </defs>
</svg>
