<?xml version="1.0" encoding="utf-8" standalone="no"?>
<!DOCTYPE svg PUBLIC "-//W3C//DTD SVG 1.1//EN"
  "http://www.w3.org/Graphics/SVG/1.1/DTD/svg11.dtd">
<svg xmlns:xlink="http://www.w3.org/1999/xlink" width="453.6pt" height="337.397538pt" viewBox="0 0 453.6 337.397538" xmlns="http://www.w3.org/2000/svg" version="1.1">
 <metadata>
  <rdf:RDF xmlns:dc="http://purl.org/dc/elements/1.1/" xmlns:cc="http://creativecommons.org/ns#" xmlns:rdf="http://www.w3.org/1999/02/22-rdf-syntax-ns#">
   <cc:Work>
    <dc:type rdf:resource="http://purl.org/dc/dcmitype/StillImage"/>
    <dc:date>2024-12-04T13:19:35.254403</dc:date>
    <dc:format>image/svg+xml</dc:format>
    <dc:creator>
     <cc:Agent>
      <dc:title>Matplotlib v3.6.2, https://matplotlib.org/</dc:title>
     </cc:Agent>
    </dc:creator>
   </cc:Work>
  </rdf:RDF>
 </metadata>
 <defs>
  <style type="text/css">*{stroke-linejoin: round; stroke-linecap: butt}</style>
 </defs>
 <g id="figure_1">
  <g id="patch_1">
   <path d="M 0 337.397538 
L 453.6 337.397538 
L 453.6 0 
L 0 0 
z
" style="fill: #ffffff"/>
  </g>
  <g id="axes_1">
   <g id="patch_2">
    <path d="M 7.2 330.197538 
L 446.4 330.197538 
L 446.4 7.2 
L 7.2 7.2 
z
" style="fill: #ffffff"/>
   </g>
   <g id="matplotlib.axis_1">
    <g id="xtick_1">
     <g id="line2d_1">
      <defs>
       <path id="me9bbf0bedf" d="M 0 0 
L 0 3.5 
" style="stroke: #000000; stroke-width: 0.8"/>
      </defs>
      <g>
       <use xlink:href="#me9bbf0bedf" x="68.434615" y="168.698769" style="stroke: #000000; stroke-width: 0.8"/>
      </g>
     </g>
     <g id="text_1">
      <!-- $-\frac{3}{2} \, \pi$ -->
      <g transform="translate(58.584615 184.298769) scale(0.1 -0.1)">
       <defs>
        <path id="Cmsy10-a1" d="M 653 1472 
Q 600 1472 565 1512 
Q 531 1553 531 1600 
Q 531 1647 565 1687 
Q 600 1728 653 1728 
L 4325 1728 
Q 4375 1728 4408 1687 
Q 4441 1647 4441 1600 
Q 4441 1553 4408 1512 
Q 4375 1472 4325 1472 
L 653 1472 
z
" transform="scale(0.015625)"/>
        <path id="Cmr10-33" d="M 609 494 
Q 759 275 1012 169 
Q 1266 63 1556 63 
Q 1928 63 2084 380 
Q 2241 697 2241 1100 
Q 2241 1281 2208 1462 
Q 2175 1644 2097 1800 
Q 2019 1956 1883 2050 
Q 1747 2144 1550 2144 
L 1125 2144 
Q 1069 2144 1069 2203 
L 1069 2259 
Q 1069 2309 1125 2309 
L 1478 2338 
Q 1703 2338 1851 2506 
Q 2000 2675 2069 2917 
Q 2138 3159 2138 3378 
Q 2138 3684 1994 3881 
Q 1850 4078 1556 4078 
Q 1313 4078 1091 3986 
Q 869 3894 738 3706 
Q 750 3709 759 3711 
Q 769 3713 781 3713 
Q 925 3713 1022 3613 
Q 1119 3513 1119 3372 
Q 1119 3234 1022 3134 
Q 925 3034 781 3034 
Q 641 3034 541 3134 
Q 441 3234 441 3372 
Q 441 3647 606 3850 
Q 772 4053 1033 4158 
Q 1294 4263 1556 4263 
Q 1750 4263 1965 4205 
Q 2181 4147 2356 4039 
Q 2531 3931 2642 3762 
Q 2753 3594 2753 3378 
Q 2753 3109 2633 2881 
Q 2513 2653 2303 2487 
Q 2094 2322 1844 2241 
Q 2122 2188 2372 2031 
Q 2622 1875 2773 1631 
Q 2925 1388 2925 1106 
Q 2925 753 2731 467 
Q 2538 181 2222 20 
Q 1906 -141 1556 -141 
Q 1256 -141 954 -26 
Q 653 88 461 316 
Q 269 544 269 863 
Q 269 1022 375 1128 
Q 481 1234 641 1234 
Q 744 1234 830 1186 
Q 916 1138 964 1050 
Q 1013 963 1013 863 
Q 1013 706 903 600 
Q 794 494 641 494 
L 609 494 
z
" transform="scale(0.015625)"/>
        <path id="Cmr10-32" d="M 319 0 
L 319 172 
Q 319 188 331 206 
L 1325 1306 
Q 1550 1550 1690 1715 
Q 1831 1881 1968 2097 
Q 2106 2313 2186 2536 
Q 2266 2759 2266 3009 
Q 2266 3272 2169 3511 
Q 2072 3750 1880 3894 
Q 1688 4038 1416 4038 
Q 1138 4038 916 3870 
Q 694 3703 603 3438 
Q 628 3444 672 3444 
Q 816 3444 917 3347 
Q 1019 3250 1019 3097 
Q 1019 2950 917 2848 
Q 816 2747 672 2747 
Q 522 2747 420 2851 
Q 319 2956 319 3097 
Q 319 3338 409 3548 
Q 500 3759 670 3923 
Q 841 4088 1055 4175 
Q 1269 4263 1509 4263 
Q 1875 4263 2190 4108 
Q 2506 3953 2690 3670 
Q 2875 3388 2875 3009 
Q 2875 2731 2753 2481 
Q 2631 2231 2440 2026 
Q 2250 1822 1953 1562 
Q 1656 1303 1563 1216 
L 838 519 
L 1453 519 
Q 1906 519 2211 526 
Q 2516 534 2534 550 
Q 2609 631 2688 1141 
L 2875 1141 
L 2694 0 
L 319 0 
z
" transform="scale(0.015625)"/>
        <path id="Cmmi10-bc" d="M 647 109 
Q 647 144 672 213 
Q 850 584 1004 942 
Q 1159 1300 1282 1639 
Q 1406 1978 1509 2363 
L 1100 2363 
Q 866 2363 662 2216 
Q 459 2069 325 1844 
Q 313 1819 288 1819 
L 213 1819 
Q 153 1819 153 1881 
Q 153 1894 166 1919 
Q 375 2275 614 2517 
Q 853 2759 1153 2759 
L 3475 2759 
Q 3541 2759 3587 2715 
Q 3634 2672 3634 2597 
Q 3634 2503 3567 2433 
Q 3500 2363 3406 2363 
L 2591 2363 
Q 2488 1859 2478 1381 
Q 2478 766 2694 269 
Q 2713 231 2713 191 
Q 2713 122 2672 62 
Q 2631 3 2567 -34 
Q 2503 -72 2431 -72 
Q 2263 -72 2200 203 
Q 2138 478 2138 738 
Q 2138 1103 2200 1442 
Q 2263 1781 2400 2363 
L 1703 2363 
Q 1197 313 1094 103 
Q 1003 -72 844 -72 
Q 766 -72 706 -20 
Q 647 31 647 109 
z
" transform="scale(0.015625)"/>
       </defs>
       <use xlink:href="#Cmsy10-a1" transform="translate(0 0.33125)"/>
       <use xlink:href="#Cmr10-33" transform="translate(77.685547 39.373438) scale(0.7)"/>
       <use xlink:href="#Cmr10-32" transform="translate(77.685547 -40.045312) scale(0.7)"/>
       <use xlink:href="#Cmmi10-bc" transform="translate(139.818001 0.33125)"/>
       <path d="M 77.685547 12.83125 
L 77.685547 19.08125 
L 112.685547 19.08125 
L 112.685547 12.83125 
L 77.685547 12.83125 
z
"/>
      </g>
     </g>
    </g>
    <g id="xtick_2">
     <g id="line2d_2">
      <g>
       <use xlink:href="#me9bbf0bedf" x="174.011538" y="168.698769" style="stroke: #000000; stroke-width: 0.8"/>
      </g>
     </g>
     <g id="text_2">
      <!-- $-\frac{1}{2} \, \pi$ -->
      <g transform="translate(164.161538 184.198769) scale(0.1 -0.1)">
       <defs>
        <path id="Cmr10-31" d="M 594 0 
L 594 225 
Q 1394 225 1394 428 
L 1394 3788 
Q 1063 3628 556 3628 
L 556 3853 
Q 1341 3853 1741 4263 
L 1831 4263 
Q 1853 4263 1873 4245 
Q 1894 4228 1894 4206 
L 1894 428 
Q 1894 225 2694 225 
L 2694 0 
L 594 0 
z
" transform="scale(0.015625)"/>
       </defs>
       <use xlink:href="#Cmsy10-a1" transform="translate(0 0.873437)"/>
       <use xlink:href="#Cmr10-31" transform="translate(77.685547 38.373438) scale(0.7)"/>
       <use xlink:href="#Cmr10-32" transform="translate(77.685547 -39.503125) scale(0.7)"/>
       <use xlink:href="#Cmmi10-bc" transform="translate(139.818001 0.873437)"/>
       <path d="M 77.685547 13.373437 
L 77.685547 19.623437 
L 112.685547 19.623437 
L 112.685547 13.373437 
L 77.685547 13.373437 
z
"/>
      </g>
     </g>
    </g>
    <g id="xtick_3">
     <g id="line2d_3">
      <g>
       <use xlink:href="#me9bbf0bedf" x="279.588462" y="168.698769" style="stroke: #000000; stroke-width: 0.8"/>
      </g>
     </g>
     <g id="text_3">
      <!-- $\frac{1}{2} \, \pi$ -->
      <g transform="translate(273.588462 184.198769) scale(0.1 -0.1)">
       <use xlink:href="#Cmr10-31" transform="translate(0 38.373438) scale(0.7)"/>
       <use xlink:href="#Cmr10-32" transform="translate(0 -39.503125) scale(0.7)"/>
       <use xlink:href="#Cmmi10-bc" transform="translate(62.132454 0.873437)"/>
       <path d="M 0 13.373437 
L 0 19.623437 
L 35 19.623437 
L 35 13.373437 
L 0 13.373437 
z
"/>
      </g>
     </g>
    </g>
    <g id="xtick_4">
     <g id="line2d_4">
      <g>
       <use xlink:href="#me9bbf0bedf" x="385.165385" y="168.698769" style="stroke: #000000; stroke-width: 0.8"/>
      </g>
     </g>
     <g id="text_4">
      <!-- $\frac{3}{2} \, \pi$ -->
      <g transform="translate(379.165385 184.298769) scale(0.1 -0.1)">
       <use xlink:href="#Cmr10-33" transform="translate(0 39.373438) scale(0.7)"/>
       <use xlink:href="#Cmr10-32" transform="translate(0 -40.045312) scale(0.7)"/>
       <use xlink:href="#Cmmi10-bc" transform="translate(62.132454 0.33125)"/>
       <path d="M 0 12.83125 
L 0 19.08125 
L 35 19.08125 
L 35 12.83125 
L 0 12.83125 
z
"/>
      </g>
     </g>
    </g>
   </g>
   <g id="matplotlib.axis_2">
    <g id="ytick_1">
     <g id="line2d_5">
      <defs>
       <path id="mb245f5986f" d="M 0 0 
L -3.5 0 
" style="stroke: #000000; stroke-width: 0.8"/>
      </defs>
      <g>
       <use xlink:href="#mb245f5986f" x="226.8" y="323.986047" style="stroke: #000000; stroke-width: 0.8"/>
      </g>
     </g>
     <g id="text_5">
      <!-- −10 -->
      <g transform="translate(198.695312 327.785266) scale(0.1 -0.1)">
       <defs>
        <path id="DejaVuSans-2212" d="M 678 2272 
L 4684 2272 
L 4684 1741 
L 678 1741 
L 678 2272 
z
" transform="scale(0.015625)"/>
        <path id="DejaVuSans-31" d="M 794 531 
L 1825 531 
L 1825 4091 
L 703 3866 
L 703 4441 
L 1819 4666 
L 2450 4666 
L 2450 531 
L 3481 531 
L 3481 0 
L 794 0 
L 794 531 
z
" transform="scale(0.015625)"/>
        <path id="DejaVuSans-30" d="M 2034 4250 
Q 1547 4250 1301 3770 
Q 1056 3291 1056 2328 
Q 1056 1369 1301 889 
Q 1547 409 2034 409 
Q 2525 409 2770 889 
Q 3016 1369 3016 2328 
Q 3016 3291 2770 3770 
Q 2525 4250 2034 4250 
z
M 2034 4750 
Q 2819 4750 3233 4129 
Q 3647 3509 3647 2328 
Q 3647 1150 3233 529 
Q 2819 -91 2034 -91 
Q 1250 -91 836 529 
Q 422 1150 422 2328 
Q 422 3509 836 4129 
Q 1250 4750 2034 4750 
z
" transform="scale(0.015625)"/>
       </defs>
       <use xlink:href="#DejaVuSans-2212"/>
       <use xlink:href="#DejaVuSans-31" x="83.789062"/>
       <use xlink:href="#DejaVuSans-30" x="147.412109"/>
      </g>
     </g>
    </g>
    <g id="ytick_2">
     <g id="line2d_6">
      <g>
       <use xlink:href="#mb245f5986f" x="226.8" y="246.342408" style="stroke: #000000; stroke-width: 0.8"/>
      </g>
     </g>
     <g id="text_6">
      <!-- −5 -->
      <g transform="translate(205.057812 250.141627) scale(0.1 -0.1)">
       <defs>
        <path id="DejaVuSans-35" d="M 691 4666 
L 3169 4666 
L 3169 4134 
L 1269 4134 
L 1269 2991 
Q 1406 3038 1543 3061 
Q 1681 3084 1819 3084 
Q 2600 3084 3056 2656 
Q 3513 2228 3513 1497 
Q 3513 744 3044 326 
Q 2575 -91 1722 -91 
Q 1428 -91 1123 -41 
Q 819 9 494 109 
L 494 744 
Q 775 591 1075 516 
Q 1375 441 1709 441 
Q 2250 441 2565 725 
Q 2881 1009 2881 1497 
Q 2881 1984 2565 2268 
Q 2250 2553 1709 2553 
Q 1456 2553 1204 2497 
Q 953 2441 691 2322 
L 691 4666 
z
" transform="scale(0.015625)"/>
       </defs>
       <use xlink:href="#DejaVuSans-2212"/>
       <use xlink:href="#DejaVuSans-35" x="83.789062"/>
      </g>
     </g>
    </g>
    <g id="ytick_3">
     <g id="line2d_7">
      <g>
       <use xlink:href="#mb245f5986f" x="226.8" y="91.05513" style="stroke: #000000; stroke-width: 0.8"/>
      </g>
     </g>
     <g id="text_7">
      <!-- 5 -->
      <g transform="translate(213.4375 94.854349) scale(0.1 -0.1)">
       <use xlink:href="#DejaVuSans-35"/>
      </g>
     </g>
    </g>
    <g id="ytick_4">
     <g id="line2d_8">
      <g>
       <use xlink:href="#mb245f5986f" x="226.8" y="13.411491" style="stroke: #000000; stroke-width: 0.8"/>
      </g>
     </g>
     <g id="text_8">
      <!-- 10 -->
      <g transform="translate(207.075 17.21071) scale(0.1 -0.1)">
       <use xlink:href="#DejaVuSans-31"/>
       <use xlink:href="#DejaVuSans-30" x="63.623047"/>
      </g>
     </g>
    </g>
   </g>
   <g id="line2d_9">
    <path d="M 15.646154 168.698769 
L 23.434584 165.034047 
L 29.036178 162.161877 
L 33.112931 159.812788 
L 36.803451 157.386871 
L 39.377978 155.454339 
L 42.206702 153.015572 
L 44.58253 150.623176 
L 46.832442 147.963685 
L 48.319667 145.929673 
L 50.330749 142.716775 
L 51.838089 139.853627 
L 53.253349 136.69419 
L 54.583469 133.180382 
L 55.855458 129.168453 
L 56.953057 125.029029 
L 58.172069 119.438346 
L 59.161602 113.856949 
L 60.151136 106.979605 
L 61.137237 98.312788 
L 62.012375 88.431943 
L 62.801586 76.924954 
L 63.559143 62.412697 
L 64.193642 46.300478 
L 64.825294 24.668047 
L 65.36771 -1 
L 65.36771 -1 
" clip-path="url(#p4dbfe5d8f4)" style="fill: none; stroke: #0000ff; stroke-linecap: square"/>
   </g>
   <g id="line2d_10">
    <path d="M 71.501323 338.397538 
L 72.132088 309.268776 
L 72.784045 288.01191 
L 73.535396 270.221967 
L 74.380666 255.547025 
L 75.225936 244.492245 
L 76.060339 235.954468 
L 77.020643 228.150787 
L 78.150994 220.903213 
L 79.257437 215.238714 
L 80.408757 210.420981 
L 81.636783 206.172499 
L 82.967133 202.341861 
L 84.448915 198.781176 
L 85.929224 195.783991 
L 87.565189 192.965376 
L 89.493049 190.148577 
L 91.17173 188.036847 
L 93.398322 185.609178 
L 95.688158 183.452992 
L 98.29044 181.317844 
L 101.106622 179.290521 
L 104.2044 177.311958 
L 108.008146 175.140626 
L 112.86961 172.640249 
L 120.92887 168.83472 
L 128.569461 165.249029 
L 134.88492 162.013509 
L 138.694768 159.809773 
L 142.203915 157.511202 
L 145.021055 155.401446 
L 147.864427 152.939968 
L 150.432925 150.322743 
L 152.500548 147.846002 
L 154.365894 145.232272 
L 156.125011 142.331026 
L 157.839146 138.960428 
L 159.041795 136.174532 
L 160.521198 132.115244 
L 161.78324 127.922573 
L 163.00197 123.006098 
L 164.017579 118.029596 
L 165.031309 111.976361 
L 165.942538 105.271587 
L 166.853767 96.896266 
L 167.683154 87.212243 
L 168.439948 75.893845 
L 169.221953 60.48 
L 169.892243 42.646869 
L 170.487298 21.164363 
L 170.944664 -1 
L 170.944664 -1 
" clip-path="url(#p4dbfe5d8f4)" style="fill: none; stroke: #0000ff; stroke-linecap: square"/>
   </g>
   <g id="line2d_11">
    <path d="M 177.078578 338.397538 
L 177.654191 311.401314 
L 178.364128 287.924317 
L 179.076801 270.944878 
L 179.876562 256.772089 
L 180.776294 244.798122 
L 181.676026 235.602325 
L 182.688912 227.4967 
L 183.667133 221.25085 
L 184.747979 215.640247 
L 185.975822 210.458447 
L 187.23151 206.116434 
L 188.570734 202.271791 
L 189.965339 198.914506 
L 191.526087 195.746785 
L 193.203309 192.868319 
L 194.723293 190.621167 
L 196.426223 188.421494 
L 197.989326 186.63817 
L 200.069352 184.541554 
L 202.810148 182.150522 
L 205.406243 180.178774 
L 208.234964 178.271494 
L 211.814923 176.121677 
L 216.207794 173.761996 
L 222.372649 170.756476 
L 236.885435 163.893357 
L 241.688847 161.330413 
L 245.712362 158.903135 
L 248.392607 157.076036 
L 251.417311 154.731112 
L 253.952932 152.45256 
L 256.035798 150.293935 
L 258.182471 147.709419 
L 260.186569 144.858323 
L 261.937306 141.903597 
L 263.579093 138.605531 
L 265.139249 134.835322 
L 266.438113 131.061045 
L 267.591022 127.064874 
L 268.743931 122.258764 
L 269.87576 116.473412 
L 270.827248 110.489439 
L 271.778736 103.084067 
L 272.691435 94.09942 
L 273.545954 83.266488 
L 274.31502 70.552088 
L 274.998634 55.707074 
L 275.660546 36.444753 
L 276.280559 11.446644 
L 276.521586 -1 
L 276.521586 -1 
" clip-path="url(#p4dbfe5d8f4)" style="fill: none; stroke: #0000ff; stroke-linecap: square"/>
   </g>
   <g id="line2d_12">
    <path d="M 282.655432 338.397538 
L 283.299796 308.739483 
L 284.014523 285.922693 
L 284.800723 268.016483 
L 285.657499 253.749416 
L 286.556798 242.512722 
L 287.521546 233.255185 
L 288.573558 225.388941 
L 289.627221 219.127885 
L 290.690793 213.980793 
L 291.906303 209.150569 
L 293.322805 204.556188 
L 294.772493 200.696646 
L 296.27196 197.365914 
L 297.815144 194.46645 
L 299.519391 191.737877 
L 301.051257 189.614086 
L 303.080309 187.171326 
L 305.247037 184.922689 
L 307.100041 183.22776 
L 309.362821 181.380469 
L 312.308235 179.258211 
L 315.756585 177.072827 
L 320.267174 174.549907 
L 324.990272 172.16804 
L 335.388417 167.303483 
L 343.2441 163.494597 
L 347.179343 161.379281 
L 351.531878 158.745713 
L 353.856541 157.15729 
L 356.405681 155.215517 
L 359.520282 152.461824 
L 361.988354 149.870919 
L 363.942235 147.468807 
L 365.487262 145.28148 
L 367.112115 142.627721 
L 368.768679 139.438109 
L 370.255274 136.025544 
L 371.65861 132.164928 
L 372.99631 127.705508 
L 374.220359 122.716421 
L 375.445159 116.516181 
L 376.365451 110.757572 
L 377.326125 103.340416 
L 378.247852 94.32691 
L 379.11116 83.435445 
L 379.888137 70.624039 
L 380.578784 55.626589 
L 381.198439 37.757942 
L 381.820651 13.189523 
L 382.098417 -1 
L 382.098417 -1 
" clip-path="url(#p4dbfe5d8f4)" style="fill: none; stroke: #0000ff; stroke-linecap: square"/>
   </g>
   <g id="line2d_13">
    <path d="M 388.232475 338.397538 
L 388.863014 309.262752 
L 389.548537 287.08357 
L 390.23406 270.874964 
L 391.010543 257.077576 
L 391.916439 244.956817 
L 392.822335 235.670524 
L 393.857644 227.39138 
L 394.953894 220.496138 
L 396.014483 215.117795 
L 397.267438 209.940123 
L 398.639973 205.330021 
L 400.012509 201.530571 
L 401.442168 198.213299 
L 403.056008 195.059165 
L 404.981084 191.909198 
L 406.730067 189.482137 
L 409.02457 186.766637 
L 411.103084 184.655242 
L 413.575671 182.467795 
L 416.957283 179.897377 
L 420.442499 177.612111 
L 423.966317 175.563167 
L 428.434493 173.219017 
L 435.293978 169.930413 
L 437.953846 168.698769 
L 437.953846 168.698769 
" clip-path="url(#p4dbfe5d8f4)" style="fill: none; stroke: #0000ff; stroke-linecap: square"/>
   </g>
   <g id="patch_3">
    <path d="M 226.8 330.197538 
L 226.8 7.2 
" style="fill: none; stroke: #000000; stroke-width: 0.8; stroke-linejoin: miter; stroke-linecap: square"/>
   </g>
   <g id="patch_4">
    <path d="M 7.2 168.698769 
L 446.4 168.698769 
" style="fill: none; stroke: #000000; stroke-width: 0.8; stroke-linejoin: miter; stroke-linecap: square"/>
   </g>
  </g>
 </g>
 <defs>
  <clipPath id="p4dbfe5d8f4">
   <rect x="7.2" y="7.2" width="439.2" height="322.997538"/>
  </clipPath>
 </defs>
</svg>
