<?xml version="1.0" encoding="utf-8" standalone="no"?>
<!DOCTYPE svg PUBLIC "-//W3C//DTD SVG 1.1//EN"
  "http://www.w3.org/Graphics/SVG/1.1/DTD/svg11.dtd">
<svg xmlns:xlink="http://www.w3.org/1999/xlink" width="419.4pt" height="338.4pt" viewBox="0 0 419.4 338.4" xmlns="http://www.w3.org/2000/svg" version="1.1">
 <metadata>
  <rdf:RDF xmlns:dc="http://purl.org/dc/elements/1.1/" xmlns:cc="http://creativecommons.org/ns#" xmlns:rdf="http://www.w3.org/1999/02/22-rdf-syntax-ns#">
   <cc:Work>
    <dc:type rdf:resource="http://purl.org/dc/dcmitype/StillImage"/>
    <dc:date>2024-10-28T19:34:41.387027</dc:date>
    <dc:format>image/svg+xml</dc:format>
    <dc:creator>
     <cc:Agent>
      <dc:title>Matplotlib v3.6.2, https://matplotlib.org/</dc:title>
     </cc:Agent>
    </dc:creator>
   </cc:Work>
  </rdf:RDF>
 </metadata>
 <defs>
  <style type="text/css">*{stroke-linejoin: round; stroke-linecap: butt}</style>
 </defs>
 <g id="figure_1">
  <g id="patch_1">
   <path d="M 0 338.4 
L 419.4 338.4 
L 419.4 0 
L 0 0 
z
" style="fill: #ffffff"/>
  </g>
  <g id="axes_1">
   <g id="patch_2">
    <path d="M 7.2 331.2 
L 412.2 331.2 
L 412.2 7.2 
L 7.2 7.2 
z
" style="fill: #ffffff"/>
   </g>
   <g id="matplotlib.axis_1"/>
   <g id="matplotlib.axis_2"/>
   <g id="line2d_1">
    <path d="M 216.828253 -1 
L 217.712927 17.794324 
L 218.662836 33.840758 
L 219.741021 48.375368 
L 220.858987 60.480219 
L 221.908222 69.824134 
L 223.121704 78.808897 
L 224.345648 86.362925 
L 225.662226 93.195397 
L 227.139449 99.633431 
L 228.475336 104.58317 
L 229.964927 109.332888 
L 231.39528 113.279879 
L 233.152517 117.469831 
L 235.126289 121.485501 
L 236.823994 124.471976 
L 238.653378 127.298062 
L 240.55163 129.876221 
L 242.903143 132.661211 
L 245.535892 135.345599 
L 247.537647 137.136625 
L 250.653496 139.57609 
L 253.281075 141.362168 
L 256.708416 143.391798 
L 259.365326 144.772442 
L 263.775906 146.764821 
L 267.968124 148.378965 
L 272.825787 149.981188 
L 277.751616 151.372317 
L 283.336902 152.724529 
L 290.56989 154.198092 
L 297.842148 155.43584 
L 305.656648 156.556763 
L 315.121912 157.691931 
L 325.859913 158.755754 
L 338.777803 159.800997 
L 353.665382 160.772956 
L 370.600349 161.659913 
L 392.20964 162.552665 
L 404.411538 162.969231 
L 404.411538 162.969231 
" clip-path="url(#p77cd9cfadd)" style="fill: none; stroke: #0000ff; stroke-linecap: square"/>
   </g>
   <g id="line2d_2">
    <path d="M 14.988462 169.2 
L 404.411538 169.2 
L 404.411538 169.2 
" clip-path="url(#p77cd9cfadd)" style="fill: none; stroke-dasharray: 2,3.3; stroke-dashoffset: 0; stroke: #ff0000; stroke-width: 2"/>
   </g>
   <g id="line2d_3">
    <path d="M 14.988462 175.430769 
L 39.711517 176.33697 
L 59.180688 177.260113 
L 75.958118 178.271225 
L 89.951826 179.331283 
L 100.873229 180.348017 
L 111.677835 181.57682 
L 120.10943 182.741633 
L 128.170634 184.08056 
L 135.21774 185.488478 
L 141.030416 186.867249 
L 146.700476 188.457331 
L 151.471433 190.03518 
L 154.820281 191.306576 
L 159.073322 193.163703 
L 163.032728 195.196863 
L 165.697801 196.77141 
L 168.455656 198.615007 
L 171.26234 200.762865 
L 173.905321 203.09338 
L 176.401404 205.634048 
L 178.617095 208.231187 
L 180.748393 211.104501 
L 182.594894 213.959193 
L 184.228569 216.829938 
L 185.719064 219.790297 
L 187.310047 223.385136 
L 188.816344 227.293403 
L 190.233547 231.52274 
L 191.763978 236.840566 
L 193.216455 242.800835 
L 194.41089 248.550769 
L 195.707098 255.90129 
L 196.918902 264.121627 
L 198.058523 273.413806 
L 199.147879 284.172402 
L 200.169134 296.49196 
L 201.151942 311.127278 
L 202.069875 328.201672 
L 202.571851 339.4 
L 202.571851 339.4 
" clip-path="url(#p77cd9cfadd)" style="fill: none; stroke: #0000ff; stroke-linecap: square"/>
   </g>
   <g id="patch_3">
    <path d="M 209.7 331.2 
L 209.7 7.2 
" style="fill: none; stroke: #000000; stroke-width: 0.8; stroke-linejoin: miter; stroke-linecap: square"/>
   </g>
   <g id="patch_4">
    <path d="M 7.2 169.2 
L 412.2 169.2 
" style="fill: none; stroke: #000000; stroke-width: 0.8; stroke-linejoin: miter; stroke-linecap: square"/>
   </g>
  </g>
 </g>
 <defs>
  <clipPath id="p77cd9cfadd">
   <rect x="7.2" y="7.2" width="405" height="324"/>
  </clipPath>
 </defs>
</svg>
