<?xml version="1.0" encoding="utf-8" standalone="no"?>
<!DOCTYPE svg PUBLIC "-//W3C//DTD SVG 1.1//EN"
  "http://www.w3.org/Graphics/SVG/1.1/DTD/svg11.dtd">
<svg xmlns:xlink="http://www.w3.org/1999/xlink" width="453.6pt" height="288.9pt" viewBox="0 0 453.6 288.9" xmlns="http://www.w3.org/2000/svg" version="1.1">
 <metadata>
  <rdf:RDF xmlns:dc="http://purl.org/dc/elements/1.1/" xmlns:cc="http://creativecommons.org/ns#" xmlns:rdf="http://www.w3.org/1999/02/22-rdf-syntax-ns#">
   <cc:Work>
    <dc:type rdf:resource="http://purl.org/dc/dcmitype/StillImage"/>
    <dc:date>2024-10-10T17:34:31.560888</dc:date>
    <dc:format>image/svg+xml</dc:format>
    <dc:creator>
     <cc:Agent>
      <dc:title>Matplotlib v3.6.2, https://matplotlib.org/</dc:title>
     </cc:Agent>
    </dc:creator>
   </cc:Work>
  </rdf:RDF>
 </metadata>
 <defs>
  <style type="text/css">*{stroke-linejoin: round; stroke-linecap: butt}</style>
 </defs>
 <g id="figure_1">
  <g id="patch_1">
   <path d="M 0 288.9 
L 453.6 288.9 
L 453.6 0 
L 0 0 
z
" style="fill: #ffffff"/>
  </g>
  <g id="axes_1">
   <g id="patch_2">
    <path d="M 7.2 281.7 
L 446.4 281.7 
L 446.4 7.2 
L 7.2 7.2 
z
" style="fill: #ffffff"/>
   </g>
   <g id="matplotlib.axis_1"/>
   <g id="matplotlib.axis_2"/>
   <g id="line2d_1">
    <path d="M 247.915385 12.478846 
L 249.232808 42.569889 
L 250.574852 68.225653 
L 251.973128 90.712288 
L 253.361905 109.62403 
L 254.804998 126.371185 
L 256.334799 141.512766 
L 257.88272 154.615073 
L 259.407238 165.738649 
L 261.05113 176.108159 
L 262.701388 185.118265 
L 264.432989 193.327172 
L 266.16661 200.484585 
L 267.923694 206.83501 
L 269.757764 212.650088 
L 271.642419 217.897837 
L 273.618159 222.733015 
L 275.695075 227.197168 
L 277.699964 230.998547 
L 279.941931 234.750306 
L 282.151292 238.01052 
L 284.464892 241.030871 
L 286.791035 243.722168 
L 289.405834 246.396543 
L 291.97079 248.713418 
L 294.794052 250.966619 
L 297.777682 253.061663 
L 301.111891 255.110814 
L 304.786034 257.071494 
L 308.542412 258.809015 
L 312.598098 260.434717 
L 316.848268 261.908184 
L 321.950031 263.422777 
L 327.201135 264.746883 
L 332.967925 265.980677 
L 339.194923 267.105494 
L 346.78176 268.246365 
L 355.581151 269.325337 
L 365.708232 270.322261 
L 376.838392 271.193556 
L 390.319151 272.019967 
L 406.645386 272.782771 
L 426.588744 273.472899 
L 437.953846 273.781731 
L 437.953846 273.781731 
" clip-path="url(#p4573ce9d54)" style="fill: none; stroke: #0000ff; stroke-linecap: square"/>
   </g>
   <g id="line2d_2">
    <path d="M 15.646154 276.421154 
L 437.953846 276.421154 
L 437.953846 276.421154 
" clip-path="url(#p4573ce9d54)" style="fill: none; stroke-dasharray: 2,3.3; stroke-dashoffset: 0; stroke: #ff0000; stroke-width: 2"/>
   </g>
   <g id="line2d_3">
    <path d="M 15.646154 273.781731 
L 38.731488 273.093985 
L 57.200749 272.329874 
L 71.59142 271.53603 
L 84.94272 270.573203 
L 95.725647 269.571454 
L 104.870061 268.505509 
L 113.022795 267.330471 
L 120.019282 266.100165 
L 126.499051 264.72355 
L 132.175516 263.277989 
L 137.259036 261.743269 
L 141.758587 260.148962 
L 146.056408 258.370586 
L 149.491247 256.730975 
L 152.802063 254.929602 
L 156.166837 252.833231 
L 158.883705 250.9083 
L 161.844341 248.52958 
L 164.425903 246.173029 
L 167.047069 243.46105 
L 169.462939 240.625019 
L 171.74241 237.599627 
L 174.014767 234.185219 
L 176.126739 230.591213 
L 178.215534 226.565761 
L 180.166344 222.307348 
L 182.022015 217.72929 
L 183.827664 212.693331 
L 185.652116 206.916803 
L 187.451461 200.41482 
L 189.172389 193.303416 
L 190.837916 185.426203 
L 192.469882 176.569238 
L 194.030886 166.829468 
L 195.570692 155.755886 
L 197.040915 143.538638 
L 198.508183 129.398145 
L 199.930689 113.418769 
L 201.30511 95.370237 
L 202.618209 75.173847 
L 203.882916 52.348792 
L 205.134625 25.709458 
L 205.684615 12.478846 
L 205.684615 12.478846 
" clip-path="url(#p4573ce9d54)" style="fill: none; stroke: #0000ff; stroke-linecap: square"/>
   </g>
   <g id="patch_3">
    <path d="M 226.8 281.7 
L 226.8 7.2 
" style="fill: none; stroke: #000000; stroke-width: 0.8; stroke-linejoin: miter; stroke-linecap: square"/>
   </g>
   <g id="patch_4">
    <path d="M 7.2 276.421154 
L 446.4 276.421154 
" style="fill: none; stroke: #000000; stroke-width: 0.8; stroke-linejoin: miter; stroke-linecap: square"/>
   </g>
  </g>
 </g>
 <defs>
  <clipPath id="p4573ce9d54">
   <rect x="7.2" y="7.2" width="439.2" height="274.5"/>
  </clipPath>
 </defs>
</svg>
