<?xml version="1.0" encoding="utf-8" standalone="no"?>
<!DOCTYPE svg PUBLIC "-//W3C//DTD SVG 1.1//EN"
  "http://www.w3.org/Graphics/SVG/1.1/DTD/svg11.dtd">
<svg xmlns:xlink="http://www.w3.org/1999/xlink" width="453.6pt" height="337.397538pt" viewBox="0 0 453.6 337.397538" xmlns="http://www.w3.org/2000/svg" version="1.1">
 <metadata>
  <rdf:RDF xmlns:dc="http://purl.org/dc/elements/1.1/" xmlns:cc="http://creativecommons.org/ns#" xmlns:rdf="http://www.w3.org/1999/02/22-rdf-syntax-ns#">
   <cc:Work>
    <dc:type rdf:resource="http://purl.org/dc/dcmitype/StillImage"/>
    <dc:date>2024-10-28T19:34:54.902986</dc:date>
    <dc:format>image/svg+xml</dc:format>
    <dc:creator>
     <cc:Agent>
      <dc:title>Matplotlib v3.6.2, https://matplotlib.org/</dc:title>
     </cc:Agent>
    </dc:creator>
   </cc:Work>
  </rdf:RDF>
 </metadata>
 <defs>
  <style type="text/css">*{stroke-linejoin: round; stroke-linecap: butt}</style>
 </defs>
 <g id="figure_1">
  <g id="patch_1">
   <path d="M 0 337.397538 
L 453.6 337.397538 
L 453.6 0 
L 0 0 
z
" style="fill: #ffffff"/>
  </g>
  <g id="axes_1">
   <g id="patch_2">
    <path d="M 7.2 330.197538 
L 446.4 330.197538 
L 446.4 7.2 
L 7.2 7.2 
z
" style="fill: #ffffff"/>
   </g>
   <g id="matplotlib.axis_1">
    <g id="xtick_1">
     <g id="line2d_1">
      <defs>
       <path id="m65e76e1d36" d="M 0 0 
L 0 3.5 
" style="stroke: #000000; stroke-width: 0.8"/>
      </defs>
      <g>
       <use xlink:href="#m65e76e1d36" x="68.434615" y="168.698769" style="stroke: #000000; stroke-width: 0.8"/>
      </g>
     </g>
     <g id="text_1">
      <!-- $-\frac{3}{2} \, \pi$ -->
      <g transform="translate(58.584615 184.298769) scale(0.1 -0.1)">
       <defs>
        <path id="Cmsy10-a1" d="M 653 1472 
Q 600 1472 565 1512 
Q 531 1553 531 1600 
Q 531 1647 565 1687 
Q 600 1728 653 1728 
L 4325 1728 
Q 4375 1728 4408 1687 
Q 4441 1647 4441 1600 
Q 4441 1553 4408 1512 
Q 4375 1472 4325 1472 
L 653 1472 
z
" transform="scale(0.015625)"/>
        <path id="Cmr10-33" d="M 609 494 
Q 759 275 1012 169 
Q 1266 63 1556 63 
Q 1928 63 2084 380 
Q 2241 697 2241 1100 
Q 2241 1281 2208 1462 
Q 2175 1644 2097 1800 
Q 2019 1956 1883 2050 
Q 1747 2144 1550 2144 
L 1125 2144 
Q 1069 2144 1069 2203 
L 1069 2259 
Q 1069 2309 1125 2309 
L 1478 2338 
Q 1703 2338 1851 2506 
Q 2000 2675 2069 2917 
Q 2138 3159 2138 3378 
Q 2138 3684 1994 3881 
Q 1850 4078 1556 4078 
Q 1313 4078 1091 3986 
Q 869 3894 738 3706 
Q 750 3709 759 3711 
Q 769 3713 781 3713 
Q 925 3713 1022 3613 
Q 1119 3513 1119 3372 
Q 1119 3234 1022 3134 
Q 925 3034 781 3034 
Q 641 3034 541 3134 
Q 441 3234 441 3372 
Q 441 3647 606 3850 
Q 772 4053 1033 4158 
Q 1294 4263 1556 4263 
Q 1750 4263 1965 4205 
Q 2181 4147 2356 4039 
Q 2531 3931 2642 3762 
Q 2753 3594 2753 3378 
Q 2753 3109 2633 2881 
Q 2513 2653 2303 2487 
Q 2094 2322 1844 2241 
Q 2122 2188 2372 2031 
Q 2622 1875 2773 1631 
Q 2925 1388 2925 1106 
Q 2925 753 2731 467 
Q 2538 181 2222 20 
Q 1906 -141 1556 -141 
Q 1256 -141 954 -26 
Q 653 88 461 316 
Q 269 544 269 863 
Q 269 1022 375 1128 
Q 481 1234 641 1234 
Q 744 1234 830 1186 
Q 916 1138 964 1050 
Q 1013 963 1013 863 
Q 1013 706 903 600 
Q 794 494 641 494 
L 609 494 
z
" transform="scale(0.015625)"/>
        <path id="Cmr10-32" d="M 319 0 
L 319 172 
Q 319 188 331 206 
L 1325 1306 
Q 1550 1550 1690 1715 
Q 1831 1881 1968 2097 
Q 2106 2313 2186 2536 
Q 2266 2759 2266 3009 
Q 2266 3272 2169 3511 
Q 2072 3750 1880 3894 
Q 1688 4038 1416 4038 
Q 1138 4038 916 3870 
Q 694 3703 603 3438 
Q 628 3444 672 3444 
Q 816 3444 917 3347 
Q 1019 3250 1019 3097 
Q 1019 2950 917 2848 
Q 816 2747 672 2747 
Q 522 2747 420 2851 
Q 319 2956 319 3097 
Q 319 3338 409 3548 
Q 500 3759 670 3923 
Q 841 4088 1055 4175 
Q 1269 4263 1509 4263 
Q 1875 4263 2190 4108 
Q 2506 3953 2690 3670 
Q 2875 3388 2875 3009 
Q 2875 2731 2753 2481 
Q 2631 2231 2440 2026 
Q 2250 1822 1953 1562 
Q 1656 1303 1563 1216 
L 838 519 
L 1453 519 
Q 1906 519 2211 526 
Q 2516 534 2534 550 
Q 2609 631 2688 1141 
L 2875 1141 
L 2694 0 
L 319 0 
z
" transform="scale(0.015625)"/>
        <path id="Cmmi10-bc" d="M 647 109 
Q 647 144 672 213 
Q 850 584 1004 942 
Q 1159 1300 1282 1639 
Q 1406 1978 1509 2363 
L 1100 2363 
Q 866 2363 662 2216 
Q 459 2069 325 1844 
Q 313 1819 288 1819 
L 213 1819 
Q 153 1819 153 1881 
Q 153 1894 166 1919 
Q 375 2275 614 2517 
Q 853 2759 1153 2759 
L 3475 2759 
Q 3541 2759 3587 2715 
Q 3634 2672 3634 2597 
Q 3634 2503 3567 2433 
Q 3500 2363 3406 2363 
L 2591 2363 
Q 2488 1859 2478 1381 
Q 2478 766 2694 269 
Q 2713 231 2713 191 
Q 2713 122 2672 62 
Q 2631 3 2567 -34 
Q 2503 -72 2431 -72 
Q 2263 -72 2200 203 
Q 2138 478 2138 738 
Q 2138 1103 2200 1442 
Q 2263 1781 2400 2363 
L 1703 2363 
Q 1197 313 1094 103 
Q 1003 -72 844 -72 
Q 766 -72 706 -20 
Q 647 31 647 109 
z
" transform="scale(0.015625)"/>
       </defs>
       <use xlink:href="#Cmsy10-a1" transform="translate(0 0.33125)"/>
       <use xlink:href="#Cmr10-33" transform="translate(77.685547 39.373438) scale(0.7)"/>
       <use xlink:href="#Cmr10-32" transform="translate(77.685547 -40.045312) scale(0.7)"/>
       <use xlink:href="#Cmmi10-bc" transform="translate(139.818001 0.33125)"/>
       <path d="M 77.685547 12.83125 
L 77.685547 19.08125 
L 112.685547 19.08125 
L 112.685547 12.83125 
L 77.685547 12.83125 
z
"/>
      </g>
     </g>
    </g>
    <g id="xtick_2">
     <g id="line2d_2">
      <g>
       <use xlink:href="#m65e76e1d36" x="174.011538" y="168.698769" style="stroke: #000000; stroke-width: 0.8"/>
      </g>
     </g>
     <g id="text_2">
      <!-- $-\frac{1}{2} \, \pi$ -->
      <g transform="translate(164.161538 184.198769) scale(0.1 -0.1)">
       <defs>
        <path id="Cmr10-31" d="M 594 0 
L 594 225 
Q 1394 225 1394 428 
L 1394 3788 
Q 1063 3628 556 3628 
L 556 3853 
Q 1341 3853 1741 4263 
L 1831 4263 
Q 1853 4263 1873 4245 
Q 1894 4228 1894 4206 
L 1894 428 
Q 1894 225 2694 225 
L 2694 0 
L 594 0 
z
" transform="scale(0.015625)"/>
       </defs>
       <use xlink:href="#Cmsy10-a1" transform="translate(0 0.873437)"/>
       <use xlink:href="#Cmr10-31" transform="translate(77.685547 38.373438) scale(0.7)"/>
       <use xlink:href="#Cmr10-32" transform="translate(77.685547 -39.503125) scale(0.7)"/>
       <use xlink:href="#Cmmi10-bc" transform="translate(139.818001 0.873437)"/>
       <path d="M 77.685547 13.373437 
L 77.685547 19.623437 
L 112.685547 19.623437 
L 112.685547 13.373437 
L 77.685547 13.373437 
z
"/>
      </g>
     </g>
    </g>
    <g id="xtick_3">
     <g id="line2d_3">
      <g>
       <use xlink:href="#m65e76e1d36" x="279.588462" y="168.698769" style="stroke: #000000; stroke-width: 0.8"/>
      </g>
     </g>
     <g id="text_3">
      <!-- $\frac{1}{2} \, \pi$ -->
      <g transform="translate(273.588462 184.198769) scale(0.1 -0.1)">
       <use xlink:href="#Cmr10-31" transform="translate(0 38.373438) scale(0.7)"/>
       <use xlink:href="#Cmr10-32" transform="translate(0 -39.503125) scale(0.7)"/>
       <use xlink:href="#Cmmi10-bc" transform="translate(62.132454 0.873437)"/>
       <path d="M 0 13.373437 
L 0 19.623437 
L 35 19.623437 
L 35 13.373437 
L 0 13.373437 
z
"/>
      </g>
     </g>
    </g>
    <g id="xtick_4">
     <g id="line2d_4">
      <g>
       <use xlink:href="#m65e76e1d36" x="385.165385" y="168.698769" style="stroke: #000000; stroke-width: 0.8"/>
      </g>
     </g>
     <g id="text_4">
      <!-- $\frac{3}{2} \, \pi$ -->
      <g transform="translate(379.165385 184.298769) scale(0.1 -0.1)">
       <use xlink:href="#Cmr10-33" transform="translate(0 39.373438) scale(0.7)"/>
       <use xlink:href="#Cmr10-32" transform="translate(0 -40.045312) scale(0.7)"/>
       <use xlink:href="#Cmmi10-bc" transform="translate(62.132454 0.33125)"/>
       <path d="M 0 12.83125 
L 0 19.08125 
L 35 19.08125 
L 35 12.83125 
L 0 12.83125 
z
"/>
      </g>
     </g>
    </g>
   </g>
   <g id="matplotlib.axis_2">
    <g id="ytick_1">
     <g id="line2d_5">
      <defs>
       <path id="m48ac48191b" d="M 0 0 
L -3.5 0 
" style="stroke: #000000; stroke-width: 0.8"/>
      </defs>
      <g>
       <use xlink:href="#m48ac48191b" x="226.8" y="323.986047" style="stroke: #000000; stroke-width: 0.8"/>
      </g>
     </g>
     <g id="text_5">
      <!-- −10 -->
      <g transform="translate(198.695312 327.785266) scale(0.1 -0.1)">
       <defs>
        <path id="DejaVuSans-2212" d="M 678 2272 
L 4684 2272 
L 4684 1741 
L 678 1741 
L 678 2272 
z
" transform="scale(0.015625)"/>
        <path id="DejaVuSans-31" d="M 794 531 
L 1825 531 
L 1825 4091 
L 703 3866 
L 703 4441 
L 1819 4666 
L 2450 4666 
L 2450 531 
L 3481 531 
L 3481 0 
L 794 0 
L 794 531 
z
" transform="scale(0.015625)"/>
        <path id="DejaVuSans-30" d="M 2034 4250 
Q 1547 4250 1301 3770 
Q 1056 3291 1056 2328 
Q 1056 1369 1301 889 
Q 1547 409 2034 409 
Q 2525 409 2770 889 
Q 3016 1369 3016 2328 
Q 3016 3291 2770 3770 
Q 2525 4250 2034 4250 
z
M 2034 4750 
Q 2819 4750 3233 4129 
Q 3647 3509 3647 2328 
Q 3647 1150 3233 529 
Q 2819 -91 2034 -91 
Q 1250 -91 836 529 
Q 422 1150 422 2328 
Q 422 3509 836 4129 
Q 1250 4750 2034 4750 
z
" transform="scale(0.015625)"/>
       </defs>
       <use xlink:href="#DejaVuSans-2212"/>
       <use xlink:href="#DejaVuSans-31" x="83.789062"/>
       <use xlink:href="#DejaVuSans-30" x="147.412109"/>
      </g>
     </g>
    </g>
    <g id="ytick_2">
     <g id="line2d_6">
      <g>
       <use xlink:href="#m48ac48191b" x="226.8" y="246.342408" style="stroke: #000000; stroke-width: 0.8"/>
      </g>
     </g>
     <g id="text_6">
      <!-- −5 -->
      <g transform="translate(205.057812 250.141627) scale(0.1 -0.1)">
       <defs>
        <path id="DejaVuSans-35" d="M 691 4666 
L 3169 4666 
L 3169 4134 
L 1269 4134 
L 1269 2991 
Q 1406 3038 1543 3061 
Q 1681 3084 1819 3084 
Q 2600 3084 3056 2656 
Q 3513 2228 3513 1497 
Q 3513 744 3044 326 
Q 2575 -91 1722 -91 
Q 1428 -91 1123 -41 
Q 819 9 494 109 
L 494 744 
Q 775 591 1075 516 
Q 1375 441 1709 441 
Q 2250 441 2565 725 
Q 2881 1009 2881 1497 
Q 2881 1984 2565 2268 
Q 2250 2553 1709 2553 
Q 1456 2553 1204 2497 
Q 953 2441 691 2322 
L 691 4666 
z
" transform="scale(0.015625)"/>
       </defs>
       <use xlink:href="#DejaVuSans-2212"/>
       <use xlink:href="#DejaVuSans-35" x="83.789062"/>
      </g>
     </g>
    </g>
    <g id="ytick_3">
     <g id="line2d_7">
      <g>
       <use xlink:href="#m48ac48191b" x="226.8" y="91.05513" style="stroke: #000000; stroke-width: 0.8"/>
      </g>
     </g>
     <g id="text_7">
      <!-- 5 -->
      <g transform="translate(213.4375 94.854349) scale(0.1 -0.1)">
       <use xlink:href="#DejaVuSans-35"/>
      </g>
     </g>
    </g>
    <g id="ytick_4">
     <g id="line2d_8">
      <g>
       <use xlink:href="#m48ac48191b" x="226.8" y="13.411491" style="stroke: #000000; stroke-width: 0.8"/>
      </g>
     </g>
     <g id="text_8">
      <!-- 10 -->
      <g transform="translate(207.075 17.21071) scale(0.1 -0.1)">
       <use xlink:href="#DejaVuSans-31"/>
       <use xlink:href="#DejaVuSans-30" x="63.623047"/>
      </g>
     </g>
    </g>
   </g>
   <g id="line2d_9">
    <path d="M 15.646154 168.698769 
L 24.316562 164.601024 
L 29.838347 161.721014 
L 34.324797 159.053449 
L 37.895843 156.595224 
L 40.736786 154.330347 
L 43.268262 151.99171 
L 45.660109 149.404703 
L 47.35109 147.282643 
L 49.462463 144.178326 
L 51.216463 141.089644 
L 52.887428 137.562051 
L 54.364779 133.800873 
L 55.506905 130.34226 
L 56.770581 125.76888 
L 57.943884 120.580238 
L 58.919677 115.325699 
L 59.895471 108.905732 
L 60.871264 100.86901 
L 61.750749 91.653239 
L 62.606823 80.051229 
L 63.380955 66.214348 
L 64.069072 49.831001 
L 64.671174 30.612976 
L 65.276245 3.954384 
L 65.367898 -1 
L 65.367898 -1 
" clip-path="url(#pdf8111e1ab)" style="fill: none; stroke: #0000ff; stroke-linecap: square"/>
   </g>
   <g id="line2d_10">
    <path d="M 71.501415 338.397538 
L 72.085381 311.081696 
L 72.791341 287.809871 
L 73.567896 269.569193 
L 74.344451 256.090454 
L 75.186908 244.942443 
L 76.029365 236.238387 
L 77.040314 228.008785 
L 78.159493 220.854944 
L 79.278673 215.140951 
L 80.31387 210.784092 
L 81.739891 205.849789 
L 83.085591 202.032562 
L 84.409312 198.86835 
L 86.051781 195.556519 
L 87.616691 192.883658 
L 89.489006 190.15401 
L 91.038596 188.194547 
L 93.317448 185.691079 
L 95.390751 183.7167 
L 98.358008 181.266089 
L 100.790266 179.5061 
L 103.846214 177.529683 
L 108.261921 175.003608 
L 113.155956 172.499711 
L 121.893045 168.38915 
L 130.819758 164.139736 
L 136.10187 161.336104 
L 139.960575 159.015719 
L 142.962573 156.96979 
L 145.251997 155.215385 
L 147.512274 153.266807 
L 149.743564 151.069327 
L 151.607491 148.963195 
L 153.582014 146.381355 
L 155.074631 144.121338 
L 156.741388 141.189348 
L 158.098413 138.392863 
L 159.549341 134.869825 
L 160.758448 131.385014 
L 162.078873 126.81852 
L 163.291405 121.680788 
L 164.330719 116.291472 
L 165.33187 109.917097 
L 166.297791 102.237687 
L 167.197198 93.168453 
L 168.006266 82.72521 
L 168.734427 70.621473 
L 169.462562 54.679711 
L 170.150159 34.145129 
L 170.759109 8.747312 
L 170.944722 -1 
L 170.944722 -1 
" clip-path="url(#pdf8111e1ab)" style="fill: none; stroke: #0000ff; stroke-linecap: square"/>
   </g>
   <g id="line2d_11">
    <path d="M 177.078484 338.397538 
L 177.694334 309.833514 
L 178.411025 286.639004 
L 179.127717 269.911679 
L 179.974957 255.288726 
L 180.883835 243.574237 
L 181.799574 234.502956 
L 182.867936 226.253062 
L 183.964853 219.587551 
L 185.23979 213.433825 
L 186.485931 208.594095 
L 187.720591 204.630313 
L 188.955251 201.287907 
L 190.534193 197.696448 
L 192.045866 194.803273 
L 193.787827 191.968198 
L 196.039028 188.895981 
L 197.723988 186.927047 
L 199.768233 184.828149 
L 202.043984 182.782806 
L 204.964131 180.497837 
L 207.825389 178.53466 
L 211.831838 176.112077 
L 216.951682 173.384381 
L 223.600222 170.181806 
L 235.544053 164.564603 
L 239.758015 162.395621 
L 244.090625 159.920515 
L 247.076334 157.998418 
L 249.87745 155.9682 
L 251.824325 154.387115 
L 254.416026 151.997772 
L 256.39377 149.891064 
L 257.856261 148.130034 
L 259.864369 145.350882 
L 261.368085 142.920149 
L 262.929994 139.980572 
L 264.43818 136.618913 
L 265.692749 133.308322 
L 266.918812 129.479107 
L 268.216005 124.575783 
L 269.228061 119.933994 
L 270.366624 113.536638 
L 271.379198 106.398477 
L 272.26837 98.538219 
L 273.103351 89.229462 
L 273.938333 77.207977 
L 274.676961 63.203444 
L 275.377048 45.432184 
L 275.977123 24.749123 
L 276.520978 -1 
L 276.520978 -1 
" clip-path="url(#pdf8111e1ab)" style="fill: none; stroke: #0000ff; stroke-linecap: square"/>
   </g>
   <g id="line2d_12">
    <path d="M 282.655404 338.397538 
L 283.282617 309.39601 
L 284.003931 286.207183 
L 284.785353 268.314974 
L 285.59271 254.687298 
L 286.46254 243.554273 
L 287.429017 234.045921 
L 288.46966 226.084641 
L 289.494538 219.844978 
L 290.474846 214.947181 
L 291.554174 210.453015 
L 292.896958 205.839785 
L 294.162522 202.232854 
L 295.675711 198.621637 
L 297.302028 195.379603 
L 298.799088 192.838526 
L 300.745437 190.016698 
L 302.934576 187.334804 
L 305.226747 184.94231 
L 308.017547 182.452287 
L 311.154263 180.056962 
L 313.887573 178.223297 
L 317.958962 175.802293 
L 322.690719 173.30277 
L 330.38657 169.619548 
L 341.663669 164.294879 
L 346.159141 161.947475 
L 349.933207 159.757801 
L 352.753466 157.929987 
L 355.697869 155.778938 
L 358.551454 153.371763 
L 360.741822 151.233023 
L 362.751973 148.974508 
L 364.632507 146.527109 
L 366.58533 143.533487 
L 368.326269 140.345909 
L 369.604861 137.592965 
L 371.171702 133.586874 
L 372.324697 130.054879 
L 373.462993 125.921582 
L 374.642018 120.739634 
L 375.717139 114.928113 
L 376.706853 108.310712 
L 377.696567 99.980973 
L 378.501066 91.421197 
L 379.3692 79.558008 
L 380.092646 66.60566 
L 380.763867 50.813567 
L 381.411119 30.272629 
L 381.965907 6.083633 
L 382.098021 -1 
L 382.098021 -1 
" clip-path="url(#pdf8111e1ab)" style="fill: none; stroke: #0000ff; stroke-linecap: square"/>
   </g>
   <g id="line2d_13">
    <path d="M 388.232258 338.397538 
L 388.844034 309.993884 
L 389.533463 287.496786 
L 390.310609 269.331361 
L 391.152516 254.938444 
L 392.007209 243.91718 
L 393.000771 234.090634 
L 393.974673 226.57553 
L 395.110891 219.629934 
L 396.327097 213.721375 
L 397.380985 209.521337 
L 398.491468 205.785238 
L 400.063018 201.403309 
L 401.460353 198.17458 
L 402.875156 195.386534 
L 404.455654 192.713253 
L 406.01384 190.433189 
L 408.261074 187.619732 
L 410.342105 185.395496 
L 412.874906 183.057166 
L 415.901173 180.656636 
L 418.86158 178.611007 
L 422.427173 176.431535 
L 426.374552 174.271627 
L 432.650349 171.169956 
L 437.953846 168.698769 
L 437.953846 168.698769 
" clip-path="url(#pdf8111e1ab)" style="fill: none; stroke: #0000ff; stroke-linecap: square"/>
   </g>
   <g id="patch_3">
    <path d="M 226.8 330.197538 
L 226.8 7.2 
" style="fill: none; stroke: #000000; stroke-width: 0.8; stroke-linejoin: miter; stroke-linecap: square"/>
   </g>
   <g id="patch_4">
    <path d="M 7.2 168.698769 
L 446.4 168.698769 
" style="fill: none; stroke: #000000; stroke-width: 0.8; stroke-linejoin: miter; stroke-linecap: square"/>
   </g>
  </g>
 </g>
 <defs>
  <clipPath id="pdf8111e1ab">
   <rect x="7.2" y="7.2" width="439.2" height="322.997538"/>
  </clipPath>
 </defs>
</svg>
