<?xml version="1.0" encoding="utf-8" standalone="no"?>
<!DOCTYPE svg PUBLIC "-//W3C//DTD SVG 1.1//EN"
  "http://www.w3.org/Graphics/SVG/1.1/DTD/svg11.dtd">
<svg xmlns:xlink="http://www.w3.org/1999/xlink" width="453.6pt" height="288.9pt" viewBox="0 0 453.6 288.9" xmlns="http://www.w3.org/2000/svg" version="1.1">
 <metadata>
  <rdf:RDF xmlns:dc="http://purl.org/dc/elements/1.1/" xmlns:cc="http://creativecommons.org/ns#" xmlns:rdf="http://www.w3.org/1999/02/22-rdf-syntax-ns#">
   <cc:Work>
    <dc:type rdf:resource="http://purl.org/dc/dcmitype/StillImage"/>
    <dc:date>2024-11-05T23:15:35.145221</dc:date>
    <dc:format>image/svg+xml</dc:format>
    <dc:creator>
     <cc:Agent>
      <dc:title>Matplotlib v3.6.2, https://matplotlib.org/</dc:title>
     </cc:Agent>
    </dc:creator>
   </cc:Work>
  </rdf:RDF>
 </metadata>
 <defs>
  <style type="text/css">*{stroke-linejoin: round; stroke-linecap: butt}</style>
 </defs>
 <g id="figure_1">
  <g id="patch_1">
   <path d="M 0 288.9 
L 453.6 288.9 
L 453.6 0 
L 0 0 
z
" style="fill: #ffffff"/>
  </g>
  <g id="axes_1">
   <g id="patch_2">
    <path d="M 7.2 281.7 
L 446.4 281.7 
L 446.4 7.2 
L 7.2 7.2 
z
" style="fill: #ffffff"/>
   </g>
   <g id="matplotlib.axis_1"/>
   <g id="matplotlib.axis_2"/>
   <g id="line2d_1">
    <path d="M 247.915385 12.478846 
L 249.231831 42.549522 
L 250.585945 68.419791 
L 251.967658 90.631557 
L 253.379471 109.844428 
L 254.825803 126.593886 
L 256.336708 141.530199 
L 257.849978 154.358051 
L 259.423121 165.846399 
L 261.000786 175.812619 
L 262.649379 184.853156 
L 264.341651 192.922347 
L 266.020507 199.917779 
L 267.777713 206.338334 
L 269.555173 212.044311 
L 271.47091 217.447587 
L 273.361603 222.13974 
L 275.398741 226.595046 
L 277.367491 230.399292 
L 279.565924 234.154301 
L 281.82523 237.553953 
L 284.20662 240.711713 
L 286.673959 243.594165 
L 289.29447 246.28944 
L 292.049225 248.779992 
L 295.053324 251.159639 
L 298.009437 253.213465 
L 301.198502 255.160402 
L 304.414491 256.885796 
L 308.221906 258.670087 
L 312.374911 260.35122 
L 316.94628 261.939726 
L 321.959093 263.425252 
L 327.281645 264.765583 
L 333.152289 266.016843 
L 340.296992 267.285528 
L 347.89004 268.39532 
L 357.085218 269.488225 
L 367.294732 270.459223 
L 379.053674 271.344571 
L 391.832972 272.10034 
L 408.631275 272.861811 
L 428.471646 273.527695 
L 437.953846 273.781731 
L 437.953846 273.781731 
" clip-path="url(#pd5d7628441)" style="fill: none; stroke: #0000ff; stroke-linecap: square"/>
   </g>
   <g id="line2d_2">
    <path d="M 15.646154 276.421154 
L 437.953846 276.421154 
L 437.953846 276.421154 
" clip-path="url(#pd5d7628441)" style="fill: none; stroke-dasharray: 2,3.3; stroke-dashoffset: 0; stroke: #ff0000; stroke-width: 2"/>
   </g>
   <g id="line2d_3">
    <path d="M 15.646154 273.781731 
L 38.788802 273.091956 
L 57.485615 272.316096 
L 71.880589 271.517776 
L 84.435434 270.614804 
L 95.362715 269.609229 
L 104.140735 268.599361 
L 111.877337 267.510786 
L 119.223203 266.252352 
L 125.553911 264.940926 
L 131.025363 263.591765 
L 136.197327 262.085253 
L 140.806985 260.507106 
L 145.009743 258.829614 
L 148.619201 257.167782 
L 152.047673 255.361192 
L 155.175028 253.481964 
L 158.361348 251.296267 
L 161.418546 248.891684 
L 164.061907 246.523 
L 166.585074 243.964878 
L 168.970585 241.231952 
L 171.270387 238.256819 
L 173.422647 235.117075 
L 175.608776 231.513954 
L 177.557301 227.8897 
L 179.551172 223.707282 
L 181.430946 219.248605 
L 183.313951 214.190107 
L 185.138632 208.619552 
L 186.866866 202.623898 
L 188.603612 195.760374 
L 190.266498 188.250435 
L 191.879701 179.915869 
L 193.487043 170.378491 
L 194.981527 160.183099 
L 196.505992 148.190004 
L 197.978078 134.75662 
L 199.407599 119.584775 
L 200.80358 102.288616 
L 202.145359 82.819252 
L 203.467419 60.258123 
L 204.715691 35.131125 
L 205.684615 12.478846 
L 205.684615 12.478846 
" clip-path="url(#pd5d7628441)" style="fill: none; stroke: #0000ff; stroke-linecap: square"/>
   </g>
   <g id="patch_3">
    <path d="M 226.8 281.7 
L 226.8 7.2 
" style="fill: none; stroke: #000000; stroke-width: 0.8; stroke-linejoin: miter; stroke-linecap: square"/>
   </g>
   <g id="patch_4">
    <path d="M 7.2 276.421154 
L 446.4 276.421154 
" style="fill: none; stroke: #000000; stroke-width: 0.8; stroke-linejoin: miter; stroke-linecap: square"/>
   </g>
  </g>
 </g>
 <defs>
  <clipPath id="pd5d7628441">
   <rect x="7.2" y="7.2" width="439.2" height="274.5"/>
  </clipPath>
 </defs>
</svg>
