<?xml version="1.0" encoding="utf-8" standalone="no"?>
<!DOCTYPE svg PUBLIC "-//W3C//DTD SVG 1.1//EN"
  "http://www.w3.org/Graphics/SVG/1.1/DTD/svg11.dtd">
<svg xmlns:xlink="http://www.w3.org/1999/xlink" width="419.4pt" height="338.4pt" viewBox="0 0 419.4 338.4" xmlns="http://www.w3.org/2000/svg" version="1.1">
 <metadata>
  <rdf:RDF xmlns:dc="http://purl.org/dc/elements/1.1/" xmlns:cc="http://creativecommons.org/ns#" xmlns:rdf="http://www.w3.org/1999/02/22-rdf-syntax-ns#">
   <cc:Work>
    <dc:type rdf:resource="http://purl.org/dc/dcmitype/StillImage"/>
    <dc:date>2024-10-11T10:44:31.672532</dc:date>
    <dc:format>image/svg+xml</dc:format>
    <dc:creator>
     <cc:Agent>
      <dc:title>Matplotlib v3.6.2, https://matplotlib.org/</dc:title>
     </cc:Agent>
    </dc:creator>
   </cc:Work>
  </rdf:RDF>
 </metadata>
 <defs>
  <style type="text/css">*{stroke-linejoin: round; stroke-linecap: butt}</style>
 </defs>
 <g id="figure_1">
  <g id="patch_1">
   <path d="M 0 338.4 
L 419.4 338.4 
L 419.4 0 
L 0 0 
z
" style="fill: #ffffff"/>
  </g>
  <g id="axes_1">
   <g id="patch_2">
    <path d="M 7.2 331.2 
L 412.2 331.2 
L 412.2 7.2 
L 7.2 7.2 
z
" style="fill: #ffffff"/>
   </g>
   <g id="matplotlib.axis_1"/>
   <g id="matplotlib.axis_2"/>
   <g id="line2d_1">
    <path d="M 216.828122 -1 
L 217.703491 17.615823 
L 218.636389 33.440164 
L 219.700053 47.880377 
L 220.861644 60.5061 
L 222.026326 70.776294 
L 223.285837 79.900928 
L 224.621145 87.89239 
L 225.911689 94.364943 
L 227.269445 100.148153 
L 228.512124 104.709532 
L 230.15371 109.885446 
L 231.623006 113.860753 
L 233.265849 117.71861 
L 235.037066 121.317476 
L 236.905863 124.606573 
L 238.999788 127.793466 
L 241.007029 130.448234 
L 243.092972 132.868922 
L 245.780201 135.574837 
L 248.310089 137.778092 
L 251.026657 139.843581 
L 254.172157 141.91995 
L 257.479884 143.808505 
L 261.237069 145.659611 
L 264.81247 147.186785 
L 268.281222 148.490247 
L 273.573327 150.206114 
L 279.16087 151.734013 
L 285.230927 153.13767 
L 291.969121 154.453244 
L 299.679883 155.716957 
L 307.8913 156.844499 
L 318.151274 158.013385 
L 329.416589 159.066044 
L 343.126597 160.10734 
L 358.200885 161.030334 
L 377.052786 161.950628 
L 398.393191 162.770501 
L 404.411538 162.969231 
L 404.411538 162.969231 
" clip-path="url(#p0346828ce4)" style="fill: none; stroke: #0000ff; stroke-linecap: square"/>
   </g>
   <g id="line2d_2">
    <path d="M 14.988462 169.2 
L 404.411538 169.2 
L 404.411538 169.2 
" clip-path="url(#p0346828ce4)" style="fill: none; stroke-dasharray: 2,3.3; stroke-dashoffset: 0; stroke: #ff0000; stroke-width: 2"/>
   </g>
   <g id="line2d_3">
    <path d="M 14.988462 175.430769 
L 38.635771 176.292089 
L 58.653469 177.23198 
L 75.779954 178.259157 
L 89.664394 179.307023 
L 102.003501 180.465015 
L 111.380379 181.539375 
L 120.429635 182.790206 
L 128.57541 184.154808 
L 135.28477 185.50315 
L 141.54367 187.000293 
L 146.779445 188.4815 
L 151.768892 190.142162 
L 155.742411 191.684375 
L 160.127163 193.673133 
L 163.635148 195.53684 
L 166.103572 197.028029 
L 169.197508 199.153778 
L 171.729117 201.150868 
L 173.787451 202.982137 
L 176.26304 205.483282 
L 178.367737 207.920557 
L 180.327324 210.503784 
L 182.238977 213.379078 
L 183.838327 216.11122 
L 185.57225 219.482461 
L 187.273112 223.295899 
L 188.975966 227.740853 
L 190.436939 232.180783 
L 191.994257 237.72029 
L 193.327784 243.301312 
L 194.603006 249.560546 
L 195.872602 256.93904 
L 197.146036 265.839008 
L 198.279375 275.429095 
L 199.335864 286.257769 
L 200.376975 299.329718 
L 201.360164 314.670814 
L 202.290922 332.945437 
L 202.57189 339.4 
L 202.57189 339.4 
" clip-path="url(#p0346828ce4)" style="fill: none; stroke: #0000ff; stroke-linecap: square"/>
   </g>
   <g id="patch_3">
    <path d="M 209.7 331.2 
L 209.7 7.2 
" style="fill: none; stroke: #000000; stroke-width: 0.8; stroke-linejoin: miter; stroke-linecap: square"/>
   </g>
   <g id="patch_4">
    <path d="M 7.2 169.2 
L 412.2 169.2 
" style="fill: none; stroke: #000000; stroke-width: 0.8; stroke-linejoin: miter; stroke-linecap: square"/>
   </g>
  </g>
 </g>
 <defs>
  <clipPath id="p0346828ce4">
   <rect x="7.2" y="7.2" width="405" height="324"/>
  </clipPath>
 </defs>
</svg>
