<?xml version="1.0" encoding="utf-8" standalone="no"?>
<!DOCTYPE svg PUBLIC "-//W3C//DTD SVG 1.1//EN"
  "http://www.w3.org/Graphics/SVG/1.1/DTD/svg11.dtd">
<svg xmlns:xlink="http://www.w3.org/1999/xlink" width="453.6pt" height="288.9pt" viewBox="0 0 453.6 288.9" xmlns="http://www.w3.org/2000/svg" version="1.1">
 <metadata>
  <rdf:RDF xmlns:dc="http://purl.org/dc/elements/1.1/" xmlns:cc="http://creativecommons.org/ns#" xmlns:rdf="http://www.w3.org/1999/02/22-rdf-syntax-ns#">
   <cc:Work>
    <dc:type rdf:resource="http://purl.org/dc/dcmitype/StillImage"/>
    <dc:date>2024-10-28T19:34:52.184581</dc:date>
    <dc:format>image/svg+xml</dc:format>
    <dc:creator>
     <cc:Agent>
      <dc:title>Matplotlib v3.6.2, https://matplotlib.org/</dc:title>
     </cc:Agent>
    </dc:creator>
   </cc:Work>
  </rdf:RDF>
 </metadata>
 <defs>
  <style type="text/css">*{stroke-linejoin: round; stroke-linecap: butt}</style>
 </defs>
 <g id="figure_1">
  <g id="patch_1">
   <path d="M 0 288.9 
L 453.6 288.9 
L 453.6 0 
L 0 0 
z
" style="fill: #ffffff"/>
  </g>
  <g id="axes_1">
   <g id="patch_2">
    <path d="M 7.2 281.7 
L 446.4 281.7 
L 446.4 7.2 
L 7.2 7.2 
z
" style="fill: #ffffff"/>
   </g>
   <g id="matplotlib.axis_1"/>
   <g id="matplotlib.axis_2"/>
   <g id="line2d_1">
    <path d="M 247.915385 12.478846 
L 249.215028 42.19876 
L 250.548303 67.759895 
L 251.94172 90.24801 
L 253.347617 109.444443 
L 254.825933 126.595273 
L 256.339252 141.553434 
L 257.876382 154.565385 
L 259.453223 166.050173 
L 261.089048 176.329897 
L 262.738955 185.309043 
L 264.446485 193.386736 
L 266.172686 200.508022 
L 267.979699 207.024157 
L 269.886675 213.031112 
L 271.765333 218.21735 
L 273.759147 223.054914 
L 275.830595 227.468902 
L 277.891089 231.337752 
L 280.02764 234.884398 
L 282.322638 238.247229 
L 284.677426 241.29031 
L 286.942259 243.8864 
L 289.426656 246.416505 
L 291.975361 248.717305 
L 294.939686 251.07531 
L 297.710433 253.017335 
L 300.918555 254.999494 
L 304.371026 256.863897 
L 308.01147 258.577974 
L 311.99755 260.208549 
L 316.376797 261.75501 
L 320.954807 263.146537 
L 326.435002 264.566657 
L 332.513788 265.890781 
L 339.291526 267.121487 
L 346.043939 268.144889 
L 354.768774 269.234959 
L 364.096884 270.178264 
L 375.471507 271.096989 
L 389.406658 271.970433 
L 404.565066 272.697115 
L 423.241352 273.371566 
L 437.953846 273.781731 
L 437.953846 273.781731 
" clip-path="url(#pf5feb6653a)" style="fill: none; stroke: #0000ff; stroke-linecap: square"/>
   </g>
   <g id="line2d_2">
    <path d="M 15.646154 276.421154 
L 437.953846 276.421154 
L 437.953846 276.421154 
" clip-path="url(#pf5feb6653a)" style="fill: none; stroke-dasharray: 2,3.3; stroke-dashoffset: 0; stroke: #ff0000; stroke-width: 2"/>
   </g>
   <g id="line2d_3">
    <path d="M 15.646154 273.781731 
L 38.128599 273.115215 
L 56.778732 272.35016 
L 72.490437 271.478942 
L 84.584179 270.602652 
L 95.889359 269.554311 
L 105.024065 268.485476 
L 112.197455 267.460938 
L 119.686509 266.164194 
L 126.074774 264.821888 
L 131.384899 263.494897 
L 136.209131 262.081517 
L 140.979333 260.443124 
L 145.157084 258.766062 
L 149.012539 256.972578 
L 152.276234 255.231815 
L 155.678779 253.155857 
L 158.764362 250.997728 
L 161.45609 248.86004 
L 164.251632 246.341348 
L 166.713682 243.825791 
L 169.031201 241.158068 
L 171.3141 238.196661 
L 173.502099 234.993838 
L 175.495134 231.712676 
L 177.580418 227.844102 
L 179.550787 223.70814 
L 181.406788 219.309443 
L 183.227507 214.436784 
L 185.004121 209.05526 
L 186.773578 202.967492 
L 188.501376 196.190437 
L 190.150281 188.808726 
L 191.717438 180.806511 
L 193.297588 171.574435 
L 194.858116 161.079564 
L 196.368042 149.349929 
L 197.802163 136.470224 
L 199.196485 121.974595 
L 200.595634 105.041335 
L 201.944396 85.937217 
L 203.2832 63.631483 
L 204.545818 38.800755 
L 205.684615 12.478846 
L 205.684615 12.478846 
" clip-path="url(#pf5feb6653a)" style="fill: none; stroke: #0000ff; stroke-linecap: square"/>
   </g>
   <g id="patch_3">
    <path d="M 226.8 281.7 
L 226.8 7.2 
" style="fill: none; stroke: #000000; stroke-width: 0.8; stroke-linejoin: miter; stroke-linecap: square"/>
   </g>
   <g id="patch_4">
    <path d="M 7.2 276.421154 
L 446.4 276.421154 
" style="fill: none; stroke: #000000; stroke-width: 0.8; stroke-linejoin: miter; stroke-linecap: square"/>
   </g>
  </g>
 </g>
 <defs>
  <clipPath id="pf5feb6653a">
   <rect x="7.2" y="7.2" width="439.2" height="274.5"/>
  </clipPath>
 </defs>
</svg>
