<?xml version="1.0" encoding="utf-8" standalone="no"?>
<!DOCTYPE svg PUBLIC "-//W3C//DTD SVG 1.1//EN"
  "http://www.w3.org/Graphics/SVG/1.1/DTD/svg11.dtd">
<svg xmlns:xlink="http://www.w3.org/1999/xlink" width="453.6pt" height="337.397538pt" viewBox="0 0 453.6 337.397538" xmlns="http://www.w3.org/2000/svg" version="1.1">
 <metadata>
  <rdf:RDF xmlns:dc="http://purl.org/dc/elements/1.1/" xmlns:cc="http://creativecommons.org/ns#" xmlns:rdf="http://www.w3.org/1999/02/22-rdf-syntax-ns#">
   <cc:Work>
    <dc:type rdf:resource="http://purl.org/dc/dcmitype/StillImage"/>
    <dc:date>2024-11-05T23:15:40.416978</dc:date>
    <dc:format>image/svg+xml</dc:format>
    <dc:creator>
     <cc:Agent>
      <dc:title>Matplotlib v3.6.2, https://matplotlib.org/</dc:title>
     </cc:Agent>
    </dc:creator>
   </cc:Work>
  </rdf:RDF>
 </metadata>
 <defs>
  <style type="text/css">*{stroke-linejoin: round; stroke-linecap: butt}</style>
 </defs>
 <g id="figure_1">
  <g id="patch_1">
   <path d="M 0 337.397538 
L 453.6 337.397538 
L 453.6 0 
L 0 0 
z
" style="fill: #ffffff"/>
  </g>
  <g id="axes_1">
   <g id="patch_2">
    <path d="M 7.2 330.197538 
L 446.4 330.197538 
L 446.4 7.2 
L 7.2 7.2 
z
" style="fill: #ffffff"/>
   </g>
   <g id="matplotlib.axis_1">
    <g id="xtick_1">
     <g id="line2d_1">
      <defs>
       <path id="m47a5b077b0" d="M 0 0 
L 0 3.5 
" style="stroke: #000000; stroke-width: 0.8"/>
      </defs>
      <g>
       <use xlink:href="#m47a5b077b0" x="68.434615" y="168.698769" style="stroke: #000000; stroke-width: 0.8"/>
      </g>
     </g>
     <g id="text_1">
      <!-- $-\frac{3}{2} \, \pi$ -->
      <g transform="translate(58.584615 184.298769) scale(0.1 -0.1)">
       <defs>
        <path id="Cmsy10-a1" d="M 653 1472 
Q 600 1472 565 1512 
Q 531 1553 531 1600 
Q 531 1647 565 1687 
Q 600 1728 653 1728 
L 4325 1728 
Q 4375 1728 4408 1687 
Q 4441 1647 4441 1600 
Q 4441 1553 4408 1512 
Q 4375 1472 4325 1472 
L 653 1472 
z
" transform="scale(0.015625)"/>
        <path id="Cmr10-33" d="M 609 494 
Q 759 275 1012 169 
Q 1266 63 1556 63 
Q 1928 63 2084 380 
Q 2241 697 2241 1100 
Q 2241 1281 2208 1462 
Q 2175 1644 2097 1800 
Q 2019 1956 1883 2050 
Q 1747 2144 1550 2144 
L 1125 2144 
Q 1069 2144 1069 2203 
L 1069 2259 
Q 1069 2309 1125 2309 
L 1478 2338 
Q 1703 2338 1851 2506 
Q 2000 2675 2069 2917 
Q 2138 3159 2138 3378 
Q 2138 3684 1994 3881 
Q 1850 4078 1556 4078 
Q 1313 4078 1091 3986 
Q 869 3894 738 3706 
Q 750 3709 759 3711 
Q 769 3713 781 3713 
Q 925 3713 1022 3613 
Q 1119 3513 1119 3372 
Q 1119 3234 1022 3134 
Q 925 3034 781 3034 
Q 641 3034 541 3134 
Q 441 3234 441 3372 
Q 441 3647 606 3850 
Q 772 4053 1033 4158 
Q 1294 4263 1556 4263 
Q 1750 4263 1965 4205 
Q 2181 4147 2356 4039 
Q 2531 3931 2642 3762 
Q 2753 3594 2753 3378 
Q 2753 3109 2633 2881 
Q 2513 2653 2303 2487 
Q 2094 2322 1844 2241 
Q 2122 2188 2372 2031 
Q 2622 1875 2773 1631 
Q 2925 1388 2925 1106 
Q 2925 753 2731 467 
Q 2538 181 2222 20 
Q 1906 -141 1556 -141 
Q 1256 -141 954 -26 
Q 653 88 461 316 
Q 269 544 269 863 
Q 269 1022 375 1128 
Q 481 1234 641 1234 
Q 744 1234 830 1186 
Q 916 1138 964 1050 
Q 1013 963 1013 863 
Q 1013 706 903 600 
Q 794 494 641 494 
L 609 494 
z
" transform="scale(0.015625)"/>
        <path id="Cmr10-32" d="M 319 0 
L 319 172 
Q 319 188 331 206 
L 1325 1306 
Q 1550 1550 1690 1715 
Q 1831 1881 1968 2097 
Q 2106 2313 2186 2536 
Q 2266 2759 2266 3009 
Q 2266 3272 2169 3511 
Q 2072 3750 1880 3894 
Q 1688 4038 1416 4038 
Q 1138 4038 916 3870 
Q 694 3703 603 3438 
Q 628 3444 672 3444 
Q 816 3444 917 3347 
Q 1019 3250 1019 3097 
Q 1019 2950 917 2848 
Q 816 2747 672 2747 
Q 522 2747 420 2851 
Q 319 2956 319 3097 
Q 319 3338 409 3548 
Q 500 3759 670 3923 
Q 841 4088 1055 4175 
Q 1269 4263 1509 4263 
Q 1875 4263 2190 4108 
Q 2506 3953 2690 3670 
Q 2875 3388 2875 3009 
Q 2875 2731 2753 2481 
Q 2631 2231 2440 2026 
Q 2250 1822 1953 1562 
Q 1656 1303 1563 1216 
L 838 519 
L 1453 519 
Q 1906 519 2211 526 
Q 2516 534 2534 550 
Q 2609 631 2688 1141 
L 2875 1141 
L 2694 0 
L 319 0 
z
" transform="scale(0.015625)"/>
        <path id="Cmmi10-bc" d="M 647 109 
Q 647 144 672 213 
Q 850 584 1004 942 
Q 1159 1300 1282 1639 
Q 1406 1978 1509 2363 
L 1100 2363 
Q 866 2363 662 2216 
Q 459 2069 325 1844 
Q 313 1819 288 1819 
L 213 1819 
Q 153 1819 153 1881 
Q 153 1894 166 1919 
Q 375 2275 614 2517 
Q 853 2759 1153 2759 
L 3475 2759 
Q 3541 2759 3587 2715 
Q 3634 2672 3634 2597 
Q 3634 2503 3567 2433 
Q 3500 2363 3406 2363 
L 2591 2363 
Q 2488 1859 2478 1381 
Q 2478 766 2694 269 
Q 2713 231 2713 191 
Q 2713 122 2672 62 
Q 2631 3 2567 -34 
Q 2503 -72 2431 -72 
Q 2263 -72 2200 203 
Q 2138 478 2138 738 
Q 2138 1103 2200 1442 
Q 2263 1781 2400 2363 
L 1703 2363 
Q 1197 313 1094 103 
Q 1003 -72 844 -72 
Q 766 -72 706 -20 
Q 647 31 647 109 
z
" transform="scale(0.015625)"/>
       </defs>
       <use xlink:href="#Cmsy10-a1" transform="translate(0 0.33125)"/>
       <use xlink:href="#Cmr10-33" transform="translate(77.685547 39.373438) scale(0.7)"/>
       <use xlink:href="#Cmr10-32" transform="translate(77.685547 -40.045312) scale(0.7)"/>
       <use xlink:href="#Cmmi10-bc" transform="translate(139.818001 0.33125)"/>
       <path d="M 77.685547 12.83125 
L 77.685547 19.08125 
L 112.685547 19.08125 
L 112.685547 12.83125 
L 77.685547 12.83125 
z
"/>
      </g>
     </g>
    </g>
    <g id="xtick_2">
     <g id="line2d_2">
      <g>
       <use xlink:href="#m47a5b077b0" x="174.011538" y="168.698769" style="stroke: #000000; stroke-width: 0.8"/>
      </g>
     </g>
     <g id="text_2">
      <!-- $-\frac{1}{2} \, \pi$ -->
      <g transform="translate(164.161538 184.198769) scale(0.1 -0.1)">
       <defs>
        <path id="Cmr10-31" d="M 594 0 
L 594 225 
Q 1394 225 1394 428 
L 1394 3788 
Q 1063 3628 556 3628 
L 556 3853 
Q 1341 3853 1741 4263 
L 1831 4263 
Q 1853 4263 1873 4245 
Q 1894 4228 1894 4206 
L 1894 428 
Q 1894 225 2694 225 
L 2694 0 
L 594 0 
z
" transform="scale(0.015625)"/>
       </defs>
       <use xlink:href="#Cmsy10-a1" transform="translate(0 0.873437)"/>
       <use xlink:href="#Cmr10-31" transform="translate(77.685547 38.373438) scale(0.7)"/>
       <use xlink:href="#Cmr10-32" transform="translate(77.685547 -39.503125) scale(0.7)"/>
       <use xlink:href="#Cmmi10-bc" transform="translate(139.818001 0.873437)"/>
       <path d="M 77.685547 13.373437 
L 77.685547 19.623437 
L 112.685547 19.623437 
L 112.685547 13.373437 
L 77.685547 13.373437 
z
"/>
      </g>
     </g>
    </g>
    <g id="xtick_3">
     <g id="line2d_3">
      <g>
       <use xlink:href="#m47a5b077b0" x="279.588462" y="168.698769" style="stroke: #000000; stroke-width: 0.8"/>
      </g>
     </g>
     <g id="text_3">
      <!-- $\frac{1}{2} \, \pi$ -->
      <g transform="translate(273.588462 184.198769) scale(0.1 -0.1)">
       <use xlink:href="#Cmr10-31" transform="translate(0 38.373438) scale(0.7)"/>
       <use xlink:href="#Cmr10-32" transform="translate(0 -39.503125) scale(0.7)"/>
       <use xlink:href="#Cmmi10-bc" transform="translate(62.132454 0.873437)"/>
       <path d="M 0 13.373437 
L 0 19.623437 
L 35 19.623437 
L 35 13.373437 
L 0 13.373437 
z
"/>
      </g>
     </g>
    </g>
    <g id="xtick_4">
     <g id="line2d_4">
      <g>
       <use xlink:href="#m47a5b077b0" x="385.165385" y="168.698769" style="stroke: #000000; stroke-width: 0.8"/>
      </g>
     </g>
     <g id="text_4">
      <!-- $\frac{3}{2} \, \pi$ -->
      <g transform="translate(379.165385 184.298769) scale(0.1 -0.1)">
       <use xlink:href="#Cmr10-33" transform="translate(0 39.373438) scale(0.7)"/>
       <use xlink:href="#Cmr10-32" transform="translate(0 -40.045312) scale(0.7)"/>
       <use xlink:href="#Cmmi10-bc" transform="translate(62.132454 0.33125)"/>
       <path d="M 0 12.83125 
L 0 19.08125 
L 35 19.08125 
L 35 12.83125 
L 0 12.83125 
z
"/>
      </g>
     </g>
    </g>
   </g>
   <g id="matplotlib.axis_2">
    <g id="ytick_1">
     <g id="line2d_5">
      <defs>
       <path id="m5b96b69a61" d="M 0 0 
L -3.5 0 
" style="stroke: #000000; stroke-width: 0.8"/>
      </defs>
      <g>
       <use xlink:href="#m5b96b69a61" x="226.8" y="323.986047" style="stroke: #000000; stroke-width: 0.8"/>
      </g>
     </g>
     <g id="text_5">
      <!-- −10 -->
      <g transform="translate(198.695312 327.785266) scale(0.1 -0.1)">
       <defs>
        <path id="DejaVuSans-2212" d="M 678 2272 
L 4684 2272 
L 4684 1741 
L 678 1741 
L 678 2272 
z
" transform="scale(0.015625)"/>
        <path id="DejaVuSans-31" d="M 794 531 
L 1825 531 
L 1825 4091 
L 703 3866 
L 703 4441 
L 1819 4666 
L 2450 4666 
L 2450 531 
L 3481 531 
L 3481 0 
L 794 0 
L 794 531 
z
" transform="scale(0.015625)"/>
        <path id="DejaVuSans-30" d="M 2034 4250 
Q 1547 4250 1301 3770 
Q 1056 3291 1056 2328 
Q 1056 1369 1301 889 
Q 1547 409 2034 409 
Q 2525 409 2770 889 
Q 3016 1369 3016 2328 
Q 3016 3291 2770 3770 
Q 2525 4250 2034 4250 
z
M 2034 4750 
Q 2819 4750 3233 4129 
Q 3647 3509 3647 2328 
Q 3647 1150 3233 529 
Q 2819 -91 2034 -91 
Q 1250 -91 836 529 
Q 422 1150 422 2328 
Q 422 3509 836 4129 
Q 1250 4750 2034 4750 
z
" transform="scale(0.015625)"/>
       </defs>
       <use xlink:href="#DejaVuSans-2212"/>
       <use xlink:href="#DejaVuSans-31" x="83.789062"/>
       <use xlink:href="#DejaVuSans-30" x="147.412109"/>
      </g>
     </g>
    </g>
    <g id="ytick_2">
     <g id="line2d_6">
      <g>
       <use xlink:href="#m5b96b69a61" x="226.8" y="246.342408" style="stroke: #000000; stroke-width: 0.8"/>
      </g>
     </g>
     <g id="text_6">
      <!-- −5 -->
      <g transform="translate(205.057812 250.141627) scale(0.1 -0.1)">
       <defs>
        <path id="DejaVuSans-35" d="M 691 4666 
L 3169 4666 
L 3169 4134 
L 1269 4134 
L 1269 2991 
Q 1406 3038 1543 3061 
Q 1681 3084 1819 3084 
Q 2600 3084 3056 2656 
Q 3513 2228 3513 1497 
Q 3513 744 3044 326 
Q 2575 -91 1722 -91 
Q 1428 -91 1123 -41 
Q 819 9 494 109 
L 494 744 
Q 775 591 1075 516 
Q 1375 441 1709 441 
Q 2250 441 2565 725 
Q 2881 1009 2881 1497 
Q 2881 1984 2565 2268 
Q 2250 2553 1709 2553 
Q 1456 2553 1204 2497 
Q 953 2441 691 2322 
L 691 4666 
z
" transform="scale(0.015625)"/>
       </defs>
       <use xlink:href="#DejaVuSans-2212"/>
       <use xlink:href="#DejaVuSans-35" x="83.789062"/>
      </g>
     </g>
    </g>
    <g id="ytick_3">
     <g id="line2d_7">
      <g>
       <use xlink:href="#m5b96b69a61" x="226.8" y="91.05513" style="stroke: #000000; stroke-width: 0.8"/>
      </g>
     </g>
     <g id="text_7">
      <!-- 5 -->
      <g transform="translate(213.4375 94.854349) scale(0.1 -0.1)">
       <use xlink:href="#DejaVuSans-35"/>
      </g>
     </g>
    </g>
    <g id="ytick_4">
     <g id="line2d_8">
      <g>
       <use xlink:href="#m5b96b69a61" x="226.8" y="13.411491" style="stroke: #000000; stroke-width: 0.8"/>
      </g>
     </g>
     <g id="text_8">
      <!-- 10 -->
      <g transform="translate(207.075 17.21071) scale(0.1 -0.1)">
       <use xlink:href="#DejaVuSans-31"/>
       <use xlink:href="#DejaVuSans-30" x="63.623047"/>
      </g>
     </g>
    </g>
   </g>
   <g id="line2d_9">
    <path d="M 15.646154 168.698769 
L 24.016993 164.748744 
L 29.493155 161.911852 
L 34.030342 159.240986 
L 37.195209 157.107404 
L 39.694795 155.199394 
L 41.832983 153.36054 
L 44.509654 150.702279 
L 45.939151 149.073286 
L 47.986926 146.407065 
L 49.734089 143.734186 
L 51.435774 140.663009 
L 52.724922 137.935422 
L 54.076285 134.592187 
L 55.305149 130.994612 
L 56.55248 126.624556 
L 57.680618 121.839406 
L 58.759603 116.258203 
L 59.731693 110.081375 
L 60.611986 103.196298 
L 61.492279 94.600299 
L 62.338836 84.029502 
L 63.117921 71.363855 
L 63.798313 56.853995 
L 64.466579 37.794303 
L 65.023466 16.237624 
L 65.367596 -1 
L 65.367596 -1 
" clip-path="url(#pc828592dc7)" style="fill: none; stroke: #0000ff; stroke-linecap: square"/>
   </g>
   <g id="line2d_10">
    <path d="M 71.501989 338.397538 
L 72.129987 309.349351 
L 72.824741 286.893381 
L 73.622961 268.481714 
L 74.451632 254.500894 
L 75.326601 243.354243 
L 76.318381 233.674386 
L 77.199964 226.879353 
L 78.258657 220.29774 
L 79.321316 214.945738 
L 80.369539 210.570386 
L 81.57904 206.355321 
L 82.804546 202.774157 
L 84.128509 199.498102 
L 85.485292 196.632789 
L 86.847792 194.145943 
L 88.727777 191.210473 
L 90.358658 189.025162 
L 92.681256 186.350791 
L 95.376501 183.729449 
L 97.427897 181.993852 
L 100.15529 179.947481 
L 103.010562 178.048136 
L 106.655411 175.886115 
L 110.805886 173.672679 
L 116.668565 170.816297 
L 131.540267 163.775761 
L 135.652895 161.588619 
L 139.115481 159.549794 
L 142.046668 157.621206 
L 144.727249 155.635013 
L 147.279025 153.479563 
L 149.701355 151.113905 
L 152.074206 148.38903 
L 154.192417 145.493453 
L 155.95408 142.635112 
L 157.592411 139.485198 
L 159.200253 135.776175 
L 160.410907 132.446498 
L 161.760321 128.006034 
L 163.081116 122.650419 
L 164.211771 116.964414 
L 165.20266 110.819191 
L 166.119051 103.797661 
L 167.054925 94.75679 
L 167.868236 84.699129 
L 168.681547 71.61079 
L 169.39296 56.419325 
L 170.063426 37.127527 
L 170.689576 12.116531 
L 170.944595 -1 
L 170.944595 -1 
" clip-path="url(#pc828592dc7)" style="fill: none; stroke: #0000ff; stroke-linecap: square"/>
   </g>
   <g id="line2d_11">
    <path d="M 177.078242 338.397538 
L 177.721086 308.807497 
L 178.436504 285.952068 
L 179.230768 267.881748 
L 179.993791 255.010284 
L 180.926837 243.095346 
L 181.928788 233.389222 
L 182.992651 225.415328 
L 183.982391 219.492581 
L 185.170078 213.735169 
L 186.466863 208.661159 
L 187.941348 203.991851 
L 189.484434 200.008601 
L 191.150938 196.459949 
L 192.871659 193.401013 
L 194.428191 191.034427 
L 196.620508 188.18861 
L 199.027005 185.556986 
L 201.040493 183.651718 
L 203.43251 181.655036 
L 206.938855 179.118551 
L 209.406277 177.539996 
L 213.454855 175.211263 
L 219.456618 172.147054 
L 226.80752 168.695295 
L 235.467127 164.602645 
L 241.512643 161.429918 
L 245.575103 158.99157 
L 248.63658 156.899182 
L 251.927953 154.298304 
L 254.375616 152.037991 
L 256.555838 149.705235 
L 258.610868 147.139973 
L 260.569048 144.254446 
L 262.218502 141.379207 
L 263.581898 138.599365 
L 265.02927 135.125736 
L 266.235413 131.69567 
L 267.480302 127.480129 
L 268.717196 122.38131 
L 269.777391 117.027534 
L 270.686493 111.453241 
L 271.634004 104.322435 
L 272.608578 95.010502 
L 273.48088 84.196764 
L 274.265951 71.472007 
L 274.976807 56.248603 
L 275.610193 38.134133 
L 276.243579 13.196517 
L 276.521598 -1 
L 276.521598 -1 
" clip-path="url(#pc828592dc7)" style="fill: none; stroke: #0000ff; stroke-linecap: square"/>
   </g>
   <g id="line2d_12">
    <path d="M 282.65519 338.397538 
L 283.293638 308.97411 
L 284.002949 286.233608 
L 284.81359 267.767939 
L 285.624231 254.228509 
L 286.454414 243.645386 
L 287.443993 233.916704 
L 288.433571 226.330023 
L 289.505876 219.782972 
L 290.690228 213.983273 
L 291.87458 209.264978 
L 293.236548 204.810069 
L 294.598515 201.122923 
L 296.135626 197.6457 
L 297.749091 194.581387 
L 299.108136 192.357491 
L 301.073439 189.585267 
L 303.01514 187.244221 
L 305.533289 184.648471 
L 308.082685 182.398669 
L 310.574157 180.473729 
L 313.705419 178.339519 
L 318.094853 175.7265 
L 322.108878 173.596798 
L 327.651721 170.896692 
L 342.131662 164.060295 
L 346.44932 161.78744 
L 350.193687 159.596816 
L 352.78099 157.911141 
L 355.633183 155.829439 
L 357.787756 154.053264 
L 360.533348 151.449708 
L 362.633842 149.116526 
L 364.685823 146.45208 
L 366.570746 143.557907 
L 368.075943 140.840468 
L 369.740281 137.276756 
L 370.988535 134.097933 
L 372.285455 130.184926 
L 373.498374 125.780764 
L 374.53919 121.235675 
L 375.714603 114.943333 
L 376.812448 107.514301 
L 377.81694 98.817695 
L 378.638798 89.747292 
L 379.460655 78.100447 
L 380.222748 63.877604 
L 380.893523 47.194981 
L 381.546452 25.053554 
L 382.098441 -1 
L 382.098441 -1 
" clip-path="url(#pc828592dc7)" style="fill: none; stroke: #0000ff; stroke-linecap: square"/>
   </g>
   <g id="line2d_13">
    <path d="M 388.232413 338.397538 
L 388.879748 308.624329 
L 389.579384 286.246762 
L 390.342623 268.699217 
L 391.153396 254.925497 
L 392.011704 243.866397 
L 392.955843 234.48174 
L 393.9043 227.063566 
L 394.987982 220.305776 
L 396.031919 215.037874 
L 397.134852 210.438738 
L 398.524079 205.684455 
L 400.008736 201.54011 
L 401.549725 197.985447 
L 403.199927 194.802892 
L 404.882815 192.056697 
L 406.218523 190.155694 
L 408.46376 187.388725 
L 410.986336 184.766547 
L 413.508341 182.523466 
L 416.004696 180.580615 
L 419.437089 178.240735 
L 422.544575 176.363951 
L 426.266064 174.32828 
L 431.453382 171.740532 
L 437.953846 168.698769 
L 437.953846 168.698769 
" clip-path="url(#pc828592dc7)" style="fill: none; stroke: #0000ff; stroke-linecap: square"/>
   </g>
   <g id="patch_3">
    <path d="M 226.8 330.197538 
L 226.8 7.2 
" style="fill: none; stroke: #000000; stroke-width: 0.8; stroke-linejoin: miter; stroke-linecap: square"/>
   </g>
   <g id="patch_4">
    <path d="M 7.2 168.698769 
L 446.4 168.698769 
" style="fill: none; stroke: #000000; stroke-width: 0.8; stroke-linejoin: miter; stroke-linecap: square"/>
   </g>
  </g>
 </g>
 <defs>
  <clipPath id="pc828592dc7">
   <rect x="7.2" y="7.2" width="439.2" height="322.997538"/>
  </clipPath>
 </defs>
</svg>
