<?xml version="1.0" encoding="utf-8" standalone="no"?>
<!DOCTYPE svg PUBLIC "-//W3C//DTD SVG 1.1//EN"
  "http://www.w3.org/Graphics/SVG/1.1/DTD/svg11.dtd">
<svg xmlns:xlink="http://www.w3.org/1999/xlink" width="419.4pt" height="338.4pt" viewBox="0 0 419.4 338.4" xmlns="http://www.w3.org/2000/svg" version="1.1">
 <metadata>
  <rdf:RDF xmlns:dc="http://purl.org/dc/elements/1.1/" xmlns:cc="http://creativecommons.org/ns#" xmlns:rdf="http://www.w3.org/1999/02/22-rdf-syntax-ns#">
   <cc:Work>
    <dc:type rdf:resource="http://purl.org/dc/dcmitype/StillImage"/>
    <dc:date>2024-10-10T17:34:28.344892</dc:date>
    <dc:format>image/svg+xml</dc:format>
    <dc:creator>
     <cc:Agent>
      <dc:title>Matplotlib v3.6.2, https://matplotlib.org/</dc:title>
     </cc:Agent>
    </dc:creator>
   </cc:Work>
  </rdf:RDF>
 </metadata>
 <defs>
  <style type="text/css">*{stroke-linejoin: round; stroke-linecap: butt}</style>
 </defs>
 <g id="figure_1">
  <g id="patch_1">
   <path d="M 0 338.4 
L 419.4 338.4 
L 419.4 0 
L 0 0 
z
" style="fill: #ffffff"/>
  </g>
  <g id="axes_1">
   <g id="patch_2">
    <path d="M 7.2 331.2 
L 412.2 331.2 
L 412.2 7.2 
L 7.2 7.2 
z
" style="fill: #ffffff"/>
   </g>
   <g id="matplotlib.axis_1"/>
   <g id="matplotlib.axis_2"/>
   <g id="line2d_1">
    <path d="M 216.828164 -1 
L 217.794445 19.319105 
L 218.823804 36.228852 
L 219.861695 49.810212 
L 220.943902 61.301278 
L 222.179726 71.986114 
L 223.378437 80.505464 
L 224.619323 87.882461 
L 226.035359 94.931496 
L 227.447231 100.839891 
L 228.878306 105.940884 
L 230.390305 110.563713 
L 232.212629 115.310128 
L 233.849205 118.962211 
L 235.301474 121.811999 
L 237.359663 125.338199 
L 239.323747 128.24628 
L 241.275961 130.778282 
L 243.522501 133.330309 
L 245.654061 135.456867 
L 248.003275 137.526399 
L 251.390194 140.099568 
L 254.373475 142.042886 
L 257.921854 144.041227 
L 260.41872 145.279786 
L 264.773505 147.17121 
L 269.375103 148.869869 
L 273.853074 150.28894 
L 279.03677 151.702752 
L 285.380286 153.16937 
L 291.860039 154.433665 
L 299.721235 155.72315 
L 308.623993 156.936012 
L 317.84132 157.981322 
L 329.50147 159.073224 
L 342.930788 160.093977 
L 358.997417 161.073921 
L 377.231514 161.958362 
L 399.799704 162.818072 
L 404.411538 162.969231 
L 404.411538 162.969231 
" clip-path="url(#p85e10b6054)" style="fill: none; stroke: #0000ff; stroke-linecap: square"/>
   </g>
   <g id="line2d_2">
    <path d="M 14.988462 169.2 
L 404.411538 169.2 
L 404.411538 169.2 
" clip-path="url(#p85e10b6054)" style="fill: none; stroke-dasharray: 2,3.3; stroke-dashoffset: 0; stroke: #ff0000; stroke-width: 2"/>
   </g>
   <g id="line2d_3">
    <path d="M 14.988462 175.430769 
L 39.591543 176.331936 
L 59.797331 177.293269 
L 76.372388 178.29941 
L 90.049994 179.339595 
L 102.07841 180.472856 
L 111.672987 181.576208 
L 120.303969 182.771102 
L 127.696881 183.994592 
L 133.808924 185.186104 
L 140.465577 186.723114 
L 145.038828 187.96246 
L 150.632838 189.739376 
L 154.842653 191.315591 
L 158.634622 192.957832 
L 161.375352 194.305256 
L 164.28079 195.911223 
L 167.070802 197.65943 
L 170.110733 199.844737 
L 172.827935 202.10303 
L 175.211681 204.377205 
L 177.449582 206.8182 
L 179.482251 209.348678 
L 181.875234 212.80154 
L 183.902325 216.227598 
L 185.839496 220.045642 
L 187.547655 223.966331 
L 189.106592 228.112186 
L 190.681815 232.991716 
L 192.008397 237.775055 
L 193.435606 243.792552 
L 194.828555 250.779339 
L 196.017559 257.868581 
L 197.13048 265.719413 
L 198.329026 275.892939 
L 199.331194 286.205046 
L 200.385918 299.454675 
L 201.355854 314.595666 
L 202.283537 332.782374 
L 202.571746 339.4 
L 202.571746 339.4 
" clip-path="url(#p85e10b6054)" style="fill: none; stroke: #0000ff; stroke-linecap: square"/>
   </g>
   <g id="patch_3">
    <path d="M 209.7 331.2 
L 209.7 7.2 
" style="fill: none; stroke: #000000; stroke-width: 0.8; stroke-linejoin: miter; stroke-linecap: square"/>
   </g>
   <g id="patch_4">
    <path d="M 7.2 169.2 
L 412.2 169.2 
" style="fill: none; stroke: #000000; stroke-width: 0.8; stroke-linejoin: miter; stroke-linecap: square"/>
   </g>
  </g>
 </g>
 <defs>
  <clipPath id="p85e10b6054">
   <rect x="7.2" y="7.2" width="405" height="324"/>
  </clipPath>
 </defs>
</svg>
