<?xml version="1.0" encoding="utf-8" standalone="no"?>
<!DOCTYPE svg PUBLIC "-//W3C//DTD SVG 1.1//EN"
  "http://www.w3.org/Graphics/SVG/1.1/DTD/svg11.dtd">
<svg xmlns:xlink="http://www.w3.org/1999/xlink" width="419.4pt" height="338.4pt" viewBox="0 0 419.4 338.4" xmlns="http://www.w3.org/2000/svg" version="1.1">
 <metadata>
  <rdf:RDF xmlns:dc="http://purl.org/dc/elements/1.1/" xmlns:cc="http://creativecommons.org/ns#" xmlns:rdf="http://www.w3.org/1999/02/22-rdf-syntax-ns#">
   <cc:Work>
    <dc:type rdf:resource="http://purl.org/dc/dcmitype/StillImage"/>
    <dc:date>2024-11-05T23:15:24.829444</dc:date>
    <dc:format>image/svg+xml</dc:format>
    <dc:creator>
     <cc:Agent>
      <dc:title>Matplotlib v3.6.2, https://matplotlib.org/</dc:title>
     </cc:Agent>
    </dc:creator>
   </cc:Work>
  </rdf:RDF>
 </metadata>
 <defs>
  <style type="text/css">*{stroke-linejoin: round; stroke-linecap: butt}</style>
 </defs>
 <g id="figure_1">
  <g id="patch_1">
   <path d="M 0 338.4 
L 419.4 338.4 
L 419.4 0 
L 0 0 
z
" style="fill: #ffffff"/>
  </g>
  <g id="axes_1">
   <g id="patch_2">
    <path d="M 7.2 331.2 
L 412.2 331.2 
L 412.2 7.2 
L 7.2 7.2 
z
" style="fill: #ffffff"/>
   </g>
   <g id="matplotlib.axis_1"/>
   <g id="matplotlib.axis_2"/>
   <g id="line2d_1">
    <path d="M 216.828204 -1 
L 217.778606 19.025248 
L 218.733408 34.898233 
L 219.732046 48.267276 
L 220.812224 60.022695 
L 222.032972 70.829337 
L 223.216395 79.44214 
L 224.433165 86.854986 
L 225.83845 94.025328 
L 227.237777 100.023465 
L 228.661017 105.21595 
L 230.081765 109.676075 
L 231.698179 114.049861 
L 233.362617 117.929142 
L 235.265568 121.745444 
L 237.259381 125.178596 
L 239.011172 127.809547 
L 241.391283 130.918096 
L 243.592222 133.404098 
L 245.754889 135.551231 
L 248.54275 137.966303 
L 250.569989 139.515561 
L 254.097726 141.874216 
L 257.294399 143.70955 
L 261.656148 145.849488 
L 265.533283 147.470977 
L 269.897864 149.046417 
L 274.821955 150.570297 
L 279.700543 151.868668 
L 285.949968 153.289139 
L 291.882125 154.437633 
L 299.652248 155.712814 
L 307.538624 156.799962 
L 317.616813 157.957983 
L 329.176204 159.045654 
L 342.07563 160.035151 
L 357.612321 160.997826 
L 375.50137 161.882795 
L 397.872442 162.752708 
L 404.411538 162.969231 
L 404.411538 162.969231 
" clip-path="url(#pe8fc35146d)" style="fill: none; stroke: #0000ff; stroke-linecap: square"/>
   </g>
   <g id="line2d_2">
    <path d="M 14.988462 169.2 
L 404.411538 169.2 
L 404.411538 169.2 
" clip-path="url(#pe8fc35146d)" style="fill: none; stroke-dasharray: 2,3.3; stroke-dashoffset: 0; stroke: #ff0000; stroke-width: 2"/>
   </g>
   <g id="line2d_3">
    <path d="M 14.988462 175.430769 
L 38.866067 176.301649 
L 59.057324 177.253512 
L 74.983699 178.205611 
L 89.188474 179.267109 
L 100.134579 180.272861 
L 111.121192 181.506932 
L 120.003594 182.725655 
L 127.83619 184.019768 
L 134.533356 185.340173 
L 140.973107 186.852517 
L 145.919978 188.221672 
L 151.473608 190.035958 
L 154.843189 191.315807 
L 158.850214 193.05856 
L 162.141745 194.709823 
L 164.292294 195.917991 
L 167.580188 198.00361 
L 170.605996 200.23296 
L 172.948701 202.21115 
L 175.403551 204.574002 
L 177.705621 207.119244 
L 179.457983 209.31646 
L 181.586155 212.35321 
L 183.303909 215.161452 
L 185.116092 218.549462 
L 186.936538 222.496053 
L 188.580708 226.645233 
L 190.115071 231.145726 
L 191.563364 236.092375 
L 192.843135 241.170836 
L 194.293128 247.944255 
L 195.576308 255.098408 
L 196.832106 263.481365 
L 198.017547 273.04828 
L 199.094245 283.590973 
L 200.1011 295.589764 
L 201.076653 309.888136 
L 202.040146 327.584559 
L 202.571679 339.4 
L 202.571679 339.4 
" clip-path="url(#pe8fc35146d)" style="fill: none; stroke: #0000ff; stroke-linecap: square"/>
   </g>
   <g id="patch_3">
    <path d="M 209.7 331.2 
L 209.7 7.2 
" style="fill: none; stroke: #000000; stroke-width: 0.8; stroke-linejoin: miter; stroke-linecap: square"/>
   </g>
   <g id="patch_4">
    <path d="M 7.2 169.2 
L 412.2 169.2 
" style="fill: none; stroke: #000000; stroke-width: 0.8; stroke-linejoin: miter; stroke-linecap: square"/>
   </g>
  </g>
 </g>
 <defs>
  <clipPath id="pe8fc35146d">
   <rect x="7.2" y="7.2" width="405" height="324"/>
  </clipPath>
 </defs>
</svg>
