<?xml version="1.0" encoding="utf-8" standalone="no"?>
<!DOCTYPE svg PUBLIC "-//W3C//DTD SVG 1.1//EN"
  "http://www.w3.org/Graphics/SVG/1.1/DTD/svg11.dtd">
<svg xmlns:xlink="http://www.w3.org/1999/xlink" width="453.6pt" height="288.9pt" viewBox="0 0 453.6 288.9" xmlns="http://www.w3.org/2000/svg" version="1.1">
 <metadata>
  <rdf:RDF xmlns:dc="http://purl.org/dc/elements/1.1/" xmlns:cc="http://creativecommons.org/ns#" xmlns:rdf="http://www.w3.org/1999/02/22-rdf-syntax-ns#">
   <cc:Work>
    <dc:type rdf:resource="http://purl.org/dc/dcmitype/StillImage"/>
    <dc:date>2024-12-04T13:19:24.406117</dc:date>
    <dc:format>image/svg+xml</dc:format>
    <dc:creator>
     <cc:Agent>
      <dc:title>Matplotlib v3.6.2, https://matplotlib.org/</dc:title>
     </cc:Agent>
    </dc:creator>
   </cc:Work>
  </rdf:RDF>
 </metadata>
 <defs>
  <style type="text/css">*{stroke-linejoin: round; stroke-linecap: butt}</style>
 </defs>
 <g id="figure_1">
  <g id="patch_1">
   <path d="M 0 288.9 
L 453.6 288.9 
L 453.6 0 
L 0 0 
z
" style="fill: #ffffff"/>
  </g>
  <g id="axes_1">
   <g id="patch_2">
    <path d="M 7.2 281.7 
L 446.4 281.7 
L 446.4 7.2 
L 7.2 7.2 
z
" style="fill: #ffffff"/>
   </g>
   <g id="matplotlib.axis_1"/>
   <g id="matplotlib.axis_2"/>
   <g id="line2d_1">
    <path d="M 247.915385 12.478846 
L 249.20391 41.966226 
L 250.542042 67.649822 
L 251.912171 89.809627 
L 253.337771 109.320513 
L 254.791746 126.229075 
L 256.233338 140.581063 
L 257.804449 153.999295 
L 259.393105 165.642638 
L 261.000361 175.810119 
L 262.626805 184.737728 
L 264.309785 192.780415 
L 265.999507 199.835789 
L 267.83683 206.54011 
L 269.681924 212.424322 
L 271.589642 217.759836 
L 273.498716 222.458025 
L 275.514823 226.832224 
L 277.56545 230.757514 
L 279.679734 234.336043 
L 281.967191 237.753728 
L 284.348211 240.887216 
L 286.658853 243.577595 
L 289.270632 246.266441 
L 291.889201 248.643912 
L 294.686015 250.885536 
L 297.462512 252.852821 
L 300.845354 254.957119 
L 304.126967 256.74025 
L 307.593748 258.39299 
L 311.515118 260.02337 
L 315.837965 261.576962 
L 319.961831 262.862051 
L 325.202424 264.267821 
L 330.545015 265.487319 
L 337.301307 266.783481 
L 344.669261 267.950716 
L 352.770333 269.005141 
L 362.484997 270.029057 
L 373.302336 270.938158 
L 386.021414 271.779165 
L 401.863151 272.581275 
L 420.297624 273.278072 
L 437.953846 273.781731 
L 437.953846 273.781731 
" clip-path="url(#pd82d489f00)" style="fill: none; stroke: #0000ff; stroke-linecap: square"/>
   </g>
   <g id="line2d_2">
    <path d="M 15.646154 276.421154 
L 437.953846 276.421154 
L 437.953846 276.421154 
" clip-path="url(#pd82d489f00)" style="fill: none; stroke-dasharray: 2,3.3; stroke-dashoffset: 0; stroke: #ff0000; stroke-width: 2"/>
   </g>
   <g id="line2d_3">
    <path d="M 15.646154 273.781731 
L 38.578471 273.099393 
L 56.649026 272.356364 
L 71.646665 271.532551 
L 84.886261 270.577855 
L 95.443972 269.600799 
L 104.529436 268.549551 
L 113.091302 267.319514 
L 119.558421 266.188681 
L 125.985056 264.842524 
L 131.889749 263.357016 
L 136.489274 261.992416 
L 141.042392 260.419617 
L 145.221479 258.738178 
L 149.061309 256.948168 
L 152.592305 255.050928 
L 155.910391 253.003583 
L 159.028852 250.798901 
L 161.748264 248.611907 
L 164.346539 246.249857 
L 166.949886 243.568002 
L 169.174663 240.982269 
L 171.524389 237.905267 
L 173.760602 234.589039 
L 175.909142 230.982291 
L 177.869346 227.268727 
L 179.829741 223.080162 
L 181.701019 218.561806 
L 183.619049 213.307606 
L 185.4339 207.648172 
L 187.167992 201.498208 
L 188.843768 194.736433 
L 190.536231 186.933912 
L 192.132706 178.50212 
L 193.657075 169.287645 
L 195.15426 158.910701 
L 196.658331 146.890543 
L 198.108054 133.470222 
L 199.517661 118.316813 
L 200.880897 101.248195 
L 202.218115 81.671531 
L 203.503154 59.594463 
L 204.766832 34.009705 
L 205.684615 12.478846 
L 205.684615 12.478846 
" clip-path="url(#pd82d489f00)" style="fill: none; stroke: #0000ff; stroke-linecap: square"/>
   </g>
   <g id="patch_3">
    <path d="M 226.8 281.7 
L 226.8 7.2 
" style="fill: none; stroke: #000000; stroke-width: 0.8; stroke-linejoin: miter; stroke-linecap: square"/>
   </g>
   <g id="patch_4">
    <path d="M 7.2 276.421154 
L 446.4 276.421154 
" style="fill: none; stroke: #000000; stroke-width: 0.8; stroke-linejoin: miter; stroke-linecap: square"/>
   </g>
  </g>
 </g>
 <defs>
  <clipPath id="pd82d489f00">
   <rect x="7.2" y="7.2" width="439.2" height="274.5"/>
  </clipPath>
 </defs>
</svg>
