<?xml version="1.0" encoding="utf-8" standalone="no"?>
<!DOCTYPE svg PUBLIC "-//W3C//DTD SVG 1.1//EN"
  "http://www.w3.org/Graphics/SVG/1.1/DTD/svg11.dtd">
<svg xmlns:xlink="http://www.w3.org/1999/xlink" width="453.6pt" height="288.9pt" viewBox="0 0 453.6 288.9" xmlns="http://www.w3.org/2000/svg" version="1.1">
 <metadata>
  <rdf:RDF xmlns:dc="http://purl.org/dc/elements/1.1/" xmlns:cc="http://creativecommons.org/ns#" xmlns:rdf="http://www.w3.org/1999/02/22-rdf-syntax-ns#">
   <cc:Work>
    <dc:type rdf:resource="http://purl.org/dc/dcmitype/StillImage"/>
    <dc:date>2024-10-11T10:44:34.434106</dc:date>
    <dc:format>image/svg+xml</dc:format>
    <dc:creator>
     <cc:Agent>
      <dc:title>Matplotlib v3.6.2, https://matplotlib.org/</dc:title>
     </cc:Agent>
    </dc:creator>
   </cc:Work>
  </rdf:RDF>
 </metadata>
 <defs>
  <style type="text/css">*{stroke-linejoin: round; stroke-linecap: butt}</style>
 </defs>
 <g id="figure_1">
  <g id="patch_1">
   <path d="M 0 288.9 
L 453.6 288.9 
L 453.6 0 
L 0 0 
z
" style="fill: #ffffff"/>
  </g>
  <g id="axes_1">
   <g id="patch_2">
    <path d="M 7.2 281.7 
L 446.4 281.7 
L 446.4 7.2 
L 7.2 7.2 
z
" style="fill: #ffffff"/>
   </g>
   <g id="matplotlib.axis_1"/>
   <g id="matplotlib.axis_2"/>
   <g id="line2d_1">
    <path d="M 247.915385 12.478846 
L 249.226006 42.428014 
L 250.576244 68.250019 
L 251.944715 90.292355 
L 253.338114 109.324835 
L 254.793258 126.245297 
L 256.291243 141.113974 
L 257.820949 154.129497 
L 259.400163 165.690605 
L 260.998847 175.801211 
L 262.674184 184.979739 
L 264.400545 193.183714 
L 266.11035 200.267073 
L 267.897838 206.747426 
L 269.708707 212.504188 
L 271.565635 217.696902 
L 273.541081 222.555803 
L 275.505842 226.813934 
L 277.49333 230.627493 
L 279.711485 234.386536 
L 281.778338 237.487623 
L 284.131065 240.61753 
L 286.605107 243.518536 
L 289.14403 246.143846 
L 291.904064 248.656593 
L 294.616718 250.833323 
L 297.750842 253.043986 
L 300.945168 255.014869 
L 304.498367 256.92795 
L 308.204893 258.662666 
L 312.267085 260.310646 
L 316.358629 261.749059 
L 321.261242 263.232523 
L 326.771493 264.646324 
L 332.559085 265.8998 
L 339.406473 267.140463 
L 346.934419 268.267128 
L 356.114838 269.383786 
L 365.761242 270.326913 
L 377.162113 271.216041 
L 390.761072 272.04366 
L 407.288856 272.808667 
L 427.40042 273.49671 
L 437.953846 273.781731 
L 437.953846 273.781731 
" clip-path="url(#p86ed63ea7d)" style="fill: none; stroke: #0000ff; stroke-linecap: square"/>
   </g>
   <g id="line2d_2">
    <path d="M 15.646154 276.421154 
L 437.953846 276.421154 
L 437.953846 276.421154 
" clip-path="url(#p86ed63ea7d)" style="fill: none; stroke-dasharray: 2,3.3; stroke-dashoffset: 0; stroke: #ff0000; stroke-width: 2"/>
   </g>
   <g id="line2d_3">
    <path d="M 15.646154 273.781731 
L 39.118836 273.080237 
L 57.557156 272.312625 
L 72.656067 271.468316 
L 85.031247 270.565897 
L 95.826318 269.56092 
L 104.773356 268.51805 
L 113.007266 267.332953 
L 120.295814 266.046499 
L 126.826166 264.646875 
L 132.401111 263.215095 
L 137.474245 261.672458 
L 142.057211 260.034077 
L 146.015003 258.389084 
L 149.673531 256.637791 
L 153.161981 254.719001 
L 156.323231 252.728428 
L 159.117377 250.731832 
L 161.933254 248.453066 
L 164.736162 245.869851 
L 167.349187 243.125205 
L 169.846173 240.141664 
L 172.153051 237.013992 
L 174.343006 233.654999 
L 176.32014 230.239368 
L 178.44396 226.093631 
L 180.281646 222.038759 
L 182.235061 217.166786 
L 184.056264 212.009857 
L 185.79132 206.444136 
L 187.477627 200.313633 
L 189.172407 193.303337 
L 190.840172 185.414785 
L 192.452393 176.670893 
L 193.993153 167.08142 
L 195.515028 156.184892 
L 197.019331 143.731184 
L 198.457751 129.920902 
L 199.860652 114.265226 
L 201.207613 96.747077 
L 202.558719 76.160384 
L 203.853485 52.923212 
L 205.099145 26.528612 
L 205.684615 12.478846 
L 205.684615 12.478846 
" clip-path="url(#p86ed63ea7d)" style="fill: none; stroke: #0000ff; stroke-linecap: square"/>
   </g>
   <g id="patch_3">
    <path d="M 226.8 281.7 
L 226.8 7.2 
" style="fill: none; stroke: #000000; stroke-width: 0.8; stroke-linejoin: miter; stroke-linecap: square"/>
   </g>
   <g id="patch_4">
    <path d="M 7.2 276.421154 
L 446.4 276.421154 
" style="fill: none; stroke: #000000; stroke-width: 0.8; stroke-linejoin: miter; stroke-linecap: square"/>
   </g>
  </g>
 </g>
 <defs>
  <clipPath id="p86ed63ea7d">
   <rect x="7.2" y="7.2" width="439.2" height="274.5"/>
  </clipPath>
 </defs>
</svg>
