<?xml version="1.0" encoding="utf-8" standalone="no"?>
<!DOCTYPE svg PUBLIC "-//W3C//DTD SVG 1.1//EN"
  "http://www.w3.org/Graphics/SVG/1.1/DTD/svg11.dtd">
<svg xmlns:xlink="http://www.w3.org/1999/xlink" width="452.119467pt" height="338.4pt" viewBox="0 0 452.119467 338.4" xmlns="http://www.w3.org/2000/svg" version="1.1">
 <metadata>
  <rdf:RDF xmlns:dc="http://purl.org/dc/elements/1.1/" xmlns:cc="http://creativecommons.org/ns#" xmlns:rdf="http://www.w3.org/1999/02/22-rdf-syntax-ns#">
   <cc:Work>
    <dc:type rdf:resource="http://purl.org/dc/dcmitype/StillImage"/>
    <dc:date>2024-12-04T19:00:10.114333</dc:date>
    <dc:format>image/svg+xml</dc:format>
    <dc:creator>
     <cc:Agent>
      <dc:title>Matplotlib v3.6.2, https://matplotlib.org/</dc:title>
     </cc:Agent>
    </dc:creator>
   </cc:Work>
  </rdf:RDF>
 </metadata>
 <defs>
  <style type="text/css">*{stroke-linejoin: round; stroke-linecap: butt}</style>
 </defs>
 <g id="figure_1">
  <g id="patch_1">
   <path d="M 0 338.4 
L 452.119467 338.4 
L 452.119467 0 
L 0 0 
z
" style="fill: #ffffff"/>
  </g>
  <g id="axes_1">
   <g id="patch_2">
    <path d="M 12.241775 331.2 
L 444.919467 331.2 
L 444.919467 7.2 
L 12.241775 7.2 
z
" style="fill: #ffffff"/>
   </g>
   <g id="PathCollection_1">
    <path d="M 124.571561 16.966303 
C 125.509195 16.966303 126.408553 16.593777 127.071561 15.930769 
C 127.734568 15.267761 128.107095 14.368404 128.107095 13.430769 
C 128.107095 12.493135 127.734568 11.593777 127.071561 10.930769 
C 126.408553 10.267761 125.509195 9.895235 124.571561 9.895235 
C 123.633926 9.895235 122.734568 10.267761 122.071561 10.930769 
C 121.408553 11.593777 121.036027 12.493135 121.036027 13.430769 
C 121.036027 14.368404 121.408553 15.267761 122.071561 15.930769 
C 122.734568 16.593777 123.633926 16.966303 124.571561 16.966303 
z
" clip-path="url(#p6025317022)" style="fill: #ff0000"/>
   </g>
   <g id="PathCollection_2">
    <path d="M 263.250308 328.504765 
C 264.187943 328.504765 265.0873 328.132239 265.750308 327.469231 
C 266.413316 326.806223 266.785842 325.906865 266.785842 324.969231 
C 266.785842 324.031596 266.413316 323.132239 265.750308 322.469231 
C 265.0873 321.806223 264.187943 321.433697 263.250308 321.433697 
C 262.312674 321.433697 261.413316 321.806223 260.750308 322.469231 
C 260.0873 323.132239 259.714774 324.031596 259.714774 324.969231 
C 259.714774 325.906865 260.0873 326.806223 260.750308 327.469231 
C 261.413316 328.132239 262.312674 328.504765 263.250308 328.504765 
z
" clip-path="url(#p6025317022)" style="fill: #ff0000"/>
   </g>
   <g id="PathCollection_3">
    <path d="M 332.589682 293.88938 
C 333.527317 293.88938 334.426674 293.516854 335.089682 292.853846 
C 335.75269 292.190838 336.125216 291.291481 336.125216 290.353846 
C 336.125216 289.416212 335.75269 288.516854 335.089682 287.853846 
C 334.426674 287.190838 333.527317 286.818312 332.589682 286.818312 
C 331.652047 286.818312 330.75269 287.190838 330.089682 287.853846 
C 329.426674 288.516854 329.054148 289.416212 329.054148 290.353846 
C 329.054148 291.291481 329.426674 292.190838 330.089682 292.853846 
C 330.75269 293.516854 331.652047 293.88938 332.589682 293.88938 
z
" clip-path="url(#p6025317022)" style="fill: #ff0000"/>
   </g>
   <g id="PathCollection_4">
    <path d="M 401.929056 328.504765 
C 402.86669 328.504765 403.766048 328.132239 404.429056 327.469231 
C 405.092063 326.806223 405.46459 325.906865 405.46459 324.969231 
C 405.46459 324.031596 405.092063 323.132239 404.429056 322.469231 
C 403.766048 321.806223 402.86669 321.433697 401.929056 321.433697 
C 400.991421 321.433697 400.092063 321.806223 399.429056 322.469231 
C 398.766048 323.132239 398.393522 324.031596 398.393522 324.969231 
C 398.393522 325.906865 398.766048 326.806223 399.429056 327.469231 
C 400.092063 328.132239 400.991421 328.504765 401.929056 328.504765 
z
" clip-path="url(#p6025317022)" style="fill: #ff0000"/>
   </g>
   <g id="PathCollection_5">
    <path d="M 20.5625 293.88938 
C 21.500135 293.88938 22.399492 293.516854 23.0625 292.853846 
C 23.725508 292.190838 24.098034 291.291481 24.098034 290.353846 
C 24.098034 289.416212 23.725508 288.516854 23.0625 287.853846 
C 22.399492 287.190838 21.500135 286.818312 20.5625 286.818312 
C 19.624865 286.818312 18.725508 287.190838 18.0625 287.853846 
C 17.399492 288.516854 17.026966 289.416212 17.026966 290.353846 
C 17.026966 291.291481 17.399492 292.190838 18.0625 292.853846 
C 18.725508 293.516854 19.624865 293.88938 20.5625 293.88938 
z
" clip-path="url(#p6025317022)" style="fill: #ff0000"/>
   </g>
   <g id="PathCollection_6">
    <path d="M 436.598743 293.88938 
C 437.536377 293.88938 438.435735 293.516854 439.098743 292.853846 
C 439.76175 292.190838 440.134277 291.291481 440.134277 290.353846 
C 440.134277 289.416212 439.76175 288.516854 439.098743 287.853846 
C 438.435735 287.190838 437.536377 286.818312 436.598743 286.818312 
C 435.661108 286.818312 434.76175 287.190838 434.098743 287.853846 
C 433.435735 288.516854 433.063209 289.416212 433.063209 290.353846 
C 433.063209 291.291481 433.435735 292.190838 434.098743 292.853846 
C 434.76175 293.516854 435.661108 293.88938 436.598743 293.88938 
z
" clip-path="url(#p6025317022)" style="fill: #ff0000"/>
   </g>
   <g id="PathCollection_7">
    <path d="M 228.580621 293.88938 
C 229.518256 293.88938 230.417614 293.516854 231.080621 292.853846 
C 231.743629 292.190838 232.116155 291.291481 232.116155 290.353846 
C 232.116155 289.416212 231.743629 288.516854 231.080621 287.853846 
C 230.417614 287.190838 229.518256 286.818312 228.580621 286.818312 
C 227.642987 286.818312 226.743629 287.190838 226.080621 287.853846 
C 225.417614 288.516854 225.045087 289.416212 225.045087 290.353846 
C 225.045087 291.291481 225.417614 292.190838 226.080621 292.853846 
C 226.743629 293.516854 227.642987 293.88938 228.580621 293.88938 
z
" clip-path="url(#p6025317022)" style="fill: #ff0000"/>
   </g>
   <g id="matplotlib.axis_1">
    <g id="xtick_1">
     <g id="line2d_1">
      <defs>
       <path id="m8133a3a9b6" d="M 0 0 
L 0 3.5 
" style="stroke: #000000; stroke-width: 0.8"/>
      </defs>
      <g>
       <use xlink:href="#m8133a3a9b6" x="20.5625" y="290.353846" style="stroke: #000000; stroke-width: 0.8"/>
      </g>
     </g>
    </g>
    <g id="xtick_2">
     <g id="line2d_2">
      <g>
       <use xlink:href="#m8133a3a9b6" x="124.571561" y="290.353846" style="stroke: #000000; stroke-width: 0.8"/>
      </g>
     </g>
     <g id="text_1">
      <!-- $\frac{1}{2} \, \pi$ -->
      <g transform="translate(118.571561 305.853846) scale(0.1 -0.1)">
       <defs>
        <path id="Cmr10-31" d="M 594 0 
L 594 225 
Q 1394 225 1394 428 
L 1394 3788 
Q 1063 3628 556 3628 
L 556 3853 
Q 1341 3853 1741 4263 
L 1831 4263 
Q 1853 4263 1873 4245 
Q 1894 4228 1894 4206 
L 1894 428 
Q 1894 225 2694 225 
L 2694 0 
L 594 0 
z
" transform="scale(0.015625)"/>
        <path id="Cmr10-32" d="M 319 0 
L 319 172 
Q 319 188 331 206 
L 1325 1306 
Q 1550 1550 1690 1715 
Q 1831 1881 1968 2097 
Q 2106 2313 2186 2536 
Q 2266 2759 2266 3009 
Q 2266 3272 2169 3511 
Q 2072 3750 1880 3894 
Q 1688 4038 1416 4038 
Q 1138 4038 916 3870 
Q 694 3703 603 3438 
Q 628 3444 672 3444 
Q 816 3444 917 3347 
Q 1019 3250 1019 3097 
Q 1019 2950 917 2848 
Q 816 2747 672 2747 
Q 522 2747 420 2851 
Q 319 2956 319 3097 
Q 319 3338 409 3548 
Q 500 3759 670 3923 
Q 841 4088 1055 4175 
Q 1269 4263 1509 4263 
Q 1875 4263 2190 4108 
Q 2506 3953 2690 3670 
Q 2875 3388 2875 3009 
Q 2875 2731 2753 2481 
Q 2631 2231 2440 2026 
Q 2250 1822 1953 1562 
Q 1656 1303 1563 1216 
L 838 519 
L 1453 519 
Q 1906 519 2211 526 
Q 2516 534 2534 550 
Q 2609 631 2688 1141 
L 2875 1141 
L 2694 0 
L 319 0 
z
" transform="scale(0.015625)"/>
        <path id="Cmmi10-bc" d="M 647 109 
Q 647 144 672 213 
Q 850 584 1004 942 
Q 1159 1300 1282 1639 
Q 1406 1978 1509 2363 
L 1100 2363 
Q 866 2363 662 2216 
Q 459 2069 325 1844 
Q 313 1819 288 1819 
L 213 1819 
Q 153 1819 153 1881 
Q 153 1894 166 1919 
Q 375 2275 614 2517 
Q 853 2759 1153 2759 
L 3475 2759 
Q 3541 2759 3587 2715 
Q 3634 2672 3634 2597 
Q 3634 2503 3567 2433 
Q 3500 2363 3406 2363 
L 2591 2363 
Q 2488 1859 2478 1381 
Q 2478 766 2694 269 
Q 2713 231 2713 191 
Q 2713 122 2672 62 
Q 2631 3 2567 -34 
Q 2503 -72 2431 -72 
Q 2263 -72 2200 203 
Q 2138 478 2138 738 
Q 2138 1103 2200 1442 
Q 2263 1781 2400 2363 
L 1703 2363 
Q 1197 313 1094 103 
Q 1003 -72 844 -72 
Q 766 -72 706 -20 
Q 647 31 647 109 
z
" transform="scale(0.015625)"/>
       </defs>
       <use xlink:href="#Cmr10-31" transform="translate(0 38.373438) scale(0.7)"/>
       <use xlink:href="#Cmr10-32" transform="translate(0 -39.503125) scale(0.7)"/>
       <use xlink:href="#Cmmi10-bc" transform="translate(62.132454 0.873437)"/>
       <path d="M 0 13.373437 
L 0 19.623437 
L 35 19.623437 
L 35 13.373437 
L 0 13.373437 
z
"/>
      </g>
     </g>
    </g>
    <g id="xtick_3">
     <g id="line2d_3">
      <g>
       <use xlink:href="#m8133a3a9b6" x="228.580621" y="290.353846" style="stroke: #000000; stroke-width: 0.8"/>
      </g>
     </g>
     <g id="text_2">
      <!-- $\pi$ -->
      <g transform="translate(225.730621 304.952284) scale(0.1 -0.1)">
       <use xlink:href="#Cmmi10-bc" transform="translate(0 0.890625)"/>
      </g>
     </g>
    </g>
    <g id="xtick_4">
     <g id="line2d_4">
      <g>
       <use xlink:href="#m8133a3a9b6" x="332.589682" y="290.353846" style="stroke: #000000; stroke-width: 0.8"/>
      </g>
     </g>
     <g id="text_3">
      <!-- $\frac{3}{2} \, \pi$ -->
      <g transform="translate(326.589682 305.953846) scale(0.1 -0.1)">
       <defs>
        <path id="Cmr10-33" d="M 609 494 
Q 759 275 1012 169 
Q 1266 63 1556 63 
Q 1928 63 2084 380 
Q 2241 697 2241 1100 
Q 2241 1281 2208 1462 
Q 2175 1644 2097 1800 
Q 2019 1956 1883 2050 
Q 1747 2144 1550 2144 
L 1125 2144 
Q 1069 2144 1069 2203 
L 1069 2259 
Q 1069 2309 1125 2309 
L 1478 2338 
Q 1703 2338 1851 2506 
Q 2000 2675 2069 2917 
Q 2138 3159 2138 3378 
Q 2138 3684 1994 3881 
Q 1850 4078 1556 4078 
Q 1313 4078 1091 3986 
Q 869 3894 738 3706 
Q 750 3709 759 3711 
Q 769 3713 781 3713 
Q 925 3713 1022 3613 
Q 1119 3513 1119 3372 
Q 1119 3234 1022 3134 
Q 925 3034 781 3034 
Q 641 3034 541 3134 
Q 441 3234 441 3372 
Q 441 3647 606 3850 
Q 772 4053 1033 4158 
Q 1294 4263 1556 4263 
Q 1750 4263 1965 4205 
Q 2181 4147 2356 4039 
Q 2531 3931 2642 3762 
Q 2753 3594 2753 3378 
Q 2753 3109 2633 2881 
Q 2513 2653 2303 2487 
Q 2094 2322 1844 2241 
Q 2122 2188 2372 2031 
Q 2622 1875 2773 1631 
Q 2925 1388 2925 1106 
Q 2925 753 2731 467 
Q 2538 181 2222 20 
Q 1906 -141 1556 -141 
Q 1256 -141 954 -26 
Q 653 88 461 316 
Q 269 544 269 863 
Q 269 1022 375 1128 
Q 481 1234 641 1234 
Q 744 1234 830 1186 
Q 916 1138 964 1050 
Q 1013 963 1013 863 
Q 1013 706 903 600 
Q 794 494 641 494 
L 609 494 
z
" transform="scale(0.015625)"/>
       </defs>
       <use xlink:href="#Cmr10-33" transform="translate(0 39.373438) scale(0.7)"/>
       <use xlink:href="#Cmr10-32" transform="translate(0 -40.045312) scale(0.7)"/>
       <use xlink:href="#Cmmi10-bc" transform="translate(62.132454 0.33125)"/>
       <path d="M 0 12.83125 
L 0 19.08125 
L 35 19.08125 
L 35 12.83125 
L 0 12.83125 
z
"/>
      </g>
     </g>
    </g>
    <g id="xtick_5">
     <g id="line2d_5">
      <g>
       <use xlink:href="#m8133a3a9b6" x="436.598743" y="290.353846" style="stroke: #000000; stroke-width: 0.8"/>
      </g>
     </g>
     <g id="text_4">
      <!-- $2 \, \pi$ -->
      <g transform="translate(430.498743 304.952284) scale(0.1 -0.1)">
       <use xlink:href="#Cmr10-32" transform="translate(0 0.390625)"/>
       <use xlink:href="#Cmmi10-bc" transform="translate(64.632454 0.390625)"/>
      </g>
     </g>
    </g>
   </g>
   <g id="matplotlib.axis_2">
    <g id="ytick_1">
     <g id="line2d_6">
      <defs>
       <path id="m30410f070a" d="M 0 0 
L -3.5 0 
" style="stroke: #000000; stroke-width: 0.8"/>
      </defs>
      <g>
       <use xlink:href="#m30410f070a" x="20.5625" y="151.892308" style="stroke: #000000; stroke-width: 0.8"/>
      </g>
     </g>
     <g id="text_5">
      <!-- 1 -->
      <g transform="translate(7.2 155.691526) scale(0.1 -0.1)">
       <defs>
        <path id="DejaVuSans-31" d="M 794 531 
L 1825 531 
L 1825 4091 
L 703 3866 
L 703 4441 
L 1819 4666 
L 2450 4666 
L 2450 531 
L 3481 531 
L 3481 0 
L 794 0 
L 794 531 
z
" transform="scale(0.015625)"/>
       </defs>
       <use xlink:href="#DejaVuSans-31"/>
      </g>
     </g>
    </g>
    <g id="ytick_2">
     <g id="line2d_7">
      <g>
       <use xlink:href="#m30410f070a" x="20.5625" y="13.430769" style="stroke: #000000; stroke-width: 0.8"/>
      </g>
     </g>
     <g id="text_6">
      <!-- 2 -->
      <g transform="translate(7.2 17.229988) scale(0.1 -0.1)">
       <defs>
        <path id="DejaVuSans-32" d="M 1228 531 
L 3431 531 
L 3431 0 
L 469 0 
L 469 531 
Q 828 903 1448 1529 
Q 2069 2156 2228 2338 
Q 2531 2678 2651 2914 
Q 2772 3150 2772 3378 
Q 2772 3750 2511 3984 
Q 2250 4219 1831 4219 
Q 1534 4219 1204 4116 
Q 875 4013 500 3803 
L 500 4441 
Q 881 4594 1212 4672 
Q 1544 4750 1819 4750 
Q 2544 4750 2975 4387 
Q 3406 4025 3406 3419 
Q 3406 3131 3298 2873 
Q 3191 2616 2906 2266 
Q 2828 2175 2409 1742 
Q 1991 1309 1228 531 
z
" transform="scale(0.015625)"/>
       </defs>
       <use xlink:href="#DejaVuSans-32"/>
      </g>
     </g>
    </g>
   </g>
   <g id="line2d_8">
    <path d="M 20.5625 290.353846 
L 23.088303 284.872003 
L 25.604432 279.0195 
L 29.518191 269.165983 
L 32.430063 261.26964 
L 36.518505 249.424076 
L 40.418618 237.369415 
L 43.814101 226.341689 
L 49.551937 206.764427 
L 55.249283 186.44577 
L 76.300582 110.063177 
L 80.588163 95.492596 
L 84.1966 83.792807 
L 88.412144 70.916262 
L 92.316393 59.875535 
L 96.145318 49.984919 
L 98.606625 44.162731 
L 101.283806 38.338757 
L 103.204377 34.502639 
L 106.562887 28.512402 
L 109.641975 23.856172 
L 110.858396 22.244013 
L 112.445714 20.337943 
L 113.838554 18.852121 
L 115.231394 17.542896 
L 116.824006 16.264513 
L 118.120904 15.397275 
L 119.929061 14.450505 
L 122.405217 13.653027 
L 124.179668 13.438044 
L 125.95412 13.521309 
L 127.790658 13.921371 
L 129.300849 14.488939 
L 130.904679 15.326426 
L 132.664493 16.521831 
L 134.424307 18.004054 
L 135.880156 19.444832 
L 137.277474 21.008362 
L 140.008342 24.566772 
L 141.185747 26.302565 
L 143.015147 29.235348 
L 146.274322 35.151798 
L 148.10293 38.846066 
L 150.064311 43.096246 
L 153.532815 51.307413 
L 155.723654 56.926497 
L 159.410415 67.080554 
L 163.488259 79.235015 
L 166.228274 87.882753 
L 170.740973 102.8402 
L 177.043386 124.886513 
L 186.48639 159.325152 
L 196.818745 196.964398 
L 202.99928 218.522373 
L 207.611373 233.805606 
L 212.077933 247.776859 
L 214.771451 255.750678 
L 218.778874 266.920017 
L 222.691225 276.962173 
L 226.510749 285.89095 
L 229.417493 292.081678 
L 232.650551 298.336718 
L 235.88095 303.912465 
L 237.643539 306.668531 
L 241.222554 311.643059 
L 243.675191 314.573811 
L 245.470335 316.475237 
L 247.265479 318.173404 
L 249.8815 320.290461 
L 251.726769 321.534029 
L 254.446784 323.001339 
L 256.102218 323.687311 
L 258.439705 324.398858 
L 260.109729 324.72935 
L 262.48263 324.955179 
L 264.221633 324.947074 
L 266.585186 324.713633 
L 268.307176 324.39109 
L 270.029165 323.947815 
L 273.452592 322.736464 
L 277.509168 320.800887 
L 280.408106 319.138254 
L 284.366401 316.568796 
L 287.316661 314.481439 
L 294.90645 308.738162 
L 303.331303 302.375503 
L 306.686505 300.024166 
L 311.408025 297.021893 
L 313.263901 295.961984 
L 316.584236 294.262283 
L 320.627822 292.570444 
L 324.245046 291.443224 
L 325.30325 291.186287 
L 329.021273 290.554575 
L 330.985343 290.394476 
L 333.802094 290.377053 
L 335.330053 290.472309 
L 338.53016 290.908469 
L 340.71679 291.387663 
L 343.942184 292.354173 
L 347.861135 293.923093 
L 351.557581 295.766305 
L 355.557104 298.109078 
L 358.849575 300.266599 
L 364.774535 304.533648 
L 379.67862 315.780881 
L 384.617421 319.044378 
L 387.690506 320.811775 
L 390.39767 322.157742 
L 394.049988 323.604681 
L 397.351807 324.49336 
L 398.265284 324.661684 
L 400.560678 324.925414 
L 402.097876 324.968555 
L 403.635075 324.899279 
L 406.426832 324.47185 
L 408.334306 323.945593 
L 410.747806 322.994313 
L 412.745695 321.9568 
L 414.595116 320.78811 
L 417.478791 318.554716 
L 420.479439 315.684267 
L 423.035292 312.789572 
L 424.991343 310.290563 
L 428.491319 305.19959 
L 431.531478 300.130408 
L 434.110457 295.360467 
L 436.598743 290.353846 
L 436.598743 290.353846 
" clip-path="url(#p6025317022)" style="fill: none; stroke: #0000ff; stroke-linecap: square"/>
   </g>
   <g id="patch_3">
    <path d="M 20.5625 331.2 
L 20.5625 7.2 
" style="fill: none; stroke: #000000; stroke-width: 0.8; stroke-linejoin: miter; stroke-linecap: square"/>
   </g>
   <g id="patch_4">
    <path d="M 12.241775 290.353846 
L 444.919467 290.353846 
" style="fill: none; stroke: #000000; stroke-width: 0.8; stroke-linejoin: miter; stroke-linecap: square"/>
   </g>
  </g>
 </g>
 <defs>
  <clipPath id="p6025317022">
   <rect x="12.241775" y="7.2" width="432.677692" height="324"/>
  </clipPath>
 </defs>
</svg>
