<?xml version="1.0" encoding="utf-8" standalone="no"?>
<!DOCTYPE svg PUBLIC "-//W3C//DTD SVG 1.1//EN"
  "http://www.w3.org/Graphics/SVG/1.1/DTD/svg11.dtd">
<svg xmlns:xlink="http://www.w3.org/1999/xlink" width="451.423887pt" height="338.4pt" viewBox="0 0 451.423887 338.4" xmlns="http://www.w3.org/2000/svg" version="1.1">
 <metadata>
  <rdf:RDF xmlns:dc="http://purl.org/dc/elements/1.1/" xmlns:cc="http://creativecommons.org/ns#" xmlns:rdf="http://www.w3.org/1999/02/22-rdf-syntax-ns#">
   <cc:Work>
    <dc:type rdf:resource="http://purl.org/dc/dcmitype/StillImage"/>
    <dc:date>2024-12-04T19:04:10.769559</dc:date>
    <dc:format>image/svg+xml</dc:format>
    <dc:creator>
     <cc:Agent>
      <dc:title>Matplotlib v3.6.2, https://matplotlib.org/</dc:title>
     </cc:Agent>
    </dc:creator>
   </cc:Work>
  </rdf:RDF>
 </metadata>
 <defs>
  <style type="text/css">*{stroke-linejoin: round; stroke-linecap: butt}</style>
 </defs>
 <g id="figure_1">
  <g id="patch_1">
   <path d="M 0 338.4 
L 451.423887 338.4 
L 451.423887 0 
L 0 0 
z
" style="fill: #ffffff"/>
  </g>
  <g id="axes_1">
   <g id="patch_2">
    <path d="M 8.826983 331.2 
L 444.223887 331.2 
L 444.223887 7.2 
L 8.826983 7.2 
z
" style="fill: #ffffff"/>
   </g>
   <g id="matplotlib.axis_1">
    <g id="xtick_1">
     <g id="line2d_1">
      <defs>
       <path id="m1cc46b3da1" d="M 0 0 
L 0 3.5 
" style="stroke: #000000; stroke-width: 0.8"/>
      </defs>
      <g>
       <use xlink:href="#m1cc46b3da1" x="17.2" y="290.353769" style="stroke: #000000; stroke-width: 0.8"/>
      </g>
     </g>
     <g id="text_1">
      <!-- $-2 \, \pi$ -->
      <g transform="translate(7.2 304.952206) scale(0.1 -0.1)">
       <defs>
        <path id="Cmsy10-a1" d="M 653 1472 
Q 600 1472 565 1512 
Q 531 1553 531 1600 
Q 531 1647 565 1687 
Q 600 1728 653 1728 
L 4325 1728 
Q 4375 1728 4408 1687 
Q 4441 1647 4441 1600 
Q 4441 1553 4408 1512 
Q 4375 1472 4325 1472 
L 653 1472 
z
" transform="scale(0.015625)"/>
        <path id="Cmr10-32" d="M 319 0 
L 319 172 
Q 319 188 331 206 
L 1325 1306 
Q 1550 1550 1690 1715 
Q 1831 1881 1968 2097 
Q 2106 2313 2186 2536 
Q 2266 2759 2266 3009 
Q 2266 3272 2169 3511 
Q 2072 3750 1880 3894 
Q 1688 4038 1416 4038 
Q 1138 4038 916 3870 
Q 694 3703 603 3438 
Q 628 3444 672 3444 
Q 816 3444 917 3347 
Q 1019 3250 1019 3097 
Q 1019 2950 917 2848 
Q 816 2747 672 2747 
Q 522 2747 420 2851 
Q 319 2956 319 3097 
Q 319 3338 409 3548 
Q 500 3759 670 3923 
Q 841 4088 1055 4175 
Q 1269 4263 1509 4263 
Q 1875 4263 2190 4108 
Q 2506 3953 2690 3670 
Q 2875 3388 2875 3009 
Q 2875 2731 2753 2481 
Q 2631 2231 2440 2026 
Q 2250 1822 1953 1562 
Q 1656 1303 1563 1216 
L 838 519 
L 1453 519 
Q 1906 519 2211 526 
Q 2516 534 2534 550 
Q 2609 631 2688 1141 
L 2875 1141 
L 2694 0 
L 319 0 
z
" transform="scale(0.015625)"/>
        <path id="Cmmi10-bc" d="M 647 109 
Q 647 144 672 213 
Q 850 584 1004 942 
Q 1159 1300 1282 1639 
Q 1406 1978 1509 2363 
L 1100 2363 
Q 866 2363 662 2216 
Q 459 2069 325 1844 
Q 313 1819 288 1819 
L 213 1819 
Q 153 1819 153 1881 
Q 153 1894 166 1919 
Q 375 2275 614 2517 
Q 853 2759 1153 2759 
L 3475 2759 
Q 3541 2759 3587 2715 
Q 3634 2672 3634 2597 
Q 3634 2503 3567 2433 
Q 3500 2363 3406 2363 
L 2591 2363 
Q 2488 1859 2478 1381 
Q 2478 766 2694 269 
Q 2713 231 2713 191 
Q 2713 122 2672 62 
Q 2631 3 2567 -34 
Q 2503 -72 2431 -72 
Q 2263 -72 2200 203 
Q 2138 478 2138 738 
Q 2138 1103 2200 1442 
Q 2263 1781 2400 2363 
L 1703 2363 
Q 1197 313 1094 103 
Q 1003 -72 844 -72 
Q 766 -72 706 -20 
Q 647 31 647 109 
z
" transform="scale(0.015625)"/>
       </defs>
       <use xlink:href="#Cmsy10-a1" transform="translate(0 0.390625)"/>
       <use xlink:href="#Cmr10-32" transform="translate(77.685547 0.390625)"/>
       <use xlink:href="#Cmmi10-bc" transform="translate(142.318001 0.390625)"/>
      </g>
     </g>
    </g>
    <g id="xtick_2">
     <g id="line2d_2">
      <g>
       <use xlink:href="#m1cc46b3da1" x="52.087572" y="290.353769" style="stroke: #000000; stroke-width: 0.8"/>
      </g>
     </g>
     <g id="text_2">
      <!-- $-\frac{3}{2} \, \pi$ -->
      <g transform="translate(42.237572 305.953769) scale(0.1 -0.1)">
       <defs>
        <path id="Cmr10-33" d="M 609 494 
Q 759 275 1012 169 
Q 1266 63 1556 63 
Q 1928 63 2084 380 
Q 2241 697 2241 1100 
Q 2241 1281 2208 1462 
Q 2175 1644 2097 1800 
Q 2019 1956 1883 2050 
Q 1747 2144 1550 2144 
L 1125 2144 
Q 1069 2144 1069 2203 
L 1069 2259 
Q 1069 2309 1125 2309 
L 1478 2338 
Q 1703 2338 1851 2506 
Q 2000 2675 2069 2917 
Q 2138 3159 2138 3378 
Q 2138 3684 1994 3881 
Q 1850 4078 1556 4078 
Q 1313 4078 1091 3986 
Q 869 3894 738 3706 
Q 750 3709 759 3711 
Q 769 3713 781 3713 
Q 925 3713 1022 3613 
Q 1119 3513 1119 3372 
Q 1119 3234 1022 3134 
Q 925 3034 781 3034 
Q 641 3034 541 3134 
Q 441 3234 441 3372 
Q 441 3647 606 3850 
Q 772 4053 1033 4158 
Q 1294 4263 1556 4263 
Q 1750 4263 1965 4205 
Q 2181 4147 2356 4039 
Q 2531 3931 2642 3762 
Q 2753 3594 2753 3378 
Q 2753 3109 2633 2881 
Q 2513 2653 2303 2487 
Q 2094 2322 1844 2241 
Q 2122 2188 2372 2031 
Q 2622 1875 2773 1631 
Q 2925 1388 2925 1106 
Q 2925 753 2731 467 
Q 2538 181 2222 20 
Q 1906 -141 1556 -141 
Q 1256 -141 954 -26 
Q 653 88 461 316 
Q 269 544 269 863 
Q 269 1022 375 1128 
Q 481 1234 641 1234 
Q 744 1234 830 1186 
Q 916 1138 964 1050 
Q 1013 963 1013 863 
Q 1013 706 903 600 
Q 794 494 641 494 
L 609 494 
z
" transform="scale(0.015625)"/>
       </defs>
       <use xlink:href="#Cmsy10-a1" transform="translate(0 0.33125)"/>
       <use xlink:href="#Cmr10-33" transform="translate(77.685547 39.373438) scale(0.7)"/>
       <use xlink:href="#Cmr10-32" transform="translate(77.685547 -40.045312) scale(0.7)"/>
       <use xlink:href="#Cmmi10-bc" transform="translate(139.818001 0.33125)"/>
       <path d="M 77.685547 12.83125 
L 77.685547 19.08125 
L 112.685547 19.08125 
L 112.685547 12.83125 
L 77.685547 12.83125 
z
"/>
      </g>
     </g>
    </g>
    <g id="xtick_3">
     <g id="line2d_3">
      <g>
       <use xlink:href="#m1cc46b3da1" x="86.975145" y="290.353769" style="stroke: #000000; stroke-width: 0.8"/>
      </g>
     </g>
     <g id="text_3">
      <!-- $-\pi$ -->
      <g transform="translate(80.225145 304.952206) scale(0.1 -0.1)">
       <use xlink:href="#Cmsy10-a1" transform="translate(0 0.890625)"/>
       <use xlink:href="#Cmmi10-bc" transform="translate(77.685547 0.890625)"/>
      </g>
     </g>
    </g>
    <g id="xtick_4">
     <g id="line2d_4">
      <g>
       <use xlink:href="#m1cc46b3da1" x="121.862717" y="290.353769" style="stroke: #000000; stroke-width: 0.8"/>
      </g>
     </g>
     <g id="text_4">
      <!-- $-\frac{1}{2} \, \pi$ -->
      <g transform="translate(112.012717 305.853769) scale(0.1 -0.1)">
       <defs>
        <path id="Cmr10-31" d="M 594 0 
L 594 225 
Q 1394 225 1394 428 
L 1394 3788 
Q 1063 3628 556 3628 
L 556 3853 
Q 1341 3853 1741 4263 
L 1831 4263 
Q 1853 4263 1873 4245 
Q 1894 4228 1894 4206 
L 1894 428 
Q 1894 225 2694 225 
L 2694 0 
L 594 0 
z
" transform="scale(0.015625)"/>
       </defs>
       <use xlink:href="#Cmsy10-a1" transform="translate(0 0.873437)"/>
       <use xlink:href="#Cmr10-31" transform="translate(77.685547 38.373438) scale(0.7)"/>
       <use xlink:href="#Cmr10-32" transform="translate(77.685547 -39.503125) scale(0.7)"/>
       <use xlink:href="#Cmmi10-bc" transform="translate(139.818001 0.873437)"/>
       <path d="M 77.685547 13.373437 
L 77.685547 19.623437 
L 112.685547 19.623437 
L 112.685547 13.373437 
L 77.685547 13.373437 
z
"/>
      </g>
     </g>
    </g>
    <g id="xtick_5">
     <g id="line2d_5">
      <g>
       <use xlink:href="#m1cc46b3da1" x="156.75029" y="290.353769" style="stroke: #000000; stroke-width: 0.8"/>
      </g>
     </g>
    </g>
    <g id="xtick_6">
     <g id="line2d_6">
      <g>
       <use xlink:href="#m1cc46b3da1" x="191.637862" y="290.353769" style="stroke: #000000; stroke-width: 0.8"/>
      </g>
     </g>
     <g id="text_5">
      <!-- $\frac{1}{2} \, \pi$ -->
      <g transform="translate(185.637862 305.853769) scale(0.1 -0.1)">
       <use xlink:href="#Cmr10-31" transform="translate(0 38.373438) scale(0.7)"/>
       <use xlink:href="#Cmr10-32" transform="translate(0 -39.503125) scale(0.7)"/>
       <use xlink:href="#Cmmi10-bc" transform="translate(62.132454 0.873437)"/>
       <path d="M 0 13.373437 
L 0 19.623437 
L 35 19.623437 
L 35 13.373437 
L 0 13.373437 
z
"/>
      </g>
     </g>
    </g>
    <g id="xtick_7">
     <g id="line2d_7">
      <g>
       <use xlink:href="#m1cc46b3da1" x="226.525435" y="290.353769" style="stroke: #000000; stroke-width: 0.8"/>
      </g>
     </g>
     <g id="text_6">
      <!-- $\pi$ -->
      <g transform="translate(223.675435 304.952206) scale(0.1 -0.1)">
       <use xlink:href="#Cmmi10-bc" transform="translate(0 0.890625)"/>
      </g>
     </g>
    </g>
    <g id="xtick_8">
     <g id="line2d_8">
      <g>
       <use xlink:href="#m1cc46b3da1" x="261.413007" y="290.353769" style="stroke: #000000; stroke-width: 0.8"/>
      </g>
     </g>
     <g id="text_7">
      <!-- $\frac{3}{2} \, \pi$ -->
      <g transform="translate(255.413007 305.953769) scale(0.1 -0.1)">
       <use xlink:href="#Cmr10-33" transform="translate(0 39.373438) scale(0.7)"/>
       <use xlink:href="#Cmr10-32" transform="translate(0 -40.045312) scale(0.7)"/>
       <use xlink:href="#Cmmi10-bc" transform="translate(62.132454 0.33125)"/>
       <path d="M 0 12.83125 
L 0 19.08125 
L 35 19.08125 
L 35 12.83125 
L 0 12.83125 
z
"/>
      </g>
     </g>
    </g>
    <g id="xtick_9">
     <g id="line2d_9">
      <g>
       <use xlink:href="#m1cc46b3da1" x="296.30058" y="290.353769" style="stroke: #000000; stroke-width: 0.8"/>
      </g>
     </g>
     <g id="text_8">
      <!-- $2 \, \pi$ -->
      <g transform="translate(290.20058 304.952206) scale(0.1 -0.1)">
       <use xlink:href="#Cmr10-32" transform="translate(0 0.390625)"/>
       <use xlink:href="#Cmmi10-bc" transform="translate(64.632454 0.390625)"/>
      </g>
     </g>
    </g>
    <g id="xtick_10">
     <g id="line2d_10">
      <g>
       <use xlink:href="#m1cc46b3da1" x="331.188152" y="290.353769" style="stroke: #000000; stroke-width: 0.8"/>
      </g>
     </g>
     <g id="text_9">
      <!-- $\frac{5}{2} \, \pi$ -->
      <g transform="translate(325.188152 305.953769) scale(0.1 -0.1)">
       <defs>
        <path id="Cmr10-35" d="M 556 728 
Q 622 541 758 387 
Q 894 234 1080 148 
Q 1266 63 1466 63 
Q 1928 63 2103 422 
Q 2278 781 2278 1294 
Q 2278 1516 2270 1667 
Q 2263 1819 2228 1959 
Q 2169 2184 2020 2353 
Q 1872 2522 1656 2522 
Q 1441 2522 1286 2456 
Q 1131 2391 1034 2303 
Q 938 2216 863 2119 
Q 788 2022 769 2016 
L 697 2016 
Q 681 2016 657 2036 
Q 634 2056 634 2075 
L 634 4213 
Q 634 4228 654 4245 
Q 675 4263 697 4263 
L 716 4263 
Q 1147 4056 1631 4056 
Q 2106 4056 2547 4263 
L 2566 4263 
Q 2588 4263 2606 4247 
Q 2625 4231 2625 4213 
L 2625 4153 
Q 2625 4122 2613 4122 
Q 2394 3831 2064 3668 
Q 1734 3506 1381 3506 
Q 1125 3506 856 3578 
L 856 2369 
Q 1069 2541 1236 2614 
Q 1403 2688 1663 2688 
Q 2016 2688 2295 2484 
Q 2575 2281 2725 1954 
Q 2875 1628 2875 1288 
Q 2875 903 2686 575 
Q 2497 247 2172 53 
Q 1847 -141 1466 -141 
Q 1150 -141 886 21 
Q 622 184 470 459 
Q 319 734 319 1044 
Q 319 1188 412 1278 
Q 506 1369 647 1369 
Q 788 1369 883 1276 
Q 978 1184 978 1044 
Q 978 906 883 811 
Q 788 716 647 716 
Q 625 716 597 720 
Q 569 725 556 728 
z
" transform="scale(0.015625)"/>
       </defs>
       <use xlink:href="#Cmr10-35" transform="translate(0 39.373438) scale(0.7)"/>
       <use xlink:href="#Cmr10-32" transform="translate(0 -40.045312) scale(0.7)"/>
       <use xlink:href="#Cmmi10-bc" transform="translate(62.132454 0.33125)"/>
       <path d="M 0 12.83125 
L 0 19.08125 
L 35 19.08125 
L 35 12.83125 
L 0 12.83125 
z
"/>
      </g>
     </g>
    </g>
    <g id="xtick_11">
     <g id="line2d_11">
      <g>
       <use xlink:href="#m1cc46b3da1" x="366.075725" y="290.353769" style="stroke: #000000; stroke-width: 0.8"/>
      </g>
     </g>
     <g id="text_10">
      <!-- $3 \, \pi$ -->
      <g transform="translate(359.975725 304.952206) scale(0.1 -0.1)">
       <use xlink:href="#Cmr10-33" transform="translate(0 0.390625)"/>
       <use xlink:href="#Cmmi10-bc" transform="translate(64.632454 0.390625)"/>
      </g>
     </g>
    </g>
    <g id="xtick_12">
     <g id="line2d_12">
      <g>
       <use xlink:href="#m1cc46b3da1" x="400.963297" y="290.353769" style="stroke: #000000; stroke-width: 0.8"/>
      </g>
     </g>
     <g id="text_11">
      <!-- $\frac{7}{2} \, \pi$ -->
      <g transform="translate(394.963297 306.053769) scale(0.1 -0.1)">
       <defs>
        <path id="Cmr10-37" d="M 1113 166 
Q 1113 522 1175 862 
Q 1238 1203 1358 1536 
Q 1478 1869 1648 2189 
Q 1819 2509 2022 2791 
L 2606 3603 
L 1875 3603 
Q 738 3603 703 3572 
Q 619 3469 544 2981 
L 359 2981 
L 569 4325 
L 756 4325 
L 756 4306 
Q 756 4191 1147 4156 
Q 1538 4122 1913 4122 
L 3103 4122 
L 3103 3956 
Q 3103 3950 3101 3947 
Q 3100 3944 3097 3938 
L 2216 2700 
Q 1891 2219 1809 1631 
Q 1728 1044 1728 166 
Q 1728 41 1637 -50 
Q 1547 -141 1422 -141 
Q 1294 -141 1203 -50 
Q 1113 41 1113 166 
z
" transform="scale(0.015625)"/>
       </defs>
       <use xlink:href="#Cmr10-37" transform="translate(0 39.695312) scale(0.7)"/>
       <use xlink:href="#Cmr10-32" transform="translate(0 -39.723437) scale(0.7)"/>
       <use xlink:href="#Cmmi10-bc" transform="translate(62.132454 0.653125)"/>
       <path d="M 0 13.153125 
L 0 19.403125 
L 35 19.403125 
L 35 13.153125 
L 0 13.153125 
z
"/>
      </g>
     </g>
    </g>
    <g id="xtick_13">
     <g id="line2d_13">
      <g>
       <use xlink:href="#m1cc46b3da1" x="435.85087" y="290.353769" style="stroke: #000000; stroke-width: 0.8"/>
      </g>
     </g>
     <g id="text_12">
      <!-- $4 \, \pi$ -->
      <g transform="translate(429.75087 304.952206) scale(0.1 -0.1)">
       <defs>
        <path id="Cmr10-34" d="M 178 1056 
L 178 1281 
L 2156 4231 
Q 2178 4263 2222 4263 
L 2316 4263 
Q 2388 4263 2388 4191 
L 2388 1281 
L 3016 1281 
L 3016 1056 
L 2388 1056 
L 2388 428 
Q 2388 297 2575 261 
Q 2763 225 3009 225 
L 3009 0 
L 1247 0 
L 1247 225 
Q 1494 225 1681 261 
Q 1869 297 1869 428 
L 1869 1056 
L 178 1056 
z
M 391 1281 
L 1906 1281 
L 1906 3547 
L 391 1281 
z
" transform="scale(0.015625)"/>
       </defs>
       <use xlink:href="#Cmr10-34" transform="translate(0 0.390625)"/>
       <use xlink:href="#Cmmi10-bc" transform="translate(64.632454 0.390625)"/>
      </g>
     </g>
    </g>
   </g>
   <g id="matplotlib.axis_2">
    <g id="ytick_1">
     <g id="line2d_14">
      <defs>
       <path id="m0dc765496d" d="M 0 0 
L -3.5 0 
" style="stroke: #000000; stroke-width: 0.8"/>
      </defs>
      <g>
       <use xlink:href="#m0dc765496d" x="156.75029" y="151.891767" style="stroke: #000000; stroke-width: 0.8"/>
      </g>
     </g>
     <g id="text_13">
      <!-- 1 -->
      <g transform="translate(143.38779 155.690986) scale(0.1 -0.1)">
       <defs>
        <path id="DejaVuSans-31" d="M 794 531 
L 1825 531 
L 1825 4091 
L 703 3866 
L 703 4441 
L 1819 4666 
L 2450 4666 
L 2450 531 
L 3481 531 
L 3481 0 
L 794 0 
L 794 531 
z
" transform="scale(0.015625)"/>
       </defs>
       <use xlink:href="#DejaVuSans-31"/>
      </g>
     </g>
    </g>
    <g id="ytick_2">
     <g id="line2d_15">
      <g>
       <use xlink:href="#m0dc765496d" x="156.75029" y="13.429765" style="stroke: #000000; stroke-width: 0.8"/>
      </g>
     </g>
     <g id="text_14">
      <!-- 2 -->
      <g transform="translate(143.38779 17.228984) scale(0.1 -0.1)">
       <defs>
        <path id="DejaVuSans-32" d="M 1228 531 
L 3431 531 
L 3431 0 
L 469 0 
L 469 531 
Q 828 903 1448 1529 
Q 2069 2156 2228 2338 
Q 2531 2678 2651 2914 
Q 2772 3150 2772 3378 
Q 2772 3750 2511 3984 
Q 2250 4219 1831 4219 
Q 1534 4219 1204 4116 
Q 875 4013 500 3803 
L 500 4441 
Q 881 4594 1212 4672 
Q 1544 4750 1819 4750 
Q 2544 4750 2975 4387 
Q 3406 4025 3406 3419 
Q 3406 3131 3298 2873 
Q 3191 2616 2906 2266 
Q 2828 2175 2409 1742 
Q 1991 1309 1228 531 
z
" transform="scale(0.015625)"/>
       </defs>
       <use xlink:href="#DejaVuSans-32"/>
      </g>
     </g>
    </g>
   </g>
   <g id="line2d_16">
    <path d="M 17.2 290.353769 
L 18.970071 278.452907 
L 21.388846 259.527253 
L 23.706122 238.825437 
L 26.331254 212.903317 
L 30.184164 171.770486 
L 35.168753 117.657212 
L 37.92452 89.71534 
L 39.947436 71.014142 
L 42.075315 53.544935 
L 43.78608 41.449158 
L 45.566516 30.952193 
L 47.137364 23.619735 
L 47.929248 20.646664 
L 48.721132 18.174015 
L 49.513015 16.211183 
L 50.075839 15.13024 
L 50.638663 14.312724 
L 51.201487 13.76021 
L 51.764311 13.473761 
L 52.669952 13.572542 
L 53.575594 14.360983 
L 54.328261 15.538287 
L 55.080929 17.185238 
L 55.9785 19.755251 
L 56.876071 22.972465 
L 57.729335 26.616666 
L 59.435863 35.550746 
L 61.189097 46.872962 
L 63.168179 62.004063 
L 64.879961 76.842511 
L 66.569038 92.815579 
L 70.199209 130.364194 
L 77.781348 212.259707 
L 80.295785 237.188523 
L 82.887346 260.375652 
L 84.498795 273.233548 
L 86.202413 285.369848 
L 87.713939 294.805552 
L 89.44882 304.032778 
L 91.183701 311.521593 
L 92.410872 315.774466 
L 93.70999 319.353395 
L 95.009109 322.013304 
L 96.159629 323.635176 
L 96.979027 324.390437 
L 97.798425 324.829721 
L 98.617823 324.969231 
L 99.437221 324.826445 
L 100.423308 324.306782 
L 101.409394 323.43973 
L 102.819824 321.668092 
L 104.230253 319.371125 
L 106.645088 314.55028 
L 113.117687 300.1381 
L 115.042834 296.527297 
L 116.97296 293.615193 
L 118.903086 291.570414 
L 119.964731 290.857192 
L 121.591205 290.364114 
L 123.533407 290.74421 
L 124.943112 291.670584 
L 126.352818 293.116224 
L 128.239071 295.788894 
L 129.986112 298.906534 
L 132.491148 304.160284 
L 138.107004 316.709172 
L 140.155015 320.503852 
L 141.203605 322.089982 
L 142.759911 323.870733 
L 144.095887 324.754013 
L 145.431863 324.948775 
L 146.471993 324.571968 
L 147.512123 323.69463 
L 148.366078 322.57834 
L 149.220033 321.088614 
L 150.121951 319.095059 
L 151.023869 316.656885 
L 152.130107 313.04383 
L 153.236345 308.731974 
L 154.946016 300.677826 
L 156.655686 290.941034 
L 158.756171 276.739416 
L 161.08167 258.322389 
L 163.535213 236.18546 
L 166.210099 209.510708 
L 170.973182 158.191123 
L 175.920286 105.190803 
L 177.857602 86.040634 
L 180.234586 64.68522 
L 181.483104 54.634839 
L 183.163017 42.588548 
L 184.49185 34.380777 
L 185.458597 29.198171 
L 186.425345 24.71301 
L 187.392093 20.95058 
L 188.35884 17.932145 
L 189.394469 15.543367 
L 189.967525 14.60281 
L 190.54058 13.936396 
L 191.113636 13.545456 
L 191.686691 13.430769 
L 192.739394 13.940326 
L 193.792097 15.379092 
L 194.523129 16.92004 
L 195.25416 18.899546 
L 196.135657 21.860514 
L 197.017153 25.435815 
L 197.89865 29.608657 
L 198.780146 34.359484 
L 200.529195 45.407402 
L 201.972231 56.02574 
L 203.752865 70.793701 
L 205.783883 89.550608 
L 208.195968 113.874288 
L 214.19292 178.881305 
L 217.58111 214.820633 
L 220.568767 243.939434 
L 222.281675 259.064188 
L 224.815886 278.88793 
L 226.812763 292.121802 
L 228.790627 303.015664 
L 229.981607 308.487421 
L 231.172588 313.140183 
L 232.456776 317.25048 
L 233.740965 320.442689 
L 234.487546 321.88953 
L 235.234126 323.045707 
L 235.980707 323.920667 
L 236.727287 324.524927 
L 237.708267 324.926844 
L 238.689246 324.909944 
L 239.966875 324.311541 
L 241.573328 322.740726 
L 242.928412 320.815354 
L 244.283495 318.446752 
L 246.342902 314.229861 
L 250.942368 303.810021 
L 253.110487 299.255559 
L 254.361023 296.928838 
L 255.61156 294.891236 
L 256.77319 293.298693 
L 258.22665 291.761624 
L 259.680109 290.773722 
L 260.529274 290.463275 
L 262.409537 290.492978 
L 264.2898 291.503921 
L 265.064154 292.195322 
L 266.481614 293.850656 
L 267.899074 295.967928 
L 269.54967 298.932218 
L 271.547491 303.070617 
L 276.885258 315.09783 
L 278.430772 318.23482 
L 279.732683 320.548736 
L 280.829559 322.193241 
L 281.926435 323.501859 
L 283.605182 324.736719 
L 284.444556 324.958501 
L 285.28393 324.889039 
L 286.161075 324.484548 
L 287.038221 323.720959 
L 288.315365 321.929623 
L 289.592508 319.289036 
L 290.459995 316.990479 
L 291.327481 314.271842 
L 292.536085 309.770272 
L 294.257698 301.903392 
L 295.563094 294.797938 
L 296.86849 286.723187 
L 299.263255 269.489455 
L 301.322116 252.356524 
L 304.077257 226.564279 
L 307.428266 191.903683 
L 315.131685 108.668307 
L 317.631469 83.921967 
L 319.406764 67.897818 
L 321.182059 53.498068 
L 322.188149 46.161551 
L 323.359259 38.446239 
L 325.122309 28.635322 
L 326.306189 23.344079 
L 326.898129 21.106707 
L 327.792891 18.255118 
L 328.84007 15.744669 
L 329.88725 14.141695 
L 330.933438 13.457081 
L 331.979627 13.693433 
L 332.610173 14.28029 
L 333.24072 15.199824 
L 333.871266 16.449813 
L 334.501812 18.027238 
L 335.242082 20.291835 
L 335.982353 22.994941 
L 337.462893 29.67941 
L 339.273038 40.053924 
L 340.567995 48.857026 
L 342.791796 66.378268 
L 344.329 80.038036 
L 346.721374 103.313394 
L 348.897228 126.045466 
L 356.872087 212.158338 
L 359.386162 237.091758 
L 361.582758 256.945058 
L 363.483385 272.351557 
L 365.146189 284.318175 
L 366.808992 294.773396 
L 368.102031 301.819321 
L 369.35503 307.726727 
L 370.608028 312.726991 
L 371.501094 315.742148 
L 372.394159 318.308022 
L 373.281286 320.421364 
L 374.168413 322.112467 
L 374.947068 323.25994 
L 375.725723 324.103918 
L 376.504378 324.65661 
L 377.283033 324.931392 
L 378.289268 324.898488 
L 379.264977 324.478295 
L 380.240687 323.70895 
L 381.216397 322.625113 
L 382.192106 321.262947 
L 383.054974 319.8563 
L 384.493183 317.164644 
L 385.931391 314.146536 
L 392.345011 299.882466 
L 394.117158 296.572209 
L 395.234628 294.782586 
L 397.07082 292.442271 
L 398.817309 290.996582 
L 400.563799 290.376163 
L 401.61327 290.41303 
L 402.662742 290.75772 
L 403.658316 291.36438 
L 404.653889 292.234678 
L 405.741064 293.471555 
L 406.828239 294.986957 
L 407.862383 296.663178 
L 409.247432 299.219509 
L 410.632481 302.064462 
L 417.718219 317.727534 
L 418.145438 318.545768 
L 420.118978 321.83059 
L 421.105748 323.100116 
L 422.092518 324.06981 
L 423.257019 324.77837 
L 424.655819 324.929147 
L 426.054619 324.229558 
L 427.246165 322.901754 
L 428.437711 320.854461 
L 429.359041 318.754876 
L 430.280372 316.189474 
L 431.45321 312.232972 
L 432.906957 306.234542 
L 434.378913 298.916231 
L 435.85087 290.353769 
L 435.85087 290.353769 
" clip-path="url(#p654fed9851)" style="fill: none; stroke: #0000ff; stroke-linecap: square"/>
   </g>
   <g id="patch_3">
    <path d="M 156.75029 331.2 
L 156.75029 7.2 
" style="fill: none; stroke: #000000; stroke-width: 0.8; stroke-linejoin: miter; stroke-linecap: square"/>
   </g>
   <g id="patch_4">
    <path d="M 8.826983 290.353769 
L 444.223887 290.353769 
" style="fill: none; stroke: #000000; stroke-width: 0.8; stroke-linejoin: miter; stroke-linecap: square"/>
   </g>
  </g>
 </g>
 <defs>
  <clipPath id="p654fed9851">
   <rect x="8.826983" y="7.2" width="435.396904" height="324"/>
  </clipPath>
 </defs>
</svg>
