<?xml version="1.0" encoding="utf-8" standalone="no"?>
<!DOCTYPE svg PUBLIC "-//W3C//DTD SVG 1.1//EN"
  "http://www.w3.org/Graphics/SVG/1.1/DTD/svg11.dtd">
<svg xmlns:xlink="http://www.w3.org/1999/xlink" width="451.423887pt" height="337.388832pt" viewBox="0 0 451.423887 337.388832" xmlns="http://www.w3.org/2000/svg" version="1.1">
 <metadata>
  <rdf:RDF xmlns:dc="http://purl.org/dc/elements/1.1/" xmlns:cc="http://creativecommons.org/ns#" xmlns:rdf="http://www.w3.org/1999/02/22-rdf-syntax-ns#">
   <cc:Work>
    <dc:type rdf:resource="http://purl.org/dc/dcmitype/StillImage"/>
    <dc:date>2024-12-04T13:18:38.518329</dc:date>
    <dc:format>image/svg+xml</dc:format>
    <dc:creator>
     <cc:Agent>
      <dc:title>Matplotlib v3.6.2, https://matplotlib.org/</dc:title>
     </cc:Agent>
    </dc:creator>
   </cc:Work>
  </rdf:RDF>
 </metadata>
 <defs>
  <style type="text/css">*{stroke-linejoin: round; stroke-linecap: butt}</style>
 </defs>
 <g id="figure_1">
  <g id="patch_1">
   <path d="M 0 337.388832 
L 451.423887 337.388832 
L 451.423887 0 
L 0 0 
z
" style="fill: #ffffff"/>
  </g>
  <g id="axes_1">
   <g id="patch_2">
    <path d="M 8.826983 330.188832 
L 444.223887 330.188832 
L 444.223887 7.2 
L 8.826983 7.2 
z
" style="fill: #ffffff"/>
   </g>
   <g id="matplotlib.axis_1">
    <g id="xtick_1">
     <g id="line2d_1">
      <defs>
       <path id="m8216967b44" d="M 0 0 
L 0 3.5 
" style="stroke: #000000; stroke-width: 0.8"/>
      </defs>
      <g>
       <use xlink:href="#m8216967b44" x="17.2" y="168.6997" style="stroke: #000000; stroke-width: 0.8"/>
      </g>
     </g>
     <g id="text_1">
      <!-- $-4 \, \pi$ -->
      <g transform="translate(7.2 183.298137) scale(0.1 -0.1)">
       <defs>
        <path id="Cmsy10-a1" d="M 653 1472 
Q 600 1472 565 1512 
Q 531 1553 531 1600 
Q 531 1647 565 1687 
Q 600 1728 653 1728 
L 4325 1728 
Q 4375 1728 4408 1687 
Q 4441 1647 4441 1600 
Q 4441 1553 4408 1512 
Q 4375 1472 4325 1472 
L 653 1472 
z
" transform="scale(0.015625)"/>
        <path id="Cmr10-34" d="M 178 1056 
L 178 1281 
L 2156 4231 
Q 2178 4263 2222 4263 
L 2316 4263 
Q 2388 4263 2388 4191 
L 2388 1281 
L 3016 1281 
L 3016 1056 
L 2388 1056 
L 2388 428 
Q 2388 297 2575 261 
Q 2763 225 3009 225 
L 3009 0 
L 1247 0 
L 1247 225 
Q 1494 225 1681 261 
Q 1869 297 1869 428 
L 1869 1056 
L 178 1056 
z
M 391 1281 
L 1906 1281 
L 1906 3547 
L 391 1281 
z
" transform="scale(0.015625)"/>
        <path id="Cmmi10-bc" d="M 647 109 
Q 647 144 672 213 
Q 850 584 1004 942 
Q 1159 1300 1282 1639 
Q 1406 1978 1509 2363 
L 1100 2363 
Q 866 2363 662 2216 
Q 459 2069 325 1844 
Q 313 1819 288 1819 
L 213 1819 
Q 153 1819 153 1881 
Q 153 1894 166 1919 
Q 375 2275 614 2517 
Q 853 2759 1153 2759 
L 3475 2759 
Q 3541 2759 3587 2715 
Q 3634 2672 3634 2597 
Q 3634 2503 3567 2433 
Q 3500 2363 3406 2363 
L 2591 2363 
Q 2488 1859 2478 1381 
Q 2478 766 2694 269 
Q 2713 231 2713 191 
Q 2713 122 2672 62 
Q 2631 3 2567 -34 
Q 2503 -72 2431 -72 
Q 2263 -72 2200 203 
Q 2138 478 2138 738 
Q 2138 1103 2200 1442 
Q 2263 1781 2400 2363 
L 1703 2363 
Q 1197 313 1094 103 
Q 1003 -72 844 -72 
Q 766 -72 706 -20 
Q 647 31 647 109 
z
" transform="scale(0.015625)"/>
       </defs>
       <use xlink:href="#Cmsy10-a1" transform="translate(0 0.390625)"/>
       <use xlink:href="#Cmr10-34" transform="translate(77.685547 0.390625)"/>
       <use xlink:href="#Cmmi10-bc" transform="translate(142.318001 0.390625)"/>
      </g>
     </g>
    </g>
    <g id="xtick_2">
     <g id="line2d_2">
      <g>
       <use xlink:href="#m8216967b44" x="69.531359" y="168.6997" style="stroke: #000000; stroke-width: 0.8"/>
      </g>
     </g>
     <g id="text_2">
      <!-- $-3 \, \pi$ -->
      <g transform="translate(59.531359 183.298137) scale(0.1 -0.1)">
       <defs>
        <path id="Cmr10-33" d="M 609 494 
Q 759 275 1012 169 
Q 1266 63 1556 63 
Q 1928 63 2084 380 
Q 2241 697 2241 1100 
Q 2241 1281 2208 1462 
Q 2175 1644 2097 1800 
Q 2019 1956 1883 2050 
Q 1747 2144 1550 2144 
L 1125 2144 
Q 1069 2144 1069 2203 
L 1069 2259 
Q 1069 2309 1125 2309 
L 1478 2338 
Q 1703 2338 1851 2506 
Q 2000 2675 2069 2917 
Q 2138 3159 2138 3378 
Q 2138 3684 1994 3881 
Q 1850 4078 1556 4078 
Q 1313 4078 1091 3986 
Q 869 3894 738 3706 
Q 750 3709 759 3711 
Q 769 3713 781 3713 
Q 925 3713 1022 3613 
Q 1119 3513 1119 3372 
Q 1119 3234 1022 3134 
Q 925 3034 781 3034 
Q 641 3034 541 3134 
Q 441 3234 441 3372 
Q 441 3647 606 3850 
Q 772 4053 1033 4158 
Q 1294 4263 1556 4263 
Q 1750 4263 1965 4205 
Q 2181 4147 2356 4039 
Q 2531 3931 2642 3762 
Q 2753 3594 2753 3378 
Q 2753 3109 2633 2881 
Q 2513 2653 2303 2487 
Q 2094 2322 1844 2241 
Q 2122 2188 2372 2031 
Q 2622 1875 2773 1631 
Q 2925 1388 2925 1106 
Q 2925 753 2731 467 
Q 2538 181 2222 20 
Q 1906 -141 1556 -141 
Q 1256 -141 954 -26 
Q 653 88 461 316 
Q 269 544 269 863 
Q 269 1022 375 1128 
Q 481 1234 641 1234 
Q 744 1234 830 1186 
Q 916 1138 964 1050 
Q 1013 963 1013 863 
Q 1013 706 903 600 
Q 794 494 641 494 
L 609 494 
z
" transform="scale(0.015625)"/>
       </defs>
       <use xlink:href="#Cmsy10-a1" transform="translate(0 0.390625)"/>
       <use xlink:href="#Cmr10-33" transform="translate(77.685547 0.390625)"/>
       <use xlink:href="#Cmmi10-bc" transform="translate(142.318001 0.390625)"/>
      </g>
     </g>
    </g>
    <g id="xtick_3">
     <g id="line2d_3">
      <g>
       <use xlink:href="#m8216967b44" x="121.862717" y="168.6997" style="stroke: #000000; stroke-width: 0.8"/>
      </g>
     </g>
     <g id="text_3">
      <!-- $-2 \, \pi$ -->
      <g transform="translate(111.862717 183.298137) scale(0.1 -0.1)">
       <defs>
        <path id="Cmr10-32" d="M 319 0 
L 319 172 
Q 319 188 331 206 
L 1325 1306 
Q 1550 1550 1690 1715 
Q 1831 1881 1968 2097 
Q 2106 2313 2186 2536 
Q 2266 2759 2266 3009 
Q 2266 3272 2169 3511 
Q 2072 3750 1880 3894 
Q 1688 4038 1416 4038 
Q 1138 4038 916 3870 
Q 694 3703 603 3438 
Q 628 3444 672 3444 
Q 816 3444 917 3347 
Q 1019 3250 1019 3097 
Q 1019 2950 917 2848 
Q 816 2747 672 2747 
Q 522 2747 420 2851 
Q 319 2956 319 3097 
Q 319 3338 409 3548 
Q 500 3759 670 3923 
Q 841 4088 1055 4175 
Q 1269 4263 1509 4263 
Q 1875 4263 2190 4108 
Q 2506 3953 2690 3670 
Q 2875 3388 2875 3009 
Q 2875 2731 2753 2481 
Q 2631 2231 2440 2026 
Q 2250 1822 1953 1562 
Q 1656 1303 1563 1216 
L 838 519 
L 1453 519 
Q 1906 519 2211 526 
Q 2516 534 2534 550 
Q 2609 631 2688 1141 
L 2875 1141 
L 2694 0 
L 319 0 
z
" transform="scale(0.015625)"/>
       </defs>
       <use xlink:href="#Cmsy10-a1" transform="translate(0 0.390625)"/>
       <use xlink:href="#Cmr10-32" transform="translate(77.685547 0.390625)"/>
       <use xlink:href="#Cmmi10-bc" transform="translate(142.318001 0.390625)"/>
      </g>
     </g>
    </g>
    <g id="xtick_4">
     <g id="line2d_4">
      <g>
       <use xlink:href="#m8216967b44" x="174.194076" y="168.6997" style="stroke: #000000; stroke-width: 0.8"/>
      </g>
     </g>
     <g id="text_4">
      <!-- $-\pi$ -->
      <g transform="translate(167.444076 183.298137) scale(0.1 -0.1)">
       <use xlink:href="#Cmsy10-a1" transform="translate(0 0.890625)"/>
       <use xlink:href="#Cmmi10-bc" transform="translate(77.685547 0.890625)"/>
      </g>
     </g>
    </g>
    <g id="xtick_5">
     <g id="line2d_5">
      <g>
       <use xlink:href="#m8216967b44" x="278.856793" y="168.6997" style="stroke: #000000; stroke-width: 0.8"/>
      </g>
     </g>
     <g id="text_5">
      <!-- $\pi$ -->
      <g transform="translate(276.006793 183.298137) scale(0.1 -0.1)">
       <use xlink:href="#Cmmi10-bc" transform="translate(0 0.890625)"/>
      </g>
     </g>
    </g>
    <g id="xtick_6">
     <g id="line2d_6">
      <g>
       <use xlink:href="#m8216967b44" x="331.188152" y="168.6997" style="stroke: #000000; stroke-width: 0.8"/>
      </g>
     </g>
     <g id="text_6">
      <!-- $2 \, \pi$ -->
      <g transform="translate(325.088152 183.298137) scale(0.1 -0.1)">
       <use xlink:href="#Cmr10-32" transform="translate(0 0.390625)"/>
       <use xlink:href="#Cmmi10-bc" transform="translate(64.632454 0.390625)"/>
      </g>
     </g>
    </g>
    <g id="xtick_7">
     <g id="line2d_7">
      <g>
       <use xlink:href="#m8216967b44" x="383.519511" y="168.6997" style="stroke: #000000; stroke-width: 0.8"/>
      </g>
     </g>
     <g id="text_7">
      <!-- $3 \, \pi$ -->
      <g transform="translate(377.419511 183.298137) scale(0.1 -0.1)">
       <use xlink:href="#Cmr10-33" transform="translate(0 0.390625)"/>
       <use xlink:href="#Cmmi10-bc" transform="translate(64.632454 0.390625)"/>
      </g>
     </g>
    </g>
    <g id="xtick_8">
     <g id="line2d_8">
      <g>
       <use xlink:href="#m8216967b44" x="435.85087" y="168.6997" style="stroke: #000000; stroke-width: 0.8"/>
      </g>
     </g>
     <g id="text_8">
      <!-- $4 \, \pi$ -->
      <g transform="translate(429.75087 183.298137) scale(0.1 -0.1)">
       <use xlink:href="#Cmr10-34" transform="translate(0 0.390625)"/>
       <use xlink:href="#Cmmi10-bc" transform="translate(64.632454 0.390625)"/>
      </g>
     </g>
    </g>
   </g>
   <g id="matplotlib.axis_2">
    <g id="ytick_1">
     <g id="line2d_9">
      <defs>
       <path id="m4e0dca2bda" d="M 0 0 
L -3.5 0 
" style="stroke: #000000; stroke-width: 0.8"/>
      </defs>
      <g>
       <use xlink:href="#m4e0dca2bda" x="226.525435" y="323.988076" style="stroke: #000000; stroke-width: 0.8"/>
      </g>
     </g>
     <g id="text_9">
      <!-- −1 -->
      <g transform="translate(204.783247 327.787294) scale(0.1 -0.1)">
       <defs>
        <path id="DejaVuSans-2212" d="M 678 2272 
L 4684 2272 
L 4684 1741 
L 678 1741 
L 678 2272 
z
" transform="scale(0.015625)"/>
        <path id="DejaVuSans-31" d="M 794 531 
L 1825 531 
L 1825 4091 
L 703 3866 
L 703 4441 
L 1819 4666 
L 2450 4666 
L 2450 531 
L 3481 531 
L 3481 0 
L 794 0 
L 794 531 
z
" transform="scale(0.015625)"/>
       </defs>
       <use xlink:href="#DejaVuSans-2212"/>
       <use xlink:href="#DejaVuSans-31" x="83.789062"/>
      </g>
     </g>
    </g>
    <g id="ytick_2">
     <g id="line2d_10">
      <g>
       <use xlink:href="#m4e0dca2bda" x="226.525435" y="13.411324" style="stroke: #000000; stroke-width: 0.8"/>
      </g>
     </g>
     <g id="text_10">
      <!-- 1 -->
      <g transform="translate(213.162935 17.210542) scale(0.1 -0.1)">
       <use xlink:href="#DejaVuSans-31"/>
      </g>
     </g>
    </g>
   </g>
   <g id="line2d_11">
    <path d="M 17.2 13.411324 
L 18.691639 14.033512 
L 20.183279 15.895093 
L 20.72497 16.875296 
L 21.589238 18.771126 
L 22.453506 21.070471 
L 24.57185 28.371542 
L 25.771258 33.519391 
L 26.970666 39.367784 
L 29.120346 51.504679 
L 30.820874 62.497574 
L 33.216994 79.83515 
L 35.935338 101.705576 
L 39.077345 129.16234 
L 51.432391 240.995648 
L 53.850197 260.113469 
L 56.185014 276.754493 
L 58.656018 292.05146 
L 60.293389 300.713697 
L 61.930761 308.101431 
L 63.118145 312.620578 
L 64.797957 317.760671 
L 66.477769 321.386182 
L 68.112288 323.424918 
L 69.018355 323.914439 
L 69.924422 323.944845 
L 70.882502 323.477512 
L 72.184095 322.02311 
L 73.485688 319.633058 
L 74.936524 315.884278 
L 76.387359 311.019662 
L 77.708873 305.648569 
L 79.290806 298.089473 
L 80.872739 289.364305 
L 82.087328 281.92275 
L 83.899458 269.714548 
L 85.76025 255.937137 
L 89.055633 228.986064 
L 90.760356 214.050592 
L 103.056523 102.302097 
L 106.33635 76.123371 
L 109.02291 57.303929 
L 111.845405 40.654594 
L 113.752345 31.456859 
L 115.078582 26.11304 
L 116.113183 22.57003 
L 117.147783 19.590555 
L 118.182384 17.186103 
L 119.216985 15.365948 
L 120.526213 13.910889 
L 121.37699 13.477338 
L 122.227766 13.448612 
L 123.219042 13.925808 
L 124.210317 14.950945 
L 125.798452 17.725669 
L 127.386586 21.871665 
L 128.45827 25.425825 
L 129.704337 30.302544 
L 130.950403 35.953338 
L 132.935566 46.475088 
L 134.900179 58.595515 
L 136.966245 72.988732 
L 140.139897 97.878189 
L 144.174527 133.092111 
L 155.291328 234.28251 
L 157.168329 249.694088 
L 159.082707 264.353096 
L 162.220852 285.570716 
L 164.597921 298.924967 
L 166.323208 306.972972 
L 168.190618 314.011497 
L 169.893539 318.841521 
L 170.74449 320.670155 
L 171.595441 322.102282 
L 172.446393 323.134166 
L 173.297344 323.763116 
L 174.570251 323.94848 
L 175.843158 323.227725 
L 176.379455 322.653586 
L 177.559995 320.828609 
L 178.740535 318.239853 
L 180.417289 313.276415 
L 182.094043 306.849298 
L 184.157788 297.02685 
L 186.109398 285.925444 
L 187.258538 278.626244 
L 190.133001 258.160116 
L 192.968955 235.361086 
L 196.321435 205.978769 
L 206.98802 108.526251 
L 209.4391 88.187755 
L 211.897977 69.533385 
L 214.192624 54.063063 
L 216.007419 43.352905 
L 217.805089 34.208811 
L 219.602758 26.629546 
L 220.728244 22.720944 
L 221.85373 19.478504 
L 223.073136 16.734447 
L 224.292541 14.804385 
L 225.576466 13.663248 
L 226.576597 13.412056 
L 227.576728 13.720487 
L 228.887689 14.970194 
L 230.19865 17.171575 
L 231.409006 20.037254 
L 233.261225 25.935118 
L 234.591183 31.262713 
L 235.921141 37.465945 
L 237.458791 45.677231 
L 239.554949 58.543281 
L 241.149649 69.51012 
L 244.31643 93.875341 
L 247.948269 125.080079 
L 260.448432 238.430679 
L 263.270599 260.827655 
L 264.781324 271.770798 
L 266.662141 284.201193 
L 268.798586 296.52873 
L 270.902352 306.616643 
L 271.914378 310.695461 
L 272.926404 314.250316 
L 274.577088 318.890987 
L 276.227772 322.058013 
L 277.358918 323.360677 
L 278.490065 323.950444 
L 279.700765 323.788803 
L 280.911466 322.808246 
L 282.211029 320.85043 
L 283.693106 317.488867 
L 285.175182 312.950236 
L 286.170841 309.257774 
L 287.525948 303.42853 
L 289.880652 291.2055 
L 292.199887 276.776263 
L 293.519523 267.612755 
L 295.344198 253.932978 
L 298.844205 224.984372 
L 302.44055 192.673099 
L 310.300083 120.31881 
L 313.438758 93.535738 
L 316.030643 73.385517 
L 317.122887 65.557464 
L 318.79965 54.413924 
L 321.479624 39.048058 
L 322.482835 34.138823 
L 324.138142 27.112938 
L 325.160941 23.466138 
L 326.183741 20.366717 
L 327.818162 16.578413 
L 329.452582 14.253448 
L 330.858818 13.441673 
L 331.936615 13.568054 
L 333.422461 14.80615 
L 334.908308 17.267892 
L 336.050831 19.981085 
L 337.193355 23.393638 
L 338.259477 27.194661 
L 340.184499 35.513496 
L 341.545094 42.472398 
L 343.959428 56.85976 
L 346.365091 73.52858 
L 347.717016 83.789759 
L 350.068445 102.927194 
L 354.524119 142.446734 
L 363.583071 225.42698 
L 366.35841 248.614835 
L 369.517065 272.278987 
L 369.967855 275.371688 
L 371.899757 287.714026 
L 373.486955 296.664355 
L 375.074153 304.453772 
L 376.349436 309.823086 
L 377.871841 315.147936 
L 379.394245 319.250374 
L 380.191856 320.899798 
L 381.244309 322.541806 
L 382.296762 323.569895 
L 383.325178 323.977508 
L 384.353594 323.793444 
L 385.38201 323.018405 
L 386.777943 321.026542 
L 387.677961 319.174242 
L 388.57798 316.88277 
L 389.477998 314.158812 
L 390.378016 311.010318 
L 391.389793 306.975459 
L 392.506658 301.929979 
L 393.623524 296.285788 
L 394.914672 289.048091 
L 396.205819 281.087708 
L 397.816591 270.216479 
L 400.762063 247.962829 
L 403.437798 225.584472 
L 406.662679 196.722333 
L 414.984104 120.130134 
L 418.360885 91.42879 
L 420.634142 73.82195 
L 423.257377 55.716341 
L 424.64306 47.255182 
L 426.4927 37.279203 
L 427.886182 30.826679 
L 429.279664 25.338439 
L 430.731781 20.686597 
L 432.183899 17.158853 
L 433.295626 15.234789 
L 434.407353 13.994039 
L 435.85087 13.411324 
L 435.85087 13.411324 
" clip-path="url(#p681d7d2d68)" style="fill: none; stroke: #0000ff; stroke-linecap: square"/>
   </g>
   <g id="patch_3">
    <path d="M 226.525435 330.188832 
L 226.525435 7.2 
" style="fill: none; stroke: #000000; stroke-width: 0.8; stroke-linejoin: miter; stroke-linecap: square"/>
   </g>
   <g id="patch_4">
    <path d="M 8.826983 168.6997 
L 444.223887 168.6997 
" style="fill: none; stroke: #000000; stroke-width: 0.8; stroke-linejoin: miter; stroke-linecap: square"/>
   </g>
  </g>
 </g>
 <defs>
  <clipPath id="p681d7d2d68">
   <rect x="8.826983" y="7.2" width="435.396904" height="322.988832"/>
  </clipPath>
 </defs>
</svg>
