<?xml version="1.0" encoding="utf-8" standalone="no"?>
<!DOCTYPE svg PUBLIC "-//W3C//DTD SVG 1.1//EN"
  "http://www.w3.org/Graphics/SVG/1.1/DTD/svg11.dtd">
<svg xmlns:xlink="http://www.w3.org/1999/xlink" width="451.423887pt" height="337.397518pt" viewBox="0 0 451.423887 337.397518" xmlns="http://www.w3.org/2000/svg" version="1.1">
 <metadata>
  <rdf:RDF xmlns:dc="http://purl.org/dc/elements/1.1/" xmlns:cc="http://creativecommons.org/ns#" xmlns:rdf="http://www.w3.org/1999/02/22-rdf-syntax-ns#">
   <cc:Work>
    <dc:type rdf:resource="http://purl.org/dc/dcmitype/StillImage"/>
    <dc:date>2024-11-05T23:15:06.432964</dc:date>
    <dc:format>image/svg+xml</dc:format>
    <dc:creator>
     <cc:Agent>
      <dc:title>Matplotlib v3.6.2, https://matplotlib.org/</dc:title>
     </cc:Agent>
    </dc:creator>
   </cc:Work>
  </rdf:RDF>
 </metadata>
 <defs>
  <style type="text/css">*{stroke-linejoin: round; stroke-linecap: butt}</style>
 </defs>
 <g id="figure_1">
  <g id="patch_1">
   <path d="M 0 337.397518 
L 451.423887 337.397518 
L 451.423887 0 
L 0 0 
z
" style="fill: #ffffff"/>
  </g>
  <g id="axes_1">
   <g id="patch_2">
    <path d="M 8.826983 330.197518 
L 444.223887 330.197518 
L 444.223887 7.2 
L 8.826983 7.2 
z
" style="fill: #ffffff"/>
   </g>
   <g id="matplotlib.axis_1">
    <g id="xtick_1">
     <g id="line2d_1">
      <defs>
       <path id="mfc59092d1c" d="M 0 0 
L 0 3.5 
" style="stroke: #000000; stroke-width: 0.8"/>
      </defs>
      <g>
       <use xlink:href="#mfc59092d1c" x="17.2" y="168.698771" style="stroke: #000000; stroke-width: 0.8"/>
      </g>
     </g>
     <g id="text_1">
      <!-- $-4 \, \pi$ -->
      <g transform="translate(7.2 183.297209) scale(0.1 -0.1)">
       <defs>
        <path id="Cmsy10-a1" d="M 653 1472 
Q 600 1472 565 1512 
Q 531 1553 531 1600 
Q 531 1647 565 1687 
Q 600 1728 653 1728 
L 4325 1728 
Q 4375 1728 4408 1687 
Q 4441 1647 4441 1600 
Q 4441 1553 4408 1512 
Q 4375 1472 4325 1472 
L 653 1472 
z
" transform="scale(0.015625)"/>
        <path id="Cmr10-34" d="M 178 1056 
L 178 1281 
L 2156 4231 
Q 2178 4263 2222 4263 
L 2316 4263 
Q 2388 4263 2388 4191 
L 2388 1281 
L 3016 1281 
L 3016 1056 
L 2388 1056 
L 2388 428 
Q 2388 297 2575 261 
Q 2763 225 3009 225 
L 3009 0 
L 1247 0 
L 1247 225 
Q 1494 225 1681 261 
Q 1869 297 1869 428 
L 1869 1056 
L 178 1056 
z
M 391 1281 
L 1906 1281 
L 1906 3547 
L 391 1281 
z
" transform="scale(0.015625)"/>
        <path id="Cmmi10-bc" d="M 647 109 
Q 647 144 672 213 
Q 850 584 1004 942 
Q 1159 1300 1282 1639 
Q 1406 1978 1509 2363 
L 1100 2363 
Q 866 2363 662 2216 
Q 459 2069 325 1844 
Q 313 1819 288 1819 
L 213 1819 
Q 153 1819 153 1881 
Q 153 1894 166 1919 
Q 375 2275 614 2517 
Q 853 2759 1153 2759 
L 3475 2759 
Q 3541 2759 3587 2715 
Q 3634 2672 3634 2597 
Q 3634 2503 3567 2433 
Q 3500 2363 3406 2363 
L 2591 2363 
Q 2488 1859 2478 1381 
Q 2478 766 2694 269 
Q 2713 231 2713 191 
Q 2713 122 2672 62 
Q 2631 3 2567 -34 
Q 2503 -72 2431 -72 
Q 2263 -72 2200 203 
Q 2138 478 2138 738 
Q 2138 1103 2200 1442 
Q 2263 1781 2400 2363 
L 1703 2363 
Q 1197 313 1094 103 
Q 1003 -72 844 -72 
Q 766 -72 706 -20 
Q 647 31 647 109 
z
" transform="scale(0.015625)"/>
       </defs>
       <use xlink:href="#Cmsy10-a1" transform="translate(0 0.390625)"/>
       <use xlink:href="#Cmr10-34" transform="translate(77.685547 0.390625)"/>
       <use xlink:href="#Cmmi10-bc" transform="translate(142.318001 0.390625)"/>
      </g>
     </g>
    </g>
    <g id="xtick_2">
     <g id="line2d_2">
      <g>
       <use xlink:href="#mfc59092d1c" x="69.531359" y="168.698771" style="stroke: #000000; stroke-width: 0.8"/>
      </g>
     </g>
     <g id="text_2">
      <!-- $-3 \, \pi$ -->
      <g transform="translate(59.531359 183.297209) scale(0.1 -0.1)">
       <defs>
        <path id="Cmr10-33" d="M 609 494 
Q 759 275 1012 169 
Q 1266 63 1556 63 
Q 1928 63 2084 380 
Q 2241 697 2241 1100 
Q 2241 1281 2208 1462 
Q 2175 1644 2097 1800 
Q 2019 1956 1883 2050 
Q 1747 2144 1550 2144 
L 1125 2144 
Q 1069 2144 1069 2203 
L 1069 2259 
Q 1069 2309 1125 2309 
L 1478 2338 
Q 1703 2338 1851 2506 
Q 2000 2675 2069 2917 
Q 2138 3159 2138 3378 
Q 2138 3684 1994 3881 
Q 1850 4078 1556 4078 
Q 1313 4078 1091 3986 
Q 869 3894 738 3706 
Q 750 3709 759 3711 
Q 769 3713 781 3713 
Q 925 3713 1022 3613 
Q 1119 3513 1119 3372 
Q 1119 3234 1022 3134 
Q 925 3034 781 3034 
Q 641 3034 541 3134 
Q 441 3234 441 3372 
Q 441 3647 606 3850 
Q 772 4053 1033 4158 
Q 1294 4263 1556 4263 
Q 1750 4263 1965 4205 
Q 2181 4147 2356 4039 
Q 2531 3931 2642 3762 
Q 2753 3594 2753 3378 
Q 2753 3109 2633 2881 
Q 2513 2653 2303 2487 
Q 2094 2322 1844 2241 
Q 2122 2188 2372 2031 
Q 2622 1875 2773 1631 
Q 2925 1388 2925 1106 
Q 2925 753 2731 467 
Q 2538 181 2222 20 
Q 1906 -141 1556 -141 
Q 1256 -141 954 -26 
Q 653 88 461 316 
Q 269 544 269 863 
Q 269 1022 375 1128 
Q 481 1234 641 1234 
Q 744 1234 830 1186 
Q 916 1138 964 1050 
Q 1013 963 1013 863 
Q 1013 706 903 600 
Q 794 494 641 494 
L 609 494 
z
" transform="scale(0.015625)"/>
       </defs>
       <use xlink:href="#Cmsy10-a1" transform="translate(0 0.390625)"/>
       <use xlink:href="#Cmr10-33" transform="translate(77.685547 0.390625)"/>
       <use xlink:href="#Cmmi10-bc" transform="translate(142.318001 0.390625)"/>
      </g>
     </g>
    </g>
    <g id="xtick_3">
     <g id="line2d_3">
      <g>
       <use xlink:href="#mfc59092d1c" x="121.862717" y="168.698771" style="stroke: #000000; stroke-width: 0.8"/>
      </g>
     </g>
     <g id="text_3">
      <!-- $-2 \, \pi$ -->
      <g transform="translate(111.862717 183.297209) scale(0.1 -0.1)">
       <defs>
        <path id="Cmr10-32" d="M 319 0 
L 319 172 
Q 319 188 331 206 
L 1325 1306 
Q 1550 1550 1690 1715 
Q 1831 1881 1968 2097 
Q 2106 2313 2186 2536 
Q 2266 2759 2266 3009 
Q 2266 3272 2169 3511 
Q 2072 3750 1880 3894 
Q 1688 4038 1416 4038 
Q 1138 4038 916 3870 
Q 694 3703 603 3438 
Q 628 3444 672 3444 
Q 816 3444 917 3347 
Q 1019 3250 1019 3097 
Q 1019 2950 917 2848 
Q 816 2747 672 2747 
Q 522 2747 420 2851 
Q 319 2956 319 3097 
Q 319 3338 409 3548 
Q 500 3759 670 3923 
Q 841 4088 1055 4175 
Q 1269 4263 1509 4263 
Q 1875 4263 2190 4108 
Q 2506 3953 2690 3670 
Q 2875 3388 2875 3009 
Q 2875 2731 2753 2481 
Q 2631 2231 2440 2026 
Q 2250 1822 1953 1562 
Q 1656 1303 1563 1216 
L 838 519 
L 1453 519 
Q 1906 519 2211 526 
Q 2516 534 2534 550 
Q 2609 631 2688 1141 
L 2875 1141 
L 2694 0 
L 319 0 
z
" transform="scale(0.015625)"/>
       </defs>
       <use xlink:href="#Cmsy10-a1" transform="translate(0 0.390625)"/>
       <use xlink:href="#Cmr10-32" transform="translate(77.685547 0.390625)"/>
       <use xlink:href="#Cmmi10-bc" transform="translate(142.318001 0.390625)"/>
      </g>
     </g>
    </g>
    <g id="xtick_4">
     <g id="line2d_4">
      <g>
       <use xlink:href="#mfc59092d1c" x="174.194076" y="168.698771" style="stroke: #000000; stroke-width: 0.8"/>
      </g>
     </g>
     <g id="text_4">
      <!-- $-\pi$ -->
      <g transform="translate(167.444076 183.297209) scale(0.1 -0.1)">
       <use xlink:href="#Cmsy10-a1" transform="translate(0 0.890625)"/>
       <use xlink:href="#Cmmi10-bc" transform="translate(77.685547 0.890625)"/>
      </g>
     </g>
    </g>
    <g id="xtick_5">
     <g id="line2d_5">
      <g>
       <use xlink:href="#mfc59092d1c" x="278.856793" y="168.698771" style="stroke: #000000; stroke-width: 0.8"/>
      </g>
     </g>
     <g id="text_5">
      <!-- $\pi$ -->
      <g transform="translate(276.006793 183.297209) scale(0.1 -0.1)">
       <use xlink:href="#Cmmi10-bc" transform="translate(0 0.890625)"/>
      </g>
     </g>
    </g>
    <g id="xtick_6">
     <g id="line2d_6">
      <g>
       <use xlink:href="#mfc59092d1c" x="331.188152" y="168.698771" style="stroke: #000000; stroke-width: 0.8"/>
      </g>
     </g>
     <g id="text_6">
      <!-- $2 \, \pi$ -->
      <g transform="translate(325.088152 183.297209) scale(0.1 -0.1)">
       <use xlink:href="#Cmr10-32" transform="translate(0 0.390625)"/>
       <use xlink:href="#Cmmi10-bc" transform="translate(64.632454 0.390625)"/>
      </g>
     </g>
    </g>
    <g id="xtick_7">
     <g id="line2d_7">
      <g>
       <use xlink:href="#mfc59092d1c" x="383.519511" y="168.698771" style="stroke: #000000; stroke-width: 0.8"/>
      </g>
     </g>
     <g id="text_7">
      <!-- $3 \, \pi$ -->
      <g transform="translate(377.419511 183.297209) scale(0.1 -0.1)">
       <use xlink:href="#Cmr10-33" transform="translate(0 0.390625)"/>
       <use xlink:href="#Cmmi10-bc" transform="translate(64.632454 0.390625)"/>
      </g>
     </g>
    </g>
    <g id="xtick_8">
     <g id="line2d_8">
      <g>
       <use xlink:href="#mfc59092d1c" x="435.85087" y="168.698771" style="stroke: #000000; stroke-width: 0.8"/>
      </g>
     </g>
     <g id="text_8">
      <!-- $4 \, \pi$ -->
      <g transform="translate(429.75087 183.297209) scale(0.1 -0.1)">
       <use xlink:href="#Cmr10-34" transform="translate(0 0.390625)"/>
       <use xlink:href="#Cmmi10-bc" transform="translate(64.632454 0.390625)"/>
      </g>
     </g>
    </g>
   </g>
   <g id="matplotlib.axis_2">
    <g id="ytick_1">
     <g id="line2d_9">
      <defs>
       <path id="m8f176c4a1c" d="M 0 0 
L -3.5 0 
" style="stroke: #000000; stroke-width: 0.8"/>
      </defs>
      <g>
       <use xlink:href="#m8f176c4a1c" x="226.525435" y="323.986052" style="stroke: #000000; stroke-width: 0.8"/>
      </g>
     </g>
     <g id="text_9">
      <!-- −1 -->
      <g transform="translate(204.783247 327.785271) scale(0.1 -0.1)">
       <defs>
        <path id="DejaVuSans-2212" d="M 678 2272 
L 4684 2272 
L 4684 1741 
L 678 1741 
L 678 2272 
z
" transform="scale(0.015625)"/>
        <path id="DejaVuSans-31" d="M 794 531 
L 1825 531 
L 1825 4091 
L 703 3866 
L 703 4441 
L 1819 4666 
L 2450 4666 
L 2450 531 
L 3481 531 
L 3481 0 
L 794 0 
L 794 531 
z
" transform="scale(0.015625)"/>
       </defs>
       <use xlink:href="#DejaVuSans-2212"/>
       <use xlink:href="#DejaVuSans-31" x="83.789062"/>
      </g>
     </g>
    </g>
    <g id="ytick_2">
     <g id="line2d_10">
      <g>
       <use xlink:href="#m8f176c4a1c" x="226.525435" y="13.411491" style="stroke: #000000; stroke-width: 0.8"/>
      </g>
     </g>
     <g id="text_10">
      <!-- 1 -->
      <g transform="translate(213.162935 17.210709) scale(0.1 -0.1)">
       <use xlink:href="#DejaVuSans-31"/>
      </g>
     </g>
    </g>
   </g>
   <g id="line2d_11">
    <path d="M 17.2 13.411491 
L 18.438747 13.840678 
L 19.677495 15.125868 
L 20.448722 16.355436 
L 21.918916 19.601051 
L 23.389111 24.007351 
L 24.532931 28.216612 
L 25.676751 33.088001 
L 27.36821 41.455687 
L 29.748225 55.427126 
L 31.028305 63.916389 
L 32.708891 75.992339 
L 34.389477 89.011132 
L 37.402408 114.287104 
L 40.84179 145.260199 
L 48.897189 219.32274 
L 51.844788 244.374149 
L 54.546707 265.279304 
L 57.291478 283.917198 
L 58.647925 292.003819 
L 60.004372 299.273251 
L 61.198683 304.958831 
L 62.392994 309.944258 
L 63.396453 313.572885 
L 64.572249 317.155134 
L 65.742797 319.986996 
L 66.913344 322.072098 
L 67.885402 323.228583 
L 68.85746 323.858991 
L 69.829518 323.961177 
L 70.801576 323.534792 
L 72.09593 322.14929 
L 73.091612 320.452679 
L 74.201324 317.9234 
L 75.311037 314.732093 
L 76.201911 311.700525 
L 77.092785 308.26003 
L 78.874534 300.192752 
L 81.014856 288.524201 
L 81.582531 285.089205 
L 83.276317 274.053277 
L 84.970103 261.928992 
L 88.21154 236.155934 
L 91.912776 203.67418 
L 101.553964 115.216749 
L 104.617532 89.457315 
L 107.308752 69.006893 
L 109.178988 56.294968 
L 110.68489 47.081119 
L 112.190793 38.860547 
L 113.436044 32.861166 
L 114.681296 27.62055 
L 115.811013 23.547221 
L 117.208129 19.43454 
L 118.345786 16.859715 
L 119.483443 14.992856 
L 120.355439 14.046781 
L 121.227436 13.524408 
L 122.099432 13.42717 
L 122.971429 13.755332 
L 123.787731 14.447266 
L 124.776868 15.781759 
L 125.766005 17.655287 
L 126.901238 20.461245 
L 128.036472 23.955437 
L 129.027933 27.557484 
L 130.019394 31.659397 
L 131.285995 37.603533 
L 132.552595 44.305255 
L 134.415135 55.453865 
L 136.081157 66.629077 
L 137.776113 79.044563 
L 140.320549 99.380652 
L 143.397953 126.086096 
L 154.805097 230.14504 
L 157.808458 254.723031 
L 160.351952 273.386034 
L 162.344417 286.324247 
L 163.985803 295.727403 
L 165.569364 303.632184 
L 167.152924 310.318431 
L 168.05678 313.56486 
L 168.960635 316.384873 
L 170.163514 319.462361 
L 171.18504 321.459343 
L 172.206565 322.88201 
L 173.852681 323.95344 
L 175.498798 323.509955 
L 177.107014 321.617751 
L 177.98804 319.975632 
L 178.869067 317.910432 
L 180.454478 313.147579 
L 182.039889 307.077214 
L 183.20715 301.803785 
L 184.374411 295.877034 
L 186.136853 285.755672 
L 188.575558 269.618126 
L 190.771683 253.227289 
L 193.997772 226.575792 
L 198.150218 189.236423 
L 206.108706 116.162858 
L 209.665825 86.387568 
L 212.569136 64.800099 
L 214.775829 50.466476 
L 216.649184 39.915168 
L 218.447274 31.316659 
L 219.817763 25.832268 
L 221.188253 21.314402 
L 222.397287 18.155747 
L 223.606322 15.789819 
L 224.860988 14.18606 
L 225.982306 13.494028 
L 227.103623 13.505026 
L 228.218915 14.213294 
L 229.334206 15.613834 
L 230.190867 17.155862 
L 231.047528 19.098603 
L 232.382327 22.911788 
L 233.717125 27.660581 
L 235.371534 34.798718 
L 237.025943 43.256585 
L 239.047194 55.258495 
L 240.659838 66.039971 
L 242.476075 79.328283 
L 246.26634 110.278984 
L 247.612421 122.083702 
L 259.672212 231.890318 
L 262.877664 257.851938 
L 264.581162 270.366057 
L 267.245673 287.763943 
L 268.603464 295.485344 
L 269.961255 302.364819 
L 271.101174 307.456731 
L 272.424425 312.551476 
L 273.747676 316.738922 
L 275.266228 320.392491 
L 276.500229 322.434681 
L 277.73423 323.633569 
L 278.86621 323.986027 
L 279.99819 323.621647 
L 281.62806 321.841995 
L 283.257931 318.597357 
L 284.486931 315.200255 
L 285.502145 311.791945 
L 286.670629 307.212235 
L 287.839112 301.951231 
L 289.464265 293.550607 
L 291.089419 283.962535 
L 293.838656 265.299663 
L 295.898205 249.567961 
L 298.734378 225.936041 
L 303.334233 184.410146 
L 309.371371 128.615967 
L 311.807781 107.178811 
L 315.4176 77.960594 
L 317.405561 63.602267 
L 318.9255 53.622775 
L 321.232409 40.330709 
L 323.215798 30.859623 
L 324.207493 26.848709 
L 325.199187 23.340407 
L 326.206712 20.303605 
L 327.214237 17.809521 
L 328.358512 15.646603 
L 329.502788 14.205634 
L 331.042571 13.417421 
L 331.887574 13.548357 
L 333.329812 14.693185 
L 334.772051 16.991772 
L 336.351429 20.811845 
L 337.239681 23.546637 
L 339.016183 30.245184 
L 339.904434 34.189896 
L 342.053884 45.293485 
L 343.04274 51.103303 
L 344.484786 60.312392 
L 346.481357 74.38709 
L 348.311217 88.480383 
L 351.02334 111.094281 
L 355.619283 152.557972 
L 360.708185 199.758205 
L 365.438606 241.143189 
L 368.069511 261.845057 
L 370.370435 278.065971 
L 372.993421 294.000236 
L 374.210595 300.362362 
L 375.369252 305.766279 
L 376.52791 310.5073 
L 377.767028 314.81811 
L 379.006146 318.32074 
L 380.570159 321.558325 
L 382.134172 323.449337 
L 383.246127 323.965139 
L 384.612561 323.651853 
L 385.836373 322.48643 
L 387.060185 320.491288 
L 388.419212 317.316646 
L 389.778238 313.153309 
L 390.834973 309.25025 
L 392.690902 301.037615 
L 394.546831 291.183873 
L 395.845145 283.379716 
L 397.565273 271.976123 
L 400.442746 250.506417 
L 402.61164 232.676619 
L 405.68102 205.668457 
L 415.810343 112.876266 
L 418.699778 88.704205 
L 420.942719 71.560808 
L 423.035644 57.144249 
L 424.573158 47.662294 
L 426.002992 39.767558 
L 427.432827 32.822199 
L 428.431775 28.560778 
L 429.430724 24.803191 
L 431.054485 19.804524 
L 432.678246 16.219545 
L 433.677332 14.731568 
L 434.676419 13.797299 
L 435.85087 13.411491 
L 435.85087 13.411491 
" clip-path="url(#p0bb457f360)" style="fill: none; stroke: #0000ff; stroke-linecap: square"/>
   </g>
   <g id="patch_3">
    <path d="M 226.525435 330.197518 
L 226.525435 7.2 
" style="fill: none; stroke: #000000; stroke-width: 0.8; stroke-linejoin: miter; stroke-linecap: square"/>
   </g>
   <g id="patch_4">
    <path d="M 8.826983 168.698771 
L 444.223887 168.698771 
" style="fill: none; stroke: #000000; stroke-width: 0.8; stroke-linejoin: miter; stroke-linecap: square"/>
   </g>
  </g>
 </g>
 <defs>
  <clipPath id="p0bb457f360">
   <rect x="8.826983" y="7.2" width="435.396904" height="322.997518"/>
  </clipPath>
 </defs>
</svg>
