<?xml version="1.0" encoding="utf-8" standalone="no"?>
<!DOCTYPE svg PUBLIC "-//W3C//DTD SVG 1.1//EN"
  "http://www.w3.org/Graphics/SVG/1.1/DTD/svg11.dtd">
<svg xmlns:xlink="http://www.w3.org/1999/xlink" width="451.423887pt" height="337.389957pt" viewBox="0 0 451.423887 337.389957" xmlns="http://www.w3.org/2000/svg" version="1.1">
 <metadata>
  <rdf:RDF xmlns:dc="http://purl.org/dc/elements/1.1/" xmlns:cc="http://creativecommons.org/ns#" xmlns:rdf="http://www.w3.org/1999/02/22-rdf-syntax-ns#">
   <cc:Work>
    <dc:type rdf:resource="http://purl.org/dc/dcmitype/StillImage"/>
    <dc:date>2024-10-28T19:34:27.645175</dc:date>
    <dc:format>image/svg+xml</dc:format>
    <dc:creator>
     <cc:Agent>
      <dc:title>Matplotlib v3.6.2, https://matplotlib.org/</dc:title>
     </cc:Agent>
    </dc:creator>
   </cc:Work>
  </rdf:RDF>
 </metadata>
 <defs>
  <style type="text/css">*{stroke-linejoin: round; stroke-linecap: butt}</style>
 </defs>
 <g id="figure_1">
  <g id="patch_1">
   <path d="M 0 337.389957 
L 451.423887 337.389957 
L 451.423887 0 
L 0 0 
z
" style="fill: #ffffff"/>
  </g>
  <g id="axes_1">
   <g id="patch_2">
    <path d="M 8.826983 330.189957 
L 444.223887 330.189957 
L 444.223887 7.2 
L 8.826983 7.2 
z
" style="fill: #ffffff"/>
   </g>
   <g id="matplotlib.axis_1">
    <g id="xtick_1">
     <g id="line2d_1">
      <defs>
       <path id="ma3a5cc74b3" d="M 0 0 
L 0 3.5 
" style="stroke: #000000; stroke-width: 0.8"/>
      </defs>
      <g>
       <use xlink:href="#ma3a5cc74b3" x="17.2" y="168.699579" style="stroke: #000000; stroke-width: 0.8"/>
      </g>
     </g>
     <g id="text_1">
      <!-- $-4 \, \pi$ -->
      <g transform="translate(7.2 183.298017) scale(0.1 -0.1)">
       <defs>
        <path id="Cmsy10-a1" d="M 653 1472 
Q 600 1472 565 1512 
Q 531 1553 531 1600 
Q 531 1647 565 1687 
Q 600 1728 653 1728 
L 4325 1728 
Q 4375 1728 4408 1687 
Q 4441 1647 4441 1600 
Q 4441 1553 4408 1512 
Q 4375 1472 4325 1472 
L 653 1472 
z
" transform="scale(0.015625)"/>
        <path id="Cmr10-34" d="M 178 1056 
L 178 1281 
L 2156 4231 
Q 2178 4263 2222 4263 
L 2316 4263 
Q 2388 4263 2388 4191 
L 2388 1281 
L 3016 1281 
L 3016 1056 
L 2388 1056 
L 2388 428 
Q 2388 297 2575 261 
Q 2763 225 3009 225 
L 3009 0 
L 1247 0 
L 1247 225 
Q 1494 225 1681 261 
Q 1869 297 1869 428 
L 1869 1056 
L 178 1056 
z
M 391 1281 
L 1906 1281 
L 1906 3547 
L 391 1281 
z
" transform="scale(0.015625)"/>
        <path id="Cmmi10-bc" d="M 647 109 
Q 647 144 672 213 
Q 850 584 1004 942 
Q 1159 1300 1282 1639 
Q 1406 1978 1509 2363 
L 1100 2363 
Q 866 2363 662 2216 
Q 459 2069 325 1844 
Q 313 1819 288 1819 
L 213 1819 
Q 153 1819 153 1881 
Q 153 1894 166 1919 
Q 375 2275 614 2517 
Q 853 2759 1153 2759 
L 3475 2759 
Q 3541 2759 3587 2715 
Q 3634 2672 3634 2597 
Q 3634 2503 3567 2433 
Q 3500 2363 3406 2363 
L 2591 2363 
Q 2488 1859 2478 1381 
Q 2478 766 2694 269 
Q 2713 231 2713 191 
Q 2713 122 2672 62 
Q 2631 3 2567 -34 
Q 2503 -72 2431 -72 
Q 2263 -72 2200 203 
Q 2138 478 2138 738 
Q 2138 1103 2200 1442 
Q 2263 1781 2400 2363 
L 1703 2363 
Q 1197 313 1094 103 
Q 1003 -72 844 -72 
Q 766 -72 706 -20 
Q 647 31 647 109 
z
" transform="scale(0.015625)"/>
       </defs>
       <use xlink:href="#Cmsy10-a1" transform="translate(0 0.390625)"/>
       <use xlink:href="#Cmr10-34" transform="translate(77.685547 0.390625)"/>
       <use xlink:href="#Cmmi10-bc" transform="translate(142.318001 0.390625)"/>
      </g>
     </g>
    </g>
    <g id="xtick_2">
     <g id="line2d_2">
      <g>
       <use xlink:href="#ma3a5cc74b3" x="69.531359" y="168.699579" style="stroke: #000000; stroke-width: 0.8"/>
      </g>
     </g>
     <g id="text_2">
      <!-- $-3 \, \pi$ -->
      <g transform="translate(59.531359 183.298017) scale(0.1 -0.1)">
       <defs>
        <path id="Cmr10-33" d="M 609 494 
Q 759 275 1012 169 
Q 1266 63 1556 63 
Q 1928 63 2084 380 
Q 2241 697 2241 1100 
Q 2241 1281 2208 1462 
Q 2175 1644 2097 1800 
Q 2019 1956 1883 2050 
Q 1747 2144 1550 2144 
L 1125 2144 
Q 1069 2144 1069 2203 
L 1069 2259 
Q 1069 2309 1125 2309 
L 1478 2338 
Q 1703 2338 1851 2506 
Q 2000 2675 2069 2917 
Q 2138 3159 2138 3378 
Q 2138 3684 1994 3881 
Q 1850 4078 1556 4078 
Q 1313 4078 1091 3986 
Q 869 3894 738 3706 
Q 750 3709 759 3711 
Q 769 3713 781 3713 
Q 925 3713 1022 3613 
Q 1119 3513 1119 3372 
Q 1119 3234 1022 3134 
Q 925 3034 781 3034 
Q 641 3034 541 3134 
Q 441 3234 441 3372 
Q 441 3647 606 3850 
Q 772 4053 1033 4158 
Q 1294 4263 1556 4263 
Q 1750 4263 1965 4205 
Q 2181 4147 2356 4039 
Q 2531 3931 2642 3762 
Q 2753 3594 2753 3378 
Q 2753 3109 2633 2881 
Q 2513 2653 2303 2487 
Q 2094 2322 1844 2241 
Q 2122 2188 2372 2031 
Q 2622 1875 2773 1631 
Q 2925 1388 2925 1106 
Q 2925 753 2731 467 
Q 2538 181 2222 20 
Q 1906 -141 1556 -141 
Q 1256 -141 954 -26 
Q 653 88 461 316 
Q 269 544 269 863 
Q 269 1022 375 1128 
Q 481 1234 641 1234 
Q 744 1234 830 1186 
Q 916 1138 964 1050 
Q 1013 963 1013 863 
Q 1013 706 903 600 
Q 794 494 641 494 
L 609 494 
z
" transform="scale(0.015625)"/>
       </defs>
       <use xlink:href="#Cmsy10-a1" transform="translate(0 0.390625)"/>
       <use xlink:href="#Cmr10-33" transform="translate(77.685547 0.390625)"/>
       <use xlink:href="#Cmmi10-bc" transform="translate(142.318001 0.390625)"/>
      </g>
     </g>
    </g>
    <g id="xtick_3">
     <g id="line2d_3">
      <g>
       <use xlink:href="#ma3a5cc74b3" x="121.862717" y="168.699579" style="stroke: #000000; stroke-width: 0.8"/>
      </g>
     </g>
     <g id="text_3">
      <!-- $-2 \, \pi$ -->
      <g transform="translate(111.862717 183.298017) scale(0.1 -0.1)">
       <defs>
        <path id="Cmr10-32" d="M 319 0 
L 319 172 
Q 319 188 331 206 
L 1325 1306 
Q 1550 1550 1690 1715 
Q 1831 1881 1968 2097 
Q 2106 2313 2186 2536 
Q 2266 2759 2266 3009 
Q 2266 3272 2169 3511 
Q 2072 3750 1880 3894 
Q 1688 4038 1416 4038 
Q 1138 4038 916 3870 
Q 694 3703 603 3438 
Q 628 3444 672 3444 
Q 816 3444 917 3347 
Q 1019 3250 1019 3097 
Q 1019 2950 917 2848 
Q 816 2747 672 2747 
Q 522 2747 420 2851 
Q 319 2956 319 3097 
Q 319 3338 409 3548 
Q 500 3759 670 3923 
Q 841 4088 1055 4175 
Q 1269 4263 1509 4263 
Q 1875 4263 2190 4108 
Q 2506 3953 2690 3670 
Q 2875 3388 2875 3009 
Q 2875 2731 2753 2481 
Q 2631 2231 2440 2026 
Q 2250 1822 1953 1562 
Q 1656 1303 1563 1216 
L 838 519 
L 1453 519 
Q 1906 519 2211 526 
Q 2516 534 2534 550 
Q 2609 631 2688 1141 
L 2875 1141 
L 2694 0 
L 319 0 
z
" transform="scale(0.015625)"/>
       </defs>
       <use xlink:href="#Cmsy10-a1" transform="translate(0 0.390625)"/>
       <use xlink:href="#Cmr10-32" transform="translate(77.685547 0.390625)"/>
       <use xlink:href="#Cmmi10-bc" transform="translate(142.318001 0.390625)"/>
      </g>
     </g>
    </g>
    <g id="xtick_4">
     <g id="line2d_4">
      <g>
       <use xlink:href="#ma3a5cc74b3" x="174.194076" y="168.699579" style="stroke: #000000; stroke-width: 0.8"/>
      </g>
     </g>
     <g id="text_4">
      <!-- $-\pi$ -->
      <g transform="translate(167.444076 183.298017) scale(0.1 -0.1)">
       <use xlink:href="#Cmsy10-a1" transform="translate(0 0.890625)"/>
       <use xlink:href="#Cmmi10-bc" transform="translate(77.685547 0.890625)"/>
      </g>
     </g>
    </g>
    <g id="xtick_5">
     <g id="line2d_5">
      <g>
       <use xlink:href="#ma3a5cc74b3" x="278.856793" y="168.699579" style="stroke: #000000; stroke-width: 0.8"/>
      </g>
     </g>
     <g id="text_5">
      <!-- $\pi$ -->
      <g transform="translate(276.006793 183.298017) scale(0.1 -0.1)">
       <use xlink:href="#Cmmi10-bc" transform="translate(0 0.890625)"/>
      </g>
     </g>
    </g>
    <g id="xtick_6">
     <g id="line2d_6">
      <g>
       <use xlink:href="#ma3a5cc74b3" x="331.188152" y="168.699579" style="stroke: #000000; stroke-width: 0.8"/>
      </g>
     </g>
     <g id="text_6">
      <!-- $2 \, \pi$ -->
      <g transform="translate(325.088152 183.298017) scale(0.1 -0.1)">
       <use xlink:href="#Cmr10-32" transform="translate(0 0.390625)"/>
       <use xlink:href="#Cmmi10-bc" transform="translate(64.632454 0.390625)"/>
      </g>
     </g>
    </g>
    <g id="xtick_7">
     <g id="line2d_7">
      <g>
       <use xlink:href="#ma3a5cc74b3" x="383.519511" y="168.699579" style="stroke: #000000; stroke-width: 0.8"/>
      </g>
     </g>
     <g id="text_7">
      <!-- $3 \, \pi$ -->
      <g transform="translate(377.419511 183.298017) scale(0.1 -0.1)">
       <use xlink:href="#Cmr10-33" transform="translate(0 0.390625)"/>
       <use xlink:href="#Cmmi10-bc" transform="translate(64.632454 0.390625)"/>
      </g>
     </g>
    </g>
    <g id="xtick_8">
     <g id="line2d_8">
      <g>
       <use xlink:href="#ma3a5cc74b3" x="435.85087" y="168.699579" style="stroke: #000000; stroke-width: 0.8"/>
      </g>
     </g>
     <g id="text_8">
      <!-- $4 \, \pi$ -->
      <g transform="translate(429.75087 183.298017) scale(0.1 -0.1)">
       <use xlink:href="#Cmr10-34" transform="translate(0 0.390625)"/>
       <use xlink:href="#Cmmi10-bc" transform="translate(64.632454 0.390625)"/>
      </g>
     </g>
    </g>
   </g>
   <g id="matplotlib.axis_2">
    <g id="ytick_1">
     <g id="line2d_9">
      <defs>
       <path id="me741d85d69" d="M 0 0 
L -3.5 0 
" style="stroke: #000000; stroke-width: 0.8"/>
      </defs>
      <g>
       <use xlink:href="#me741d85d69" x="226.525435" y="323.987814" style="stroke: #000000; stroke-width: 0.8"/>
      </g>
     </g>
     <g id="text_9">
      <!-- −1 -->
      <g transform="translate(204.783247 327.787032) scale(0.1 -0.1)">
       <defs>
        <path id="DejaVuSans-2212" d="M 678 2272 
L 4684 2272 
L 4684 1741 
L 678 1741 
L 678 2272 
z
" transform="scale(0.015625)"/>
        <path id="DejaVuSans-31" d="M 794 531 
L 1825 531 
L 1825 4091 
L 703 3866 
L 703 4441 
L 1819 4666 
L 2450 4666 
L 2450 531 
L 3481 531 
L 3481 0 
L 794 0 
L 794 531 
z
" transform="scale(0.015625)"/>
       </defs>
       <use xlink:href="#DejaVuSans-2212"/>
       <use xlink:href="#DejaVuSans-31" x="83.789062"/>
      </g>
     </g>
    </g>
    <g id="ytick_2">
     <g id="line2d_10">
      <g>
       <use xlink:href="#me741d85d69" x="226.525435" y="13.411345" style="stroke: #000000; stroke-width: 0.8"/>
      </g>
     </g>
     <g id="text_10">
      <!-- 1 -->
      <g transform="translate(213.162935 17.210564) scale(0.1 -0.1)">
       <use xlink:href="#DejaVuSans-31"/>
      </g>
     </g>
    </g>
   </g>
   <g id="line2d_11">
    <path d="M 17.2 13.411345 
L 18.140232 13.658654 
L 19.080464 14.399792 
L 20.51478 16.475849 
L 21.949096 19.67983 
L 22.501568 21.210075 
L 24.133549 26.670506 
L 25.76553 33.493122 
L 27.329686 41.250192 
L 29.027602 50.939242 
L 30.831581 62.570394 
L 32.635561 75.445056 
L 35.555959 98.532514 
L 38.91682 127.716959 
L 51.419598 240.889888 
L 54.111495 262.07107 
L 56.475094 278.679985 
L 58.52166 291.286346 
L 59.721913 297.830926 
L 60.922165 303.705367 
L 62.37223 309.865387 
L 63.822295 314.956338 
L 64.609781 317.25911 
L 65.670314 319.83494 
L 66.730846 321.798359 
L 67.934765 323.275059 
L 69.138685 323.944669 
L 70.121196 323.890471 
L 71.103707 323.296525 
L 72.286605 321.868404 
L 73.469503 319.668211 
L 74.756633 316.410098 
L 76.043763 312.270498 
L 77.608539 306.086798 
L 79.203697 298.536482 
L 81.755312 284.018206 
L 84.963646 261.978503 
L 87.826833 239.369201 
L 91.739563 205.24655 
L 103.274886 100.467596 
L 106.563163 74.434357 
L 107.507224 67.595596 
L 109.333602 55.305448 
L 111.992908 39.881641 
L 114.011807 30.341859 
L 115.021256 26.325578 
L 115.972882 23.017756 
L 117.483445 18.746971 
L 118.994008 15.708466 
L 120.407321 14.003685 
L 121.759272 13.41434 
L 123.167644 13.887595 
L 124.576017 15.466854 
L 125.940954 18.042173 
L 127.305891 21.628487 
L 128.511191 25.616836 
L 129.92181 31.233848 
L 131.132316 36.841211 
L 132.342822 43.144601 
L 134.123629 53.61198 
L 135.56965 63.084275 
L 138.258129 82.750812 
L 140.821183 103.588014 
L 144.116364 132.564471 
L 155.18702 233.399626 
L 158.115979 257.096317 
L 160.508119 274.458148 
L 162.367109 286.463777 
L 163.790426 294.672649 
L 165.74274 304.426457 
L 167.098092 310.10965 
L 168.453445 314.857177 
L 170.010829 319.116707 
L 171.568214 322.062379 
L 172.007136 322.65142 
L 172.928183 323.539616 
L 173.84923 323.954539 
L 174.770278 323.894919 
L 175.691325 323.36094 
L 176.536226 322.455322 
L 178.080067 319.781348 
L 179.623908 315.810546 
L 180.547975 312.827079 
L 181.472042 309.40019 
L 182.718718 304.09311 
L 183.965394 298.028016 
L 185.152859 291.577141 
L 186.340325 284.502091 
L 187.659166 275.956494 
L 190.425309 255.918875 
L 193.390011 231.794815 
L 198.442157 186.536687 
L 206.161643 115.69921 
L 210.108799 82.915672 
L 211.866551 69.758978 
L 214.798107 50.332015 
L 216.630539 40.012387 
L 218.278078 32.058986 
L 219.925617 25.441175 
L 220.900493 22.181144 
L 221.875368 19.422812 
L 223.450851 16.049035 
L 224.34225 14.743159 
L 225.23365 13.878055 
L 226.817792 13.435262 
L 228.401934 14.395632 
L 228.703872 14.737381 
L 229.671117 16.172069 
L 230.638362 18.12089 
L 231.605608 20.577275 
L 232.572853 23.532943 
L 234.173957 29.495407 
L 235.37981 34.837792 
L 236.585662 40.88136 
L 238.878084 54.187887 
L 241.261724 70.316219 
L 244.202878 92.94945 
L 247.887181 124.533739 
L 260.729756 240.763773 
L 263.085951 259.436113 
L 265.039119 273.555719 
L 266.70761 284.483862 
L 268.376101 294.251332 
L 269.920589 302.173088 
L 271.064627 307.305098 
L 272.208665 311.783576 
L 273.100878 314.808977 
L 273.99309 317.415309 
L 275.471601 320.792188 
L 277.292807 323.303853 
L 278.544943 323.960601 
L 279.797079 323.740477 
L 281.222994 322.42374 
L 282.64891 319.981257 
L 283.586936 317.768929 
L 284.524962 315.084016 
L 285.536409 311.669253 
L 286.547856 307.727536 
L 287.657556 302.814004 
L 288.767256 297.305493 
L 290.201917 289.342107 
L 291.636578 280.484374 
L 294.231301 262.408576 
L 297.713264 234.67313 
L 301.525404 201.061607 
L 310.832674 115.626372 
L 314.487609 85.134223 
L 317.440086 63.365714 
L 319.532733 49.899207 
L 320.941978 41.873723 
L 322.351224 34.755428 
L 323.746862 28.649993 
L 325.1425 23.527096 
L 325.979181 20.942235 
L 326.868228 18.60414 
L 327.757275 16.693498 
L 328.646322 15.215752 
L 329.730116 14.005834 
L 330.672145 13.485846 
L 331.614174 13.462129 
L 332.556203 13.934758 
L 333.498232 14.902223 
L 334.602331 16.661739 
L 335.70643 19.088959 
L 336.757853 22.011337 
L 338.518202 28.205113 
L 339.993503 34.60672 
L 341.468803 42.059462 
L 342.622368 48.581714 
L 344.317691 59.202484 
L 347.178042 79.62802 
L 349.81528 100.796865 
L 353.561882 133.654135 
L 363.810365 227.39394 
L 365.728677 243.525189 
L 367.616928 258.436625 
L 370.531672 279.12939 
L 372.446033 290.920459 
L 374.442862 301.49918 
L 375.850159 307.817582 
L 377.257456 313.143617 
L 378.551415 317.132261 
L 379.845375 320.225687 
L 380.572597 321.564072 
L 381.570293 322.92585 
L 382.567989 323.734532 
L 383.700857 323.978611 
L 384.833725 323.504765 
L 385.70426 322.654094 
L 386.574794 321.383044 
L 387.445329 319.695085 
L 388.315863 317.594826 
L 389.303286 314.720805 
L 390.290709 311.333838 
L 391.919993 304.656163 
L 393.338491 297.781539 
L 394.756988 289.971432 
L 397.104192 275.147521 
L 399.478559 258.006505 
L 402.445619 234.084869 
L 407.522519 188.804213 
L 415.609974 114.623777 
L 417.070166 102.0873 
L 419.403115 83.157644 
L 422.294028 62.062827 
L 424.521582 47.964154 
L 426.21952 38.65345 
L 427.917459 30.692767 
L 428.919785 26.661218 
L 429.865215 23.329467 
L 430.810645 20.465875 
L 432.006266 17.529082 
L 433.201888 15.370762 
L 434.526379 13.901975 
L 435.85087 13.411345 
L 435.85087 13.411345 
" clip-path="url(#p2aeb55e9fb)" style="fill: none; stroke: #0000ff; stroke-linecap: square"/>
   </g>
   <g id="patch_3">
    <path d="M 226.525435 330.189957 
L 226.525435 7.2 
" style="fill: none; stroke: #000000; stroke-width: 0.8; stroke-linejoin: miter; stroke-linecap: square"/>
   </g>
   <g id="patch_4">
    <path d="M 8.826983 168.699579 
L 444.223887 168.699579 
" style="fill: none; stroke: #000000; stroke-width: 0.8; stroke-linejoin: miter; stroke-linecap: square"/>
   </g>
  </g>
 </g>
 <defs>
  <clipPath id="p2aeb55e9fb">
   <rect x="8.826983" y="7.2" width="435.396904" height="322.989957"/>
  </clipPath>
 </defs>
</svg>
