<?xml version="1.0" encoding="utf-8" standalone="no"?>
<!DOCTYPE svg PUBLIC "-//W3C//DTD SVG 1.1//EN"
  "http://www.w3.org/Graphics/SVG/1.1/DTD/svg11.dtd">
<svg xmlns:xlink="http://www.w3.org/1999/xlink" width="347.888794pt" height="337.998125pt" viewBox="0 0 347.888794 337.998125" xmlns="http://www.w3.org/2000/svg" version="1.1">
 <metadata>
  <rdf:RDF xmlns:dc="http://purl.org/dc/elements/1.1/" xmlns:cc="http://creativecommons.org/ns#" xmlns:rdf="http://www.w3.org/1999/02/22-rdf-syntax-ns#">
   <cc:Work>
    <dc:type rdf:resource="http://purl.org/dc/dcmitype/StillImage"/>
    <dc:date>2024-10-30T12:40:37.106373</dc:date>
    <dc:format>image/svg+xml</dc:format>
    <dc:creator>
     <cc:Agent>
      <dc:title>Matplotlib v3.6.2, https://matplotlib.org/</dc:title>
     </cc:Agent>
    </dc:creator>
   </cc:Work>
  </rdf:RDF>
 </metadata>
 <defs>
  <style type="text/css">*{stroke-linejoin: round; stroke-linecap: butt}</style>
 </defs>
 <g id="figure_1">
  <g id="patch_1">
   <path d="M 0 337.998125 
L 347.888794 337.998125 
L 347.888794 0 
L 0 0 
z
" style="fill: #ffffff"/>
  </g>
  <g id="axes_1">
   <g id="patch_2">
    <path d="M 38.482813 314.12 
L 340.688794 314.12 
L 340.688794 7.2 
L 38.482813 7.2 
z
" style="fill: #ffffff"/>
   </g>
   <g id="PathCollection_1">
    <path d="M 149.227098 52.310234 
C 150.164733 52.310234 151.064091 51.937708 151.727098 51.2747 
C 152.390106 50.611692 152.762632 49.712335 152.762632 48.7747 
C 152.762632 47.837065 152.390106 46.937708 151.727098 46.2747 
C 151.064091 45.611692 150.164733 45.239166 149.227098 45.239166 
C 148.289464 45.239166 147.390106 45.611692 146.727098 46.2747 
C 146.064091 46.937708 145.691564 47.837065 145.691564 48.7747 
C 145.691564 49.712335 146.064091 50.611692 146.727098 51.2747 
C 147.390106 51.937708 148.289464 52.310234 149.227098 52.310234 
z
" clip-path="url(#pb4d6d5b485)" style="fill: #ff0000"/>
   </g>
   <g id="matplotlib.axis_1">
    <g id="xtick_1">
     <g id="line2d_1">
      <defs>
       <path id="ma30d9dcb5a" d="M 0 0 
L 0 3.5 
" style="stroke: #000000; stroke-width: 0.8"/>
      </defs>
      <g>
       <use xlink:href="#ma30d9dcb5a" x="68.509689" y="314.12" style="stroke: #000000; stroke-width: 0.8"/>
      </g>
     </g>
     <g id="text_1">
      <!-- −1.0 -->
      <g transform="translate(56.368283 328.718437) scale(0.1 -0.1)">
       <defs>
        <path id="DejaVuSans-2212" d="M 678 2272 
L 4684 2272 
L 4684 1741 
L 678 1741 
L 678 2272 
z
" transform="scale(0.015625)"/>
        <path id="DejaVuSans-31" d="M 794 531 
L 1825 531 
L 1825 4091 
L 703 3866 
L 703 4441 
L 1819 4666 
L 2450 4666 
L 2450 531 
L 3481 531 
L 3481 0 
L 794 0 
L 794 531 
z
" transform="scale(0.015625)"/>
        <path id="DejaVuSans-2e" d="M 684 794 
L 1344 794 
L 1344 0 
L 684 0 
L 684 794 
z
" transform="scale(0.015625)"/>
        <path id="DejaVuSans-30" d="M 2034 4250 
Q 1547 4250 1301 3770 
Q 1056 3291 1056 2328 
Q 1056 1369 1301 889 
Q 1547 409 2034 409 
Q 2525 409 2770 889 
Q 3016 1369 3016 2328 
Q 3016 3291 2770 3770 
Q 2525 4250 2034 4250 
z
M 2034 4750 
Q 2819 4750 3233 4129 
Q 3647 3509 3647 2328 
Q 3647 1150 3233 529 
Q 2819 -91 2034 -91 
Q 1250 -91 836 529 
Q 422 1150 422 2328 
Q 422 3509 836 4129 
Q 1250 4750 2034 4750 
z
" transform="scale(0.015625)"/>
       </defs>
       <use xlink:href="#DejaVuSans-2212"/>
       <use xlink:href="#DejaVuSans-31" x="83.789062"/>
       <use xlink:href="#DejaVuSans-2e" x="147.412109"/>
       <use xlink:href="#DejaVuSans-30" x="179.199219"/>
      </g>
     </g>
    </g>
    <g id="xtick_2">
     <g id="line2d_2">
      <g>
       <use xlink:href="#ma30d9dcb5a" x="129.047746" y="314.12" style="stroke: #000000; stroke-width: 0.8"/>
      </g>
     </g>
     <g id="text_2">
      <!-- −0.5 -->
      <g transform="translate(116.90634 328.718437) scale(0.1 -0.1)">
       <defs>
        <path id="DejaVuSans-35" d="M 691 4666 
L 3169 4666 
L 3169 4134 
L 1269 4134 
L 1269 2991 
Q 1406 3038 1543 3061 
Q 1681 3084 1819 3084 
Q 2600 3084 3056 2656 
Q 3513 2228 3513 1497 
Q 3513 744 3044 326 
Q 2575 -91 1722 -91 
Q 1428 -91 1123 -41 
Q 819 9 494 109 
L 494 744 
Q 775 591 1075 516 
Q 1375 441 1709 441 
Q 2250 441 2565 725 
Q 2881 1009 2881 1497 
Q 2881 1984 2565 2268 
Q 2250 2553 1709 2553 
Q 1456 2553 1204 2497 
Q 953 2441 691 2322 
L 691 4666 
z
" transform="scale(0.015625)"/>
       </defs>
       <use xlink:href="#DejaVuSans-2212"/>
       <use xlink:href="#DejaVuSans-30" x="83.789062"/>
       <use xlink:href="#DejaVuSans-2e" x="147.412109"/>
       <use xlink:href="#DejaVuSans-35" x="179.199219"/>
      </g>
     </g>
    </g>
    <g id="xtick_3">
     <g id="line2d_3">
      <g>
       <use xlink:href="#ma30d9dcb5a" x="189.585803" y="314.12" style="stroke: #000000; stroke-width: 0.8"/>
      </g>
     </g>
     <g id="text_3">
      <!-- 0.0 -->
      <g transform="translate(181.634241 328.718437) scale(0.1 -0.1)">
       <use xlink:href="#DejaVuSans-30"/>
       <use xlink:href="#DejaVuSans-2e" x="63.623047"/>
       <use xlink:href="#DejaVuSans-30" x="95.410156"/>
      </g>
     </g>
    </g>
    <g id="xtick_4">
     <g id="line2d_4">
      <g>
       <use xlink:href="#ma30d9dcb5a" x="250.12386" y="314.12" style="stroke: #000000; stroke-width: 0.8"/>
      </g>
     </g>
     <g id="text_4">
      <!-- 0.5 -->
      <g transform="translate(242.172298 328.718437) scale(0.1 -0.1)">
       <use xlink:href="#DejaVuSans-30"/>
       <use xlink:href="#DejaVuSans-2e" x="63.623047"/>
       <use xlink:href="#DejaVuSans-35" x="95.410156"/>
      </g>
     </g>
    </g>
    <g id="xtick_5">
     <g id="line2d_5">
      <g>
       <use xlink:href="#ma30d9dcb5a" x="310.661917" y="314.12" style="stroke: #000000; stroke-width: 0.8"/>
      </g>
     </g>
     <g id="text_5">
      <!-- 1.0 -->
      <g transform="translate(302.710355 328.718437) scale(0.1 -0.1)">
       <use xlink:href="#DejaVuSans-31"/>
       <use xlink:href="#DejaVuSans-2e" x="63.623047"/>
       <use xlink:href="#DejaVuSans-30" x="95.410156"/>
      </g>
     </g>
    </g>
    <g id="xtick_6">
     <g id="line2d_6">
      <defs>
       <path id="m6b0231c1a9" d="M 0 0 
L 0 2 
" style="stroke: #000000; stroke-width: 0.6"/>
      </defs>
      <g>
       <use xlink:href="#m6b0231c1a9" x="44.294466" y="314.12" style="stroke: #000000; stroke-width: 0.6"/>
      </g>
     </g>
    </g>
    <g id="xtick_7">
     <g id="line2d_7">
      <g>
       <use xlink:href="#m6b0231c1a9" x="56.402077" y="314.12" style="stroke: #000000; stroke-width: 0.6"/>
      </g>
     </g>
    </g>
    <g id="xtick_8">
     <g id="line2d_8">
      <g>
       <use xlink:href="#m6b0231c1a9" x="80.6173" y="314.12" style="stroke: #000000; stroke-width: 0.6"/>
      </g>
     </g>
    </g>
    <g id="xtick_9">
     <g id="line2d_9">
      <g>
       <use xlink:href="#m6b0231c1a9" x="92.724912" y="314.12" style="stroke: #000000; stroke-width: 0.6"/>
      </g>
     </g>
    </g>
    <g id="xtick_10">
     <g id="line2d_10">
      <g>
       <use xlink:href="#m6b0231c1a9" x="104.832523" y="314.12" style="stroke: #000000; stroke-width: 0.6"/>
      </g>
     </g>
    </g>
    <g id="xtick_11">
     <g id="line2d_11">
      <g>
       <use xlink:href="#m6b0231c1a9" x="116.940135" y="314.12" style="stroke: #000000; stroke-width: 0.6"/>
      </g>
     </g>
    </g>
    <g id="xtick_12">
     <g id="line2d_12">
      <g>
       <use xlink:href="#m6b0231c1a9" x="141.155357" y="314.12" style="stroke: #000000; stroke-width: 0.6"/>
      </g>
     </g>
    </g>
    <g id="xtick_13">
     <g id="line2d_13">
      <g>
       <use xlink:href="#m6b0231c1a9" x="153.262969" y="314.12" style="stroke: #000000; stroke-width: 0.6"/>
      </g>
     </g>
    </g>
    <g id="xtick_14">
     <g id="line2d_14">
      <g>
       <use xlink:href="#m6b0231c1a9" x="165.37058" y="314.12" style="stroke: #000000; stroke-width: 0.6"/>
      </g>
     </g>
    </g>
    <g id="xtick_15">
     <g id="line2d_15">
      <g>
       <use xlink:href="#m6b0231c1a9" x="177.478192" y="314.12" style="stroke: #000000; stroke-width: 0.6"/>
      </g>
     </g>
    </g>
    <g id="xtick_16">
     <g id="line2d_16">
      <g>
       <use xlink:href="#m6b0231c1a9" x="201.693415" y="314.12" style="stroke: #000000; stroke-width: 0.6"/>
      </g>
     </g>
    </g>
    <g id="xtick_17">
     <g id="line2d_17">
      <g>
       <use xlink:href="#m6b0231c1a9" x="213.801026" y="314.12" style="stroke: #000000; stroke-width: 0.6"/>
      </g>
     </g>
    </g>
    <g id="xtick_18">
     <g id="line2d_18">
      <g>
       <use xlink:href="#m6b0231c1a9" x="225.908637" y="314.12" style="stroke: #000000; stroke-width: 0.6"/>
      </g>
     </g>
    </g>
    <g id="xtick_19">
     <g id="line2d_19">
      <g>
       <use xlink:href="#m6b0231c1a9" x="238.016249" y="314.12" style="stroke: #000000; stroke-width: 0.6"/>
      </g>
     </g>
    </g>
    <g id="xtick_20">
     <g id="line2d_20">
      <g>
       <use xlink:href="#m6b0231c1a9" x="262.231472" y="314.12" style="stroke: #000000; stroke-width: 0.6"/>
      </g>
     </g>
    </g>
    <g id="xtick_21">
     <g id="line2d_21">
      <g>
       <use xlink:href="#m6b0231c1a9" x="274.339083" y="314.12" style="stroke: #000000; stroke-width: 0.6"/>
      </g>
     </g>
    </g>
    <g id="xtick_22">
     <g id="line2d_22">
      <g>
       <use xlink:href="#m6b0231c1a9" x="286.446695" y="314.12" style="stroke: #000000; stroke-width: 0.6"/>
      </g>
     </g>
    </g>
    <g id="xtick_23">
     <g id="line2d_23">
      <g>
       <use xlink:href="#m6b0231c1a9" x="298.554306" y="314.12" style="stroke: #000000; stroke-width: 0.6"/>
      </g>
     </g>
    </g>
    <g id="xtick_24">
     <g id="line2d_24">
      <g>
       <use xlink:href="#m6b0231c1a9" x="322.769529" y="314.12" style="stroke: #000000; stroke-width: 0.6"/>
      </g>
     </g>
    </g>
    <g id="xtick_25">
     <g id="line2d_25">
      <g>
       <use xlink:href="#m6b0231c1a9" x="334.87714" y="314.12" style="stroke: #000000; stroke-width: 0.6"/>
      </g>
     </g>
    </g>
   </g>
   <g id="matplotlib.axis_2">
    <g id="ytick_1">
     <g id="line2d_26">
      <defs>
       <path id="mf4ab214711" d="M 0 0 
L -3.5 0 
" style="stroke: #000000; stroke-width: 0.8"/>
      </defs>
      <g>
       <use xlink:href="#mf4ab214711" x="38.482813" y="284.002469" style="stroke: #000000; stroke-width: 0.8"/>
      </g>
     </g>
     <g id="text_6">
      <!-- −1.0 -->
      <g transform="translate(7.2 287.801688) scale(0.1 -0.1)">
       <use xlink:href="#DejaVuSans-2212"/>
       <use xlink:href="#DejaVuSans-31" x="83.789062"/>
       <use xlink:href="#DejaVuSans-2e" x="147.412109"/>
       <use xlink:href="#DejaVuSans-30" x="179.199219"/>
      </g>
     </g>
    </g>
    <g id="ytick_2">
     <g id="line2d_27">
      <g>
       <use xlink:href="#mf4ab214711" x="38.482813" y="223.464412" style="stroke: #000000; stroke-width: 0.8"/>
      </g>
     </g>
     <g id="text_7">
      <!-- −0.5 -->
      <g transform="translate(7.2 227.263631) scale(0.1 -0.1)">
       <use xlink:href="#DejaVuSans-2212"/>
       <use xlink:href="#DejaVuSans-30" x="83.789062"/>
       <use xlink:href="#DejaVuSans-2e" x="147.412109"/>
       <use xlink:href="#DejaVuSans-35" x="179.199219"/>
      </g>
     </g>
    </g>
    <g id="ytick_3">
     <g id="line2d_28">
      <g>
       <use xlink:href="#mf4ab214711" x="38.482813" y="162.926355" style="stroke: #000000; stroke-width: 0.8"/>
      </g>
     </g>
     <g id="text_8">
      <!-- 0.0 -->
      <g transform="translate(15.579688 166.725574) scale(0.1 -0.1)">
       <use xlink:href="#DejaVuSans-30"/>
       <use xlink:href="#DejaVuSans-2e" x="63.623047"/>
       <use xlink:href="#DejaVuSans-30" x="95.410156"/>
      </g>
     </g>
    </g>
    <g id="ytick_4">
     <g id="line2d_29">
      <g>
       <use xlink:href="#mf4ab214711" x="38.482813" y="102.388298" style="stroke: #000000; stroke-width: 0.8"/>
      </g>
     </g>
     <g id="text_9">
      <!-- 0.5 -->
      <g transform="translate(15.579688 106.187517) scale(0.1 -0.1)">
       <use xlink:href="#DejaVuSans-30"/>
       <use xlink:href="#DejaVuSans-2e" x="63.623047"/>
       <use xlink:href="#DejaVuSans-35" x="95.410156"/>
      </g>
     </g>
    </g>
    <g id="ytick_5">
     <g id="line2d_30">
      <g>
       <use xlink:href="#mf4ab214711" x="38.482813" y="41.850241" style="stroke: #000000; stroke-width: 0.8"/>
      </g>
     </g>
     <g id="text_10">
      <!-- 1.0 -->
      <g transform="translate(15.579688 45.64946) scale(0.1 -0.1)">
       <use xlink:href="#DejaVuSans-31"/>
       <use xlink:href="#DejaVuSans-2e" x="63.623047"/>
       <use xlink:href="#DejaVuSans-30" x="95.410156"/>
      </g>
     </g>
    </g>
    <g id="ytick_6">
     <g id="line2d_31">
      <defs>
       <path id="m4c30a0f325" d="M 0 0 
L -2 0 
" style="stroke: #000000; stroke-width: 0.6"/>
      </defs>
      <g>
       <use xlink:href="#m4c30a0f325" x="38.482813" y="308.217692" style="stroke: #000000; stroke-width: 0.6"/>
      </g>
     </g>
    </g>
    <g id="ytick_7">
     <g id="line2d_32">
      <g>
       <use xlink:href="#m4c30a0f325" x="38.482813" y="296.110081" style="stroke: #000000; stroke-width: 0.6"/>
      </g>
     </g>
    </g>
    <g id="ytick_8">
     <g id="line2d_33">
      <g>
       <use xlink:href="#m4c30a0f325" x="38.482813" y="271.894858" style="stroke: #000000; stroke-width: 0.6"/>
      </g>
     </g>
    </g>
    <g id="ytick_9">
     <g id="line2d_34">
      <g>
       <use xlink:href="#m4c30a0f325" x="38.482813" y="259.787247" style="stroke: #000000; stroke-width: 0.6"/>
      </g>
     </g>
    </g>
    <g id="ytick_10">
     <g id="line2d_35">
      <g>
       <use xlink:href="#m4c30a0f325" x="38.482813" y="247.679635" style="stroke: #000000; stroke-width: 0.6"/>
      </g>
     </g>
    </g>
    <g id="ytick_11">
     <g id="line2d_36">
      <g>
       <use xlink:href="#m4c30a0f325" x="38.482813" y="235.572024" style="stroke: #000000; stroke-width: 0.6"/>
      </g>
     </g>
    </g>
    <g id="ytick_12">
     <g id="line2d_37">
      <g>
       <use xlink:href="#m4c30a0f325" x="38.482813" y="211.356801" style="stroke: #000000; stroke-width: 0.6"/>
      </g>
     </g>
    </g>
    <g id="ytick_13">
     <g id="line2d_38">
      <g>
       <use xlink:href="#m4c30a0f325" x="38.482813" y="199.249189" style="stroke: #000000; stroke-width: 0.6"/>
      </g>
     </g>
    </g>
    <g id="ytick_14">
     <g id="line2d_39">
      <g>
       <use xlink:href="#m4c30a0f325" x="38.482813" y="187.141578" style="stroke: #000000; stroke-width: 0.6"/>
      </g>
     </g>
    </g>
    <g id="ytick_15">
     <g id="line2d_40">
      <g>
       <use xlink:href="#m4c30a0f325" x="38.482813" y="175.033967" style="stroke: #000000; stroke-width: 0.6"/>
      </g>
     </g>
    </g>
    <g id="ytick_16">
     <g id="line2d_41">
      <g>
       <use xlink:href="#m4c30a0f325" x="38.482813" y="150.818744" style="stroke: #000000; stroke-width: 0.6"/>
      </g>
     </g>
    </g>
    <g id="ytick_17">
     <g id="line2d_42">
      <g>
       <use xlink:href="#m4c30a0f325" x="38.482813" y="138.711132" style="stroke: #000000; stroke-width: 0.6"/>
      </g>
     </g>
    </g>
    <g id="ytick_18">
     <g id="line2d_43">
      <g>
       <use xlink:href="#m4c30a0f325" x="38.482813" y="126.603521" style="stroke: #000000; stroke-width: 0.6"/>
      </g>
     </g>
    </g>
    <g id="ytick_19">
     <g id="line2d_44">
      <g>
       <use xlink:href="#m4c30a0f325" x="38.482813" y="114.495909" style="stroke: #000000; stroke-width: 0.6"/>
      </g>
     </g>
    </g>
    <g id="ytick_20">
     <g id="line2d_45">
      <g>
       <use xlink:href="#m4c30a0f325" x="38.482813" y="90.280687" style="stroke: #000000; stroke-width: 0.6"/>
      </g>
     </g>
    </g>
    <g id="ytick_21">
     <g id="line2d_46">
      <g>
       <use xlink:href="#m4c30a0f325" x="38.482813" y="78.173075" style="stroke: #000000; stroke-width: 0.6"/>
      </g>
     </g>
    </g>
    <g id="ytick_22">
     <g id="line2d_47">
      <g>
       <use xlink:href="#m4c30a0f325" x="38.482813" y="66.065464" style="stroke: #000000; stroke-width: 0.6"/>
      </g>
     </g>
    </g>
    <g id="ytick_23">
     <g id="line2d_48">
      <g>
       <use xlink:href="#m4c30a0f325" x="38.482813" y="53.957852" style="stroke: #000000; stroke-width: 0.6"/>
      </g>
     </g>
    </g>
    <g id="ytick_24">
     <g id="line2d_49">
      <g>
       <use xlink:href="#m4c30a0f325" x="38.482813" y="29.74263" style="stroke: #000000; stroke-width: 0.6"/>
      </g>
     </g>
    </g>
    <g id="ytick_25">
     <g id="line2d_50">
      <g>
       <use xlink:href="#m4c30a0f325" x="38.482813" y="17.635018" style="stroke: #000000; stroke-width: 0.6"/>
      </g>
     </g>
    </g>
   </g>
   <g id="PathCollection_2">
    <path d="M 174.959158 283.113971 
L 173.028407 282.864842 
L 173.008939 282.862288 
L 171.05872 282.574551 
L 169.108501 282.254843 
L 167.158281 281.903164 
L 165.208062 281.519514 
L 163.257843 281.103894 
L 162.433159 280.914622 
L 161.307623 280.651997 
L 159.357404 280.164442 
L 157.407185 279.644384 
L 155.456966 279.091822 
L 155.032236 278.964403 
L 153.506746 278.498999 
L 151.556527 277.870963 
L 149.606308 277.209871 
L 149.056519 277.014184 
L 147.656088 276.507131 
L 145.705869 275.767393 
L 143.932006 275.063964 
L 143.75565 274.992803 
L 141.80543 274.171658 
L 139.855211 273.316299 
L 139.411151 273.113745 
L 137.904992 272.414457 
L 135.954773 271.474173 
L 135.333479 271.163526 
L 134.004553 270.486982 
L 132.054334 269.458684 
L 131.604474 269.213307 
L 130.104115 268.379773 
L 128.15892 267.263087 
L 128.153895 267.260149 
L 126.203676 266.082658 
L 124.967347 265.312868 
L 124.253457 264.859822 
L 122.303238 263.584679 
L 121.973364 263.362649 
L 120.353018 262.250647 
L 119.165544 261.412429 
L 118.402799 260.863253 
L 116.509498 259.46221 
L 116.45258 259.419231 
L 114.50236 257.906816 
L 114.006298 257.511991 
L 112.552141 256.330489 
L 111.629681 255.561771 
L 110.601922 254.687083 
L 109.368996 253.611552 
L 108.651703 252.972225 
L 107.215963 251.661333 
L 106.701483 251.181152 
L 105.163071 249.711114 
L 104.751264 249.308665 
L 103.203493 247.760894 
L 102.801045 247.349087 
L 101.331007 245.810675 
L 100.850825 245.296195 
L 99.539933 243.860456 
L 98.900606 243.143162 
L 97.825075 241.910236 
L 96.950387 240.882478 
L 96.18167 239.960017 
L 95.000168 238.505861 
L 94.605342 238.009798 
L 93.092927 236.059579 
L 93.049948 236.002661 
L 91.648905 234.109359 
L 91.099729 233.346614 
L 90.261512 232.15914 
L 89.14951 230.538794 
L 88.927479 230.208921 
L 87.652336 228.258701 
L 87.19929 227.544811 
L 86.429501 226.308482 
L 85.25201 224.358263 
L 85.249071 224.353239 
L 84.132385 222.408044 
L 83.298852 220.907684 
L 83.053474 220.457824 
L 82.025176 218.507605 
L 81.348632 217.178679 
L 81.037986 216.557386 
L 80.097701 214.607166 
L 79.398413 213.101007 
L 79.195859 212.656947 
L 78.3405 210.706728 
L 77.519355 208.756509 
L 77.448194 208.580153 
L 76.744765 206.806289 
L 76.005027 204.85607 
L 75.497975 203.45564 
L 75.302287 202.905851 
L 74.641196 200.955631 
L 74.013159 199.005412 
L 73.547755 197.479922 
L 73.420336 197.055193 
L 72.867774 195.104973 
L 72.347716 193.154754 
L 71.860161 191.204535 
L 71.597536 190.078999 
L 71.408264 189.254316 
L 70.992644 187.304096 
L 70.608994 185.353877 
L 70.257315 183.403658 
L 69.937607 181.453438 
L 69.64987 179.503219 
L 69.647317 179.483751 
L 69.398188 177.553 
L 69.178002 175.602781 
L 68.989271 173.652561 
L 68.831995 171.702342 
L 68.706174 169.752123 
L 68.611809 167.801903 
L 68.548899 165.851684 
L 68.517443 163.901465 
L 68.517443 161.951246 
L 68.548899 160.001026 
L 68.611809 158.050807 
L 68.706174 156.100588 
L 68.831995 154.150368 
L 68.989271 152.200149 
L 69.178002 150.24993 
L 69.398188 148.299711 
L 69.647317 146.36896 
L 69.64987 146.349491 
L 69.937607 144.399272 
L 70.257315 142.449053 
L 70.608994 140.498833 
L 70.992644 138.548614 
L 71.408264 136.598395 
L 71.597536 135.773711 
L 71.860161 134.648175 
L 72.347716 132.697956 
L 72.867774 130.747737 
L 73.420336 128.797518 
L 73.547755 128.372788 
L 74.013159 126.847298 
L 74.641196 124.897079 
L 75.302287 122.94686 
L 75.497975 122.397071 
L 76.005027 120.99664 
L 76.744765 119.046421 
L 77.448194 117.272558 
L 77.519355 117.096202 
L 78.3405 115.145983 
L 79.195859 113.195763 
L 79.398413 112.751703 
L 80.097701 111.245544 
L 81.037986 109.295325 
L 81.348632 108.674031 
L 82.025176 107.345105 
L 83.053474 105.394886 
L 83.298852 104.945027 
L 84.132385 103.444667 
L 85.249071 101.499472 
L 85.25201 101.494448 
L 86.429501 99.544228 
L 87.19929 98.307899 
L 87.652336 97.594009 
L 88.927479 95.64379 
L 89.14951 95.313916 
L 90.261512 93.69357 
L 91.099729 92.506096 
L 91.648905 91.743351 
L 93.049948 89.85005 
L 93.092927 89.793132 
L 94.605342 87.842913 
L 95.000168 87.34685 
L 96.18167 85.892693 
L 96.950387 84.970233 
L 97.825075 83.942474 
L 98.900606 82.709548 
L 99.539933 81.992255 
L 100.850825 80.556515 
L 101.331007 80.042035 
L 102.801045 78.503624 
L 103.203493 78.091816 
L 104.751264 76.544045 
L 105.163071 76.141597 
L 106.701483 74.671559 
L 107.215963 74.191377 
L 108.651703 72.880485 
L 109.368996 72.241158 
L 110.601922 71.165627 
L 111.629681 70.290939 
L 112.552141 69.522222 
L 114.006298 68.34072 
L 114.50236 67.945894 
L 116.45258 66.433479 
L 116.509498 66.3905 
L 118.402799 64.989457 
L 119.165544 64.440281 
L 120.353018 63.602064 
L 121.973364 62.490062 
L 122.303238 62.268032 
L 124.253457 60.992888 
L 124.967347 60.539842 
L 126.203676 59.770053 
L 128.153895 58.592562 
L 128.15892 58.589623 
L 130.104115 57.472937 
L 131.604474 56.639404 
L 132.054334 56.394026 
L 134.004553 55.365728 
L 135.333479 54.689185 
L 135.954773 54.378538 
L 137.904992 53.438253 
L 139.411151 52.738965 
L 139.855211 52.536411 
L 141.80543 51.681052 
L 143.75565 50.859907 
L 143.932006 50.788746 
L 145.705869 50.085317 
L 147.656088 49.345579 
L 149.056519 48.838527 
L 149.606308 48.642839 
L 151.556527 47.981748 
L 153.506746 47.353711 
L 155.032236 46.888307 
L 155.456966 46.760889 
L 157.407185 46.208326 
L 159.357404 45.688268 
L 161.307623 45.200713 
L 162.433159 44.938088 
L 163.257843 44.748817 
L 165.208062 44.333196 
L 167.158281 43.949546 
L 169.108501 43.597867 
L 171.05872 43.278159 
L 173.008939 42.990422 
L 173.028407 42.987869 
L 174.959158 42.73874 
L 176.909378 42.518554 
L 178.859597 42.329823 
L 180.809816 42.172547 
L 182.760036 42.046726 
L 184.710255 41.952361 
L 186.660474 41.889451 
L 188.610693 41.857996 
L 190.560913 41.857996 
L 192.511132 41.889451 
L 194.461351 41.952361 
L 196.411571 42.046726 
L 198.36179 42.172547 
L 200.312009 42.329823 
L 202.262228 42.518554 
L 204.212448 42.73874 
L 206.143199 42.987869 
L 206.162667 42.990422 
L 208.112886 43.278159 
L 210.063106 43.597867 
L 212.013325 43.949546 
L 213.963544 44.333196 
L 215.913764 44.748817 
L 216.738447 44.938088 
L 217.863983 45.200713 
L 219.814202 45.688268 
L 221.764421 46.208326 
L 223.714641 46.760889 
L 224.13937 46.888307 
L 225.66486 47.353711 
L 227.615079 47.981748 
L 229.565299 48.642839 
L 230.115088 48.838527 
L 231.515518 49.345579 
L 233.465737 50.085317 
L 235.239601 50.788746 
L 235.415956 50.859907 
L 237.366176 51.681052 
L 239.316395 52.536411 
L 239.760455 52.738965 
L 241.266614 53.438253 
L 243.216834 54.378538 
L 243.838127 54.689185 
L 245.167053 55.365728 
L 247.117272 56.394026 
L 247.567132 56.639404 
L 249.067491 57.472937 
L 251.012687 58.589623 
L 251.017711 58.592562 
L 252.96793 59.770053 
L 254.204259 60.539842 
L 254.918149 60.992888 
L 256.868369 62.268032 
L 257.198242 62.490062 
L 258.818588 63.602064 
L 260.006062 64.440281 
L 260.768807 64.989457 
L 262.662108 66.3905 
L 262.719026 66.433479 
L 264.669246 67.945894 
L 265.165308 68.34072 
L 266.619465 69.522222 
L 267.541926 70.290939 
L 268.569684 71.165627 
L 269.80261 72.241158 
L 270.519904 72.880485 
L 271.955643 74.191377 
L 272.470123 74.671559 
L 274.008535 76.141597 
L 274.420342 76.544045 
L 275.968113 78.091816 
L 276.370562 78.503624 
L 277.840599 80.042035 
L 278.320781 80.556515 
L 279.631673 81.992255 
L 280.271 82.709548 
L 281.346531 83.942474 
L 282.221219 84.970233 
L 282.989936 85.892693 
L 284.171439 87.34685 
L 284.566264 87.842913 
L 286.078679 89.793132 
L 286.121658 89.85005 
L 287.522701 91.743351 
L 288.071877 92.506096 
L 288.910094 93.69357 
L 290.022097 95.313916 
L 290.244127 95.64379 
L 291.51927 97.594009 
L 291.972316 98.307899 
L 292.742106 99.544228 
L 293.919596 101.494448 
L 293.922535 101.499472 
L 295.039221 103.444667 
L 295.872754 104.945027 
L 296.118132 105.394886 
L 297.14643 107.345105 
L 297.822974 108.674031 
L 298.133621 109.295325 
L 299.073905 111.245544 
L 299.773193 112.751703 
L 299.975747 113.195763 
L 300.831106 115.145983 
L 301.652251 117.096202 
L 301.723412 117.272558 
L 302.426841 119.046421 
L 303.166579 120.99664 
L 303.673632 122.397071 
L 303.869319 122.94686 
L 304.53041 124.897079 
L 305.158447 126.847298 
L 305.623851 128.372788 
L 305.75127 128.797518 
L 306.303832 130.747737 
L 306.82389 132.697956 
L 307.311445 134.648175 
L 307.57407 135.773711 
L 307.763342 136.598395 
L 308.178962 138.548614 
L 308.562612 140.498833 
L 308.914291 142.449053 
L 309.233999 144.399272 
L 309.521736 146.349491 
L 309.524289 146.36896 
L 309.773419 148.299711 
L 309.993605 150.24993 
L 310.182336 152.200149 
L 310.339611 154.150368 
L 310.465432 156.100588 
L 310.559797 158.050807 
L 310.622708 160.001026 
L 310.654163 161.951246 
L 310.654163 163.901465 
L 310.622708 165.851684 
L 310.559797 167.801903 
L 310.465432 169.752123 
L 310.339611 171.702342 
L 310.182336 173.652561 
L 309.993605 175.602781 
L 309.773419 177.553 
L 309.524289 179.483751 
L 309.521736 179.503219 
L 309.233999 181.453438 
L 308.914291 183.403658 
L 308.562612 185.353877 
L 308.178962 187.304096 
L 307.763342 189.254316 
L 307.57407 190.078999 
L 307.311445 191.204535 
L 306.82389 193.154754 
L 306.303832 195.104973 
L 305.75127 197.055193 
L 305.623851 197.479922 
L 305.158447 199.005412 
L 304.53041 200.955631 
L 303.869319 202.905851 
L 303.673632 203.45564 
L 303.166579 204.85607 
L 302.426841 206.806289 
L 301.723412 208.580153 
L 301.652251 208.756509 
L 300.831106 210.706728 
L 299.975747 212.656947 
L 299.773193 213.101007 
L 299.073905 214.607166 
L 298.133621 216.557386 
L 297.822974 217.178679 
L 297.14643 218.507605 
L 296.118132 220.457824 
L 295.872754 220.907684 
L 295.039221 222.408044 
L 293.922535 224.353239 
L 293.919596 224.358263 
L 292.742106 226.308482 
L 291.972316 227.544811 
L 291.51927 228.258701 
L 290.244127 230.208921 
L 290.022097 230.538794 
L 288.910094 232.15914 
L 288.071877 233.346614 
L 287.522701 234.109359 
L 286.121658 236.002661 
L 286.078679 236.059579 
L 284.566264 238.009798 
L 284.171439 238.505861 
L 282.989936 239.960017 
L 282.221219 240.882478 
L 281.346531 241.910236 
L 280.271 243.143162 
L 279.631673 243.860456 
L 278.320781 245.296195 
L 277.840599 245.810675 
L 276.370562 247.349087 
L 275.968113 247.760894 
L 274.420342 249.308665 
L 274.008535 249.711114 
L 272.470123 251.181152 
L 271.955643 251.661333 
L 270.519904 252.972225 
L 269.80261 253.611552 
L 268.569684 254.687083 
L 267.541926 255.561771 
L 266.619465 256.330489 
L 265.165308 257.511991 
L 264.669246 257.906816 
L 262.719026 259.419231 
L 262.662108 259.46221 
L 260.768807 260.863253 
L 260.006062 261.412429 
L 258.818588 262.250647 
L 257.198242 263.362649 
L 256.868369 263.584679 
L 254.918149 264.859822 
L 254.204259 265.312868 
L 252.96793 266.082658 
L 251.017711 267.260149 
L 251.012687 267.263087 
L 249.067491 268.379773 
L 247.567132 269.213307 
L 247.117272 269.458684 
L 245.167053 270.486982 
L 243.838127 271.163526 
L 243.216834 271.474173 
L 241.266614 272.414457 
L 239.760455 273.113745 
L 239.316395 273.316299 
L 237.366176 274.171658 
L 235.415956 274.992803 
L 235.239601 275.063964 
L 233.465737 275.767393 
L 231.515518 276.507131 
L 230.115088 277.014184 
L 229.565299 277.209871 
L 227.615079 277.870963 
L 225.66486 278.498999 
L 224.13937 278.964403 
L 223.714641 279.091822 
L 221.764421 279.644384 
L 219.814202 280.164442 
L 217.863983 280.651997 
L 216.738447 280.914622 
L 215.913764 281.103894 
L 213.963544 281.519514 
L 212.013325 281.903164 
L 210.063106 282.254843 
L 208.112886 282.574551 
L 206.162667 282.862288 
L 206.143199 282.864842 
L 204.212448 283.113971 
L 202.262228 283.334157 
L 200.312009 283.522888 
L 198.36179 283.680163 
L 196.411571 283.805984 
L 194.461351 283.900349 
L 192.511132 283.96326 
L 190.560913 283.994715 
L 188.610693 283.994715 
L 186.660474 283.96326 
L 184.710255 283.900349 
L 182.760036 283.805984 
L 180.809816 283.680163 
L 178.859597 283.522888 
L 176.909378 283.334157 
L 174.959158 283.113971 
z
" clip-path="url(#pb4d6d5b485)" style="fill: none; stroke: #0000ff; stroke-width: 1.5"/>
   </g>
   <g id="line2d_51">
    <path d="M 68.509689 77.312614 
L 250.12386 13.102308 
L 250.12386 13.102308 
" clip-path="url(#pb4d6d5b485)" style="fill: none; stroke: #008000; stroke-linecap: square"/>
   </g>
   <g id="patch_3">
    <path d="M 38.482813 314.12 
L 38.482813 7.2 
" style="fill: none; stroke: #000000; stroke-width: 0.8; stroke-linejoin: miter; stroke-linecap: square"/>
   </g>
   <g id="patch_4">
    <path d="M 340.688794 314.12 
L 340.688794 7.2 
" style="fill: none; stroke: #000000; stroke-width: 0.8; stroke-linejoin: miter; stroke-linecap: square"/>
   </g>
   <g id="patch_5">
    <path d="M 38.482812 314.12 
L 340.688794 314.12 
" style="fill: none; stroke: #000000; stroke-width: 0.8; stroke-linejoin: miter; stroke-linecap: square"/>
   </g>
   <g id="patch_6">
    <path d="M 38.482812 7.2 
L 340.688794 7.2 
" style="fill: none; stroke: #000000; stroke-width: 0.8; stroke-linejoin: miter; stroke-linecap: square"/>
   </g>
   <g id="text_11">
    <!-- $P$ -->
    <g transform="translate(135.955357 46.265241) scale(0.16 -0.16)">
     <defs>
      <path id="Cmmi10-50" d="M 313 0 
Q 250 0 250 84 
Q 253 100 262 139 
Q 272 178 289 201 
Q 306 225 331 225 
Q 722 225 878 269 
Q 959 297 997 441 
L 1875 3956 
Q 1888 4019 1888 4044 
Q 1888 4113 1813 4122 
Q 1691 4147 1350 4147 
Q 1288 4147 1288 4231 
Q 1291 4247 1300 4286 
Q 1309 4325 1326 4348 
Q 1344 4372 1369 4372 
L 3578 4372 
Q 3881 4372 4165 4264 
Q 4450 4156 4631 3934 
Q 4813 3713 4813 3397 
Q 4813 2991 4527 2672 
Q 4241 2353 3814 2175 
Q 3388 1997 2988 1997 
L 1947 1997 
L 1556 416 
Q 1544 353 1544 325 
Q 1544 300 1551 283 
Q 1559 266 1573 261 
Q 1588 256 1619 250 
Q 1741 225 2081 225 
Q 2144 225 2144 141 
Q 2122 50 2109 25 
Q 2097 0 2034 0 
L 313 0 
z
M 1978 2188 
L 2875 2188 
Q 3497 2188 3822 2522 
Q 3988 2688 4092 3000 
Q 4197 3313 4197 3566 
Q 4197 3881 3956 4014 
Q 3716 4147 3359 4147 
L 2747 4147 
Q 2572 4147 2515 4117 
Q 2459 4088 2413 3928 
L 1978 2188 
z
" transform="scale(0.015625)"/>
     </defs>
     <use xlink:href="#Cmmi10-50" transform="translate(0 0.6875)"/>
    </g>
   </g>
  </g>
 </g>
 <defs>
  <clipPath id="pb4d6d5b485">
   <rect x="38.482813" y="7.2" width="302.205981" height="306.92"/>
  </clipPath>
 </defs>
</svg>
