<?xml version="1.0" encoding="utf-8" standalone="no"?>
<!DOCTYPE svg PUBLIC "-//W3C//DTD SVG 1.1//EN"
  "http://www.w3.org/Graphics/SVG/1.1/DTD/svg11.dtd">
<svg xmlns:xlink="http://www.w3.org/1999/xlink" width="451.423887pt" height="337.395853pt" viewBox="0 0 451.423887 337.395853" xmlns="http://www.w3.org/2000/svg" version="1.1">
 <metadata>
  <rdf:RDF xmlns:dc="http://purl.org/dc/elements/1.1/" xmlns:cc="http://creativecommons.org/ns#" xmlns:rdf="http://www.w3.org/1999/02/22-rdf-syntax-ns#">
   <cc:Work>
    <dc:type rdf:resource="http://purl.org/dc/dcmitype/StillImage"/>
    <dc:date>2024-10-21T10:43:40.561359</dc:date>
    <dc:format>image/svg+xml</dc:format>
    <dc:creator>
     <cc:Agent>
      <dc:title>Matplotlib v3.6.2, https://matplotlib.org/</dc:title>
     </cc:Agent>
    </dc:creator>
   </cc:Work>
  </rdf:RDF>
 </metadata>
 <defs>
  <style type="text/css">*{stroke-linejoin: round; stroke-linecap: butt}</style>
 </defs>
 <g id="figure_1">
  <g id="patch_1">
   <path d="M 0 337.395853 
L 451.423887 337.395853 
L 451.423887 0 
L 0 0 
z
" style="fill: #ffffff"/>
  </g>
  <g id="axes_1">
   <g id="patch_2">
    <path d="M 8.826983 330.195853 
L 444.223887 330.195853 
L 444.223887 7.2 
L 8.826983 7.2 
z
" style="fill: #ffffff"/>
   </g>
   <g id="matplotlib.axis_1">
    <g id="xtick_1">
     <g id="line2d_1">
      <defs>
       <path id="m5328a6c43b" d="M 0 0 
L 0 3.5 
" style="stroke: #000000; stroke-width: 0.8"/>
      </defs>
      <g>
       <use xlink:href="#m5328a6c43b" x="17.2" y="168.698949" style="stroke: #000000; stroke-width: 0.8"/>
      </g>
     </g>
     <g id="text_1">
      <!-- $-4 \, \pi$ -->
      <g transform="translate(7.2 183.297387) scale(0.1 -0.1)">
       <defs>
        <path id="Cmsy10-a1" d="M 653 1472 
Q 600 1472 565 1512 
Q 531 1553 531 1600 
Q 531 1647 565 1687 
Q 600 1728 653 1728 
L 4325 1728 
Q 4375 1728 4408 1687 
Q 4441 1647 4441 1600 
Q 4441 1553 4408 1512 
Q 4375 1472 4325 1472 
L 653 1472 
z
" transform="scale(0.015625)"/>
        <path id="Cmr10-34" d="M 178 1056 
L 178 1281 
L 2156 4231 
Q 2178 4263 2222 4263 
L 2316 4263 
Q 2388 4263 2388 4191 
L 2388 1281 
L 3016 1281 
L 3016 1056 
L 2388 1056 
L 2388 428 
Q 2388 297 2575 261 
Q 2763 225 3009 225 
L 3009 0 
L 1247 0 
L 1247 225 
Q 1494 225 1681 261 
Q 1869 297 1869 428 
L 1869 1056 
L 178 1056 
z
M 391 1281 
L 1906 1281 
L 1906 3547 
L 391 1281 
z
" transform="scale(0.015625)"/>
        <path id="Cmmi10-bc" d="M 647 109 
Q 647 144 672 213 
Q 850 584 1004 942 
Q 1159 1300 1282 1639 
Q 1406 1978 1509 2363 
L 1100 2363 
Q 866 2363 662 2216 
Q 459 2069 325 1844 
Q 313 1819 288 1819 
L 213 1819 
Q 153 1819 153 1881 
Q 153 1894 166 1919 
Q 375 2275 614 2517 
Q 853 2759 1153 2759 
L 3475 2759 
Q 3541 2759 3587 2715 
Q 3634 2672 3634 2597 
Q 3634 2503 3567 2433 
Q 3500 2363 3406 2363 
L 2591 2363 
Q 2488 1859 2478 1381 
Q 2478 766 2694 269 
Q 2713 231 2713 191 
Q 2713 122 2672 62 
Q 2631 3 2567 -34 
Q 2503 -72 2431 -72 
Q 2263 -72 2200 203 
Q 2138 478 2138 738 
Q 2138 1103 2200 1442 
Q 2263 1781 2400 2363 
L 1703 2363 
Q 1197 313 1094 103 
Q 1003 -72 844 -72 
Q 766 -72 706 -20 
Q 647 31 647 109 
z
" transform="scale(0.015625)"/>
       </defs>
       <use xlink:href="#Cmsy10-a1" transform="translate(0 0.390625)"/>
       <use xlink:href="#Cmr10-34" transform="translate(77.685547 0.390625)"/>
       <use xlink:href="#Cmmi10-bc" transform="translate(142.318001 0.390625)"/>
      </g>
     </g>
    </g>
    <g id="xtick_2">
     <g id="line2d_2">
      <g>
       <use xlink:href="#m5328a6c43b" x="69.531359" y="168.698949" style="stroke: #000000; stroke-width: 0.8"/>
      </g>
     </g>
     <g id="text_2">
      <!-- $-3 \, \pi$ -->
      <g transform="translate(59.531359 183.297387) scale(0.1 -0.1)">
       <defs>
        <path id="Cmr10-33" d="M 609 494 
Q 759 275 1012 169 
Q 1266 63 1556 63 
Q 1928 63 2084 380 
Q 2241 697 2241 1100 
Q 2241 1281 2208 1462 
Q 2175 1644 2097 1800 
Q 2019 1956 1883 2050 
Q 1747 2144 1550 2144 
L 1125 2144 
Q 1069 2144 1069 2203 
L 1069 2259 
Q 1069 2309 1125 2309 
L 1478 2338 
Q 1703 2338 1851 2506 
Q 2000 2675 2069 2917 
Q 2138 3159 2138 3378 
Q 2138 3684 1994 3881 
Q 1850 4078 1556 4078 
Q 1313 4078 1091 3986 
Q 869 3894 738 3706 
Q 750 3709 759 3711 
Q 769 3713 781 3713 
Q 925 3713 1022 3613 
Q 1119 3513 1119 3372 
Q 1119 3234 1022 3134 
Q 925 3034 781 3034 
Q 641 3034 541 3134 
Q 441 3234 441 3372 
Q 441 3647 606 3850 
Q 772 4053 1033 4158 
Q 1294 4263 1556 4263 
Q 1750 4263 1965 4205 
Q 2181 4147 2356 4039 
Q 2531 3931 2642 3762 
Q 2753 3594 2753 3378 
Q 2753 3109 2633 2881 
Q 2513 2653 2303 2487 
Q 2094 2322 1844 2241 
Q 2122 2188 2372 2031 
Q 2622 1875 2773 1631 
Q 2925 1388 2925 1106 
Q 2925 753 2731 467 
Q 2538 181 2222 20 
Q 1906 -141 1556 -141 
Q 1256 -141 954 -26 
Q 653 88 461 316 
Q 269 544 269 863 
Q 269 1022 375 1128 
Q 481 1234 641 1234 
Q 744 1234 830 1186 
Q 916 1138 964 1050 
Q 1013 963 1013 863 
Q 1013 706 903 600 
Q 794 494 641 494 
L 609 494 
z
" transform="scale(0.015625)"/>
       </defs>
       <use xlink:href="#Cmsy10-a1" transform="translate(0 0.390625)"/>
       <use xlink:href="#Cmr10-33" transform="translate(77.685547 0.390625)"/>
       <use xlink:href="#Cmmi10-bc" transform="translate(142.318001 0.390625)"/>
      </g>
     </g>
    </g>
    <g id="xtick_3">
     <g id="line2d_3">
      <g>
       <use xlink:href="#m5328a6c43b" x="121.862717" y="168.698949" style="stroke: #000000; stroke-width: 0.8"/>
      </g>
     </g>
     <g id="text_3">
      <!-- $-2 \, \pi$ -->
      <g transform="translate(111.862717 183.297387) scale(0.1 -0.1)">
       <defs>
        <path id="Cmr10-32" d="M 319 0 
L 319 172 
Q 319 188 331 206 
L 1325 1306 
Q 1550 1550 1690 1715 
Q 1831 1881 1968 2097 
Q 2106 2313 2186 2536 
Q 2266 2759 2266 3009 
Q 2266 3272 2169 3511 
Q 2072 3750 1880 3894 
Q 1688 4038 1416 4038 
Q 1138 4038 916 3870 
Q 694 3703 603 3438 
Q 628 3444 672 3444 
Q 816 3444 917 3347 
Q 1019 3250 1019 3097 
Q 1019 2950 917 2848 
Q 816 2747 672 2747 
Q 522 2747 420 2851 
Q 319 2956 319 3097 
Q 319 3338 409 3548 
Q 500 3759 670 3923 
Q 841 4088 1055 4175 
Q 1269 4263 1509 4263 
Q 1875 4263 2190 4108 
Q 2506 3953 2690 3670 
Q 2875 3388 2875 3009 
Q 2875 2731 2753 2481 
Q 2631 2231 2440 2026 
Q 2250 1822 1953 1562 
Q 1656 1303 1563 1216 
L 838 519 
L 1453 519 
Q 1906 519 2211 526 
Q 2516 534 2534 550 
Q 2609 631 2688 1141 
L 2875 1141 
L 2694 0 
L 319 0 
z
" transform="scale(0.015625)"/>
       </defs>
       <use xlink:href="#Cmsy10-a1" transform="translate(0 0.390625)"/>
       <use xlink:href="#Cmr10-32" transform="translate(77.685547 0.390625)"/>
       <use xlink:href="#Cmmi10-bc" transform="translate(142.318001 0.390625)"/>
      </g>
     </g>
    </g>
    <g id="xtick_4">
     <g id="line2d_4">
      <g>
       <use xlink:href="#m5328a6c43b" x="174.194076" y="168.698949" style="stroke: #000000; stroke-width: 0.8"/>
      </g>
     </g>
     <g id="text_4">
      <!-- $-\pi$ -->
      <g transform="translate(167.444076 183.297387) scale(0.1 -0.1)">
       <use xlink:href="#Cmsy10-a1" transform="translate(0 0.890625)"/>
       <use xlink:href="#Cmmi10-bc" transform="translate(77.685547 0.890625)"/>
      </g>
     </g>
    </g>
    <g id="xtick_5">
     <g id="line2d_5">
      <g>
       <use xlink:href="#m5328a6c43b" x="278.856793" y="168.698949" style="stroke: #000000; stroke-width: 0.8"/>
      </g>
     </g>
     <g id="text_5">
      <!-- $\pi$ -->
      <g transform="translate(276.006793 183.297387) scale(0.1 -0.1)">
       <use xlink:href="#Cmmi10-bc" transform="translate(0 0.890625)"/>
      </g>
     </g>
    </g>
    <g id="xtick_6">
     <g id="line2d_6">
      <g>
       <use xlink:href="#m5328a6c43b" x="331.188152" y="168.698949" style="stroke: #000000; stroke-width: 0.8"/>
      </g>
     </g>
     <g id="text_6">
      <!-- $2 \, \pi$ -->
      <g transform="translate(325.088152 183.297387) scale(0.1 -0.1)">
       <use xlink:href="#Cmr10-32" transform="translate(0 0.390625)"/>
       <use xlink:href="#Cmmi10-bc" transform="translate(64.632454 0.390625)"/>
      </g>
     </g>
    </g>
    <g id="xtick_7">
     <g id="line2d_7">
      <g>
       <use xlink:href="#m5328a6c43b" x="383.519511" y="168.698949" style="stroke: #000000; stroke-width: 0.8"/>
      </g>
     </g>
     <g id="text_7">
      <!-- $3 \, \pi$ -->
      <g transform="translate(377.419511 183.297387) scale(0.1 -0.1)">
       <use xlink:href="#Cmr10-33" transform="translate(0 0.390625)"/>
       <use xlink:href="#Cmmi10-bc" transform="translate(64.632454 0.390625)"/>
      </g>
     </g>
    </g>
    <g id="xtick_8">
     <g id="line2d_8">
      <g>
       <use xlink:href="#m5328a6c43b" x="435.85087" y="168.698949" style="stroke: #000000; stroke-width: 0.8"/>
      </g>
     </g>
     <g id="text_8">
      <!-- $4 \, \pi$ -->
      <g transform="translate(429.75087 183.297387) scale(0.1 -0.1)">
       <use xlink:href="#Cmr10-34" transform="translate(0 0.390625)"/>
       <use xlink:href="#Cmmi10-bc" transform="translate(64.632454 0.390625)"/>
      </g>
     </g>
    </g>
   </g>
   <g id="matplotlib.axis_2">
    <g id="ytick_1">
     <g id="line2d_9">
      <defs>
       <path id="m21861d3f9a" d="M 0 0 
L -3.5 0 
" style="stroke: #000000; stroke-width: 0.8"/>
      </defs>
      <g>
       <use xlink:href="#m21861d3f9a" x="226.525435" y="323.98644" style="stroke: #000000; stroke-width: 0.8"/>
      </g>
     </g>
     <g id="text_9">
      <!-- −1 -->
      <g transform="translate(204.783247 327.785659) scale(0.1 -0.1)">
       <defs>
        <path id="DejaVuSans-2212" d="M 678 2272 
L 4684 2272 
L 4684 1741 
L 678 1741 
L 678 2272 
z
" transform="scale(0.015625)"/>
        <path id="DejaVuSans-31" d="M 794 531 
L 1825 531 
L 1825 4091 
L 703 3866 
L 703 4441 
L 1819 4666 
L 2450 4666 
L 2450 531 
L 3481 531 
L 3481 0 
L 794 0 
L 794 531 
z
" transform="scale(0.015625)"/>
       </defs>
       <use xlink:href="#DejaVuSans-2212"/>
       <use xlink:href="#DejaVuSans-31" x="83.789062"/>
      </g>
     </g>
    </g>
    <g id="ytick_2">
     <g id="line2d_10">
      <g>
       <use xlink:href="#m21861d3f9a" x="226.525435" y="13.411459" style="stroke: #000000; stroke-width: 0.8"/>
      </g>
     </g>
     <g id="text_10">
      <!-- 1 -->
      <g transform="translate(213.162935 17.210677) scale(0.1 -0.1)">
       <use xlink:href="#DejaVuSans-31"/>
      </g>
     </g>
    </g>
   </g>
   <g id="line2d_11">
    <path d="M 17.2 13.411459 
L 18.359942 13.787798 
L 19.519885 14.914991 
L 20.826616 17.077262 
L 22.133347 20.172113 
L 23.146802 23.202561 
L 24.52989 28.204521 
L 25.912978 34.174502 
L 27.242907 40.789715 
L 29.714161 55.210163 
L 32.229193 72.443782 
L 35.260891 96.089453 
L 39.026682 128.705268 
L 51.167155 238.797104 
L 54.240066 263.024913 
L 55.948604 275.159454 
L 57.657142 286.174989 
L 59.392561 296.099179 
L 60.845942 303.35156 
L 62.048109 308.578437 
L 63.250277 313.077079 
L 64.690137 317.47416 
L 66.129997 320.760336 
L 67.316831 322.616175 
L 68.775361 323.82654 
L 69.735418 323.974788 
L 70.695475 323.607388 
L 71.655532 322.725561 
L 72.615589 321.332233 
L 73.828913 318.847014 
L 75.145892 315.248803 
L 76.040227 312.281736 
L 77.828899 305.115988 
L 79.794557 295.432552 
L 81.717407 284.253383 
L 84.326395 266.6575 
L 87.103681 245.302677 
L 88.596708 232.904278 
L 92.202507 201.037678 
L 101.081665 119.371352 
L 104.792923 88.055652 
L 106.57549 74.34288 
L 108.776669 58.915264 
L 111.277515 43.72361 
L 113.402273 33.013997 
L 114.724694 27.45195 
L 116.047116 22.77965 
L 117.229775 19.378989 
L 118.412434 16.730697 
L 119.912788 14.474192 
L 120.765688 13.748095 
L 121.618589 13.428135 
L 122.47149 13.51515 
L 123.448231 14.114359 
L 124.930717 16.037882 
L 126.413203 19.16977 
L 127.457918 22.089593 
L 128.502633 25.585905 
L 130.350915 33.140015 
L 132.441432 43.687722 
L 134.13994 53.714042 
L 136.908417 72.564577 
L 139.913563 96.006691 
L 141.571926 110.005414 
L 145.639119 146.501618 
L 153.473263 218.558709 
L 156.565874 244.849112 
L 158.655952 261.186737 
L 161.499776 281.034893 
L 163.864151 295.072065 
L 166.038276 305.742354 
L 167.146634 310.294736 
L 168.154517 313.890895 
L 169.162401 316.955673 
L 170.105245 319.331663 
L 171.048089 321.225196 
L 172.307697 322.991777 
L 173.567306 323.876527 
L 174.66192 323.925197 
L 175.756535 323.303817 
L 176.720522 322.203776 
L 177.684509 320.589786 
L 178.832034 318.006066 
L 180.247296 313.845677 
L 181.662557 308.638171 
L 183.554803 300.105994 
L 184.563308 294.858763 
L 186.152781 285.658383 
L 188.734333 268.488912 
L 191.680817 245.995649 
L 194.66375 220.770198 
L 198.299776 187.853841 
L 204.218018 133.051709 
L 208.412616 96.517718 
L 210.125034 82.78934 
L 213.462305 58.764264 
L 215.802207 44.491618 
L 216.765572 39.312053 
L 218.483298 31.160422 
L 220.201023 24.470035 
L 221.741961 19.770367 
L 223.00181 16.872777 
L 224.261659 14.843253 
L 224.911791 14.139503 
L 226.442317 13.413392 
L 227.972842 13.997314 
L 229.278924 15.528161 
L 230.585006 18.000182 
L 231.565314 20.464996 
L 232.545622 23.443053 
L 233.592749 27.179324 
L 234.639876 31.474641 
L 236.611312 41.017284 
L 238.914537 54.41761 
L 239.792252 60.113543 
L 241.422421 71.479678 
L 243.052591 83.776165 
L 245.8046 106.313764 
L 247.813248 123.872994 
L 260.322486 237.378468 
L 263.976032 266.036122 
L 266.748799 284.738199 
L 267.923294 291.719903 
L 269.221763 298.725698 
L 270.520232 304.941813 
L 271.629979 309.600002 
L 272.739727 313.63305 
L 274.126049 317.766013 
L 275.745127 321.284939 
L 276.672962 322.653844 
L 277.600797 323.545222 
L 278.94229 323.984395 
L 280.283782 323.416988 
L 281.17572 322.484147 
L 282.067658 321.110492 
L 283.555334 317.849853 
L 285.542581 311.645471 
L 286.513443 307.868859 
L 288.455168 298.912199 
L 289.981022 290.626825 
L 291.86884 278.969457 
L 294.304884 261.859601 
L 297.26627 238.420243 
L 300.518534 210.17641 
L 312.958734 97.481893 
L 315.697784 75.853924 
L 317.799292 60.929781 
L 320.306483 45.383735 
L 322.541182 33.86817 
L 324.30056 26.497875 
L 325.500617 22.375567 
L 326.700674 19.01237 
L 327.704211 16.795536 
L 329.029535 14.713502 
L 330.35486 13.60572 
L 332.018157 13.60419 
L 333.681453 15.147742 
L 334.705941 16.861363 
L 335.730429 19.149143 
L 337.204212 23.429452 
L 338.149332 26.774901 
L 339.094453 30.577111 
L 340.831598 38.715107 
L 342.436011 47.488153 
L 343.824156 55.98848 
L 345.212301 65.271081 
L 346.95993 77.969919 
L 350.599958 107.448083 
L 352.90948 127.757059 
L 364.531551 233.560478 
L 367.084366 254.338557 
L 370.172172 276.746472 
L 371.672154 286.338594 
L 374.236162 300.488937 
L 375.336491 305.622836 
L 376.358913 309.858373 
L 377.381335 313.562279 
L 378.724009 317.595734 
L 379.647938 319.811011 
L 380.571868 321.561515 
L 381.874355 323.229706 
L 383.176843 323.953584 
L 384.334194 323.800756 
L 385.585694 322.793379 
L 386.837193 320.916601 
L 387.779674 318.935571 
L 388.722154 316.473724 
L 389.664635 313.538937 
L 390.607115 310.140605 
L 391.739172 305.46137 
L 392.915236 299.931859 
L 395.158835 287.595324 
L 396.22637 280.954025 
L 399.304194 259.330309 
L 400.470297 250.288283 
L 403.365633 226.208843 
L 408.23969 182.157465 
L 413.644669 132.133995 
L 416.173528 109.73048 
L 418.164697 93.02023 
L 420.130052 77.584801 
L 422.095407 63.416264 
L 424.533274 47.895586 
L 426.013324 39.713904 
L 427.493374 32.549834 
L 428.670839 27.61512 
L 429.848304 23.385048 
L 430.98342 19.993988 
L 432.118536 17.293189 
L 433.199524 15.374357 
L 434.280512 14.100995 
L 435.85087 13.411459 
L 435.85087 13.411459 
" clip-path="url(#pc9aa080171)" style="fill: none; stroke: #0000ff; stroke-linecap: square"/>
   </g>
   <g id="patch_3">
    <path d="M 226.525435 330.195853 
L 226.525435 7.2 
" style="fill: none; stroke: #000000; stroke-width: 0.8; stroke-linejoin: miter; stroke-linecap: square"/>
   </g>
   <g id="patch_4">
    <path d="M 8.826983 168.698949 
L 444.223887 168.698949 
" style="fill: none; stroke: #000000; stroke-width: 0.8; stroke-linejoin: miter; stroke-linecap: square"/>
   </g>
  </g>
 </g>
 <defs>
  <clipPath id="pc9aa080171">
   <rect x="8.826983" y="7.2" width="435.396904" height="322.995853"/>
  </clipPath>
 </defs>
</svg>
