<?xml version="1.0" encoding="utf-8" standalone="no"?>
<!DOCTYPE svg PUBLIC "-//W3C//DTD SVG 1.1//EN"
  "http://www.w3.org/Graphics/SVG/1.1/DTD/svg11.dtd">
<svg xmlns:xlink="http://www.w3.org/1999/xlink" width="352.602812pt" height="337.998125pt" viewBox="0 0 352.602812 337.998125" xmlns="http://www.w3.org/2000/svg" version="1.1">
 <metadata>
  <rdf:RDF xmlns:dc="http://purl.org/dc/elements/1.1/" xmlns:cc="http://creativecommons.org/ns#" xmlns:rdf="http://www.w3.org/1999/02/22-rdf-syntax-ns#">
   <cc:Work>
    <dc:type rdf:resource="http://purl.org/dc/dcmitype/StillImage"/>
    <dc:date>2024-11-05T23:15:16.918760</dc:date>
    <dc:format>image/svg+xml</dc:format>
    <dc:creator>
     <cc:Agent>
      <dc:title>Matplotlib v3.6.2, https://matplotlib.org/</dc:title>
     </cc:Agent>
    </dc:creator>
   </cc:Work>
  </rdf:RDF>
 </metadata>
 <defs>
  <style type="text/css">*{stroke-linejoin: round; stroke-linecap: butt}</style>
 </defs>
 <g id="figure_1">
  <g id="patch_1">
   <path d="M 0 337.998125 
L 352.602812 337.998125 
L 352.602812 0 
L 0 0 
z
" style="fill: #ffffff"/>
  </g>
  <g id="axes_1">
   <g id="patch_2">
    <path d="M 38.482813 314.12 
L 345.402812 314.12 
L 345.402812 7.2 
L 38.482813 7.2 
z
" style="fill: #ffffff"/>
   </g>
   <g id="PathCollection_1">
    <path d="M 68.978069 164.195534 
C 69.915703 164.195534 70.815061 163.823008 71.478069 163.16 
C 72.141077 162.496992 72.513603 161.597635 72.513603 160.66 
C 72.513603 159.722365 72.141077 158.823008 71.478069 158.16 
C 70.815061 157.496992 69.915703 157.124466 68.978069 157.124466 
C 68.040434 157.124466 67.141077 157.496992 66.478069 158.16 
C 65.815061 158.823008 65.442535 159.722365 65.442535 160.66 
C 65.442535 161.597635 65.815061 162.496992 66.478069 163.16 
C 67.141077 163.823008 68.040434 164.195534 68.978069 164.195534 
z
" clip-path="url(#p0a5d29aa3b)" style="fill: #ff0000"/>
   </g>
   <g id="PathCollection_2">
    <path d="M 278.892017 77.24633 
C 279.829651 77.24633 280.729009 76.873804 281.392017 76.210796 
C 282.055024 75.547788 282.42755 74.648431 282.42755 73.710796 
C 282.42755 72.773161 282.055024 71.873804 281.392017 71.210796 
C 280.729009 70.547788 279.829651 70.175262 278.892017 70.175262 
C 277.954382 70.175262 277.055024 70.547788 276.392017 71.210796 
C 275.729009 71.873804 275.356483 72.773161 275.356483 73.710796 
C 275.356483 74.648431 275.729009 75.547788 276.392017 76.210796 
C 277.055024 76.873804 277.954382 77.24633 278.892017 77.24633 
z
" clip-path="url(#p0a5d29aa3b)" style="fill: #ff0000"/>
   </g>
   <g id="matplotlib.axis_1">
    <g id="xtick_1">
     <g id="line2d_1">
      <defs>
       <path id="mc27802de30" d="M 0 0 
L 0 3.5 
" style="stroke: #000000; stroke-width: 0.8"/>
      </defs>
      <g>
       <use xlink:href="#mc27802de30" x="68.978069" y="314.12" style="stroke: #000000; stroke-width: 0.8"/>
      </g>
     </g>
     <g id="text_1">
      <!-- −1.0 -->
      <g transform="translate(56.836663 328.718437) scale(0.1 -0.1)">
       <defs>
        <path id="DejaVuSans-2212" d="M 678 2272 
L 4684 2272 
L 4684 1741 
L 678 1741 
L 678 2272 
z
" transform="scale(0.015625)"/>
        <path id="DejaVuSans-31" d="M 794 531 
L 1825 531 
L 1825 4091 
L 703 3866 
L 703 4441 
L 1819 4666 
L 2450 4666 
L 2450 531 
L 3481 531 
L 3481 0 
L 794 0 
L 794 531 
z
" transform="scale(0.015625)"/>
        <path id="DejaVuSans-2e" d="M 684 794 
L 1344 794 
L 1344 0 
L 684 0 
L 684 794 
z
" transform="scale(0.015625)"/>
        <path id="DejaVuSans-30" d="M 2034 4250 
Q 1547 4250 1301 3770 
Q 1056 3291 1056 2328 
Q 1056 1369 1301 889 
Q 1547 409 2034 409 
Q 2525 409 2770 889 
Q 3016 1369 3016 2328 
Q 3016 3291 2770 3770 
Q 2525 4250 2034 4250 
z
M 2034 4750 
Q 2819 4750 3233 4129 
Q 3647 3509 3647 2328 
Q 3647 1150 3233 529 
Q 2819 -91 2034 -91 
Q 1250 -91 836 529 
Q 422 1150 422 2328 
Q 422 3509 836 4129 
Q 1250 4750 2034 4750 
z
" transform="scale(0.015625)"/>
       </defs>
       <use xlink:href="#DejaVuSans-2212"/>
       <use xlink:href="#DejaVuSans-31" x="83.789062"/>
       <use xlink:href="#DejaVuSans-2e" x="147.412109"/>
       <use xlink:href="#DejaVuSans-30" x="179.199219"/>
      </g>
     </g>
    </g>
    <g id="xtick_2">
     <g id="line2d_2">
      <g>
       <use xlink:href="#mc27802de30" x="130.460441" y="314.12" style="stroke: #000000; stroke-width: 0.8"/>
      </g>
     </g>
     <g id="text_2">
      <!-- −0.5 -->
      <g transform="translate(118.319034 328.718437) scale(0.1 -0.1)">
       <defs>
        <path id="DejaVuSans-35" d="M 691 4666 
L 3169 4666 
L 3169 4134 
L 1269 4134 
L 1269 2991 
Q 1406 3038 1543 3061 
Q 1681 3084 1819 3084 
Q 2600 3084 3056 2656 
Q 3513 2228 3513 1497 
Q 3513 744 3044 326 
Q 2575 -91 1722 -91 
Q 1428 -91 1123 -41 
Q 819 9 494 109 
L 494 744 
Q 775 591 1075 516 
Q 1375 441 1709 441 
Q 2250 441 2565 725 
Q 2881 1009 2881 1497 
Q 2881 1984 2565 2268 
Q 2250 2553 1709 2553 
Q 1456 2553 1204 2497 
Q 953 2441 691 2322 
L 691 4666 
z
" transform="scale(0.015625)"/>
       </defs>
       <use xlink:href="#DejaVuSans-2212"/>
       <use xlink:href="#DejaVuSans-30" x="83.789062"/>
       <use xlink:href="#DejaVuSans-2e" x="147.412109"/>
       <use xlink:href="#DejaVuSans-35" x="179.199219"/>
      </g>
     </g>
    </g>
    <g id="xtick_3">
     <g id="line2d_3">
      <g>
       <use xlink:href="#mc27802de30" x="191.942812" y="314.12" style="stroke: #000000; stroke-width: 0.8"/>
      </g>
     </g>
     <g id="text_3">
      <!-- 0.0 -->
      <g transform="translate(183.99125 328.718437) scale(0.1 -0.1)">
       <use xlink:href="#DejaVuSans-30"/>
       <use xlink:href="#DejaVuSans-2e" x="63.623047"/>
       <use xlink:href="#DejaVuSans-30" x="95.410156"/>
      </g>
     </g>
    </g>
    <g id="xtick_4">
     <g id="line2d_4">
      <g>
       <use xlink:href="#mc27802de30" x="253.425184" y="314.12" style="stroke: #000000; stroke-width: 0.8"/>
      </g>
     </g>
     <g id="text_4">
      <!-- 0.5 -->
      <g transform="translate(245.473622 328.718437) scale(0.1 -0.1)">
       <use xlink:href="#DejaVuSans-30"/>
       <use xlink:href="#DejaVuSans-2e" x="63.623047"/>
       <use xlink:href="#DejaVuSans-35" x="95.410156"/>
      </g>
     </g>
    </g>
    <g id="xtick_5">
     <g id="line2d_5">
      <g>
       <use xlink:href="#mc27802de30" x="314.907556" y="314.12" style="stroke: #000000; stroke-width: 0.8"/>
      </g>
     </g>
     <g id="text_5">
      <!-- 1.0 -->
      <g transform="translate(306.955994 328.718437) scale(0.1 -0.1)">
       <use xlink:href="#DejaVuSans-31"/>
       <use xlink:href="#DejaVuSans-2e" x="63.623047"/>
       <use xlink:href="#DejaVuSans-30" x="95.410156"/>
      </g>
     </g>
    </g>
    <g id="xtick_6">
     <g id="line2d_6">
      <defs>
       <path id="ma22fa2362f" d="M 0 0 
L 0 2 
" style="stroke: #000000; stroke-width: 0.6"/>
      </defs>
      <g>
       <use xlink:href="#ma22fa2362f" x="44.38512" y="314.12" style="stroke: #000000; stroke-width: 0.6"/>
      </g>
     </g>
    </g>
    <g id="xtick_7">
     <g id="line2d_7">
      <g>
       <use xlink:href="#ma22fa2362f" x="56.681595" y="314.12" style="stroke: #000000; stroke-width: 0.6"/>
      </g>
     </g>
    </g>
    <g id="xtick_8">
     <g id="line2d_8">
      <g>
       <use xlink:href="#ma22fa2362f" x="81.274543" y="314.12" style="stroke: #000000; stroke-width: 0.6"/>
      </g>
     </g>
    </g>
    <g id="xtick_9">
     <g id="line2d_9">
      <g>
       <use xlink:href="#ma22fa2362f" x="93.571018" y="314.12" style="stroke: #000000; stroke-width: 0.6"/>
      </g>
     </g>
    </g>
    <g id="xtick_10">
     <g id="line2d_10">
      <g>
       <use xlink:href="#ma22fa2362f" x="105.867492" y="314.12" style="stroke: #000000; stroke-width: 0.6"/>
      </g>
     </g>
    </g>
    <g id="xtick_11">
     <g id="line2d_11">
      <g>
       <use xlink:href="#ma22fa2362f" x="118.163966" y="314.12" style="stroke: #000000; stroke-width: 0.6"/>
      </g>
     </g>
    </g>
    <g id="xtick_12">
     <g id="line2d_12">
      <g>
       <use xlink:href="#ma22fa2362f" x="142.756915" y="314.12" style="stroke: #000000; stroke-width: 0.6"/>
      </g>
     </g>
    </g>
    <g id="xtick_13">
     <g id="line2d_13">
      <g>
       <use xlink:href="#ma22fa2362f" x="155.053389" y="314.12" style="stroke: #000000; stroke-width: 0.6"/>
      </g>
     </g>
    </g>
    <g id="xtick_14">
     <g id="line2d_14">
      <g>
       <use xlink:href="#ma22fa2362f" x="167.349864" y="314.12" style="stroke: #000000; stroke-width: 0.6"/>
      </g>
     </g>
    </g>
    <g id="xtick_15">
     <g id="line2d_15">
      <g>
       <use xlink:href="#ma22fa2362f" x="179.646338" y="314.12" style="stroke: #000000; stroke-width: 0.6"/>
      </g>
     </g>
    </g>
    <g id="xtick_16">
     <g id="line2d_16">
      <g>
       <use xlink:href="#ma22fa2362f" x="204.239287" y="314.12" style="stroke: #000000; stroke-width: 0.6"/>
      </g>
     </g>
    </g>
    <g id="xtick_17">
     <g id="line2d_17">
      <g>
       <use xlink:href="#ma22fa2362f" x="216.535761" y="314.12" style="stroke: #000000; stroke-width: 0.6"/>
      </g>
     </g>
    </g>
    <g id="xtick_18">
     <g id="line2d_18">
      <g>
       <use xlink:href="#ma22fa2362f" x="228.832236" y="314.12" style="stroke: #000000; stroke-width: 0.6"/>
      </g>
     </g>
    </g>
    <g id="xtick_19">
     <g id="line2d_19">
      <g>
       <use xlink:href="#ma22fa2362f" x="241.12871" y="314.12" style="stroke: #000000; stroke-width: 0.6"/>
      </g>
     </g>
    </g>
    <g id="xtick_20">
     <g id="line2d_20">
      <g>
       <use xlink:href="#ma22fa2362f" x="265.721659" y="314.12" style="stroke: #000000; stroke-width: 0.6"/>
      </g>
     </g>
    </g>
    <g id="xtick_21">
     <g id="line2d_21">
      <g>
       <use xlink:href="#ma22fa2362f" x="278.018133" y="314.12" style="stroke: #000000; stroke-width: 0.6"/>
      </g>
     </g>
    </g>
    <g id="xtick_22">
     <g id="line2d_22">
      <g>
       <use xlink:href="#ma22fa2362f" x="290.314607" y="314.12" style="stroke: #000000; stroke-width: 0.6"/>
      </g>
     </g>
    </g>
    <g id="xtick_23">
     <g id="line2d_23">
      <g>
       <use xlink:href="#ma22fa2362f" x="302.611082" y="314.12" style="stroke: #000000; stroke-width: 0.6"/>
      </g>
     </g>
    </g>
    <g id="xtick_24">
     <g id="line2d_24">
      <g>
       <use xlink:href="#ma22fa2362f" x="327.20403" y="314.12" style="stroke: #000000; stroke-width: 0.6"/>
      </g>
     </g>
    </g>
    <g id="xtick_25">
     <g id="line2d_25">
      <g>
       <use xlink:href="#ma22fa2362f" x="339.500505" y="314.12" style="stroke: #000000; stroke-width: 0.6"/>
      </g>
     </g>
    </g>
   </g>
   <g id="matplotlib.axis_2">
    <g id="ytick_1">
     <g id="line2d_26">
      <defs>
       <path id="m69ba69fd6a" d="M 0 0 
L -3.5 0 
" style="stroke: #000000; stroke-width: 0.8"/>
      </defs>
      <g>
       <use xlink:href="#m69ba69fd6a" x="38.482813" y="283.624744" style="stroke: #000000; stroke-width: 0.8"/>
      </g>
     </g>
     <g id="text_6">
      <!-- −1.0 -->
      <g transform="translate(7.2 287.423962) scale(0.1 -0.1)">
       <use xlink:href="#DejaVuSans-2212"/>
       <use xlink:href="#DejaVuSans-31" x="83.789062"/>
       <use xlink:href="#DejaVuSans-2e" x="147.412109"/>
       <use xlink:href="#DejaVuSans-30" x="179.199219"/>
      </g>
     </g>
    </g>
    <g id="ytick_2">
     <g id="line2d_27">
      <g>
       <use xlink:href="#m69ba69fd6a" x="38.482813" y="222.142372" style="stroke: #000000; stroke-width: 0.8"/>
      </g>
     </g>
     <g id="text_7">
      <!-- −0.5 -->
      <g transform="translate(7.2 225.941591) scale(0.1 -0.1)">
       <use xlink:href="#DejaVuSans-2212"/>
       <use xlink:href="#DejaVuSans-30" x="83.789062"/>
       <use xlink:href="#DejaVuSans-2e" x="147.412109"/>
       <use xlink:href="#DejaVuSans-35" x="179.199219"/>
      </g>
     </g>
    </g>
    <g id="ytick_3">
     <g id="line2d_28">
      <g>
       <use xlink:href="#m69ba69fd6a" x="38.482813" y="160.66" style="stroke: #000000; stroke-width: 0.8"/>
      </g>
     </g>
     <g id="text_8">
      <!-- 0.0 -->
      <g transform="translate(15.579688 164.459219) scale(0.1 -0.1)">
       <use xlink:href="#DejaVuSans-30"/>
       <use xlink:href="#DejaVuSans-2e" x="63.623047"/>
       <use xlink:href="#DejaVuSans-30" x="95.410156"/>
      </g>
     </g>
    </g>
    <g id="ytick_4">
     <g id="line2d_29">
      <g>
       <use xlink:href="#m69ba69fd6a" x="38.482813" y="99.177628" style="stroke: #000000; stroke-width: 0.8"/>
      </g>
     </g>
     <g id="text_9">
      <!-- 0.5 -->
      <g transform="translate(15.579688 102.976847) scale(0.1 -0.1)">
       <use xlink:href="#DejaVuSans-30"/>
       <use xlink:href="#DejaVuSans-2e" x="63.623047"/>
       <use xlink:href="#DejaVuSans-35" x="95.410156"/>
      </g>
     </g>
    </g>
    <g id="ytick_5">
     <g id="line2d_30">
      <g>
       <use xlink:href="#m69ba69fd6a" x="38.482813" y="37.695256" style="stroke: #000000; stroke-width: 0.8"/>
      </g>
     </g>
     <g id="text_10">
      <!-- 1.0 -->
      <g transform="translate(15.579688 41.494475) scale(0.1 -0.1)">
       <use xlink:href="#DejaVuSans-31"/>
       <use xlink:href="#DejaVuSans-2e" x="63.623047"/>
       <use xlink:href="#DejaVuSans-30" x="95.410156"/>
      </g>
     </g>
    </g>
    <g id="ytick_6">
     <g id="line2d_31">
      <defs>
       <path id="m9d680bb33b" d="M 0 0 
L -2 0 
" style="stroke: #000000; stroke-width: 0.6"/>
      </defs>
      <g>
       <use xlink:href="#m9d680bb33b" x="38.482813" y="308.217692" style="stroke: #000000; stroke-width: 0.6"/>
      </g>
     </g>
    </g>
    <g id="ytick_7">
     <g id="line2d_32">
      <g>
       <use xlink:href="#m9d680bb33b" x="38.482813" y="295.921218" style="stroke: #000000; stroke-width: 0.6"/>
      </g>
     </g>
    </g>
    <g id="ytick_8">
     <g id="line2d_33">
      <g>
       <use xlink:href="#m9d680bb33b" x="38.482813" y="271.328269" style="stroke: #000000; stroke-width: 0.6"/>
      </g>
     </g>
    </g>
    <g id="ytick_9">
     <g id="line2d_34">
      <g>
       <use xlink:href="#m9d680bb33b" x="38.482813" y="259.031795" style="stroke: #000000; stroke-width: 0.6"/>
      </g>
     </g>
    </g>
    <g id="ytick_10">
     <g id="line2d_35">
      <g>
       <use xlink:href="#m9d680bb33b" x="38.482813" y="246.735321" style="stroke: #000000; stroke-width: 0.6"/>
      </g>
     </g>
    </g>
    <g id="ytick_11">
     <g id="line2d_36">
      <g>
       <use xlink:href="#m9d680bb33b" x="38.482813" y="234.438846" style="stroke: #000000; stroke-width: 0.6"/>
      </g>
     </g>
    </g>
    <g id="ytick_12">
     <g id="line2d_37">
      <g>
       <use xlink:href="#m9d680bb33b" x="38.482813" y="209.845897" style="stroke: #000000; stroke-width: 0.6"/>
      </g>
     </g>
    </g>
    <g id="ytick_13">
     <g id="line2d_38">
      <g>
       <use xlink:href="#m9d680bb33b" x="38.482813" y="197.549423" style="stroke: #000000; stroke-width: 0.6"/>
      </g>
     </g>
    </g>
    <g id="ytick_14">
     <g id="line2d_39">
      <g>
       <use xlink:href="#m9d680bb33b" x="38.482813" y="185.252949" style="stroke: #000000; stroke-width: 0.6"/>
      </g>
     </g>
    </g>
    <g id="ytick_15">
     <g id="line2d_40">
      <g>
       <use xlink:href="#m9d680bb33b" x="38.482813" y="172.956474" style="stroke: #000000; stroke-width: 0.6"/>
      </g>
     </g>
    </g>
    <g id="ytick_16">
     <g id="line2d_41">
      <g>
       <use xlink:href="#m9d680bb33b" x="38.482813" y="148.363526" style="stroke: #000000; stroke-width: 0.6"/>
      </g>
     </g>
    </g>
    <g id="ytick_17">
     <g id="line2d_42">
      <g>
       <use xlink:href="#m9d680bb33b" x="38.482813" y="136.067051" style="stroke: #000000; stroke-width: 0.6"/>
      </g>
     </g>
    </g>
    <g id="ytick_18">
     <g id="line2d_43">
      <g>
       <use xlink:href="#m9d680bb33b" x="38.482813" y="123.770577" style="stroke: #000000; stroke-width: 0.6"/>
      </g>
     </g>
    </g>
    <g id="ytick_19">
     <g id="line2d_44">
      <g>
       <use xlink:href="#m9d680bb33b" x="38.482813" y="111.474103" style="stroke: #000000; stroke-width: 0.6"/>
      </g>
     </g>
    </g>
    <g id="ytick_20">
     <g id="line2d_45">
      <g>
       <use xlink:href="#m9d680bb33b" x="38.482813" y="86.881154" style="stroke: #000000; stroke-width: 0.6"/>
      </g>
     </g>
    </g>
    <g id="ytick_21">
     <g id="line2d_46">
      <g>
       <use xlink:href="#m9d680bb33b" x="38.482813" y="74.584679" style="stroke: #000000; stroke-width: 0.6"/>
      </g>
     </g>
    </g>
    <g id="ytick_22">
     <g id="line2d_47">
      <g>
       <use xlink:href="#m9d680bb33b" x="38.482813" y="62.288205" style="stroke: #000000; stroke-width: 0.6"/>
      </g>
     </g>
    </g>
    <g id="ytick_23">
     <g id="line2d_48">
      <g>
       <use xlink:href="#m9d680bb33b" x="38.482813" y="49.991731" style="stroke: #000000; stroke-width: 0.6"/>
      </g>
     </g>
    </g>
    <g id="ytick_24">
     <g id="line2d_49">
      <g>
       <use xlink:href="#m9d680bb33b" x="38.482813" y="25.398782" style="stroke: #000000; stroke-width: 0.6"/>
      </g>
     </g>
    </g>
    <g id="ytick_25">
     <g id="line2d_50">
      <g>
       <use xlink:href="#m9d680bb33b" x="38.482813" y="13.102308" style="stroke: #000000; stroke-width: 0.6"/>
      </g>
     </g>
    </g>
   </g>
   <g id="PathCollection_3">
    <path d="M 177.088011 282.722385 
L 175.127143 282.46937 
L 175.107371 282.466777 
L 173.126731 282.174552 
L 171.146091 281.849856 
L 169.165451 281.492692 
L 167.18481 281.103058 
L 165.20417 280.680954 
L 164.366623 280.48873 
L 163.22353 280.222008 
L 161.24289 279.726848 
L 159.26225 279.198678 
L 157.28161 278.637496 
L 156.850255 278.50809 
L 155.300969 278.035426 
L 153.320329 277.397593 
L 151.339689 276.72619 
L 150.781324 276.52745 
L 149.359049 276.012488 
L 147.378409 275.261211 
L 145.576875 274.546809 
L 145.397769 274.474538 
L 143.417128 273.640585 
L 141.436488 272.771883 
L 140.985501 272.566169 
L 139.455848 271.855973 
L 137.475208 270.901022 
L 136.844223 270.585529 
L 135.494568 269.898432 
L 133.513928 268.854095 
L 133.057051 268.604889 
L 131.533287 267.758354 
L 129.55775 266.624249 
L 129.552647 266.621264 
L 127.572007 265.425406 
L 126.316393 264.643609 
L 125.591367 264.183496 
L 123.610727 262.888462 
L 123.275708 262.662969 
L 121.630087 261.533621 
L 120.424089 260.682328 
L 119.649446 260.124586 
L 117.726612 258.701688 
L 117.668806 258.658039 
L 115.688166 257.122032 
L 115.184365 256.721048 
L 113.707526 255.521116 
L 112.770676 254.740408 
L 111.726886 253.852076 
L 110.474728 252.759768 
L 109.746246 252.110468 
L 108.288111 250.779128 
L 107.765605 250.291456 
L 106.203196 248.798487 
L 105.784965 248.389761 
L 104.213051 246.817847 
L 103.804325 246.399616 
L 102.311356 244.837207 
L 101.823685 244.314702 
L 100.492344 242.856567 
L 99.843045 242.128084 
L 98.750737 240.875927 
L 97.862405 239.832136 
L 97.081697 238.895287 
L 95.881764 237.418447 
L 95.48078 236.914646 
L 93.944774 234.934006 
L 93.901124 234.8762 
L 92.478227 232.953366 
L 91.920484 232.178723 
L 91.069192 230.972726 
L 89.939844 229.327105 
L 89.71435 228.992086 
L 88.419316 227.011446 
L 87.959204 226.28642 
L 87.177406 225.030805 
L 85.981548 223.050165 
L 85.978564 223.045063 
L 84.844459 221.069525 
L 83.997923 219.545762 
L 83.748718 219.088885 
L 82.70438 217.108245 
L 82.017283 215.75859 
L 81.701791 215.127605 
L 80.746839 213.146964 
L 80.036643 211.617311 
L 79.83093 211.166324 
L 78.962228 209.185684 
L 78.128274 207.205044 
L 78.056003 207.025937 
L 77.341602 205.224404 
L 76.590325 203.243764 
L 76.075363 201.821488 
L 75.876623 201.263123 
L 75.205219 199.282483 
L 74.567386 197.301843 
L 74.094723 195.752558 
L 73.965316 195.321203 
L 73.404135 193.340563 
L 72.875964 191.359923 
L 72.380804 189.379282 
L 72.114083 188.23619 
L 71.921858 187.398642 
L 71.499755 185.418002 
L 71.110121 183.437362 
L 70.752956 181.456722 
L 70.428261 179.476082 
L 70.136035 177.495441 
L 70.133442 177.475669 
L 69.880427 175.514801 
L 69.656806 173.534161 
L 69.465132 171.553521 
L 69.305403 169.572881 
L 69.177619 167.592241 
L 69.081782 165.6116 
L 69.01789 163.63096 
L 68.985944 161.65032 
L 68.985944 159.66968 
L 69.01789 157.68904 
L 69.081782 155.7084 
L 69.177619 153.727759 
L 69.305403 151.747119 
L 69.465132 149.766479 
L 69.656806 147.785839 
L 69.880427 145.805199 
L 70.133442 143.844331 
L 70.136035 143.824559 
L 70.428261 141.843918 
L 70.752956 139.863278 
L 71.110121 137.882638 
L 71.499755 135.901998 
L 71.921858 133.921358 
L 72.114083 133.08381 
L 72.380804 131.940718 
L 72.875964 129.960077 
L 73.404135 127.979437 
L 73.965316 125.998797 
L 74.094723 125.567442 
L 74.567386 124.018157 
L 75.205219 122.037517 
L 75.876623 120.056877 
L 76.075363 119.498512 
L 76.590325 118.076236 
L 77.341602 116.095596 
L 78.056003 114.294063 
L 78.128274 114.114956 
L 78.962228 112.134316 
L 79.83093 110.153676 
L 80.036643 109.702689 
L 80.746839 108.173036 
L 81.701791 106.192395 
L 82.017283 105.56141 
L 82.70438 104.211755 
L 83.748718 102.231115 
L 83.997923 101.774238 
L 84.844459 100.250475 
L 85.978564 98.274937 
L 85.981548 98.269835 
L 87.177406 96.289195 
L 87.959204 95.03358 
L 88.419316 94.308554 
L 89.71435 92.327914 
L 89.939844 91.992895 
L 91.069192 90.347274 
L 91.920484 89.141277 
L 92.478227 88.366634 
L 93.901124 86.4438 
L 93.944774 86.385994 
L 95.48078 84.405354 
L 95.881764 83.901553 
L 97.081697 82.424713 
L 97.862405 81.487864 
L 98.750737 80.444073 
L 99.843045 79.191916 
L 100.492344 78.463433 
L 101.823685 77.005298 
L 102.311356 76.482793 
L 103.804325 74.920384 
L 104.213051 74.502153 
L 105.784965 72.930239 
L 106.203196 72.521513 
L 107.765605 71.028544 
L 108.288111 70.540872 
L 109.746246 69.209532 
L 110.474728 68.560232 
L 111.726886 67.467924 
L 112.770676 66.579592 
L 113.707526 65.798884 
L 115.184365 64.598952 
L 115.688166 64.197968 
L 117.668806 62.661961 
L 117.726612 62.618312 
L 119.649446 61.195414 
L 120.424089 60.637672 
L 121.630087 59.786379 
L 123.275708 58.657031 
L 123.610727 58.431538 
L 125.591367 57.136504 
L 126.316393 56.676391 
L 127.572007 55.894594 
L 129.552647 54.698736 
L 129.55775 54.695751 
L 131.533287 53.561646 
L 133.057051 52.715111 
L 133.513928 52.465905 
L 135.494568 51.421568 
L 136.844223 50.734471 
L 137.475208 50.418978 
L 139.455848 49.464027 
L 140.985501 48.753831 
L 141.436488 48.548117 
L 143.417128 47.679415 
L 145.397769 46.845462 
L 145.576875 46.773191 
L 147.378409 46.058789 
L 149.359049 45.307512 
L 150.781324 44.79255 
L 151.339689 44.59381 
L 153.320329 43.922407 
L 155.300969 43.284574 
L 156.850255 42.81191 
L 157.28161 42.682504 
L 159.26225 42.121322 
L 161.24289 41.593152 
L 163.22353 41.097992 
L 164.366623 40.83127 
L 165.20417 40.639046 
L 167.18481 40.216942 
L 169.165451 39.827308 
L 171.146091 39.470144 
L 173.126731 39.145448 
L 175.107371 38.853223 
L 175.127143 38.85063 
L 177.088011 38.597615 
L 179.068651 38.373994 
L 181.049292 38.182319 
L 183.029932 38.02259 
L 185.010572 37.894807 
L 186.991212 37.798969 
L 188.971852 37.735078 
L 190.952492 37.703132 
L 192.933133 37.703132 
L 194.913773 37.735078 
L 196.894413 37.798969 
L 198.875053 37.894807 
L 200.855693 38.02259 
L 202.836333 38.182319 
L 204.816974 38.373994 
L 206.797614 38.597615 
L 208.758482 38.85063 
L 208.778254 38.853223 
L 210.758894 39.145448 
L 212.739534 39.470144 
L 214.720174 39.827308 
L 216.700815 40.216942 
L 218.681455 40.639046 
L 219.519002 40.83127 
L 220.662095 41.097992 
L 222.642735 41.593152 
L 224.623375 42.121322 
L 226.604015 42.682504 
L 227.03537 42.81191 
L 228.584656 43.284574 
L 230.565296 43.922407 
L 232.545936 44.59381 
L 233.104301 44.79255 
L 234.526576 45.307512 
L 236.507216 46.058789 
L 238.30875 46.773191 
L 238.487856 46.845462 
L 240.468497 47.679415 
L 242.449137 48.548117 
L 242.900124 48.753831 
L 244.429777 49.464027 
L 246.410417 50.418978 
L 247.041402 50.734471 
L 248.391057 51.421568 
L 250.371697 52.465905 
L 250.828574 52.715111 
L 252.352338 53.561646 
L 254.327875 54.695751 
L 254.332978 54.698736 
L 256.313618 55.894594 
L 257.569232 56.676391 
L 258.294258 57.136504 
L 260.274898 58.431538 
L 260.609917 58.657031 
L 262.255538 59.786379 
L 263.461536 60.637672 
L 264.236179 61.195414 
L 266.159013 62.618312 
L 266.216819 62.661961 
L 268.197459 64.197968 
L 268.70126 64.598952 
L 270.178099 65.798884 
L 271.114949 66.579592 
L 272.158739 67.467924 
L 273.410897 68.560232 
L 274.139379 69.209532 
L 275.597514 70.540872 
L 276.12002 71.028544 
L 277.682429 72.521513 
L 278.10066 72.930239 
L 279.672574 74.502153 
L 280.0813 74.920384 
L 281.574269 76.482793 
L 282.06194 77.005298 
L 283.393281 78.463433 
L 284.04258 79.191916 
L 285.134888 80.444073 
L 286.02322 81.487864 
L 286.803928 82.424713 
L 288.003861 83.901553 
L 288.404845 84.405354 
L 289.940851 86.385994 
L 289.984501 86.4438 
L 291.407398 88.366634 
L 291.965141 89.141277 
L 292.816433 90.347274 
L 293.945781 91.992895 
L 294.171275 92.327914 
L 295.466309 94.308554 
L 295.926421 95.03358 
L 296.708219 96.289195 
L 297.904077 98.269835 
L 297.907061 98.274937 
L 299.041166 100.250475 
L 299.887702 101.774238 
L 300.136907 102.231115 
L 301.181245 104.211755 
L 301.868342 105.56141 
L 302.183834 106.192395 
L 303.138786 108.173036 
L 303.848982 109.702689 
L 304.054695 110.153676 
L 304.923397 112.134316 
L 305.757351 114.114956 
L 305.829622 114.294063 
L 306.544023 116.095596 
L 307.2953 118.076236 
L 307.810262 119.498512 
L 308.009002 120.056877 
L 308.680406 122.037517 
L 309.318239 124.018157 
L 309.790902 125.567442 
L 309.920309 125.998797 
L 310.48149 127.979437 
L 311.009661 129.960077 
L 311.504821 131.940718 
L 311.771542 133.08381 
L 311.963767 133.921358 
L 312.38587 135.901998 
L 312.775504 137.882638 
L 313.132669 139.863278 
L 313.457364 141.843918 
L 313.74959 143.824559 
L 313.752183 143.844331 
L 314.005198 145.805199 
L 314.228819 147.785839 
L 314.420493 149.766479 
L 314.580222 151.747119 
L 314.708006 153.727759 
L 314.803843 155.7084 
L 314.867735 157.68904 
L 314.899681 159.66968 
L 314.899681 161.65032 
L 314.867735 163.63096 
L 314.803843 165.6116 
L 314.708006 167.592241 
L 314.580222 169.572881 
L 314.420493 171.553521 
L 314.228819 173.534161 
L 314.005198 175.514801 
L 313.752183 177.475669 
L 313.74959 177.495441 
L 313.457364 179.476082 
L 313.132669 181.456722 
L 312.775504 183.437362 
L 312.38587 185.418002 
L 311.963767 187.398642 
L 311.771542 188.23619 
L 311.504821 189.379282 
L 311.009661 191.359923 
L 310.48149 193.340563 
L 309.920309 195.321203 
L 309.790902 195.752558 
L 309.318239 197.301843 
L 308.680406 199.282483 
L 308.009002 201.263123 
L 307.810262 201.821488 
L 307.2953 203.243764 
L 306.544023 205.224404 
L 305.829622 207.025937 
L 305.757351 207.205044 
L 304.923397 209.185684 
L 304.054695 211.166324 
L 303.848982 211.617311 
L 303.138786 213.146964 
L 302.183834 215.127605 
L 301.868342 215.75859 
L 301.181245 217.108245 
L 300.136907 219.088885 
L 299.887702 219.545762 
L 299.041166 221.069525 
L 297.907061 223.045063 
L 297.904077 223.050165 
L 296.708219 225.030805 
L 295.926421 226.28642 
L 295.466309 227.011446 
L 294.171275 228.992086 
L 293.945781 229.327105 
L 292.816433 230.972726 
L 291.965141 232.178723 
L 291.407398 232.953366 
L 289.984501 234.8762 
L 289.940851 234.934006 
L 288.404845 236.914646 
L 288.003861 237.418447 
L 286.803928 238.895287 
L 286.02322 239.832136 
L 285.134888 240.875927 
L 284.04258 242.128084 
L 283.393281 242.856567 
L 282.06194 244.314702 
L 281.574269 244.837207 
L 280.0813 246.399616 
L 279.672574 246.817847 
L 278.10066 248.389761 
L 277.682429 248.798487 
L 276.12002 250.291456 
L 275.597514 250.779128 
L 274.139379 252.110468 
L 273.410897 252.759768 
L 272.158739 253.852076 
L 271.114949 254.740408 
L 270.178099 255.521116 
L 268.70126 256.721048 
L 268.197459 257.122032 
L 266.216819 258.658039 
L 266.159013 258.701688 
L 264.236179 260.124586 
L 263.461536 260.682328 
L 262.255538 261.533621 
L 260.609917 262.662969 
L 260.274898 262.888462 
L 258.294258 264.183496 
L 257.569232 264.643609 
L 256.313618 265.425406 
L 254.332978 266.621264 
L 254.327875 266.624249 
L 252.352338 267.758354 
L 250.828574 268.604889 
L 250.371697 268.854095 
L 248.391057 269.898432 
L 247.041402 270.585529 
L 246.410417 270.901022 
L 244.429777 271.855973 
L 242.900124 272.566169 
L 242.449137 272.771883 
L 240.468497 273.640585 
L 238.487856 274.474538 
L 238.30875 274.546809 
L 236.507216 275.261211 
L 234.526576 276.012488 
L 233.104301 276.52745 
L 232.545936 276.72619 
L 230.565296 277.397593 
L 228.584656 278.035426 
L 227.03537 278.50809 
L 226.604015 278.637496 
L 224.623375 279.198678 
L 222.642735 279.726848 
L 220.662095 280.222008 
L 219.519002 280.48873 
L 218.681455 280.680954 
L 216.700815 281.103058 
L 214.720174 281.492692 
L 212.739534 281.849856 
L 210.758894 282.174552 
L 208.778254 282.466777 
L 208.758482 282.46937 
L 206.797614 282.722385 
L 204.816974 282.946006 
L 202.836333 283.137681 
L 200.855693 283.29741 
L 198.875053 283.425193 
L 196.894413 283.521031 
L 194.913773 283.584922 
L 192.933133 283.616868 
L 190.952492 283.616868 
L 188.971852 283.584922 
L 186.991212 283.521031 
L 185.010572 283.425193 
L 183.029932 283.29741 
L 181.049292 283.137681 
L 179.068651 282.946006 
L 177.088011 282.722385 
z
" clip-path="url(#p0a5d29aa3b)" style="fill: none; stroke: #0000ff; stroke-width: 1.5"/>
   </g>
   <g id="patch_3">
    <path d="M 38.482813 314.12 
L 38.482813 7.2 
" style="fill: none; stroke: #000000; stroke-width: 0.8; stroke-linejoin: miter; stroke-linecap: square"/>
   </g>
   <g id="patch_4">
    <path d="M 345.402812 314.12 
L 345.402812 7.2 
" style="fill: none; stroke: #000000; stroke-width: 0.8; stroke-linejoin: miter; stroke-linecap: square"/>
   </g>
   <g id="patch_5">
    <path d="M 38.482812 314.12 
L 345.402812 314.12 
" style="fill: none; stroke: #000000; stroke-width: 0.8; stroke-linejoin: miter; stroke-linecap: square"/>
   </g>
   <g id="patch_6">
    <path d="M 38.482812 7.2 
L 345.402812 7.2 
" style="fill: none; stroke: #000000; stroke-width: 0.8; stroke-linejoin: miter; stroke-linecap: square"/>
   </g>
   <g id="text_11">
    <!-- $Q$ -->
    <g transform="translate(283.914607 66.703205) scale(0.16 -0.16)">
     <defs>
      <path id="Cmmi10-51" d="M 1947 -141 
Q 1466 -141 1094 79 
Q 722 300 520 692 
Q 319 1084 319 1563 
Q 319 2259 714 2950 
Q 1109 3641 1756 4077 
Q 2403 4513 3109 4513 
Q 3475 4513 3778 4381 
Q 4081 4250 4290 4017 
Q 4500 3784 4614 3471 
Q 4728 3159 4728 2791 
Q 4728 2366 4581 1936 
Q 4434 1506 4171 1136 
Q 3909 766 3559 484 
Q 3209 203 2809 38 
Q 2850 -256 2934 -425 
Q 3019 -594 3256 -594 
Q 3506 -594 3726 -412 
Q 3947 -231 4006 13 
Q 4019 72 4078 72 
Q 4147 72 4147 -13 
Q 4100 -219 4008 -430 
Q 3916 -641 3786 -823 
Q 3656 -1006 3478 -1123 
Q 3300 -1241 3084 -1241 
Q 2547 -1241 2547 -550 
Q 2547 -509 2562 -332 
Q 2578 -156 2578 -44 
Q 2269 -141 1947 -141 
z
M 1709 300 
Q 1709 44 1991 44 
Q 2275 44 2591 184 
L 2591 244 
Q 2591 503 2509 648 
Q 2428 794 2194 794 
Q 2078 794 1964 723 
Q 1850 653 1779 539 
Q 1709 425 1709 300 
z
M 1544 288 
Q 1544 456 1637 612 
Q 1731 769 1881 864 
Q 2031 959 2203 959 
Q 2481 959 2607 771 
Q 2734 584 2778 281 
Q 3188 525 3500 978 
Q 3813 1431 3977 1973 
Q 4141 2516 4141 3003 
Q 4141 3356 4023 3656 
Q 3906 3956 3664 4140 
Q 3422 4325 3066 4325 
Q 2722 4325 2403 4156 
Q 2084 3988 1813 3706 
Q 1550 3434 1342 3032 
Q 1134 2631 1021 2193 
Q 909 1756 909 1356 
Q 909 947 1068 612 
Q 1228 278 1569 128 
Q 1544 194 1544 288 
z
" transform="scale(0.015625)"/>
     </defs>
     <use xlink:href="#Cmmi10-51" transform="translate(0 0.484375)"/>
    </g>
   </g>
   <g id="text_12">
    <!-- $P$ -->
    <g transform="translate(51.481595 140.482051) scale(0.16 -0.16)">
     <defs>
      <path id="Cmmi10-50" d="M 313 0 
Q 250 0 250 84 
Q 253 100 262 139 
Q 272 178 289 201 
Q 306 225 331 225 
Q 722 225 878 269 
Q 959 297 997 441 
L 1875 3956 
Q 1888 4019 1888 4044 
Q 1888 4113 1813 4122 
Q 1691 4147 1350 4147 
Q 1288 4147 1288 4231 
Q 1291 4247 1300 4286 
Q 1309 4325 1326 4348 
Q 1344 4372 1369 4372 
L 3578 4372 
Q 3881 4372 4165 4264 
Q 4450 4156 4631 3934 
Q 4813 3713 4813 3397 
Q 4813 2991 4527 2672 
Q 4241 2353 3814 2175 
Q 3388 1997 2988 1997 
L 1947 1997 
L 1556 416 
Q 1544 353 1544 325 
Q 1544 300 1551 283 
Q 1559 266 1573 261 
Q 1588 256 1619 250 
Q 1741 225 2081 225 
Q 2144 225 2144 141 
Q 2122 50 2109 25 
Q 2097 0 2034 0 
L 313 0 
z
M 1978 2188 
L 2875 2188 
Q 3497 2188 3822 2522 
Q 3988 2688 4092 3000 
Q 4197 3313 4197 3566 
Q 4197 3881 3956 4014 
Q 3716 4147 3359 4147 
L 2747 4147 
Q 2572 4147 2515 4117 
Q 2459 4088 2413 3928 
L 1978 2188 
z
" transform="scale(0.015625)"/>
     </defs>
     <use xlink:href="#Cmmi10-50" transform="translate(0 0.6875)"/>
    </g>
   </g>
  </g>
 </g>
 <defs>
  <clipPath id="p0a5d29aa3b">
   <rect x="38.482813" y="7.2" width="306.92" height="306.92"/>
  </clipPath>
 </defs>
</svg>
