<?xml version="1.0" encoding="utf-8" standalone="no"?>
<!DOCTYPE svg PUBLIC "-//W3C//DTD SVG 1.1//EN"
  "http://www.w3.org/Graphics/SVG/1.1/DTD/svg11.dtd">
<svg xmlns:xlink="http://www.w3.org/1999/xlink" width="451.423887pt" height="337.377122pt" viewBox="0 0 451.423887 337.377122" xmlns="http://www.w3.org/2000/svg" version="1.1">
 <metadata>
  <rdf:RDF xmlns:dc="http://purl.org/dc/elements/1.1/" xmlns:cc="http://creativecommons.org/ns#" xmlns:rdf="http://www.w3.org/1999/02/22-rdf-syntax-ns#">
   <cc:Work>
    <dc:type rdf:resource="http://purl.org/dc/dcmitype/StillImage"/>
    <dc:date>2024-10-20T07:45:50.485093</dc:date>
    <dc:format>image/svg+xml</dc:format>
    <dc:creator>
     <cc:Agent>
      <dc:title>Matplotlib v3.6.2, https://matplotlib.org/</dc:title>
     </cc:Agent>
    </dc:creator>
   </cc:Work>
  </rdf:RDF>
 </metadata>
 <defs>
  <style type="text/css">*{stroke-linejoin: round; stroke-linecap: butt}</style>
 </defs>
 <g id="figure_1">
  <g id="patch_1">
   <path d="M 0 337.377122 
L 451.423887 337.377122 
L 451.423887 0 
L 0 0 
z
" style="fill: #ffffff"/>
  </g>
  <g id="axes_1">
   <g id="patch_2">
    <path d="M 8.826983 330.177122 
L 444.223887 330.177122 
L 444.223887 7.2 
L 8.826983 7.2 
z
" style="fill: #ffffff"/>
   </g>
   <g id="matplotlib.axis_1">
    <g id="xtick_1">
     <g id="line2d_1">
      <defs>
       <path id="m049d33977a" d="M 0 0 
L 0 3.5 
" style="stroke: #000000; stroke-width: 0.8"/>
      </defs>
      <g>
       <use xlink:href="#m049d33977a" x="17.2" y="168.700951" style="stroke: #000000; stroke-width: 0.8"/>
      </g>
     </g>
     <g id="text_1">
      <!-- $-4 \, \pi$ -->
      <g transform="translate(7.2 183.299388) scale(0.1 -0.1)">
       <defs>
        <path id="Cmsy10-a1" d="M 653 1472 
Q 600 1472 565 1512 
Q 531 1553 531 1600 
Q 531 1647 565 1687 
Q 600 1728 653 1728 
L 4325 1728 
Q 4375 1728 4408 1687 
Q 4441 1647 4441 1600 
Q 4441 1553 4408 1512 
Q 4375 1472 4325 1472 
L 653 1472 
z
" transform="scale(0.015625)"/>
        <path id="Cmr10-34" d="M 178 1056 
L 178 1281 
L 2156 4231 
Q 2178 4263 2222 4263 
L 2316 4263 
Q 2388 4263 2388 4191 
L 2388 1281 
L 3016 1281 
L 3016 1056 
L 2388 1056 
L 2388 428 
Q 2388 297 2575 261 
Q 2763 225 3009 225 
L 3009 0 
L 1247 0 
L 1247 225 
Q 1494 225 1681 261 
Q 1869 297 1869 428 
L 1869 1056 
L 178 1056 
z
M 391 1281 
L 1906 1281 
L 1906 3547 
L 391 1281 
z
" transform="scale(0.015625)"/>
        <path id="Cmmi10-bc" d="M 647 109 
Q 647 144 672 213 
Q 850 584 1004 942 
Q 1159 1300 1282 1639 
Q 1406 1978 1509 2363 
L 1100 2363 
Q 866 2363 662 2216 
Q 459 2069 325 1844 
Q 313 1819 288 1819 
L 213 1819 
Q 153 1819 153 1881 
Q 153 1894 166 1919 
Q 375 2275 614 2517 
Q 853 2759 1153 2759 
L 3475 2759 
Q 3541 2759 3587 2715 
Q 3634 2672 3634 2597 
Q 3634 2503 3567 2433 
Q 3500 2363 3406 2363 
L 2591 2363 
Q 2488 1859 2478 1381 
Q 2478 766 2694 269 
Q 2713 231 2713 191 
Q 2713 122 2672 62 
Q 2631 3 2567 -34 
Q 2503 -72 2431 -72 
Q 2263 -72 2200 203 
Q 2138 478 2138 738 
Q 2138 1103 2200 1442 
Q 2263 1781 2400 2363 
L 1703 2363 
Q 1197 313 1094 103 
Q 1003 -72 844 -72 
Q 766 -72 706 -20 
Q 647 31 647 109 
z
" transform="scale(0.015625)"/>
       </defs>
       <use xlink:href="#Cmsy10-a1" transform="translate(0 0.390625)"/>
       <use xlink:href="#Cmr10-34" transform="translate(77.685547 0.390625)"/>
       <use xlink:href="#Cmmi10-bc" transform="translate(142.318001 0.390625)"/>
      </g>
     </g>
    </g>
    <g id="xtick_2">
     <g id="line2d_2">
      <g>
       <use xlink:href="#m049d33977a" x="69.531359" y="168.700951" style="stroke: #000000; stroke-width: 0.8"/>
      </g>
     </g>
     <g id="text_2">
      <!-- $-3 \, \pi$ -->
      <g transform="translate(59.531359 183.299388) scale(0.1 -0.1)">
       <defs>
        <path id="Cmr10-33" d="M 609 494 
Q 759 275 1012 169 
Q 1266 63 1556 63 
Q 1928 63 2084 380 
Q 2241 697 2241 1100 
Q 2241 1281 2208 1462 
Q 2175 1644 2097 1800 
Q 2019 1956 1883 2050 
Q 1747 2144 1550 2144 
L 1125 2144 
Q 1069 2144 1069 2203 
L 1069 2259 
Q 1069 2309 1125 2309 
L 1478 2338 
Q 1703 2338 1851 2506 
Q 2000 2675 2069 2917 
Q 2138 3159 2138 3378 
Q 2138 3684 1994 3881 
Q 1850 4078 1556 4078 
Q 1313 4078 1091 3986 
Q 869 3894 738 3706 
Q 750 3709 759 3711 
Q 769 3713 781 3713 
Q 925 3713 1022 3613 
Q 1119 3513 1119 3372 
Q 1119 3234 1022 3134 
Q 925 3034 781 3034 
Q 641 3034 541 3134 
Q 441 3234 441 3372 
Q 441 3647 606 3850 
Q 772 4053 1033 4158 
Q 1294 4263 1556 4263 
Q 1750 4263 1965 4205 
Q 2181 4147 2356 4039 
Q 2531 3931 2642 3762 
Q 2753 3594 2753 3378 
Q 2753 3109 2633 2881 
Q 2513 2653 2303 2487 
Q 2094 2322 1844 2241 
Q 2122 2188 2372 2031 
Q 2622 1875 2773 1631 
Q 2925 1388 2925 1106 
Q 2925 753 2731 467 
Q 2538 181 2222 20 
Q 1906 -141 1556 -141 
Q 1256 -141 954 -26 
Q 653 88 461 316 
Q 269 544 269 863 
Q 269 1022 375 1128 
Q 481 1234 641 1234 
Q 744 1234 830 1186 
Q 916 1138 964 1050 
Q 1013 963 1013 863 
Q 1013 706 903 600 
Q 794 494 641 494 
L 609 494 
z
" transform="scale(0.015625)"/>
       </defs>
       <use xlink:href="#Cmsy10-a1" transform="translate(0 0.390625)"/>
       <use xlink:href="#Cmr10-33" transform="translate(77.685547 0.390625)"/>
       <use xlink:href="#Cmmi10-bc" transform="translate(142.318001 0.390625)"/>
      </g>
     </g>
    </g>
    <g id="xtick_3">
     <g id="line2d_3">
      <g>
       <use xlink:href="#m049d33977a" x="121.862717" y="168.700951" style="stroke: #000000; stroke-width: 0.8"/>
      </g>
     </g>
     <g id="text_3">
      <!-- $-2 \, \pi$ -->
      <g transform="translate(111.862717 183.299388) scale(0.1 -0.1)">
       <defs>
        <path id="Cmr10-32" d="M 319 0 
L 319 172 
Q 319 188 331 206 
L 1325 1306 
Q 1550 1550 1690 1715 
Q 1831 1881 1968 2097 
Q 2106 2313 2186 2536 
Q 2266 2759 2266 3009 
Q 2266 3272 2169 3511 
Q 2072 3750 1880 3894 
Q 1688 4038 1416 4038 
Q 1138 4038 916 3870 
Q 694 3703 603 3438 
Q 628 3444 672 3444 
Q 816 3444 917 3347 
Q 1019 3250 1019 3097 
Q 1019 2950 917 2848 
Q 816 2747 672 2747 
Q 522 2747 420 2851 
Q 319 2956 319 3097 
Q 319 3338 409 3548 
Q 500 3759 670 3923 
Q 841 4088 1055 4175 
Q 1269 4263 1509 4263 
Q 1875 4263 2190 4108 
Q 2506 3953 2690 3670 
Q 2875 3388 2875 3009 
Q 2875 2731 2753 2481 
Q 2631 2231 2440 2026 
Q 2250 1822 1953 1562 
Q 1656 1303 1563 1216 
L 838 519 
L 1453 519 
Q 1906 519 2211 526 
Q 2516 534 2534 550 
Q 2609 631 2688 1141 
L 2875 1141 
L 2694 0 
L 319 0 
z
" transform="scale(0.015625)"/>
       </defs>
       <use xlink:href="#Cmsy10-a1" transform="translate(0 0.390625)"/>
       <use xlink:href="#Cmr10-32" transform="translate(77.685547 0.390625)"/>
       <use xlink:href="#Cmmi10-bc" transform="translate(142.318001 0.390625)"/>
      </g>
     </g>
    </g>
    <g id="xtick_4">
     <g id="line2d_4">
      <g>
       <use xlink:href="#m049d33977a" x="174.194076" y="168.700951" style="stroke: #000000; stroke-width: 0.8"/>
      </g>
     </g>
     <g id="text_4">
      <!-- $-\pi$ -->
      <g transform="translate(167.444076 183.299388) scale(0.1 -0.1)">
       <use xlink:href="#Cmsy10-a1" transform="translate(0 0.890625)"/>
       <use xlink:href="#Cmmi10-bc" transform="translate(77.685547 0.890625)"/>
      </g>
     </g>
    </g>
    <g id="xtick_5">
     <g id="line2d_5">
      <g>
       <use xlink:href="#m049d33977a" x="278.856793" y="168.700951" style="stroke: #000000; stroke-width: 0.8"/>
      </g>
     </g>
     <g id="text_5">
      <!-- $\pi$ -->
      <g transform="translate(276.006793 183.299388) scale(0.1 -0.1)">
       <use xlink:href="#Cmmi10-bc" transform="translate(0 0.890625)"/>
      </g>
     </g>
    </g>
    <g id="xtick_6">
     <g id="line2d_6">
      <g>
       <use xlink:href="#m049d33977a" x="331.188152" y="168.700951" style="stroke: #000000; stroke-width: 0.8"/>
      </g>
     </g>
     <g id="text_6">
      <!-- $2 \, \pi$ -->
      <g transform="translate(325.088152 183.299388) scale(0.1 -0.1)">
       <use xlink:href="#Cmr10-32" transform="translate(0 0.390625)"/>
       <use xlink:href="#Cmmi10-bc" transform="translate(64.632454 0.390625)"/>
      </g>
     </g>
    </g>
    <g id="xtick_7">
     <g id="line2d_7">
      <g>
       <use xlink:href="#m049d33977a" x="383.519511" y="168.700951" style="stroke: #000000; stroke-width: 0.8"/>
      </g>
     </g>
     <g id="text_7">
      <!-- $3 \, \pi$ -->
      <g transform="translate(377.419511 183.299388) scale(0.1 -0.1)">
       <use xlink:href="#Cmr10-33" transform="translate(0 0.390625)"/>
       <use xlink:href="#Cmmi10-bc" transform="translate(64.632454 0.390625)"/>
      </g>
     </g>
    </g>
    <g id="xtick_8">
     <g id="line2d_8">
      <g>
       <use xlink:href="#m049d33977a" x="435.85087" y="168.700951" style="stroke: #000000; stroke-width: 0.8"/>
      </g>
     </g>
     <g id="text_8">
      <!-- $4 \, \pi$ -->
      <g transform="translate(429.75087 183.299388) scale(0.1 -0.1)">
       <use xlink:href="#Cmr10-34" transform="translate(0 0.390625)"/>
       <use xlink:href="#Cmmi10-bc" transform="translate(64.632454 0.390625)"/>
      </g>
     </g>
    </g>
   </g>
   <g id="matplotlib.axis_2">
    <g id="ytick_1">
     <g id="line2d_9">
      <defs>
       <path id="m6bd6c96450" d="M 0 0 
L -3.5 0 
" style="stroke: #000000; stroke-width: 0.8"/>
      </defs>
      <g>
       <use xlink:href="#m6bd6c96450" x="226.525435" y="323.990803" style="stroke: #000000; stroke-width: 0.8"/>
      </g>
     </g>
     <g id="text_9">
      <!-- −1 -->
      <g transform="translate(204.783247 327.790022) scale(0.1 -0.1)">
       <defs>
        <path id="DejaVuSans-2212" d="M 678 2272 
L 4684 2272 
L 4684 1741 
L 678 1741 
L 678 2272 
z
" transform="scale(0.015625)"/>
        <path id="DejaVuSans-31" d="M 794 531 
L 1825 531 
L 1825 4091 
L 703 3866 
L 703 4441 
L 1819 4666 
L 2450 4666 
L 2450 531 
L 3481 531 
L 3481 0 
L 794 0 
L 794 531 
z
" transform="scale(0.015625)"/>
       </defs>
       <use xlink:href="#DejaVuSans-2212"/>
       <use xlink:href="#DejaVuSans-31" x="83.789062"/>
      </g>
     </g>
    </g>
    <g id="ytick_2">
     <g id="line2d_10">
      <g>
       <use xlink:href="#m6bd6c96450" x="226.525435" y="13.411098" style="stroke: #000000; stroke-width: 0.8"/>
      </g>
     </g>
     <g id="text_10">
      <!-- 1 -->
      <g transform="translate(213.162935 17.210317) scale(0.1 -0.1)">
       <use xlink:href="#DejaVuSans-31"/>
      </g>
     </g>
    </g>
   </g>
   <g id="line2d_11">
    <path d="M 17.2 13.411098 
L 18.222313 13.70346 
L 19.244627 14.579445 
L 20.317539 16.122816 
L 21.390451 18.298959 
L 22.925693 22.49484 
L 23.902629 25.813666 
L 24.879564 29.623825 
L 26.444489 36.717715 
L 28.009414 44.975629 
L 29.336884 52.839081 
L 31.997784 70.760782 
L 35.103746 94.798633 
L 36.729151 108.455914 
L 41.871003 154.785565 
L 47.482331 206.688847 
L 51.301946 239.91914 
L 52.835755 252.305985 
L 54.853385 267.505349 
L 56.455411 278.55288 
L 59.105857 294.556108 
L 60.593697 302.168906 
L 61.85043 307.772418 
L 63.107164 312.584716 
L 64.631582 317.32108 
L 65.652371 319.799374 
L 66.673161 321.71042 
L 68.255915 323.535816 
L 69.83867 323.964377 
L 71.31715 323.099277 
L 72.79563 321.018651 
L 74.419137 317.353472 
L 75.29908 314.774557 
L 76.179024 311.788115 
L 77.18752 307.874996 
L 78.196017 303.4519 
L 79.541809 296.783459 
L 81.945742 282.824328 
L 84.179037 267.723074 
L 86.378763 251.109973 
L 89.942959 221.28272 
L 95.544628 170.121767 
L 100.571033 123.908869 
L 102.87621 103.826131 
L 105.074273 85.826574 
L 107.201978 69.772651 
L 108.725233 59.255247 
L 110.248488 49.652413 
L 111.71897 41.325172 
L 113.234279 33.782498 
L 114.749588 27.355531 
L 115.612598 24.214594 
L 117.182303 19.500832 
L 118.752008 16.110983 
L 119.763004 14.643164 
L 120.774 13.74266 
L 121.945977 13.413038 
L 123.117953 13.851789 
L 124.217332 14.959933 
L 125.56705 17.235101 
L 126.916768 20.50416 
L 128.412637 25.262176 
L 130.187339 32.40264 
L 131.894245 40.729649 
L 134.52157 56.135395 
L 137.072795 73.773233 
L 138.791043 86.932291 
L 141.142838 106.32298 
L 145.178221 142.25974 
L 153.504731 218.839208 
L 156.699474 245.935254 
L 159.276769 265.773906 
L 160.804909 276.4697 
L 162.41487 286.756119 
L 164.141464 296.560803 
L 165.685369 304.168578 
L 167.908883 313.06716 
L 168.932016 316.306829 
L 169.955149 318.989816 
L 170.887468 320.941309 
L 171.819786 322.416019 
L 172.752105 323.409328 
L 173.684423 323.918125 
L 175.274053 323.664541 
L 176.372674 322.664557 
L 177.471295 320.995102 
L 178.475182 318.890347 
L 179.47907 316.24027 
L 180.80943 311.904892 
L 182.13979 306.656583 
L 183.552879 300.11955 
L 185.784674 287.890821 
L 188.390192 270.929081 
L 190.689026 253.876231 
L 193.298945 232.571622 
L 196.379878 205.451245 
L 207.280177 106.025478 
L 208.872076 92.754108 
L 212.231401 67.161717 
L 214.173299 54.184834 
L 215.674964 45.207309 
L 217.17663 37.232719 
L 218.330027 31.829497 
L 219.389284 27.444553 
L 220.44854 23.630613 
L 222.008402 19.085662 
L 223.568263 15.851723 
L 224.531207 14.522624 
L 225.494151 13.708612 
L 226.991815 13.47196 
L 228.489479 14.48927 
L 229.575674 16.007327 
L 230.66187 18.174404 
L 231.766512 21.034418 
L 233.354167 26.278125 
L 235.170968 33.861478 
L 236.262836 39.196415 
L 237.354703 45.087571 
L 238.752028 53.397606 
L 240.149354 62.518523 
L 241.694265 73.469207 
L 244.64645 96.586286 
L 249.383741 138.070248 
L 260.114866 235.640284 
L 261.616025 247.979132 
L 263.73816 264.301892 
L 266.785555 284.969391 
L 268.818063 296.634202 
L 269.985861 302.485826 
L 271.153659 307.680185 
L 272.87913 314.098756 
L 274.410889 318.49249 
L 275.942649 321.620504 
L 277.496569 323.473352 
L 278.343485 323.917078 
L 279.190401 323.959661 
L 280.722081 323.01822 
L 282.253761 320.772952 
L 283.166683 318.821917 
L 284.079605 316.42009 
L 285.705888 311.048009 
L 287.332172 304.320202 
L 288.963028 296.276446 
L 290.94925 284.838179 
L 293.334793 268.936419 
L 295.984241 248.885682 
L 298.435818 228.517184 
L 302.444027 192.642559 
L 309.552248 126.9908 
L 312.719959 99.468139 
L 313.874085 90.0111 
L 317.329024 64.129087 
L 319.083781 52.637488 
L 320.838538 42.432667 
L 323.005786 31.772107 
L 324.009075 27.611261 
L 325.662118 21.878095 
L 327.31516 17.58964 
L 328.265945 15.794498 
L 329.216729 14.497378 
L 329.904665 13.87184 
L 330.9147 13.432022 
L 331.924735 13.562895 
L 333.457121 14.849481 
L 334.989507 17.437157 
L 336.034819 19.938031 
L 337.08013 23.024528 
L 338.554775 28.350597 
L 340.02942 34.775875 
L 341.505587 42.258277 
L 343.227569 52.236072 
L 344.60792 61.137776 
L 345.988271 70.777673 
L 348.096172 86.77142 
L 350.2112 104.135783 
L 352.75524 126.373191 
L 363.429342 224.092286 
L 365.662372 242.985111 
L 369.007604 268.694786 
L 370.519803 279.054088 
L 372.18921 289.431693 
L 373.685116 297.704311 
L 375.181022 304.937264 
L 376.475262 310.311109 
L 378.059415 315.722862 
L 379.643569 319.805922 
L 380.299362 321.098206 
L 381.178795 322.460168 
L 382.058228 323.393659 
L 382.937661 323.896078 
L 383.817095 323.966023 
L 384.992622 323.383959 
L 386.168149 322.031873 
L 386.717305 321.138106 
L 387.716999 319.086598 
L 388.716694 316.493606 
L 390.085347 312.082805 
L 391.454001 306.70459 
L 392.953278 299.745917 
L 395.418847 286.025497 
L 397.424317 272.957614 
L 399.181823 260.257587 
L 402.005933 237.78161 
L 405.347218 208.686002 
L 416.143888 109.987297 
L 419.328594 83.738785 
L 421.018861 71.008587 
L 422.570609 60.203522 
L 424.214713 49.783774 
L 425.858817 40.521541 
L 427.103721 34.33387 
L 428.707868 27.471094 
L 430.312015 21.917063 
L 431.329309 19.096972 
L 432.346604 16.83468 
L 433.541344 14.901278 
L 434.736084 13.758722 
L 435.85087 13.411098 
L 435.85087 13.411098 
" clip-path="url(#p351c63f919)" style="fill: none; stroke: #0000ff; stroke-linecap: square"/>
   </g>
   <g id="patch_3">
    <path d="M 226.525435 330.177122 
L 226.525435 7.2 
" style="fill: none; stroke: #000000; stroke-width: 0.8; stroke-linejoin: miter; stroke-linecap: square"/>
   </g>
   <g id="patch_4">
    <path d="M 8.826983 168.700951 
L 444.223887 168.700951 
" style="fill: none; stroke: #000000; stroke-width: 0.8; stroke-linejoin: miter; stroke-linecap: square"/>
   </g>
  </g>
 </g>
 <defs>
  <clipPath id="p351c63f919">
   <rect x="8.826983" y="7.2" width="435.396904" height="322.977122"/>
  </clipPath>
 </defs>
</svg>
