<?xml version="1.0" encoding="utf-8" standalone="no"?>
<!DOCTYPE svg PUBLIC "-//W3C//DTD SVG 1.1//EN"
  "http://www.w3.org/Graphics/SVG/1.1/DTD/svg11.dtd">
<svg xmlns:xlink="http://www.w3.org/1999/xlink" width="405.07027pt" height="338.4pt" viewBox="0 0 405.07027 338.4" xmlns="http://www.w3.org/2000/svg" version="1.1">
 <metadata>
  <rdf:RDF xmlns:dc="http://purl.org/dc/elements/1.1/" xmlns:cc="http://creativecommons.org/ns#" xmlns:rdf="http://www.w3.org/1999/02/22-rdf-syntax-ns#">
   <cc:Work>
    <dc:type rdf:resource="http://purl.org/dc/dcmitype/StillImage"/>
    <dc:date>2024-11-20T10:04:50.391679</dc:date>
    <dc:format>image/svg+xml</dc:format>
    <dc:creator>
     <cc:Agent>
      <dc:title>Matplotlib v3.6.2, https://matplotlib.org/</dc:title>
     </cc:Agent>
    </dc:creator>
   </cc:Work>
  </rdf:RDF>
 </metadata>
 <defs>
  <style type="text/css">*{stroke-linejoin: round; stroke-linecap: butt}</style>
 </defs>
 <g id="figure_1">
  <g id="patch_1">
   <path d="M 0 338.4 
L 405.07027 338.4 
L 405.07027 0 
L 0 0 
z
" style="fill: #ffffff"/>
  </g>
  <g id="axes_1">
   <g id="patch_2">
    <path d="M 12.126923 331.2 
L 372.126923 331.2 
L 372.126923 7.2 
L 12.126923 7.2 
z
" style="fill: #ffffff"/>
   </g>
   <g id="matplotlib.axis_1">
    <g id="xtick_1">
     <g id="line2d_1">
      <defs>
       <path id="m69a72a0bc0" d="M 0 0 
L 0 3.5 
" style="stroke: #000000; stroke-width: 0.8"/>
      </defs>
      <g>
       <use xlink:href="#m69a72a0bc0" x="19.05" y="169.2" style="stroke: #000000; stroke-width: 0.8"/>
      </g>
     </g>
     <g id="text_1">
      <!-- $-\frac{1}{\sqrt{27}}$ -->
      <g transform="translate(7.2 184.7) scale(0.1 -0.1)">
       <defs>
        <path id="Cmsy10-a1" d="M 653 1472 
Q 600 1472 565 1512 
Q 531 1553 531 1600 
Q 531 1647 565 1687 
Q 600 1728 653 1728 
L 4325 1728 
Q 4375 1728 4408 1687 
Q 4441 1647 4441 1600 
Q 4441 1553 4408 1512 
Q 4375 1472 4325 1472 
L 653 1472 
z
" transform="scale(0.015625)"/>
        <path id="Cmr10-31" d="M 594 0 
L 594 225 
Q 1394 225 1394 428 
L 1394 3788 
Q 1063 3628 556 3628 
L 556 3853 
Q 1341 3853 1741 4263 
L 1831 4263 
Q 1853 4263 1873 4245 
Q 1894 4228 1894 4206 
L 1894 428 
Q 1894 225 2694 225 
L 2694 0 
L 594 0 
z
" transform="scale(0.015625)"/>
        <path id="Cmex10-70" d="M 2713 -7425 
L 1269 -4063 
L 819 -4409 
L 703 -4294 
L 1619 -3584 
L 2969 -6725 
L 6291 197 
Q 6322 256 6400 256 
Q 6453 256 6490 218 
Q 6528 181 6528 128 
Q 6528 97 6522 84 
L 2950 -7366 
Q 2925 -7425 2853 -7425 
L 2713 -7425 
z
" transform="scale(0.015625)"/>
        <path id="Cmr10-32" d="M 319 0 
L 319 172 
Q 319 188 331 206 
L 1325 1306 
Q 1550 1550 1690 1715 
Q 1831 1881 1968 2097 
Q 2106 2313 2186 2536 
Q 2266 2759 2266 3009 
Q 2266 3272 2169 3511 
Q 2072 3750 1880 3894 
Q 1688 4038 1416 4038 
Q 1138 4038 916 3870 
Q 694 3703 603 3438 
Q 628 3444 672 3444 
Q 816 3444 917 3347 
Q 1019 3250 1019 3097 
Q 1019 2950 917 2848 
Q 816 2747 672 2747 
Q 522 2747 420 2851 
Q 319 2956 319 3097 
Q 319 3338 409 3548 
Q 500 3759 670 3923 
Q 841 4088 1055 4175 
Q 1269 4263 1509 4263 
Q 1875 4263 2190 4108 
Q 2506 3953 2690 3670 
Q 2875 3388 2875 3009 
Q 2875 2731 2753 2481 
Q 2631 2231 2440 2026 
Q 2250 1822 1953 1562 
Q 1656 1303 1563 1216 
L 838 519 
L 1453 519 
Q 1906 519 2211 526 
Q 2516 534 2534 550 
Q 2609 631 2688 1141 
L 2875 1141 
L 2694 0 
L 319 0 
z
" transform="scale(0.015625)"/>
        <path id="Cmr10-37" d="M 1113 166 
Q 1113 522 1175 862 
Q 1238 1203 1358 1536 
Q 1478 1869 1648 2189 
Q 1819 2509 2022 2791 
L 2606 3603 
L 1875 3603 
Q 738 3603 703 3572 
Q 619 3469 544 2981 
L 359 2981 
L 569 4325 
L 756 4325 
L 756 4306 
Q 756 4191 1147 4156 
Q 1538 4122 1913 4122 
L 3103 4122 
L 3103 3956 
Q 3103 3950 3101 3947 
Q 3100 3944 3097 3938 
L 2216 2700 
Q 1891 2219 1809 1631 
Q 1728 1044 1728 166 
Q 1728 41 1637 -50 
Q 1547 -141 1422 -141 
Q 1294 -141 1203 -50 
Q 1113 41 1113 166 
z
" transform="scale(0.015625)"/>
       </defs>
       <use xlink:href="#Cmsy10-a1" transform="translate(0 0.873437)"/>
       <use xlink:href="#Cmr10-31" transform="translate(133.685547 38.373438) scale(0.7)"/>
       <use xlink:href="#Cmex10-70" transform="translate(77.685547 0.559375) scale(0.589272)"/>
       <use xlink:href="#Cmr10-32" transform="translate(145.355859 -66.55625) scale(0.7)"/>
       <use xlink:href="#Cmr10-37" transform="translate(180.355859 -66.55625) scale(0.7)"/>
       <path d="M 77.685547 13.373437 
L 77.685547 19.623437 
L 224.105859 19.623437 
L 224.105859 13.373437 
L 77.685547 13.373437 
z
"/>
       <path d="M 136.605859 -1.626563 
L 136.605859 2.748437 
L 224.105859 2.748437 
L 224.105859 -1.626563 
L 136.605859 -1.626563 
z
"/>
      </g>
     </g>
    </g>
    <g id="xtick_2">
     <g id="line2d_2">
      <g>
       <use xlink:href="#m69a72a0bc0" x="158.818254" y="169.2" style="stroke: #000000; stroke-width: 0.8"/>
      </g>
     </g>
     <g id="text_2">
      <!-- $-\frac{1}{27}$ -->
      <g transform="translate(150.768254 184.7) scale(0.1 -0.1)">
       <use xlink:href="#Cmsy10-a1" transform="translate(0 0.873437)"/>
       <use xlink:href="#Cmr10-31" transform="translate(95.685547 38.373438) scale(0.7)"/>
       <use xlink:href="#Cmr10-32" transform="translate(77.685547 -40.18125) scale(0.7)"/>
       <use xlink:href="#Cmr10-37" transform="translate(112.685547 -40.18125) scale(0.7)"/>
       <path d="M 77.685547 13.373437 
L 77.685547 19.623437 
L 147.685547 19.623437 
L 147.685547 13.373437 
L 77.685547 13.373437 
z
"/>
      </g>
     </g>
    </g>
    <g id="xtick_3">
     <g id="line2d_3">
      <g>
       <use xlink:href="#m69a72a0bc0" x="225.435592" y="169.2" style="stroke: #000000; stroke-width: 0.8"/>
      </g>
     </g>
     <g id="text_3">
      <!-- $\frac{1}{27}$ -->
      <g transform="translate(221.285592 184.7) scale(0.1 -0.1)">
       <use xlink:href="#Cmr10-31" transform="translate(18 38.373438) scale(0.7)"/>
       <use xlink:href="#Cmr10-32" transform="translate(0 -40.18125) scale(0.7)"/>
       <use xlink:href="#Cmr10-37" transform="translate(35 -40.18125) scale(0.7)"/>
       <path d="M 0 13.373437 
L 0 19.623437 
L 70 19.623437 
L 70 13.373437 
L 0 13.373437 
z
"/>
      </g>
     </g>
    </g>
    <g id="xtick_4">
     <g id="line2d_4">
      <g>
       <use xlink:href="#m69a72a0bc0" x="365.203846" y="169.2" style="stroke: #000000; stroke-width: 0.8"/>
      </g>
     </g>
     <g id="text_4">
      <!-- $\frac{1}{\sqrt{27}}$ -->
      <g transform="translate(357.253846 184.7) scale(0.1 -0.1)">
       <use xlink:href="#Cmr10-31" transform="translate(56 38.373438) scale(0.7)"/>
       <use xlink:href="#Cmex10-70" transform="translate(0 0.559375) scale(0.589272)"/>
       <use xlink:href="#Cmr10-32" transform="translate(67.670312 -66.55625) scale(0.7)"/>
       <use xlink:href="#Cmr10-37" transform="translate(102.670312 -66.55625) scale(0.7)"/>
       <path d="M 0 13.373437 
L 0 19.623437 
L 146.420312 19.623437 
L 146.420312 13.373437 
L 0 13.373437 
z
"/>
       <path d="M 58.920312 -1.626563 
L 58.920312 2.748437 
L 146.420312 2.748437 
L 146.420312 -1.626563 
L 58.920312 -1.626563 
z
"/>
      </g>
     </g>
    </g>
   </g>
   <g id="matplotlib.axis_2">
    <g id="ytick_1">
     <g id="line2d_5">
      <defs>
       <path id="m53cbb233cb" d="M 0 0 
L -3.5 0 
" style="stroke: #000000; stroke-width: 0.8"/>
      </defs>
      <g>
       <use xlink:href="#m53cbb233cb" x="192.126923" y="289.11121" style="stroke: #000000; stroke-width: 0.8"/>
      </g>
     </g>
     <g id="text_5">
      <!-- $-\frac{4}{9}$ -->
      <g transform="translate(172.526923 293.36121) scale(0.1 -0.1)">
       <defs>
        <path id="Cmr10-34" d="M 178 1056 
L 178 1281 
L 2156 4231 
Q 2178 4263 2222 4263 
L 2316 4263 
Q 2388 4263 2388 4191 
L 2388 1281 
L 3016 1281 
L 3016 1056 
L 2388 1056 
L 2388 428 
Q 2388 297 2575 261 
Q 2763 225 3009 225 
L 3009 0 
L 1247 0 
L 1247 225 
Q 1494 225 1681 261 
Q 1869 297 1869 428 
L 1869 1056 
L 178 1056 
z
M 391 1281 
L 1906 1281 
L 1906 3547 
L 391 1281 
z
" transform="scale(0.015625)"/>
        <path id="Cmr10-39" d="M 722 269 
Q 897 63 1331 63 
Q 1575 63 1786 228 
Q 1997 394 2113 634 
Q 2247 906 2284 1214 
Q 2322 1522 2322 1978 
Q 2213 1719 2008 1553 
Q 1803 1388 1538 1388 
Q 1166 1388 873 1589 
Q 581 1791 425 2120 
Q 269 2450 269 2822 
Q 269 3206 444 3539 
Q 619 3872 928 4067 
Q 1238 4263 1631 4263 
Q 2019 4263 2280 4052 
Q 2541 3841 2678 3508 
Q 2816 3175 2870 2803 
Q 2925 2431 2925 2069 
Q 2925 1575 2744 1061 
Q 2563 547 2202 203 
Q 1841 -141 1331 -141 
Q 953 -141 690 37 
Q 428 216 428 575 
Q 428 706 517 795 
Q 606 884 738 884 
Q 866 884 955 795 
Q 1044 706 1044 575 
Q 1044 450 953 359 
Q 863 269 738 269 
L 722 269 
z
M 1563 1556 
Q 1825 1556 1992 1732 
Q 2159 1909 2234 2171 
Q 2309 2434 2309 2694 
L 2309 2816 
L 2309 2841 
Q 2309 3322 2168 3700 
Q 2028 4078 1631 4078 
Q 1378 4078 1220 3967 
Q 1063 3856 988 3672 
Q 913 3488 892 3278 
Q 872 3069 872 2822 
Q 872 2459 906 2203 
Q 941 1947 1094 1751 
Q 1247 1556 1563 1556 
z
" transform="scale(0.015625)"/>
       </defs>
       <use xlink:href="#Cmsy10-a1" transform="translate(0 0.873437)"/>
       <use xlink:href="#Cmr10-34" transform="translate(77.685547 38.373438) scale(0.7)"/>
       <use xlink:href="#Cmr10-39" transform="translate(77.685547 -39.503125) scale(0.7)"/>
       <path d="M 77.685547 13.373437 
L 77.685547 19.623437 
L 112.685547 19.623437 
L 112.685547 13.373437 
L 77.685547 13.373437 
z
"/>
      </g>
     </g>
    </g>
    <g id="ytick_2">
     <g id="line2d_6">
      <g>
       <use xlink:href="#m53cbb233cb" x="192.126923" y="229.155605" style="stroke: #000000; stroke-width: 0.8"/>
      </g>
     </g>
     <g id="text_6">
      <!-- $-\frac{2}{9}$ -->
      <g transform="translate(172.526923 233.405605) scale(0.1 -0.1)">
       <use xlink:href="#Cmsy10-a1" transform="translate(0 0.873437)"/>
       <use xlink:href="#Cmr10-32" transform="translate(77.685547 38.373438) scale(0.7)"/>
       <use xlink:href="#Cmr10-39" transform="translate(77.685547 -39.503125) scale(0.7)"/>
       <path d="M 77.685547 13.373437 
L 77.685547 19.623437 
L 112.685547 19.623437 
L 112.685547 13.373437 
L 77.685547 13.373437 
z
"/>
      </g>
     </g>
    </g>
    <g id="ytick_3">
     <g id="line2d_7">
      <g>
       <use xlink:href="#m53cbb233cb" x="192.126923" y="169.2" style="stroke: #000000; stroke-width: 0.8"/>
      </g>
     </g>
    </g>
    <g id="ytick_4">
     <g id="line2d_8">
      <g>
       <use xlink:href="#m53cbb233cb" x="192.126923" y="109.244395" style="stroke: #000000; stroke-width: 0.8"/>
      </g>
     </g>
     <g id="text_7">
      <!-- $\frac{2}{9}$ -->
      <g transform="translate(180.326923 113.494395) scale(0.1 -0.1)">
       <use xlink:href="#Cmr10-32" transform="translate(0 38.373438) scale(0.7)"/>
       <use xlink:href="#Cmr10-39" transform="translate(0 -39.503125) scale(0.7)"/>
       <path d="M 0 13.373437 
L 0 19.623437 
L 35 19.623437 
L 35 13.373437 
L 0 13.373437 
z
"/>
      </g>
     </g>
    </g>
    <g id="ytick_5">
     <g id="line2d_9">
      <g>
       <use xlink:href="#m53cbb233cb" x="192.126923" y="49.28879" style="stroke: #000000; stroke-width: 0.8"/>
      </g>
     </g>
     <g id="text_8">
      <!-- $\frac{4}{9}$ -->
      <g transform="translate(180.326923 53.53879) scale(0.1 -0.1)">
       <use xlink:href="#Cmr10-34" transform="translate(0 38.373438) scale(0.7)"/>
       <use xlink:href="#Cmr10-39" transform="translate(0 -39.503125) scale(0.7)"/>
       <path d="M 0 13.373437 
L 0 19.623437 
L 35 19.623437 
L 35 13.373437 
L 0 13.373437 
z
"/>
      </g>
     </g>
    </g>
   </g>
   <g id="line2d_10">
    <path d="M 19.05 324.969231 
L 32.417462 320.851078 
L 45.446118 316.609808 
L 56.701298 312.738665 
L 68.886781 308.297508 
L 79.574406 304.154392 
L 88.749077 300.383067 
L 96.504201 297.017108 
L 105.896034 292.687474 
L 113.27582 289.059155 
L 120.007038 285.546582 
L 127.815011 281.186523 
L 133.659227 277.686063 
L 139.479063 273.960009 
L 145.628042 269.711585 
L 150.998872 265.682378 
L 155.564474 261.971315 
L 159.148974 258.834769 
L 163.311023 254.893132 
L 167.049632 251.014226 
L 170.736869 246.790029 
L 173.47472 243.327383 
L 176.18311 239.55031 
L 178.439479 236.061494 
L 180.685858 232.183111 
L 182.828464 227.976756 
L 184.699317 223.736205 
L 186.103547 220.056751 
L 187.457146 215.919766 
L 188.649092 211.548509 
L 189.633126 207.104344 
L 190.414589 202.639883 
L 191.084415 197.541863 
L 191.585525 191.98108 
L 191.917917 185.787774 
L 192.084114 178.977971 
L 192.333408 152.679186 
L 192.70735 145.884159 
L 193.221305 140.39564 
L 193.929914 135.180094 
L 194.795991 130.427676 
L 195.734373 126.331788 
L 196.914048 122.092121 
L 198.386227 117.687737 
L 200.165546 113.207589 
L 201.866948 109.507196 
L 203.709596 105.958103 
L 206.162624 101.776185 
L 208.6909 97.949131 
L 211.673239 93.906598 
L 214.744084 90.153742 
L 218.436861 86.06666 
L 221.750701 82.713412 
L 226.416015 78.392731 
L 231.272405 74.293526 
L 236.234362 70.441936 
L 241.682445 66.532583 
L 246.539137 63.282574 
L 252.917306 59.295979 
L 258.315597 56.134568 
L 264.099803 52.932523 
L 272.025538 48.812415 
L 279.128042 45.345944 
L 288.075285 41.237964 
L 297.338169 37.245965 
L 305.674697 33.848992 
L 315.871376 29.913016 
L 328.015317 25.498023 
L 340.565344 21.203744 
L 352.285351 17.406951 
L 365.203846 13.430769 
L 365.203846 13.430769 
" clip-path="url(#pecf3db4fe3)" style="fill: none; stroke: #0000ff; stroke-linecap: square"/>
   </g>
   <g id="line2d_11">
    <path d="M 19.05 324.969231 
L 365.203846 13.430769 
L 365.203846 13.430769 
" clip-path="url(#pecf3db4fe3)" style="fill: none; stroke: #ff0000; stroke-linecap: square"/>
   </g>
   <g id="line2d_12">
    <path d="M 19.05 169.2 
L 33.673948 177.844657 
L 47.269937 185.62501 
L 59.22368 192.228991 
L 69.452408 197.677316 
L 80.84117 203.489005 
L 91.182089 208.495398 
L 98.558179 211.883435 
L 108.141 216.019068 
L 114.514504 218.577034 
L 121.585561 221.204242 
L 128.240129 223.44111 
L 134.775958 225.375056 
L 140.150325 226.733934 
L 144.262916 227.608122 
L 148.832348 228.382504 
L 153.353869 228.908787 
L 157.407353 229.138086 
L 160.831553 229.11782 
L 164.441627 228.840645 
L 167.319768 228.392954 
L 170.132762 227.718957 
L 172.514939 226.926842 
L 174.839985 225.914516 
L 177.105044 224.647633 
L 179.008935 223.314898 
L 180.885487 221.697348 
L 182.356387 220.161586 
L 184.015602 218.060508 
L 185.241776 216.178228 
L 186.560635 213.726673 
L 187.676964 211.16992 
L 188.691073 208.285156 
L 189.568295 205.127238 
L 190.355831 201.424104 
L 191.001309 197.262752 
L 191.509594 192.444255 
L 191.872654 186.679031 
L 192.017878 182.455623 
L 192.09049 178.433362 
L 192.235714 155.954506 
L 192.526163 148.977683 
L 192.992687 143.339133 
L 193.579607 138.8512 
L 194.342603 134.754733 
L 195.163876 131.455669 
L 196.102117 128.499668 
L 197.196732 125.745372 
L 198.314949 123.45324 
L 199.66036 121.186094 
L 201.247923 119.008462 
L 202.954915 117.107787 
L 204.526766 115.664367 
L 206.488892 114.183519 
L 208.752891 112.823728 
L 210.849983 111.829624 
L 213.052465 111.00873 
L 215.892422 110.226913 
L 218.769859 109.69604 
L 221.267037 109.412784 
L 224.930881 109.246709 
L 228.35428 109.317591 
L 232.86078 109.687331 
L 236.689817 110.209778 
L 240.965947 110.984913 
L 246.037765 112.128655 
L 250.218832 113.229578 
L 257.001463 115.274942 
L 263.754335 117.58352 
L 271.324502 120.443367 
L 279.608599 123.851832 
L 288.525812 127.796994 
L 297.095875 131.819393 
L 307.057276 136.739171 
L 318.908856 142.886292 
L 330.645778 149.243675 
L 342.356413 155.817419 
L 355.798067 163.609249 
L 365.203846 169.2 
L 365.203846 169.2 
" clip-path="url(#pecf3db4fe3)" style="fill: none; stroke: #008000; stroke-linecap: square"/>
   </g>
   <g id="patch_3">
    <path d="M 192.126923 331.2 
L 192.126923 7.2 
" style="fill: none; stroke: #000000; stroke-width: 0.8; stroke-linejoin: miter; stroke-linecap: square"/>
   </g>
   <g id="patch_4">
    <path d="M 12.126923 169.2 
L 372.126923 169.2 
" style="fill: none; stroke: #000000; stroke-width: 0.8; stroke-linejoin: miter; stroke-linecap: square"/>
   </g>
   <g id="text_9">
    <!-- $f(x)$ -->
    <g transform="translate(216.235592 51.78879) scale(0.1 -0.1)">
     <defs>
      <path id="Cmmi10-66" d="M 622 -1056 
Q 741 -1147 909 -1147 
Q 1138 -1147 1281 -641 
Q 1341 -397 1606 966 
L 1900 2534 
L 1350 2534 
Q 1288 2534 1288 2619 
Q 1313 2759 1369 2759 
L 1941 2759 
L 2016 3175 
Q 2053 3369 2084 3508 
Q 2116 3647 2152 3765 
Q 2188 3884 2259 4031 
Q 2369 4241 2555 4377 
Q 2741 4513 2956 4513 
Q 3097 4513 3230 4461 
Q 3363 4409 3447 4306 
Q 3531 4203 3531 4063 
Q 3531 3900 3423 3779 
Q 3316 3659 3163 3659 
Q 3059 3659 2986 3723 
Q 2913 3788 2913 3891 
Q 2913 4031 3008 4136 
Q 3103 4241 3244 4256 
Q 3125 4347 2950 4347 
Q 2853 4347 2767 4256 
Q 2681 4166 2656 4063 
Q 2616 3900 2478 3181 
L 2400 2759 
L 3059 2759 
Q 3122 2759 3122 2675 
Q 3119 2659 3109 2620 
Q 3100 2581 3083 2557 
Q 3066 2534 3041 2534 
L 2356 2534 
L 2059 972 
Q 2003 631 1929 279 
Q 1856 -72 1723 -442 
Q 1591 -813 1384 -1063 
Q 1178 -1313 897 -1313 
Q 681 -1313 511 -1189 
Q 341 -1066 341 -863 
Q 341 -700 445 -579 
Q 550 -459 709 -459 
Q 816 -459 887 -523 
Q 959 -588 959 -691 
Q 959 -828 857 -942 
Q 756 -1056 622 -1056 
z
" transform="scale(0.015625)"/>
      <path id="Cmr10-28" d="M 1984 -1588 
Q 1628 -1306 1370 -942 
Q 1113 -578 948 -165 
Q 784 247 703 697 
Q 622 1147 622 1600 
Q 622 2059 703 2509 
Q 784 2959 951 3375 
Q 1119 3791 1378 4153 
Q 1638 4516 1984 4788 
Q 1984 4800 2016 4800 
L 2075 4800 
Q 2094 4800 2109 4783 
Q 2125 4766 2125 4744 
Q 2125 4716 2113 4703 
Q 1800 4397 1592 4047 
Q 1384 3697 1257 3301 
Q 1131 2906 1075 2482 
Q 1019 2059 1019 1600 
Q 1019 -434 2106 -1491 
Q 2125 -1509 2125 -1544 
Q 2125 -1559 2108 -1579 
Q 2091 -1600 2075 -1600 
L 2016 -1600 
Q 1984 -1600 1984 -1588 
z
" transform="scale(0.015625)"/>
      <path id="Cmmi10-78" d="M 500 184 
Q 613 97 819 97 
Q 1019 97 1172 289 
Q 1325 481 1381 709 
L 1672 1844 
Q 1741 2153 1741 2266 
Q 1741 2425 1652 2544 
Q 1563 2663 1403 2663 
Q 1200 2663 1022 2536 
Q 844 2409 722 2214 
Q 600 2019 550 1819 
Q 538 1778 500 1778 
L 422 1778 
Q 372 1778 372 1838 
L 372 1856 
Q 434 2094 584 2320 
Q 734 2547 951 2687 
Q 1169 2828 1416 2828 
Q 1650 2828 1839 2703 
Q 2028 2578 2106 2363 
Q 2216 2559 2386 2693 
Q 2556 2828 2759 2828 
Q 2897 2828 3040 2779 
Q 3184 2731 3275 2631 
Q 3366 2531 3366 2381 
Q 3366 2219 3261 2101 
Q 3156 1984 2994 1984 
Q 2891 1984 2822 2050 
Q 2753 2116 2753 2216 
Q 2753 2350 2845 2451 
Q 2938 2553 3066 2572 
Q 2950 2663 2747 2663 
Q 2541 2663 2389 2472 
Q 2238 2281 2175 2047 
L 1894 916 
Q 1825 659 1825 494 
Q 1825 331 1917 214 
Q 2009 97 2163 97 
Q 2463 97 2698 361 
Q 2934 625 3009 941 
Q 3022 978 3059 978 
L 3138 978 
Q 3163 978 3178 961 
Q 3194 944 3194 922 
Q 3194 916 3188 903 
Q 3097 522 2806 225 
Q 2516 -72 2150 -72 
Q 1916 -72 1727 54 
Q 1538 181 1459 397 
Q 1359 209 1182 68 
Q 1006 -72 806 -72 
Q 669 -72 523 -23 
Q 378 25 287 125 
Q 197 225 197 378 
Q 197 528 301 651 
Q 406 775 563 775 
Q 669 775 741 711 
Q 813 647 813 544 
Q 813 409 723 309 
Q 634 209 500 184 
z
" transform="scale(0.015625)"/>
      <path id="Cmr10-29" d="M 416 -1600 
Q 359 -1600 359 -1544 
Q 359 -1516 372 -1503 
Q 1466 -434 1466 1600 
Q 1466 3634 384 4691 
Q 359 4706 359 4744 
Q 359 4766 376 4783 
Q 394 4800 416 4800 
L 475 4800 
Q 494 4800 506 4788 
Q 966 4425 1272 3906 
Q 1578 3388 1720 2800 
Q 1863 2213 1863 1600 
Q 1863 1147 1786 708 
Q 1709 269 1542 -157 
Q 1375 -584 1119 -945 
Q 863 -1306 506 -1588 
Q 494 -1600 475 -1600 
L 416 -1600 
z
" transform="scale(0.015625)"/>
     </defs>
     <use xlink:href="#Cmmi10-66"/>
     <use xlink:href="#Cmr10-28" transform="translate(48.876953 0)"/>
     <use xlink:href="#Cmmi10-78" transform="translate(87.695312 0)"/>
     <use xlink:href="#Cmr10-29" transform="translate(144.775391 0)"/>
    </g>
   </g>
   <g id="text_10">
    <!-- $g(x)$ -->
    <g transform="translate(316.211601 81.766593) scale(0.1 -0.1)">
     <defs>
      <path id="Cmmi10-67" d="M 91 -916 
Q 91 -759 198 -642 
Q 306 -525 459 -525 
Q 563 -525 633 -589 
Q 703 -653 703 -756 
Q 703 -872 637 -964 
Q 572 -1056 469 -1094 
Q 641 -1147 1006 -1147 
Q 1300 -1147 1544 -920 
Q 1788 -694 1863 -397 
L 2047 353 
Q 1700 0 1325 0 
Q 1050 0 854 140 
Q 659 281 556 515 
Q 453 750 453 1013 
Q 453 1306 573 1628 
Q 694 1950 911 2225 
Q 1128 2500 1409 2664 
Q 1691 2828 2003 2828 
Q 2191 2828 2341 2725 
Q 2491 2622 2578 2450 
Q 2641 2700 2853 2700 
Q 2934 2700 2990 2651 
Q 3047 2603 3047 2522 
Q 3047 2503 3045 2493 
Q 3044 2484 3041 2472 
L 2309 -434 
Q 2259 -634 2125 -800 
Q 1991 -966 1809 -1077 
Q 1628 -1188 1412 -1250 
Q 1197 -1313 997 -1313 
Q 631 -1313 361 -1242 
Q 91 -1172 91 -916 
z
M 1338 166 
Q 1747 166 2144 728 
L 2497 2125 
Q 2453 2347 2322 2505 
Q 2191 2663 1991 2663 
Q 1778 2663 1589 2489 
Q 1400 2316 1275 2075 
Q 1156 1844 1045 1411 
Q 934 978 934 728 
Q 934 509 1034 337 
Q 1134 166 1338 166 
z
" transform="scale(0.015625)"/>
     </defs>
     <use xlink:href="#Cmmi10-67"/>
     <use xlink:href="#Cmr10-28" transform="translate(47.705078 0)"/>
     <use xlink:href="#Cmmi10-78" transform="translate(86.523438 0)"/>
     <use xlink:href="#Cmr10-29" transform="translate(143.603516 0)"/>
    </g>
   </g>
   <g id="text_11">
    <!-- $h(x)=f(x)-g(x)$ -->
    <g transform="translate(319.47027 132.728857) scale(0.1 -0.1)">
     <defs>
      <path id="Cmmi10-68" d="M 341 116 
Q 341 153 347 172 
L 1275 3872 
Q 1300 3981 1306 4044 
Q 1306 4147 891 4147 
Q 825 4147 825 4231 
Q 828 4247 839 4287 
Q 850 4328 867 4350 
Q 884 4372 916 4372 
L 1778 4441 
L 1797 4441 
Q 1797 4434 1819 4423 
Q 1841 4413 1844 4409 
Q 1856 4378 1856 4359 
L 1356 2363 
Q 1750 2828 2291 2828 
Q 2516 2828 2680 2750 
Q 2844 2672 2936 2514 
Q 3028 2356 3028 2138 
Q 3028 1875 2911 1503 
Q 2794 1131 2619 672 
Q 2528 463 2528 288 
Q 2528 97 2675 97 
Q 2925 97 3092 364 
Q 3259 631 3328 941 
Q 3341 978 3378 978 
L 3456 978 
Q 3481 978 3497 961 
Q 3513 944 3513 922 
Q 3513 916 3506 903 
Q 3450 672 3339 448 
Q 3228 225 3059 76 
Q 2891 -72 2663 -72 
Q 2438 -72 2278 83 
Q 2119 238 2119 459 
Q 2119 578 2169 709 
Q 2350 1191 2470 1569 
Q 2591 1947 2591 2234 
Q 2591 2419 2519 2541 
Q 2447 2663 2278 2663 
Q 1934 2663 1678 2452 
Q 1422 2241 1234 1894 
L 800 147 
Q 775 50 703 -11 
Q 631 -72 538 -72 
Q 456 -72 398 -17 
Q 341 38 341 116 
z
" transform="scale(0.015625)"/>
      <path id="Cmr10-3d" d="M 481 850 
Q 428 850 393 890 
Q 359 931 359 978 
Q 359 1031 393 1068 
Q 428 1106 481 1106 
L 4500 1106 
Q 4547 1106 4581 1068 
Q 4616 1031 4616 978 
Q 4616 931 4581 890 
Q 4547 850 4500 850 
L 481 850 
z
M 481 2094 
Q 428 2094 393 2131 
Q 359 2169 359 2222 
Q 359 2269 393 2309 
Q 428 2350 481 2350 
L 4500 2350 
Q 4547 2350 4581 2309 
Q 4616 2269 4616 2222 
Q 4616 2169 4581 2131 
Q 4547 2094 4500 2094 
L 481 2094 
z
" transform="scale(0.015625)"/>
     </defs>
     <use xlink:href="#Cmmi10-68"/>
     <use xlink:href="#Cmr10-28" transform="translate(57.617188 0)"/>
     <use xlink:href="#Cmmi10-78" transform="translate(96.435547 0)"/>
     <use xlink:href="#Cmr10-29" transform="translate(153.515625 0)"/>
     <use xlink:href="#Cmr10-3d" transform="translate(209.892578 0)"/>
     <use xlink:href="#Cmmi10-66" transform="translate(305.136719 0)"/>
     <use xlink:href="#Cmr10-28" transform="translate(354.013672 0)"/>
     <use xlink:href="#Cmmi10-78" transform="translate(392.832031 0)"/>
     <use xlink:href="#Cmr10-29" transform="translate(449.912109 0)"/>
     <use xlink:href="#Cmsy10-a1" transform="translate(506.289062 0)"/>
     <use xlink:href="#Cmmi10-67" transform="translate(601.533203 0)"/>
     <use xlink:href="#Cmr10-28" transform="translate(649.238281 0)"/>
     <use xlink:href="#Cmmi10-78" transform="translate(688.056641 0)"/>
     <use xlink:href="#Cmr10-29" transform="translate(745.136719 0)"/>
    </g>
   </g>
  </g>
 </g>
 <defs>
  <clipPath id="pecf3db4fe3">
   <rect x="12.126923" y="7.2" width="360" height="324"/>
  </clipPath>
 </defs>
</svg>
