<?xml version="1.0" encoding="utf-8" standalone="no"?>
<!DOCTYPE svg PUBLIC "-//W3C//DTD SVG 1.1//EN"
  "http://www.w3.org/Graphics/SVG/1.1/DTD/svg11.dtd">
<svg xmlns:xlink="http://www.w3.org/1999/xlink" width="452.119467pt" height="338.4pt" viewBox="0 0 452.119467 338.4" xmlns="http://www.w3.org/2000/svg" version="1.1">
 <metadata>
  <rdf:RDF xmlns:dc="http://purl.org/dc/elements/1.1/" xmlns:cc="http://creativecommons.org/ns#" xmlns:rdf="http://www.w3.org/1999/02/22-rdf-syntax-ns#">
   <cc:Work>
    <dc:type rdf:resource="http://purl.org/dc/dcmitype/StillImage"/>
    <dc:date>2024-12-04T19:53:21.876283</dc:date>
    <dc:format>image/svg+xml</dc:format>
    <dc:creator>
     <cc:Agent>
      <dc:title>Matplotlib v3.6.2, https://matplotlib.org/</dc:title>
     </cc:Agent>
    </dc:creator>
   </cc:Work>
  </rdf:RDF>
 </metadata>
 <defs>
  <style type="text/css">*{stroke-linejoin: round; stroke-linecap: butt}</style>
 </defs>
 <g id="figure_1">
  <g id="patch_1">
   <path d="M 0 338.4 
L 452.119467 338.4 
L 452.119467 0 
L 0 0 
z
" style="fill: #ffffff"/>
  </g>
  <g id="axes_1">
   <g id="patch_2">
    <path d="M 12.241775 331.2 
L 444.919467 331.2 
L 444.919467 7.2 
L 12.241775 7.2 
z
" style="fill: #ffffff"/>
   </g>
   <g id="PathCollection_1">
    <path d="M 62.599718 163.069944 
C 63.537352 163.069944 64.43671 162.697418 65.099718 162.03441 
C 65.762725 161.371402 66.135251 160.472045 66.135251 159.53441 
C 66.135251 158.596776 65.762725 157.697418 65.099718 157.03441 
C 64.43671 156.371402 63.537352 155.998876 62.599718 155.998876 
C 61.662083 155.998876 60.762725 156.371402 60.099718 157.03441 
C 59.43671 157.697418 59.064184 158.596776 59.064184 159.53441 
C 59.064184 160.472045 59.43671 161.371402 60.099718 162.03441 
C 60.762725 162.697418 61.662083 163.069944 62.599718 163.069944 
z
" clip-path="url(#p48b40567c6)" style="fill: #ff0000"/>
   </g>
   <g id="PathCollection_2">
    <path d="M 186.543404 163.069944 
C 187.481038 163.069944 188.380396 162.697418 189.043404 162.03441 
C 189.706412 161.371402 190.078938 160.472045 190.078938 159.53441 
C 190.078938 158.596776 189.706412 157.697418 189.043404 157.03441 
C 188.380396 156.371402 187.481038 155.998876 186.543404 155.998876 
C 185.605769 155.998876 184.706412 156.371402 184.043404 157.03441 
C 183.380396 157.697418 183.00787 158.596776 183.00787 159.53441 
C 183.00787 160.472045 183.380396 161.371402 184.043404 162.03441 
C 184.706412 162.697418 185.605769 163.069944 186.543404 163.069944 
z
" clip-path="url(#p48b40567c6)" style="fill: #ff0000"/>
   </g>
   <g id="PathCollection_3">
    <path d="M 370.188064 312.209871 
C 371.125698 312.209871 372.025056 311.837344 372.688064 311.174337 
C 373.351071 310.511329 373.723597 309.611971 373.723597 308.674337 
C 373.723597 307.736702 373.351071 306.837344 372.688064 306.174337 
C 372.025056 305.511329 371.125698 305.138803 370.188064 305.138803 
C 369.250429 305.138803 368.351071 305.511329 367.688064 306.174337 
C 367.025056 306.837344 366.65253 307.736702 366.65253 308.674337 
C 366.65253 309.611971 367.025056 310.511329 367.688064 311.174337 
C 368.351071 311.837344 369.250429 312.209871 370.188064 312.209871 
z
" clip-path="url(#p48b40567c6)" style="fill: #ff0000"/>
   </g>
   <g id="PathCollection_4">
    <path d="M 294.9913 312.209871 
C 295.928935 312.209871 296.828293 311.837344 297.4913 311.174337 
C 298.154308 310.511329 298.526834 309.611971 298.526834 308.674337 
C 298.526834 307.736702 298.154308 306.837344 297.4913 306.174337 
C 296.828293 305.511329 295.928935 305.138803 294.9913 305.138803 
C 294.053666 305.138803 293.154308 305.511329 292.4913 306.174337 
C 291.828293 306.837344 291.455766 307.736702 291.455766 308.674337 
C 291.455766 309.611971 291.828293 310.511329 292.4913 311.174337 
C 293.154308 311.837344 294.053666 312.209871 294.9913 312.209871 
z
" clip-path="url(#p48b40567c6)" style="fill: #ff0000"/>
   </g>
   <g id="matplotlib.axis_1">
    <g id="xtick_1">
     <g id="line2d_1">
      <defs>
       <path id="mfad4c97808" d="M 0 0 
L 0 3.5 
" style="stroke: #000000; stroke-width: 0.8"/>
      </defs>
      <g>
       <use xlink:href="#mfad4c97808" x="20.5625" y="290.355219" style="stroke: #000000; stroke-width: 0.8"/>
      </g>
     </g>
    </g>
    <g id="xtick_2">
     <g id="line2d_2">
      <g>
       <use xlink:href="#mfad4c97808" x="124.571561" y="290.355219" style="stroke: #000000; stroke-width: 0.8"/>
      </g>
     </g>
     <g id="text_1">
      <!-- $\frac{1}{2} \, \pi$ -->
      <g transform="translate(118.571561 305.855219) scale(0.1 -0.1)">
       <defs>
        <path id="Cmr10-31" d="M 594 0 
L 594 225 
Q 1394 225 1394 428 
L 1394 3788 
Q 1063 3628 556 3628 
L 556 3853 
Q 1341 3853 1741 4263 
L 1831 4263 
Q 1853 4263 1873 4245 
Q 1894 4228 1894 4206 
L 1894 428 
Q 1894 225 2694 225 
L 2694 0 
L 594 0 
z
" transform="scale(0.015625)"/>
        <path id="Cmr10-32" d="M 319 0 
L 319 172 
Q 319 188 331 206 
L 1325 1306 
Q 1550 1550 1690 1715 
Q 1831 1881 1968 2097 
Q 2106 2313 2186 2536 
Q 2266 2759 2266 3009 
Q 2266 3272 2169 3511 
Q 2072 3750 1880 3894 
Q 1688 4038 1416 4038 
Q 1138 4038 916 3870 
Q 694 3703 603 3438 
Q 628 3444 672 3444 
Q 816 3444 917 3347 
Q 1019 3250 1019 3097 
Q 1019 2950 917 2848 
Q 816 2747 672 2747 
Q 522 2747 420 2851 
Q 319 2956 319 3097 
Q 319 3338 409 3548 
Q 500 3759 670 3923 
Q 841 4088 1055 4175 
Q 1269 4263 1509 4263 
Q 1875 4263 2190 4108 
Q 2506 3953 2690 3670 
Q 2875 3388 2875 3009 
Q 2875 2731 2753 2481 
Q 2631 2231 2440 2026 
Q 2250 1822 1953 1562 
Q 1656 1303 1563 1216 
L 838 519 
L 1453 519 
Q 1906 519 2211 526 
Q 2516 534 2534 550 
Q 2609 631 2688 1141 
L 2875 1141 
L 2694 0 
L 319 0 
z
" transform="scale(0.015625)"/>
        <path id="Cmmi10-bc" d="M 647 109 
Q 647 144 672 213 
Q 850 584 1004 942 
Q 1159 1300 1282 1639 
Q 1406 1978 1509 2363 
L 1100 2363 
Q 866 2363 662 2216 
Q 459 2069 325 1844 
Q 313 1819 288 1819 
L 213 1819 
Q 153 1819 153 1881 
Q 153 1894 166 1919 
Q 375 2275 614 2517 
Q 853 2759 1153 2759 
L 3475 2759 
Q 3541 2759 3587 2715 
Q 3634 2672 3634 2597 
Q 3634 2503 3567 2433 
Q 3500 2363 3406 2363 
L 2591 2363 
Q 2488 1859 2478 1381 
Q 2478 766 2694 269 
Q 2713 231 2713 191 
Q 2713 122 2672 62 
Q 2631 3 2567 -34 
Q 2503 -72 2431 -72 
Q 2263 -72 2200 203 
Q 2138 478 2138 738 
Q 2138 1103 2200 1442 
Q 2263 1781 2400 2363 
L 1703 2363 
Q 1197 313 1094 103 
Q 1003 -72 844 -72 
Q 766 -72 706 -20 
Q 647 31 647 109 
z
" transform="scale(0.015625)"/>
       </defs>
       <use xlink:href="#Cmr10-31" transform="translate(0 38.373438) scale(0.7)"/>
       <use xlink:href="#Cmr10-32" transform="translate(0 -39.503125) scale(0.7)"/>
       <use xlink:href="#Cmmi10-bc" transform="translate(62.132454 0.873437)"/>
       <path d="M 0 13.373437 
L 0 19.623437 
L 35 19.623437 
L 35 13.373437 
L 0 13.373437 
z
"/>
      </g>
     </g>
    </g>
    <g id="xtick_3">
     <g id="line2d_3">
      <g>
       <use xlink:href="#mfad4c97808" x="228.580621" y="290.355219" style="stroke: #000000; stroke-width: 0.8"/>
      </g>
     </g>
     <g id="text_2">
      <!-- $\pi$ -->
      <g transform="translate(225.730621 304.953657) scale(0.1 -0.1)">
       <use xlink:href="#Cmmi10-bc" transform="translate(0 0.890625)"/>
      </g>
     </g>
    </g>
    <g id="xtick_4">
     <g id="line2d_4">
      <g>
       <use xlink:href="#mfad4c97808" x="332.589682" y="290.355219" style="stroke: #000000; stroke-width: 0.8"/>
      </g>
     </g>
     <g id="text_3">
      <!-- $\frac{3}{2} \, \pi$ -->
      <g transform="translate(326.589682 305.955219) scale(0.1 -0.1)">
       <defs>
        <path id="Cmr10-33" d="M 609 494 
Q 759 275 1012 169 
Q 1266 63 1556 63 
Q 1928 63 2084 380 
Q 2241 697 2241 1100 
Q 2241 1281 2208 1462 
Q 2175 1644 2097 1800 
Q 2019 1956 1883 2050 
Q 1747 2144 1550 2144 
L 1125 2144 
Q 1069 2144 1069 2203 
L 1069 2259 
Q 1069 2309 1125 2309 
L 1478 2338 
Q 1703 2338 1851 2506 
Q 2000 2675 2069 2917 
Q 2138 3159 2138 3378 
Q 2138 3684 1994 3881 
Q 1850 4078 1556 4078 
Q 1313 4078 1091 3986 
Q 869 3894 738 3706 
Q 750 3709 759 3711 
Q 769 3713 781 3713 
Q 925 3713 1022 3613 
Q 1119 3513 1119 3372 
Q 1119 3234 1022 3134 
Q 925 3034 781 3034 
Q 641 3034 541 3134 
Q 441 3234 441 3372 
Q 441 3647 606 3850 
Q 772 4053 1033 4158 
Q 1294 4263 1556 4263 
Q 1750 4263 1965 4205 
Q 2181 4147 2356 4039 
Q 2531 3931 2642 3762 
Q 2753 3594 2753 3378 
Q 2753 3109 2633 2881 
Q 2513 2653 2303 2487 
Q 2094 2322 1844 2241 
Q 2122 2188 2372 2031 
Q 2622 1875 2773 1631 
Q 2925 1388 2925 1106 
Q 2925 753 2731 467 
Q 2538 181 2222 20 
Q 1906 -141 1556 -141 
Q 1256 -141 954 -26 
Q 653 88 461 316 
Q 269 544 269 863 
Q 269 1022 375 1128 
Q 481 1234 641 1234 
Q 744 1234 830 1186 
Q 916 1138 964 1050 
Q 1013 963 1013 863 
Q 1013 706 903 600 
Q 794 494 641 494 
L 609 494 
z
" transform="scale(0.015625)"/>
       </defs>
       <use xlink:href="#Cmr10-33" transform="translate(0 39.373438) scale(0.7)"/>
       <use xlink:href="#Cmr10-32" transform="translate(0 -40.045312) scale(0.7)"/>
       <use xlink:href="#Cmmi10-bc" transform="translate(62.132454 0.33125)"/>
       <path d="M 0 12.83125 
L 0 19.08125 
L 35 19.08125 
L 35 12.83125 
L 0 12.83125 
z
"/>
      </g>
     </g>
    </g>
    <g id="xtick_5">
     <g id="line2d_5">
      <g>
       <use xlink:href="#mfad4c97808" x="436.598743" y="290.355219" style="stroke: #000000; stroke-width: 0.8"/>
      </g>
     </g>
     <g id="text_4">
      <!-- $2 \, \pi$ -->
      <g transform="translate(430.498743 304.953657) scale(0.1 -0.1)">
       <use xlink:href="#Cmr10-32" transform="translate(0 0.390625)"/>
       <use xlink:href="#Cmmi10-bc" transform="translate(64.632454 0.390625)"/>
      </g>
     </g>
    </g>
   </g>
   <g id="matplotlib.axis_2">
    <g id="ytick_1">
     <g id="line2d_6">
      <defs>
       <path id="m3715718638" d="M 0 0 
L -3.5 0 
" style="stroke: #000000; stroke-width: 0.8"/>
      </defs>
      <g>
       <use xlink:href="#m3715718638" x="20.5625" y="151.891599" style="stroke: #000000; stroke-width: 0.8"/>
      </g>
     </g>
     <g id="text_5">
      <!-- 1 -->
      <g transform="translate(7.2 155.690818) scale(0.1 -0.1)">
       <defs>
        <path id="DejaVuSans-31" d="M 794 531 
L 1825 531 
L 1825 4091 
L 703 3866 
L 703 4441 
L 1819 4666 
L 2450 4666 
L 2450 531 
L 3481 531 
L 3481 0 
L 794 0 
L 794 531 
z
" transform="scale(0.015625)"/>
       </defs>
       <use xlink:href="#DejaVuSans-31"/>
      </g>
     </g>
    </g>
    <g id="ytick_2">
     <g id="line2d_7">
      <g>
       <use xlink:href="#m3715718638" x="20.5625" y="13.427978" style="stroke: #000000; stroke-width: 0.8"/>
      </g>
     </g>
     <g id="text_6">
      <!-- 2 -->
      <g transform="translate(7.2 17.227197) scale(0.1 -0.1)">
       <defs>
        <path id="DejaVuSans-32" d="M 1228 531 
L 3431 531 
L 3431 0 
L 469 0 
L 469 531 
Q 828 903 1448 1529 
Q 2069 2156 2228 2338 
Q 2531 2678 2651 2914 
Q 2772 3150 2772 3378 
Q 2772 3750 2511 3984 
Q 2250 4219 1831 4219 
Q 1534 4219 1204 4116 
Q 875 4013 500 3803 
L 500 4441 
Q 881 4594 1212 4672 
Q 1544 4750 1819 4750 
Q 2544 4750 2975 4387 
Q 3406 4025 3406 3419 
Q 3406 3131 3298 2873 
Q 3191 2616 2906 2266 
Q 2828 2175 2409 1742 
Q 1991 1309 1228 531 
z
" transform="scale(0.015625)"/>
       </defs>
       <use xlink:href="#DejaVuSans-32"/>
      </g>
     </g>
    </g>
   </g>
   <g id="line2d_8">
    <path d="M 20.5625 290.355219 
L 24.331363 282.03012 
L 26.88428 275.897206 
L 29.585416 268.990052 
L 32.893382 259.971592 
L 36.151113 250.523728 
L 40.749413 236.316344 
L 44.293624 224.748513 
L 47.699677 213.198651 
L 53.357217 193.268579 
L 62.792121 158.826217 
L 72.965997 121.792408 
L 78.181193 103.5912 
L 81.979419 90.912854 
L 86.412578 76.907026 
L 90.171874 65.825372 
L 93.055896 57.887703 
L 95.811717 50.804983 
L 99.414957 42.344791 
L 102.448366 35.975355 
L 104.756749 31.615726 
L 107.623235 26.814364 
L 109.777504 23.667465 
L 111.570507 21.358381 
L 113.80182 18.88634 
L 115.854208 17.012338 
L 117.80746 15.589758 
L 119.545208 14.623079 
L 121.282956 13.93999 
L 123.326107 13.501454 
L 125.331578 13.455341 
L 126.441622 13.593612 
L 127.551666 13.84848 
L 128.681354 14.227345 
L 130.547722 15.116414 
L 132.835895 16.650892 
L 134.157919 17.758655 
L 136.692152 20.329321 
L 139.222822 23.473161 
L 140.541282 25.334979 
L 142.980505 29.174626 
L 145.294229 33.278802 
L 147.350579 37.291839 
L 150.978902 45.174595 
L 154.023497 52.53552 
L 157.164692 60.792542 
L 160.22631 69.436671 
L 163.743752 80.02417 
L 167.609435 92.370837 
L 170.403967 101.694433 
L 177.290162 125.7695 
L 185.044256 154.01762 
L 196.362305 195.333821 
L 202.902208 218.192779 
L 208.551559 236.81971 
L 212.199777 248.145969 
L 215.048138 256.550016 
L 218.492565 266.151912 
L 221.201224 273.243067 
L 224.734059 281.849263 
L 227.277872 287.577564 
L 230.158045 293.574962 
L 232.849026 298.700301 
L 235.404541 303.134363 
L 237.205256 306.003722 
L 239.906594 309.912311 
L 242.715927 313.475277 
L 245.53752 316.544204 
L 247.711294 318.565761 
L 249.304146 319.861074 
L 252.16674 321.802462 
L 254.124825 322.851816 
L 256.602834 323.866579 
L 259.447566 324.617537 
L 262.021114 324.934956 
L 263.533403 324.969231 
L 265.483417 324.85534 
L 267.686311 324.523557 
L 269.218654 324.172928 
L 272.497758 323.117978 
L 275.114811 322.005739 
L 277.561982 320.774351 
L 281.225554 318.635228 
L 283.864521 316.912589 
L 289.196223 313.097547 
L 306.588929 300.091805 
L 310.650755 297.476679 
L 314.396292 295.354321 
L 318.844102 293.264215 
L 321.150785 292.385602 
L 324.825157 291.29959 
L 327.297511 290.795826 
L 330.872272 290.401776 
L 333.051672 290.358589 
L 335.785254 290.516251 
L 339.711552 291.150747 
L 344.157239 292.430708 
L 348.937398 294.426557 
L 350.350484 295.129504 
L 354.117124 297.228912 
L 358.414879 299.972949 
L 362.990923 303.209935 
L 370.501006 308.915812 
L 377.647545 314.326463 
L 382.44099 317.664012 
L 387.17851 320.535733 
L 390.272894 322.102368 
L 392.090057 322.88642 
L 395.186142 323.960131 
L 396.753659 324.366251 
L 399.3546 324.817719 
L 400.92773 324.947584 
L 402.750673 324.955021 
L 405.648449 324.633093 
L 406.605012 324.432794 
L 408.43201 323.915229 
L 410.259008 323.215175 
L 413.205125 321.687225 
L 414.820043 320.633894 
L 416.434961 319.423634 
L 418.550075 317.596442 
L 420.69313 315.459963 
L 424.011569 311.574897 
L 426.903641 307.609378 
L 429.80414 303.085901 
L 432.816222 297.809362 
L 435.034585 293.548545 
L 436.598743 290.355219 
L 436.598743 290.355219 
" clip-path="url(#p48b40567c6)" style="fill: none; stroke: #0000ff; stroke-linecap: square"/>
   </g>
   <g id="patch_3">
    <path d="M 20.5625 331.2 
L 20.5625 7.2 
" style="fill: none; stroke: #000000; stroke-width: 0.8; stroke-linejoin: miter; stroke-linecap: square"/>
   </g>
   <g id="patch_4">
    <path d="M 12.241775 290.355219 
L 444.919467 290.355219 
" style="fill: none; stroke: #000000; stroke-width: 0.8; stroke-linejoin: miter; stroke-linecap: square"/>
   </g>
  </g>
 </g>
 <defs>
  <clipPath id="p48b40567c6">
   <rect x="12.241775" y="7.2" width="432.677692" height="324"/>
  </clipPath>
 </defs>
</svg>
